ISO-10303-21;
HEADER;
/* Generated by software containing ST-Developer
 * from STEP Tools, Inc. (www.steptools.com) 
 */

FILE_DESCRIPTION(
/* description */ (''),
/* implementation_level */ '2;1');

FILE_NAME(
/* name */ 'Front_frame v9.step',
/* time_stamp */ '2025-07-25T21:58:05+02:00',
/* author */ (''),
/* organization */ (''),
/* preprocessor_version */ 'ST-DEVELOPER v20.1',
/* originating_system */ 'Autodesk Translation Framework v14.10.0.0',
/* authorisation */ '');

FILE_SCHEMA (('AUTOMOTIVE_DESIGN { 1 0 10303 214 3 1 1 }'));
ENDSEC;

DATA;
#10=MECHANICAL_DESIGN_GEOMETRIC_PRESENTATION_REPRESENTATION('',(#13),#1814);
#11=SHAPE_REPRESENTATION_RELATIONSHIP('SRR','None',#1821,#12);
#12=ADVANCED_BREP_SHAPE_REPRESENTATION('',(#14),#1813);
#13=STYLED_ITEM('',(#1830),#14);
#14=MANIFOLD_SOLID_BREP('Body1',#1094);
#15=CYLINDRICAL_SURFACE('',#1142,2.5);
#16=CYLINDRICAL_SURFACE('',#1146,2.5);
#17=CYLINDRICAL_SURFACE('',#1150,2.5);
#18=CYLINDRICAL_SURFACE('',#1154,2.5);
#19=CYLINDRICAL_SURFACE('',#1158,2.5);
#20=CYLINDRICAL_SURFACE('',#1162,2.5);
#21=CYLINDRICAL_SURFACE('',#1170,9.75);
#22=CYLINDRICAL_SURFACE('',#1198,2.5);
#23=CYLINDRICAL_SURFACE('',#1199,2.5);
#24=CYLINDRICAL_SURFACE('',#1200,2.5);
#25=CYLINDRICAL_SURFACE('',#1201,2.5);
#26=CONICAL_SURFACE('',#1140,3.,0.785398163397449);
#27=CONICAL_SURFACE('',#1144,3.,0.785398163397449);
#28=CONICAL_SURFACE('',#1148,3.,0.785398163397449);
#29=CONICAL_SURFACE('',#1152,3.,0.785398163397449);
#30=CONICAL_SURFACE('',#1156,3.,0.785398163397449);
#31=CONICAL_SURFACE('',#1160,3.,0.785398163397449);
#32=CIRCLE('',#1113,3.5);
#33=CIRCLE('',#1114,3.5);
#34=CIRCLE('',#1115,3.5);
#35=CIRCLE('',#1116,2.5);
#36=CIRCLE('',#1117,2.5);
#37=CIRCLE('',#1118,2.5);
#38=CIRCLE('',#1119,2.5);
#39=CIRCLE('',#1120,9.75);
#40=CIRCLE('',#1121,3.5);
#41=CIRCLE('',#1122,3.5);
#42=CIRCLE('',#1123,3.50000000000001);
#43=CIRCLE('',#1133,9.75);
#44=CIRCLE('',#1141,2.5);
#45=CIRCLE('',#1143,2.5);
#46=CIRCLE('',#1145,2.5);
#47=CIRCLE('',#1147,2.5);
#48=CIRCLE('',#1149,2.5);
#49=CIRCLE('',#1151,2.5);
#50=CIRCLE('',#1153,2.5);
#51=CIRCLE('',#1155,2.5);
#52=CIRCLE('',#1157,2.5);
#53=CIRCLE('',#1159,2.5);
#54=CIRCLE('',#1161,2.5);
#55=CIRCLE('',#1163,2.5);
#56=CIRCLE('',#1175,2.5);
#57=CIRCLE('',#1177,2.5);
#58=CIRCLE('',#1179,2.5);
#59=CIRCLE('',#1181,2.5);
#60=FACE_BOUND('',#138,.T.);
#61=FACE_BOUND('',#143,.T.);
#62=FACE_BOUND('',#144,.T.);
#63=FACE_BOUND('',#145,.T.);
#64=FACE_BOUND('',#146,.T.);
#65=FACE_BOUND('',#147,.T.);
#66=FACE_BOUND('',#148,.T.);
#67=FACE_BOUND('',#149,.T.);
#68=FACE_BOUND('',#150,.T.);
#69=FACE_BOUND('',#160,.T.);
#70=FACE_BOUND('',#161,.T.);
#71=FACE_OUTER_BOUND('',#137,.T.);
#72=FACE_OUTER_BOUND('',#139,.T.);
#73=FACE_OUTER_BOUND('',#140,.T.);
#74=FACE_OUTER_BOUND('',#141,.T.);
#75=FACE_OUTER_BOUND('',#142,.T.);
#76=FACE_OUTER_BOUND('',#151,.T.);
#77=FACE_OUTER_BOUND('',#152,.T.);
#78=FACE_OUTER_BOUND('',#153,.T.);
#79=FACE_OUTER_BOUND('',#154,.T.);
#80=FACE_OUTER_BOUND('',#155,.T.);
#81=FACE_OUTER_BOUND('',#156,.T.);
#82=FACE_OUTER_BOUND('',#157,.T.);
#83=FACE_OUTER_BOUND('',#158,.T.);
#84=FACE_OUTER_BOUND('',#159,.T.);
#85=FACE_OUTER_BOUND('',#162,.T.);
#86=FACE_OUTER_BOUND('',#163,.T.);
#87=FACE_OUTER_BOUND('',#164,.T.);
#88=FACE_OUTER_BOUND('',#165,.T.);
#89=FACE_OUTER_BOUND('',#166,.T.);
#90=FACE_OUTER_BOUND('',#167,.T.);
#91=FACE_OUTER_BOUND('',#168,.T.);
#92=FACE_OUTER_BOUND('',#169,.T.);
#93=FACE_OUTER_BOUND('',#170,.T.);
#94=FACE_OUTER_BOUND('',#171,.T.);
#95=FACE_OUTER_BOUND('',#172,.T.);
#96=FACE_OUTER_BOUND('',#173,.T.);
#97=FACE_OUTER_BOUND('',#174,.T.);
#98=FACE_OUTER_BOUND('',#175,.T.);
#99=FACE_OUTER_BOUND('',#176,.T.);
#100=FACE_OUTER_BOUND('',#177,.T.);
#101=FACE_OUTER_BOUND('',#178,.T.);
#102=FACE_OUTER_BOUND('',#179,.T.);
#103=FACE_OUTER_BOUND('',#180,.T.);
#104=FACE_OUTER_BOUND('',#181,.T.);
#105=FACE_OUTER_BOUND('',#182,.T.);
#106=FACE_OUTER_BOUND('',#183,.T.);
#107=FACE_OUTER_BOUND('',#184,.T.);
#108=FACE_OUTER_BOUND('',#185,.T.);
#109=FACE_OUTER_BOUND('',#186,.T.);
#110=FACE_OUTER_BOUND('',#187,.T.);
#111=FACE_OUTER_BOUND('',#188,.T.);
#112=FACE_OUTER_BOUND('',#189,.T.);
#113=FACE_OUTER_BOUND('',#190,.T.);
#114=FACE_OUTER_BOUND('',#191,.T.);
#115=FACE_OUTER_BOUND('',#192,.T.);
#116=FACE_OUTER_BOUND('',#193,.T.);
#117=FACE_OUTER_BOUND('',#194,.T.);
#118=FACE_OUTER_BOUND('',#195,.T.);
#119=FACE_OUTER_BOUND('',#196,.T.);
#120=FACE_OUTER_BOUND('',#197,.T.);
#121=FACE_OUTER_BOUND('',#198,.T.);
#122=FACE_OUTER_BOUND('',#199,.T.);
#123=FACE_OUTER_BOUND('',#200,.T.);
#124=FACE_OUTER_BOUND('',#201,.T.);
#125=FACE_OUTER_BOUND('',#202,.T.);
#126=FACE_OUTER_BOUND('',#203,.T.);
#127=FACE_OUTER_BOUND('',#204,.T.);
#128=FACE_OUTER_BOUND('',#205,.T.);
#129=FACE_OUTER_BOUND('',#206,.T.);
#130=FACE_OUTER_BOUND('',#207,.T.);
#131=FACE_OUTER_BOUND('',#208,.T.);
#132=FACE_OUTER_BOUND('',#209,.T.);
#133=FACE_OUTER_BOUND('',#210,.T.);
#134=FACE_OUTER_BOUND('',#211,.T.);
#135=FACE_OUTER_BOUND('',#212,.T.);
#136=FACE_OUTER_BOUND('',#213,.T.);
#137=EDGE_LOOP('',(#685,#686,#687,#688,#689,#690,#691,#692));
#138=EDGE_LOOP('',(#693,#694,#695,#696));
#139=EDGE_LOOP('',(#697,#698,#699,#700));
#140=EDGE_LOOP('',(#701,#702,#703,#704));
#141=EDGE_LOOP('',(#705,#706,#707,#708,#709));
#142=EDGE_LOOP('',(#710,#711,#712,#713,#714,#715,#716,#717));
#143=EDGE_LOOP('',(#718));
#144=EDGE_LOOP('',(#719));
#145=EDGE_LOOP('',(#720));
#146=EDGE_LOOP('',(#721,#722,#723,#724,#725,#726,#727,#728,#729,#730,#731,
#732,#733,#734,#735,#736));
#147=EDGE_LOOP('',(#737));
#148=EDGE_LOOP('',(#738));
#149=EDGE_LOOP('',(#739));
#150=EDGE_LOOP('',(#740));
#151=EDGE_LOOP('',(#741,#742,#743,#744));
#152=EDGE_LOOP('',(#745,#746,#747,#748,#749,#750));
#153=EDGE_LOOP('',(#751,#752,#753));
#154=EDGE_LOOP('',(#754,#755,#756,#757));
#155=EDGE_LOOP('',(#758,#759,#760,#761,#762));
#156=EDGE_LOOP('',(#763,#764,#765));
#157=EDGE_LOOP('',(#766,#767,#768,#769));
#158=EDGE_LOOP('',(#770,#771,#772,#773,#774));
#159=EDGE_LOOP('',(#775,#776,#777,#778));
#160=EDGE_LOOP('',(#779));
#161=EDGE_LOOP('',(#780,#781,#782,#783));
#162=EDGE_LOOP('',(#784,#785,#786,#787,#788));
#163=EDGE_LOOP('',(#789,#790,#791,#792,#793,#794));
#164=EDGE_LOOP('',(#795,#796,#797,#798));
#165=EDGE_LOOP('',(#799,#800,#801));
#166=EDGE_LOOP('',(#802,#803,#804,#805));
#167=EDGE_LOOP('',(#806,#807,#808,#809,#810));
#168=EDGE_LOOP('',(#811,#812,#813,#814));
#169=EDGE_LOOP('',(#815,#816,#817,#818));
#170=EDGE_LOOP('',(#819,#820,#821,#822));
#171=EDGE_LOOP('',(#823,#824,#825,#826));
#172=EDGE_LOOP('',(#827,#828,#829,#830));
#173=EDGE_LOOP('',(#831,#832,#833,#834));
#174=EDGE_LOOP('',(#835,#836,#837,#838));
#175=EDGE_LOOP('',(#839,#840,#841,#842));
#176=EDGE_LOOP('',(#843,#844,#845,#846));
#177=EDGE_LOOP('',(#847,#848,#849,#850));
#178=EDGE_LOOP('',(#851,#852,#853,#854));
#179=EDGE_LOOP('',(#855,#856,#857,#858));
#180=EDGE_LOOP('',(#859));
#181=EDGE_LOOP('',(#860));
#182=EDGE_LOOP('',(#861));
#183=EDGE_LOOP('',(#862));
#184=EDGE_LOOP('',(#863));
#185=EDGE_LOOP('',(#864));
#186=EDGE_LOOP('',(#865,#866,#867,#868));
#187=EDGE_LOOP('',(#869,#870,#871,#872));
#188=EDGE_LOOP('',(#873,#874,#875,#876));
#189=EDGE_LOOP('',(#877,#878,#879,#880,#881,#882,#883,#884));
#190=EDGE_LOOP('',(#885));
#191=EDGE_LOOP('',(#886));
#192=EDGE_LOOP('',(#887));
#193=EDGE_LOOP('',(#888));
#194=EDGE_LOOP('',(#889,#890,#891,#892));
#195=EDGE_LOOP('',(#893,#894,#895,#896));
#196=EDGE_LOOP('',(#897,#898,#899,#900));
#197=EDGE_LOOP('',(#901,#902,#903,#904));
#198=EDGE_LOOP('',(#905,#906,#907,#908));
#199=EDGE_LOOP('',(#909,#910,#911,#912));
#200=EDGE_LOOP('',(#913,#914,#915,#916));
#201=EDGE_LOOP('',(#917,#918,#919,#920));
#202=EDGE_LOOP('',(#921,#922,#923,#924));
#203=EDGE_LOOP('',(#925,#926,#927,#928));
#204=EDGE_LOOP('',(#929,#930,#931,#932));
#205=EDGE_LOOP('',(#933,#934,#935,#936));
#206=EDGE_LOOP('',(#937,#938,#939,#940));
#207=EDGE_LOOP('',(#941,#942,#943,#944,#945));
#208=EDGE_LOOP('',(#946,#947,#948,#949));
#209=EDGE_LOOP('',(#950,#951,#952,#953,#954));
#210=EDGE_LOOP('',(#955,#956,#957,#958,#959,#960));
#211=EDGE_LOOP('',(#961,#962,#963,#964,#965,#966));
#212=EDGE_LOOP('',(#967,#968,#969,#970,#971,#972));
#213=EDGE_LOOP('',(#973,#974,#975,#976,#977,#978));
#214=LINE('',#1515,#333);
#215=LINE('',#1517,#334);
#216=LINE('',#1519,#335);
#217=LINE('',#1521,#336);
#218=LINE('',#1523,#337);
#219=LINE('',#1525,#338);
#220=LINE('',#1527,#339);
#221=LINE('',#1528,#340);
#222=LINE('',#1531,#341);
#223=LINE('',#1533,#342);
#224=LINE('',#1535,#343);
#225=LINE('',#1536,#344);
#226=LINE('',#1539,#345);
#227=LINE('',#1541,#346);
#228=LINE('',#1542,#347);
#229=LINE('',#1545,#348);
#230=LINE('',#1546,#349);
#231=LINE('',#1550,#350);
#232=LINE('',#1552,#351);
#233=LINE('',#1554,#352);
#234=LINE('',#1556,#353);
#235=LINE('',#1557,#354);
#236=LINE('',#1560,#355);
#237=LINE('',#1562,#356);
#238=LINE('',#1564,#357);
#239=LINE('',#1566,#358);
#240=LINE('',#1568,#359);
#241=LINE('',#1570,#360);
#242=LINE('',#1571,#361);
#243=LINE('',#1580,#362);
#244=LINE('',#1583,#363);
#245=LINE('',#1585,#364);
#246=LINE('',#1587,#365);
#247=LINE('',#1590,#366);
#248=LINE('',#1593,#367);
#249=LINE('',#1595,#368);
#250=LINE('',#1597,#369);
#251=LINE('',#1600,#370);
#252=LINE('',#1602,#371);
#253=LINE('',#1604,#372);
#254=LINE('',#1605,#373);
#255=LINE('',#1616,#374);
#256=LINE('',#1617,#375);
#257=LINE('',#1620,#376);
#258=LINE('',#1622,#377);
#259=LINE('',#1624,#378);
#260=LINE('',#1625,#379);
#261=LINE('',#1627,#380);
#262=LINE('',#1630,#381);
#263=LINE('',#1631,#382);
#264=LINE('',#1634,#383);
#265=LINE('',#1635,#384);
#266=LINE('',#1637,#385);
#267=LINE('',#1640,#386);
#268=LINE('',#1641,#387);
#269=LINE('',#1644,#388);
#270=LINE('',#1646,#389);
#271=LINE('',#1647,#390);
#272=LINE('',#1650,#391);
#273=LINE('',#1651,#392);
#274=LINE('',#1656,#393);
#275=LINE('',#1658,#394);
#276=LINE('',#1660,#395);
#277=LINE('',#1661,#396);
#278=LINE('',#1664,#397);
#279=LINE('',#1666,#398);
#280=LINE('',#1667,#399);
#281=LINE('',#1670,#400);
#282=LINE('',#1671,#401);
#283=LINE('',#1672,#402);
#284=LINE('',#1674,#403);
#285=LINE('',#1676,#404);
#286=LINE('',#1681,#405);
#287=LINE('',#1685,#406);
#288=LINE('',#1689,#407);
#289=LINE('',#1693,#408);
#290=LINE('',#1697,#409);
#291=LINE('',#1701,#410);
#292=LINE('',#1705,#411);
#293=LINE('',#1709,#412);
#294=LINE('',#1713,#413);
#295=LINE('',#1717,#414);
#296=LINE('',#1721,#415);
#297=LINE('',#1725,#416);
#298=LINE('',#1734,#417);
#299=LINE('',#1738,#418);
#300=LINE('',#1740,#419);
#301=LINE('',#1742,#420);
#302=LINE('',#1743,#421);
#303=LINE('',#1746,#422);
#304=LINE('',#1748,#423);
#305=LINE('',#1749,#424);
#306=LINE('',#1751,#425);
#307=LINE('',#1752,#426);
#308=LINE('',#1753,#427);
#309=LINE('',#1754,#428);
#310=LINE('',#1769,#429);
#311=LINE('',#1770,#430);
#312=LINE('',#1771,#431);
#313=LINE('',#1773,#432);
#314=LINE('',#1774,#433);
#315=LINE('',#1776,#434);
#316=LINE('',#1779,#435);
#317=LINE('',#1781,#436);
#318=LINE('',#1782,#437);
#319=LINE('',#1784,#438);
#320=LINE('',#1785,#439);
#321=LINE('',#1787,#440);
#322=LINE('',#1788,#441);
#323=LINE('',#1790,#442);
#324=LINE('',#1792,#443);
#325=LINE('',#1793,#444);
#326=LINE('',#1795,#445);
#327=LINE('',#1799,#446);
#328=LINE('',#1801,#447);
#329=LINE('',#1804,#448);
#330=LINE('',#1806,#449);
#331=LINE('',#1808,#450);
#332=LINE('',#1810,#451);
#333=VECTOR('',#1206,10.);
#334=VECTOR('',#1207,10.);
#335=VECTOR('',#1208,10.);
#336=VECTOR('',#1209,10.);
#337=VECTOR('',#1210,10.);
#338=VECTOR('',#1211,10.);
#339=VECTOR('',#1212,10.);
#340=VECTOR('',#1213,10.);
#341=VECTOR('',#1214,10.);
#342=VECTOR('',#1215,10.);
#343=VECTOR('',#1216,10.);
#344=VECTOR('',#1217,10.);
#345=VECTOR('',#1220,10.);
#346=VECTOR('',#1221,10.);
#347=VECTOR('',#1222,10.);
#348=VECTOR('',#1225,10.);
#349=VECTOR('',#1226,10.);
#350=VECTOR('',#1229,10.);
#351=VECTOR('',#1230,10.);
#352=VECTOR('',#1231,10.);
#353=VECTOR('',#1232,10.);
#354=VECTOR('',#1233,10.);
#355=VECTOR('',#1236,10.);
#356=VECTOR('',#1237,10.);
#357=VECTOR('',#1238,10.);
#358=VECTOR('',#1239,10.);
#359=VECTOR('',#1240,10.);
#360=VECTOR('',#1241,10.);
#361=VECTOR('',#1242,10.);
#362=VECTOR('',#1249,10.);
#363=VECTOR('',#1252,10.);
#364=VECTOR('',#1253,10.);
#365=VECTOR('',#1254,10.);
#366=VECTOR('',#1257,10.);
#367=VECTOR('',#1260,10.);
#368=VECTOR('',#1261,10.);
#369=VECTOR('',#1262,10.);
#370=VECTOR('',#1265,10.);
#371=VECTOR('',#1266,10.);
#372=VECTOR('',#1267,10.);
#373=VECTOR('',#1268,10.);
#374=VECTOR('',#1279,10.);
#375=VECTOR('',#1280,10.);
#376=VECTOR('',#1283,10.);
#377=VECTOR('',#1284,10.);
#378=VECTOR('',#1285,10.);
#379=VECTOR('',#1286,10.);
#380=VECTOR('',#1289,10.);
#381=VECTOR('',#1292,10.);
#382=VECTOR('',#1293,10.);
#383=VECTOR('',#1296,10.);
#384=VECTOR('',#1297,10.);
#385=VECTOR('',#1300,10.);
#386=VECTOR('',#1303,10.);
#387=VECTOR('',#1304,10.);
#388=VECTOR('',#1307,10.);
#389=VECTOR('',#1308,10.);
#390=VECTOR('',#1309,10.);
#391=VECTOR('',#1312,10.);
#392=VECTOR('',#1313,10.);
#393=VECTOR('',#1316,10.);
#394=VECTOR('',#1317,10.);
#395=VECTOR('',#1318,10.);
#396=VECTOR('',#1319,10.);
#397=VECTOR('',#1322,10.);
#398=VECTOR('',#1323,10.);
#399=VECTOR('',#1324,10.);
#400=VECTOR('',#1327,10.);
#401=VECTOR('',#1328,10.);
#402=VECTOR('',#1329,10.);
#403=VECTOR('',#1332,10.);
#404=VECTOR('',#1335,10.);
#405=VECTOR('',#1342,3.);
#406=VECTOR('',#1347,2.5);
#407=VECTOR('',#1352,3.);
#408=VECTOR('',#1357,2.5);
#409=VECTOR('',#1362,3.);
#410=VECTOR('',#1367,2.5);
#411=VECTOR('',#1372,3.);
#412=VECTOR('',#1377,2.5);
#413=VECTOR('',#1382,3.);
#414=VECTOR('',#1387,2.5);
#415=VECTOR('',#1392,3.);
#416=VECTOR('',#1397,2.5);
#417=VECTOR('',#1414,9.75);
#418=VECTOR('',#1417,10.);
#419=VECTOR('',#1418,10.);
#420=VECTOR('',#1419,10.);
#421=VECTOR('',#1420,10.);
#422=VECTOR('',#1423,10.);
#423=VECTOR('',#1424,10.);
#424=VECTOR('',#1425,10.);
#425=VECTOR('',#1428,10.);
#426=VECTOR('',#1429,10.);
#427=VECTOR('',#1430,10.);
#428=VECTOR('',#1431,10.);
#429=VECTOR('',#1450,10.);
#430=VECTOR('',#1451,10.);
#431=VECTOR('',#1452,10.);
#432=VECTOR('',#1455,10.);
#433=VECTOR('',#1456,10.);
#434=VECTOR('',#1459,10.);
#435=VECTOR('',#1464,10.);
#436=VECTOR('',#1467,10.);
#437=VECTOR('',#1468,10.);
#438=VECTOR('',#1471,10.);
#439=VECTOR('',#1472,10.);
#440=VECTOR('',#1475,10.);
#441=VECTOR('',#1476,10.);
#442=VECTOR('',#1479,10.);
#443=VECTOR('',#1482,10.);
#444=VECTOR('',#1483,10.);
#445=VECTOR('',#1486,10.);
#446=VECTOR('',#1493,10.);
#447=VECTOR('',#1496,10.);
#448=VECTOR('',#1501,2.5);
#449=VECTOR('',#1504,2.5);
#450=VECTOR('',#1507,2.5);
#451=VECTOR('',#1510,2.5);
#452=VERTEX_POINT('',#1513);
#453=VERTEX_POINT('',#1514);
#454=VERTEX_POINT('',#1516);
#455=VERTEX_POINT('',#1518);
#456=VERTEX_POINT('',#1520);
#457=VERTEX_POINT('',#1522);
#458=VERTEX_POINT('',#1524);
#459=VERTEX_POINT('',#1526);
#460=VERTEX_POINT('',#1529);
#461=VERTEX_POINT('',#1530);
#462=VERTEX_POINT('',#1532);
#463=VERTEX_POINT('',#1534);
#464=VERTEX_POINT('',#1538);
#465=VERTEX_POINT('',#1540);
#466=VERTEX_POINT('',#1544);
#467=VERTEX_POINT('',#1548);
#468=VERTEX_POINT('',#1549);
#469=VERTEX_POINT('',#1551);
#470=VERTEX_POINT('',#1553);
#471=VERTEX_POINT('',#1555);
#472=VERTEX_POINT('',#1559);
#473=VERTEX_POINT('',#1561);
#474=VERTEX_POINT('',#1563);
#475=VERTEX_POINT('',#1565);
#476=VERTEX_POINT('',#1567);
#477=VERTEX_POINT('',#1569);
#478=VERTEX_POINT('',#1572);
#479=VERTEX_POINT('',#1574);
#480=VERTEX_POINT('',#1576);
#481=VERTEX_POINT('',#1578);
#482=VERTEX_POINT('',#1579);
#483=VERTEX_POINT('',#1582);
#484=VERTEX_POINT('',#1584);
#485=VERTEX_POINT('',#1586);
#486=VERTEX_POINT('',#1589);
#487=VERTEX_POINT('',#1592);
#488=VERTEX_POINT('',#1594);
#489=VERTEX_POINT('',#1596);
#490=VERTEX_POINT('',#1599);
#491=VERTEX_POINT('',#1601);
#492=VERTEX_POINT('',#1603);
#493=VERTEX_POINT('',#1606);
#494=VERTEX_POINT('',#1608);
#495=VERTEX_POINT('',#1610);
#496=VERTEX_POINT('',#1612);
#497=VERTEX_POINT('',#1615);
#498=VERTEX_POINT('',#1619);
#499=VERTEX_POINT('',#1621);
#500=VERTEX_POINT('',#1623);
#501=VERTEX_POINT('',#1629);
#502=VERTEX_POINT('',#1633);
#503=VERTEX_POINT('',#1639);
#504=VERTEX_POINT('',#1643);
#505=VERTEX_POINT('',#1645);
#506=VERTEX_POINT('',#1649);
#507=VERTEX_POINT('',#1652);
#508=VERTEX_POINT('',#1654);
#509=VERTEX_POINT('',#1655);
#510=VERTEX_POINT('',#1657);
#511=VERTEX_POINT('',#1659);
#512=VERTEX_POINT('',#1663);
#513=VERTEX_POINT('',#1665);
#514=VERTEX_POINT('',#1669);
#515=VERTEX_POINT('',#1680);
#516=VERTEX_POINT('',#1684);
#517=VERTEX_POINT('',#1688);
#518=VERTEX_POINT('',#1692);
#519=VERTEX_POINT('',#1696);
#520=VERTEX_POINT('',#1700);
#521=VERTEX_POINT('',#1704);
#522=VERTEX_POINT('',#1708);
#523=VERTEX_POINT('',#1712);
#524=VERTEX_POINT('',#1716);
#525=VERTEX_POINT('',#1720);
#526=VERTEX_POINT('',#1724);
#527=VERTEX_POINT('',#1736);
#528=VERTEX_POINT('',#1737);
#529=VERTEX_POINT('',#1739);
#530=VERTEX_POINT('',#1741);
#531=VERTEX_POINT('',#1745);
#532=VERTEX_POINT('',#1747);
#533=VERTEX_POINT('',#1756);
#534=VERTEX_POINT('',#1759);
#535=VERTEX_POINT('',#1762);
#536=VERTEX_POINT('',#1765);
#537=VERTEX_POINT('',#1768);
#538=EDGE_CURVE('',#452,#453,#214,.T.);
#539=EDGE_CURVE('',#454,#452,#215,.T.);
#540=EDGE_CURVE('',#455,#454,#216,.T.);
#541=EDGE_CURVE('',#456,#455,#217,.T.);
#542=EDGE_CURVE('',#457,#456,#218,.T.);
#543=EDGE_CURVE('',#458,#457,#219,.T.);
#544=EDGE_CURVE('',#459,#458,#220,.T.);
#545=EDGE_CURVE('',#453,#459,#221,.T.);
#546=EDGE_CURVE('',#460,#461,#222,.T.);
#547=EDGE_CURVE('',#462,#460,#223,.T.);
#548=EDGE_CURVE('',#463,#462,#224,.T.);
#549=EDGE_CURVE('',#461,#463,#225,.T.);
#550=EDGE_CURVE('',#464,#462,#226,.T.);
#551=EDGE_CURVE('',#465,#464,#227,.T.);
#552=EDGE_CURVE('',#465,#463,#228,.T.);
#553=EDGE_CURVE('',#466,#460,#229,.T.);
#554=EDGE_CURVE('',#464,#466,#230,.T.);
#555=EDGE_CURVE('',#467,#468,#231,.T.);
#556=EDGE_CURVE('',#468,#469,#232,.T.);
#557=EDGE_CURVE('',#469,#470,#233,.T.);
#558=EDGE_CURVE('',#470,#471,#234,.T.);
#559=EDGE_CURVE('',#471,#467,#235,.T.);
#560=EDGE_CURVE('',#472,#469,#236,.T.);
#561=EDGE_CURVE('',#473,#472,#237,.T.);
#562=EDGE_CURVE('',#474,#473,#238,.T.);
#563=EDGE_CURVE('',#475,#474,#239,.T.);
#564=EDGE_CURVE('',#476,#475,#240,.T.);
#565=EDGE_CURVE('',#477,#476,#241,.T.);
#566=EDGE_CURVE('',#470,#477,#242,.T.);
#567=EDGE_CURVE('',#478,#478,#32,.T.);
#568=EDGE_CURVE('',#479,#479,#33,.T.);
#569=EDGE_CURVE('',#480,#480,#34,.T.);
#570=EDGE_CURVE('',#481,#482,#243,.T.);
#571=EDGE_CURVE('',#482,#482,#35,.T.);
#572=EDGE_CURVE('',#482,#483,#244,.T.);
#573=EDGE_CURVE('',#483,#484,#245,.T.);
#574=EDGE_CURVE('',#484,#485,#246,.T.);
#575=EDGE_CURVE('',#485,#485,#36,.T.);
#576=EDGE_CURVE('',#485,#486,#247,.T.);
#577=EDGE_CURVE('',#486,#486,#37,.T.);
#578=EDGE_CURVE('',#486,#487,#248,.T.);
#579=EDGE_CURVE('',#487,#488,#249,.T.);
#580=EDGE_CURVE('',#488,#489,#250,.T.);
#581=EDGE_CURVE('',#489,#489,#38,.T.);
#582=EDGE_CURVE('',#489,#490,#251,.T.);
#583=EDGE_CURVE('',#490,#491,#252,.T.);
#584=EDGE_CURVE('',#491,#492,#253,.T.);
#585=EDGE_CURVE('',#492,#481,#254,.T.);
#586=EDGE_CURVE('',#493,#493,#39,.T.);
#587=EDGE_CURVE('',#494,#494,#40,.T.);
#588=EDGE_CURVE('',#495,#495,#41,.T.);
#589=EDGE_CURVE('',#496,#496,#42,.T.);
#590=EDGE_CURVE('',#497,#468,#255,.T.);
#591=EDGE_CURVE('',#472,#497,#256,.T.);
#592=EDGE_CURVE('',#467,#498,#257,.T.);
#593=EDGE_CURVE('',#498,#499,#258,.T.);
#594=EDGE_CURVE('',#499,#500,#259,.T.);
#595=EDGE_CURVE('',#500,#497,#260,.T.);
#596=EDGE_CURVE('',#471,#498,#261,.T.);
#597=EDGE_CURVE('',#501,#477,#262,.T.);
#598=EDGE_CURVE('',#471,#501,#263,.T.);
#599=EDGE_CURVE('',#500,#502,#264,.T.);
#600=EDGE_CURVE('',#502,#473,#265,.T.);
#601=EDGE_CURVE('',#499,#502,#266,.T.);
#602=EDGE_CURVE('',#502,#503,#267,.T.);
#603=EDGE_CURVE('',#474,#503,#268,.T.);
#604=EDGE_CURVE('',#504,#499,#269,.T.);
#605=EDGE_CURVE('',#505,#504,#270,.T.);
#606=EDGE_CURVE('',#503,#505,#271,.T.);
#607=EDGE_CURVE('',#498,#506,#272,.T.);
#608=EDGE_CURVE('',#504,#506,#273,.T.);
#609=EDGE_CURVE('',#507,#507,#43,.T.);
#610=EDGE_CURVE('',#508,#509,#274,.T.);
#611=EDGE_CURVE('',#510,#508,#275,.T.);
#612=EDGE_CURVE('',#511,#510,#276,.T.);
#613=EDGE_CURVE('',#509,#511,#277,.T.);
#614=EDGE_CURVE('',#476,#512,#278,.T.);
#615=EDGE_CURVE('',#512,#513,#279,.T.);
#616=EDGE_CURVE('',#513,#501,#280,.T.);
#617=EDGE_CURVE('',#512,#514,#281,.T.);
#618=EDGE_CURVE('',#514,#505,#282,.T.);
#619=EDGE_CURVE('',#513,#506,#283,.T.);
#620=EDGE_CURVE('',#514,#475,#284,.T.);
#621=EDGE_CURVE('',#506,#501,#285,.T.);
#622=EDGE_CURVE('',#478,#515,#286,.T.);
#623=EDGE_CURVE('',#515,#515,#44,.T.);
#624=EDGE_CURVE('',#515,#516,#287,.T.);
#625=EDGE_CURVE('',#516,#516,#45,.T.);
#626=EDGE_CURVE('',#496,#517,#288,.T.);
#627=EDGE_CURVE('',#517,#517,#46,.T.);
#628=EDGE_CURVE('',#517,#518,#289,.T.);
#629=EDGE_CURVE('',#518,#518,#47,.T.);
#630=EDGE_CURVE('',#479,#519,#290,.T.);
#631=EDGE_CURVE('',#519,#519,#48,.T.);
#632=EDGE_CURVE('',#519,#520,#291,.T.);
#633=EDGE_CURVE('',#520,#520,#49,.T.);
#634=EDGE_CURVE('',#495,#521,#292,.T.);
#635=EDGE_CURVE('',#521,#521,#50,.T.);
#636=EDGE_CURVE('',#521,#522,#293,.T.);
#637=EDGE_CURVE('',#522,#522,#51,.T.);
#638=EDGE_CURVE('',#480,#523,#294,.T.);
#639=EDGE_CURVE('',#523,#523,#52,.T.);
#640=EDGE_CURVE('',#523,#524,#295,.T.);
#641=EDGE_CURVE('',#524,#524,#53,.T.);
#642=EDGE_CURVE('',#494,#525,#296,.T.);
#643=EDGE_CURVE('',#525,#525,#54,.T.);
#644=EDGE_CURVE('',#525,#526,#297,.T.);
#645=EDGE_CURVE('',#526,#526,#55,.T.);
#646=EDGE_CURVE('',#507,#493,#298,.T.);
#647=EDGE_CURVE('',#527,#528,#299,.F.);
#648=EDGE_CURVE('',#528,#529,#300,.T.);
#649=EDGE_CURVE('',#529,#530,#301,.F.);
#650=EDGE_CURVE('',#530,#527,#302,.T.);
#651=EDGE_CURVE('',#531,#528,#303,.T.);
#652=EDGE_CURVE('',#532,#531,#304,.T.);
#653=EDGE_CURVE('',#529,#532,#305,.T.);
#654=EDGE_CURVE('',#481,#527,#306,.T.);
#655=EDGE_CURVE('',#530,#490,#307,.T.);
#656=EDGE_CURVE('',#489,#456,#308,.T.);
#657=EDGE_CURVE('',#482,#455,#309,.T.);
#658=EDGE_CURVE('',#533,#533,#56,.T.);
#659=EDGE_CURVE('',#534,#534,#57,.T.);
#660=EDGE_CURVE('',#535,#535,#58,.T.);
#661=EDGE_CURVE('',#536,#536,#59,.T.);
#662=EDGE_CURVE('',#510,#537,#310,.T.);
#663=EDGE_CURVE('',#537,#465,#311,.T.);
#664=EDGE_CURVE('',#465,#511,#312,.T.);
#665=EDGE_CURVE('',#466,#508,#313,.T.);
#666=EDGE_CURVE('',#464,#509,#314,.T.);
#667=EDGE_CURVE('',#466,#537,#315,.T.);
#668=EDGE_CURVE('',#537,#461,#316,.T.);
#669=EDGE_CURVE('',#454,#483,#317,.T.);
#670=EDGE_CURVE('',#452,#484,#318,.T.);
#671=EDGE_CURVE('',#485,#453,#319,.T.);
#672=EDGE_CURVE('',#486,#459,#320,.T.);
#673=EDGE_CURVE('',#486,#459,#321,.T.);
#674=EDGE_CURVE('',#487,#458,#322,.T.);
#675=EDGE_CURVE('',#485,#453,#323,.T.);
#676=EDGE_CURVE('',#489,#456,#324,.T.);
#677=EDGE_CURVE('',#457,#488,#325,.T.);
#678=EDGE_CURVE('',#482,#455,#326,.T.);
#679=EDGE_CURVE('',#492,#531,#327,.T.);
#680=EDGE_CURVE('',#491,#532,#328,.T.);
#681=EDGE_CURVE('',#459,#534,#329,.T.);
#682=EDGE_CURVE('',#453,#536,#330,.T.);
#683=EDGE_CURVE('',#455,#535,#331,.T.);
#684=EDGE_CURVE('',#456,#533,#332,.T.);
#685=ORIENTED_EDGE('',*,*,#538,.F.);
#686=ORIENTED_EDGE('',*,*,#539,.F.);
#687=ORIENTED_EDGE('',*,*,#540,.F.);
#688=ORIENTED_EDGE('',*,*,#541,.F.);
#689=ORIENTED_EDGE('',*,*,#542,.F.);
#690=ORIENTED_EDGE('',*,*,#543,.F.);
#691=ORIENTED_EDGE('',*,*,#544,.F.);
#692=ORIENTED_EDGE('',*,*,#545,.F.);
#693=ORIENTED_EDGE('',*,*,#546,.F.);
#694=ORIENTED_EDGE('',*,*,#547,.F.);
#695=ORIENTED_EDGE('',*,*,#548,.F.);
#696=ORIENTED_EDGE('',*,*,#549,.F.);
#697=ORIENTED_EDGE('',*,*,#548,.T.);
#698=ORIENTED_EDGE('',*,*,#550,.F.);
#699=ORIENTED_EDGE('',*,*,#551,.F.);
#700=ORIENTED_EDGE('',*,*,#552,.T.);
#701=ORIENTED_EDGE('',*,*,#547,.T.);
#702=ORIENTED_EDGE('',*,*,#553,.F.);
#703=ORIENTED_EDGE('',*,*,#554,.F.);
#704=ORIENTED_EDGE('',*,*,#550,.T.);
#705=ORIENTED_EDGE('',*,*,#555,.T.);
#706=ORIENTED_EDGE('',*,*,#556,.T.);
#707=ORIENTED_EDGE('',*,*,#557,.T.);
#708=ORIENTED_EDGE('',*,*,#558,.T.);
#709=ORIENTED_EDGE('',*,*,#559,.T.);
#710=ORIENTED_EDGE('',*,*,#557,.F.);
#711=ORIENTED_EDGE('',*,*,#560,.F.);
#712=ORIENTED_EDGE('',*,*,#561,.F.);
#713=ORIENTED_EDGE('',*,*,#562,.F.);
#714=ORIENTED_EDGE('',*,*,#563,.F.);
#715=ORIENTED_EDGE('',*,*,#564,.F.);
#716=ORIENTED_EDGE('',*,*,#565,.F.);
#717=ORIENTED_EDGE('',*,*,#566,.F.);
#718=ORIENTED_EDGE('',*,*,#567,.F.);
#719=ORIENTED_EDGE('',*,*,#568,.F.);
#720=ORIENTED_EDGE('',*,*,#569,.F.);
#721=ORIENTED_EDGE('',*,*,#570,.T.);
#722=ORIENTED_EDGE('',*,*,#571,.T.);
#723=ORIENTED_EDGE('',*,*,#572,.T.);
#724=ORIENTED_EDGE('',*,*,#573,.T.);
#725=ORIENTED_EDGE('',*,*,#574,.T.);
#726=ORIENTED_EDGE('',*,*,#575,.T.);
#727=ORIENTED_EDGE('',*,*,#576,.T.);
#728=ORIENTED_EDGE('',*,*,#577,.T.);
#729=ORIENTED_EDGE('',*,*,#578,.T.);
#730=ORIENTED_EDGE('',*,*,#579,.T.);
#731=ORIENTED_EDGE('',*,*,#580,.T.);
#732=ORIENTED_EDGE('',*,*,#581,.T.);
#733=ORIENTED_EDGE('',*,*,#582,.T.);
#734=ORIENTED_EDGE('',*,*,#583,.T.);
#735=ORIENTED_EDGE('',*,*,#584,.T.);
#736=ORIENTED_EDGE('',*,*,#585,.T.);
#737=ORIENTED_EDGE('',*,*,#586,.T.);
#738=ORIENTED_EDGE('',*,*,#587,.F.);
#739=ORIENTED_EDGE('',*,*,#588,.F.);
#740=ORIENTED_EDGE('',*,*,#589,.F.);
#741=ORIENTED_EDGE('',*,*,#556,.F.);
#742=ORIENTED_EDGE('',*,*,#590,.F.);
#743=ORIENTED_EDGE('',*,*,#591,.F.);
#744=ORIENTED_EDGE('',*,*,#560,.T.);
#745=ORIENTED_EDGE('',*,*,#555,.F.);
#746=ORIENTED_EDGE('',*,*,#592,.T.);
#747=ORIENTED_EDGE('',*,*,#593,.T.);
#748=ORIENTED_EDGE('',*,*,#594,.T.);
#749=ORIENTED_EDGE('',*,*,#595,.T.);
#750=ORIENTED_EDGE('',*,*,#590,.T.);
#751=ORIENTED_EDGE('',*,*,#559,.F.);
#752=ORIENTED_EDGE('',*,*,#596,.T.);
#753=ORIENTED_EDGE('',*,*,#592,.F.);
#754=ORIENTED_EDGE('',*,*,#558,.F.);
#755=ORIENTED_EDGE('',*,*,#566,.T.);
#756=ORIENTED_EDGE('',*,*,#597,.F.);
#757=ORIENTED_EDGE('',*,*,#598,.F.);
#758=ORIENTED_EDGE('',*,*,#595,.F.);
#759=ORIENTED_EDGE('',*,*,#599,.T.);
#760=ORIENTED_EDGE('',*,*,#600,.T.);
#761=ORIENTED_EDGE('',*,*,#561,.T.);
#762=ORIENTED_EDGE('',*,*,#591,.T.);
#763=ORIENTED_EDGE('',*,*,#594,.F.);
#764=ORIENTED_EDGE('',*,*,#601,.T.);
#765=ORIENTED_EDGE('',*,*,#599,.F.);
#766=ORIENTED_EDGE('',*,*,#600,.F.);
#767=ORIENTED_EDGE('',*,*,#602,.T.);
#768=ORIENTED_EDGE('',*,*,#603,.F.);
#769=ORIENTED_EDGE('',*,*,#562,.T.);
#770=ORIENTED_EDGE('',*,*,#601,.F.);
#771=ORIENTED_EDGE('',*,*,#604,.F.);
#772=ORIENTED_EDGE('',*,*,#605,.F.);
#773=ORIENTED_EDGE('',*,*,#606,.F.);
#774=ORIENTED_EDGE('',*,*,#602,.F.);
#775=ORIENTED_EDGE('',*,*,#593,.F.);
#776=ORIENTED_EDGE('',*,*,#607,.T.);
#777=ORIENTED_EDGE('',*,*,#608,.F.);
#778=ORIENTED_EDGE('',*,*,#604,.T.);
#779=ORIENTED_EDGE('',*,*,#609,.T.);
#780=ORIENTED_EDGE('',*,*,#610,.F.);
#781=ORIENTED_EDGE('',*,*,#611,.F.);
#782=ORIENTED_EDGE('',*,*,#612,.F.);
#783=ORIENTED_EDGE('',*,*,#613,.F.);
#784=ORIENTED_EDGE('',*,*,#565,.T.);
#785=ORIENTED_EDGE('',*,*,#614,.T.);
#786=ORIENTED_EDGE('',*,*,#615,.T.);
#787=ORIENTED_EDGE('',*,*,#616,.T.);
#788=ORIENTED_EDGE('',*,*,#597,.T.);
#789=ORIENTED_EDGE('',*,*,#615,.F.);
#790=ORIENTED_EDGE('',*,*,#617,.T.);
#791=ORIENTED_EDGE('',*,*,#618,.T.);
#792=ORIENTED_EDGE('',*,*,#605,.T.);
#793=ORIENTED_EDGE('',*,*,#608,.T.);
#794=ORIENTED_EDGE('',*,*,#619,.F.);
#795=ORIENTED_EDGE('',*,*,#614,.F.);
#796=ORIENTED_EDGE('',*,*,#564,.T.);
#797=ORIENTED_EDGE('',*,*,#620,.F.);
#798=ORIENTED_EDGE('',*,*,#617,.F.);
#799=ORIENTED_EDGE('',*,*,#616,.F.);
#800=ORIENTED_EDGE('',*,*,#619,.T.);
#801=ORIENTED_EDGE('',*,*,#621,.T.);
#802=ORIENTED_EDGE('',*,*,#596,.F.);
#803=ORIENTED_EDGE('',*,*,#598,.T.);
#804=ORIENTED_EDGE('',*,*,#621,.F.);
#805=ORIENTED_EDGE('',*,*,#607,.F.);
#806=ORIENTED_EDGE('',*,*,#618,.F.);
#807=ORIENTED_EDGE('',*,*,#620,.T.);
#808=ORIENTED_EDGE('',*,*,#563,.T.);
#809=ORIENTED_EDGE('',*,*,#603,.T.);
#810=ORIENTED_EDGE('',*,*,#606,.T.);
#811=ORIENTED_EDGE('',*,*,#567,.T.);
#812=ORIENTED_EDGE('',*,*,#622,.T.);
#813=ORIENTED_EDGE('',*,*,#623,.T.);
#814=ORIENTED_EDGE('',*,*,#622,.F.);
#815=ORIENTED_EDGE('',*,*,#623,.F.);
#816=ORIENTED_EDGE('',*,*,#624,.T.);
#817=ORIENTED_EDGE('',*,*,#625,.T.);
#818=ORIENTED_EDGE('',*,*,#624,.F.);
#819=ORIENTED_EDGE('',*,*,#589,.T.);
#820=ORIENTED_EDGE('',*,*,#626,.T.);
#821=ORIENTED_EDGE('',*,*,#627,.T.);
#822=ORIENTED_EDGE('',*,*,#626,.F.);
#823=ORIENTED_EDGE('',*,*,#627,.F.);
#824=ORIENTED_EDGE('',*,*,#628,.T.);
#825=ORIENTED_EDGE('',*,*,#629,.T.);
#826=ORIENTED_EDGE('',*,*,#628,.F.);
#827=ORIENTED_EDGE('',*,*,#568,.T.);
#828=ORIENTED_EDGE('',*,*,#630,.T.);
#829=ORIENTED_EDGE('',*,*,#631,.T.);
#830=ORIENTED_EDGE('',*,*,#630,.F.);
#831=ORIENTED_EDGE('',*,*,#631,.F.);
#832=ORIENTED_EDGE('',*,*,#632,.T.);
#833=ORIENTED_EDGE('',*,*,#633,.T.);
#834=ORIENTED_EDGE('',*,*,#632,.F.);
#835=ORIENTED_EDGE('',*,*,#588,.T.);
#836=ORIENTED_EDGE('',*,*,#634,.T.);
#837=ORIENTED_EDGE('',*,*,#635,.T.);
#838=ORIENTED_EDGE('',*,*,#634,.F.);
#839=ORIENTED_EDGE('',*,*,#635,.F.);
#840=ORIENTED_EDGE('',*,*,#636,.T.);
#841=ORIENTED_EDGE('',*,*,#637,.T.);
#842=ORIENTED_EDGE('',*,*,#636,.F.);
#843=ORIENTED_EDGE('',*,*,#569,.T.);
#844=ORIENTED_EDGE('',*,*,#638,.T.);
#845=ORIENTED_EDGE('',*,*,#639,.T.);
#846=ORIENTED_EDGE('',*,*,#638,.F.);
#847=ORIENTED_EDGE('',*,*,#639,.F.);
#848=ORIENTED_EDGE('',*,*,#640,.T.);
#849=ORIENTED_EDGE('',*,*,#641,.T.);
#850=ORIENTED_EDGE('',*,*,#640,.F.);
#851=ORIENTED_EDGE('',*,*,#587,.T.);
#852=ORIENTED_EDGE('',*,*,#642,.T.);
#853=ORIENTED_EDGE('',*,*,#643,.T.);
#854=ORIENTED_EDGE('',*,*,#642,.F.);
#855=ORIENTED_EDGE('',*,*,#643,.F.);
#856=ORIENTED_EDGE('',*,*,#644,.T.);
#857=ORIENTED_EDGE('',*,*,#645,.T.);
#858=ORIENTED_EDGE('',*,*,#644,.F.);
#859=ORIENTED_EDGE('',*,*,#629,.F.);
#860=ORIENTED_EDGE('',*,*,#625,.F.);
#861=ORIENTED_EDGE('',*,*,#641,.F.);
#862=ORIENTED_EDGE('',*,*,#633,.F.);
#863=ORIENTED_EDGE('',*,*,#637,.F.);
#864=ORIENTED_EDGE('',*,*,#645,.F.);
#865=ORIENTED_EDGE('',*,*,#609,.F.);
#866=ORIENTED_EDGE('',*,*,#646,.T.);
#867=ORIENTED_EDGE('',*,*,#586,.F.);
#868=ORIENTED_EDGE('',*,*,#646,.F.);
#869=ORIENTED_EDGE('',*,*,#647,.T.);
#870=ORIENTED_EDGE('',*,*,#648,.T.);
#871=ORIENTED_EDGE('',*,*,#649,.T.);
#872=ORIENTED_EDGE('',*,*,#650,.T.);
#873=ORIENTED_EDGE('',*,*,#648,.F.);
#874=ORIENTED_EDGE('',*,*,#651,.F.);
#875=ORIENTED_EDGE('',*,*,#652,.F.);
#876=ORIENTED_EDGE('',*,*,#653,.F.);
#877=ORIENTED_EDGE('',*,*,#654,.T.);
#878=ORIENTED_EDGE('',*,*,#650,.F.);
#879=ORIENTED_EDGE('',*,*,#655,.T.);
#880=ORIENTED_EDGE('',*,*,#582,.F.);
#881=ORIENTED_EDGE('',*,*,#656,.T.);
#882=ORIENTED_EDGE('',*,*,#541,.T.);
#883=ORIENTED_EDGE('',*,*,#657,.F.);
#884=ORIENTED_EDGE('',*,*,#570,.F.);
#885=ORIENTED_EDGE('',*,*,#658,.F.);
#886=ORIENTED_EDGE('',*,*,#659,.F.);
#887=ORIENTED_EDGE('',*,*,#660,.F.);
#888=ORIENTED_EDGE('',*,*,#661,.F.);
#889=ORIENTED_EDGE('',*,*,#612,.T.);
#890=ORIENTED_EDGE('',*,*,#662,.T.);
#891=ORIENTED_EDGE('',*,*,#663,.T.);
#892=ORIENTED_EDGE('',*,*,#664,.T.);
#893=ORIENTED_EDGE('',*,*,#554,.T.);
#894=ORIENTED_EDGE('',*,*,#665,.T.);
#895=ORIENTED_EDGE('',*,*,#610,.T.);
#896=ORIENTED_EDGE('',*,*,#666,.F.);
#897=ORIENTED_EDGE('',*,*,#611,.T.);
#898=ORIENTED_EDGE('',*,*,#665,.F.);
#899=ORIENTED_EDGE('',*,*,#667,.T.);
#900=ORIENTED_EDGE('',*,*,#662,.F.);
#901=ORIENTED_EDGE('',*,*,#613,.T.);
#902=ORIENTED_EDGE('',*,*,#664,.F.);
#903=ORIENTED_EDGE('',*,*,#551,.T.);
#904=ORIENTED_EDGE('',*,*,#666,.T.);
#905=ORIENTED_EDGE('',*,*,#546,.T.);
#906=ORIENTED_EDGE('',*,*,#668,.F.);
#907=ORIENTED_EDGE('',*,*,#667,.F.);
#908=ORIENTED_EDGE('',*,*,#553,.T.);
#909=ORIENTED_EDGE('',*,*,#573,.F.);
#910=ORIENTED_EDGE('',*,*,#669,.F.);
#911=ORIENTED_EDGE('',*,*,#539,.T.);
#912=ORIENTED_EDGE('',*,*,#670,.T.);
#913=ORIENTED_EDGE('',*,*,#671,.T.);
#914=ORIENTED_EDGE('',*,*,#545,.T.);
#915=ORIENTED_EDGE('',*,*,#672,.F.);
#916=ORIENTED_EDGE('',*,*,#576,.F.);
#917=ORIENTED_EDGE('',*,*,#673,.T.);
#918=ORIENTED_EDGE('',*,*,#544,.T.);
#919=ORIENTED_EDGE('',*,*,#674,.F.);
#920=ORIENTED_EDGE('',*,*,#578,.F.);
#921=ORIENTED_EDGE('',*,*,#574,.F.);
#922=ORIENTED_EDGE('',*,*,#670,.F.);
#923=ORIENTED_EDGE('',*,*,#538,.T.);
#924=ORIENTED_EDGE('',*,*,#675,.F.);
#925=ORIENTED_EDGE('',*,*,#676,.F.);
#926=ORIENTED_EDGE('',*,*,#580,.F.);
#927=ORIENTED_EDGE('',*,*,#677,.F.);
#928=ORIENTED_EDGE('',*,*,#542,.T.);
#929=ORIENTED_EDGE('',*,*,#572,.F.);
#930=ORIENTED_EDGE('',*,*,#678,.T.);
#931=ORIENTED_EDGE('',*,*,#540,.T.);
#932=ORIENTED_EDGE('',*,*,#669,.T.);
#933=ORIENTED_EDGE('',*,*,#579,.F.);
#934=ORIENTED_EDGE('',*,*,#674,.T.);
#935=ORIENTED_EDGE('',*,*,#543,.T.);
#936=ORIENTED_EDGE('',*,*,#677,.T.);
#937=ORIENTED_EDGE('',*,*,#549,.T.);
#938=ORIENTED_EDGE('',*,*,#552,.F.);
#939=ORIENTED_EDGE('',*,*,#663,.F.);
#940=ORIENTED_EDGE('',*,*,#668,.T.);
#941=ORIENTED_EDGE('',*,*,#585,.F.);
#942=ORIENTED_EDGE('',*,*,#679,.T.);
#943=ORIENTED_EDGE('',*,*,#651,.T.);
#944=ORIENTED_EDGE('',*,*,#647,.F.);
#945=ORIENTED_EDGE('',*,*,#654,.F.);
#946=ORIENTED_EDGE('',*,*,#584,.F.);
#947=ORIENTED_EDGE('',*,*,#680,.T.);
#948=ORIENTED_EDGE('',*,*,#652,.T.);
#949=ORIENTED_EDGE('',*,*,#679,.F.);
#950=ORIENTED_EDGE('',*,*,#583,.F.);
#951=ORIENTED_EDGE('',*,*,#655,.F.);
#952=ORIENTED_EDGE('',*,*,#649,.F.);
#953=ORIENTED_EDGE('',*,*,#653,.T.);
#954=ORIENTED_EDGE('',*,*,#680,.F.);
#955=ORIENTED_EDGE('',*,*,#577,.F.);
#956=ORIENTED_EDGE('',*,*,#672,.T.);
#957=ORIENTED_EDGE('',*,*,#681,.T.);
#958=ORIENTED_EDGE('',*,*,#659,.T.);
#959=ORIENTED_EDGE('',*,*,#681,.F.);
#960=ORIENTED_EDGE('',*,*,#673,.F.);
#961=ORIENTED_EDGE('',*,*,#575,.F.);
#962=ORIENTED_EDGE('',*,*,#675,.T.);
#963=ORIENTED_EDGE('',*,*,#682,.T.);
#964=ORIENTED_EDGE('',*,*,#661,.T.);
#965=ORIENTED_EDGE('',*,*,#682,.F.);
#966=ORIENTED_EDGE('',*,*,#671,.F.);
#967=ORIENTED_EDGE('',*,*,#571,.F.);
#968=ORIENTED_EDGE('',*,*,#657,.T.);
#969=ORIENTED_EDGE('',*,*,#683,.T.);
#970=ORIENTED_EDGE('',*,*,#660,.T.);
#971=ORIENTED_EDGE('',*,*,#683,.F.);
#972=ORIENTED_EDGE('',*,*,#678,.F.);
#973=ORIENTED_EDGE('',*,*,#581,.F.);
#974=ORIENTED_EDGE('',*,*,#676,.T.);
#975=ORIENTED_EDGE('',*,*,#684,.T.);
#976=ORIENTED_EDGE('',*,*,#658,.T.);
#977=ORIENTED_EDGE('',*,*,#684,.F.);
#978=ORIENTED_EDGE('',*,*,#656,.F.);
#979=PLANE('',#1108);
#980=PLANE('',#1109);
#981=PLANE('',#1110);
#982=PLANE('',#1111);
#983=PLANE('',#1112);
#984=PLANE('',#1124);
#985=PLANE('',#1125);
#986=PLANE('',#1126);
#987=PLANE('',#1127);
#988=PLANE('',#1128);
#989=PLANE('',#1129);
#990=PLANE('',#1130);
#991=PLANE('',#1131);
#992=PLANE('',#1132);
#993=PLANE('',#1134);
#994=PLANE('',#1135);
#995=PLANE('',#1136);
#996=PLANE('',#1137);
#997=PLANE('',#1138);
#998=PLANE('',#1139);
#999=PLANE('',#1164);
#1000=PLANE('',#1165);
#1001=PLANE('',#1166);
#1002=PLANE('',#1167);
#1003=PLANE('',#1168);
#1004=PLANE('',#1169);
#1005=PLANE('',#1171);
#1006=PLANE('',#1172);
#1007=PLANE('',#1173);
#1008=PLANE('',#1174);
#1009=PLANE('',#1176);
#1010=PLANE('',#1178);
#1011=PLANE('',#1180);
#1012=PLANE('',#1182);
#1013=PLANE('',#1183);
#1014=PLANE('',#1184);
#1015=PLANE('',#1185);
#1016=PLANE('',#1186);
#1017=PLANE('',#1187);
#1018=PLANE('',#1188);
#1019=PLANE('',#1189);
#1020=PLANE('',#1190);
#1021=PLANE('',#1191);
#1022=PLANE('',#1192);
#1023=PLANE('',#1193);
#1024=PLANE('',#1194);
#1025=PLANE('',#1195);
#1026=PLANE('',#1196);
#1027=PLANE('',#1197);
#1028=ADVANCED_FACE('',(#71,#60),#979,.F.);
#1029=ADVANCED_FACE('',(#72),#980,.T.);
#1030=ADVANCED_FACE('',(#73),#981,.T.);
#1031=ADVANCED_FACE('',(#74),#982,.T.);
#1032=ADVANCED_FACE('',(#75,#61,#62,#63,#64,#65,#66,#67,#68),#983,.T.);
#1033=ADVANCED_FACE('',(#76),#984,.T.);
#1034=ADVANCED_FACE('',(#77),#985,.T.);
#1035=ADVANCED_FACE('',(#78),#986,.T.);
#1036=ADVANCED_FACE('',(#79),#987,.T.);
#1037=ADVANCED_FACE('',(#80),#988,.T.);
#1038=ADVANCED_FACE('',(#81),#989,.T.);
#1039=ADVANCED_FACE('',(#82),#990,.T.);
#1040=ADVANCED_FACE('',(#83),#991,.T.);
#1041=ADVANCED_FACE('',(#84,#69,#70),#992,.T.);
#1042=ADVANCED_FACE('',(#85),#993,.T.);
#1043=ADVANCED_FACE('',(#86),#994,.T.);
#1044=ADVANCED_FACE('',(#87),#995,.T.);
#1045=ADVANCED_FACE('',(#88),#996,.T.);
#1046=ADVANCED_FACE('',(#89),#997,.T.);
#1047=ADVANCED_FACE('',(#90),#998,.T.);
#1048=ADVANCED_FACE('',(#91),#26,.F.);
#1049=ADVANCED_FACE('',(#92),#15,.F.);
#1050=ADVANCED_FACE('',(#93),#27,.F.);
#1051=ADVANCED_FACE('',(#94),#16,.F.);
#1052=ADVANCED_FACE('',(#95),#28,.F.);
#1053=ADVANCED_FACE('',(#96),#17,.F.);
#1054=ADVANCED_FACE('',(#97),#29,.F.);
#1055=ADVANCED_FACE('',(#98),#18,.F.);
#1056=ADVANCED_FACE('',(#99),#30,.F.);
#1057=ADVANCED_FACE('',(#100),#19,.F.);
#1058=ADVANCED_FACE('',(#101),#31,.F.);
#1059=ADVANCED_FACE('',(#102),#20,.F.);
#1060=ADVANCED_FACE('',(#103),#999,.T.);
#1061=ADVANCED_FACE('',(#104),#1000,.T.);
#1062=ADVANCED_FACE('',(#105),#1001,.T.);
#1063=ADVANCED_FACE('',(#106),#1002,.T.);
#1064=ADVANCED_FACE('',(#107),#1003,.T.);
#1065=ADVANCED_FACE('',(#108),#1004,.T.);
#1066=ADVANCED_FACE('',(#109),#21,.F.);
#1067=ADVANCED_FACE('',(#110),#1005,.T.);
#1068=ADVANCED_FACE('',(#111),#1006,.F.);
#1069=ADVANCED_FACE('',(#112),#1007,.F.);
#1070=ADVANCED_FACE('',(#113),#1008,.T.);
#1071=ADVANCED_FACE('',(#114),#1009,.T.);
#1072=ADVANCED_FACE('',(#115),#1010,.T.);
#1073=ADVANCED_FACE('',(#116),#1011,.T.);
#1074=ADVANCED_FACE('',(#117),#1012,.T.);
#1075=ADVANCED_FACE('',(#118),#1013,.T.);
#1076=ADVANCED_FACE('',(#119),#1014,.T.);
#1077=ADVANCED_FACE('',(#120),#1015,.T.);
#1078=ADVANCED_FACE('',(#121),#1016,.T.);
#1079=ADVANCED_FACE('',(#122),#1017,.F.);
#1080=ADVANCED_FACE('',(#123),#1018,.F.);
#1081=ADVANCED_FACE('',(#124),#1019,.F.);
#1082=ADVANCED_FACE('',(#125),#1020,.F.);
#1083=ADVANCED_FACE('',(#126),#1021,.F.);
#1084=ADVANCED_FACE('',(#127),#1022,.F.);
#1085=ADVANCED_FACE('',(#128),#1023,.F.);
#1086=ADVANCED_FACE('',(#129),#1024,.T.);
#1087=ADVANCED_FACE('',(#130),#1025,.F.);
#1088=ADVANCED_FACE('',(#131),#1026,.F.);
#1089=ADVANCED_FACE('',(#132),#1027,.F.);
#1090=ADVANCED_FACE('',(#133),#22,.F.);
#1091=ADVANCED_FACE('',(#134),#23,.F.);
#1092=ADVANCED_FACE('',(#135),#24,.F.);
#1093=ADVANCED_FACE('',(#136),#25,.F.);
#1094=CLOSED_SHELL('',(#1028,#1029,#1030,#1031,#1032,#1033,#1034,#1035,
#1036,#1037,#1038,#1039,#1040,#1041,#1042,#1043,#1044,#1045,#1046,#1047,
#1048,#1049,#1050,#1051,#1052,#1053,#1054,#1055,#1056,#1057,#1058,#1059,
#1060,#1061,#1062,#1063,#1064,#1065,#1066,#1067,#1068,#1069,#1070,#1071,
#1072,#1073,#1074,#1075,#1076,#1077,#1078,#1079,#1080,#1081,#1082,#1083,
#1084,#1085,#1086,#1087,#1088,#1089,#1090,#1091,#1092,#1093));
#1095=DERIVED_UNIT_ELEMENT(#1097,1.);
#1096=DERIVED_UNIT_ELEMENT(#1816,-3.);
#1097=(
MASS_UNIT()
NAMED_UNIT(*)
SI_UNIT(.KILO.,.GRAM.)
);
#1098=DERIVED_UNIT((#1095,#1096));
#1099=MEASURE_REPRESENTATION_ITEM('density measure',
POSITIVE_RATIO_MEASURE(7850.),#1098);
#1100=PROPERTY_DEFINITION_REPRESENTATION(#1105,#1102);
#1101=PROPERTY_DEFINITION_REPRESENTATION(#1106,#1103);
#1102=REPRESENTATION('material name',(#1104),#1813);
#1103=REPRESENTATION('density',(#1099),#1813);
#1104=DESCRIPTIVE_REPRESENTATION_ITEM('Steel','Steel');
#1105=PROPERTY_DEFINITION('material property','material name',#1823);
#1106=PROPERTY_DEFINITION('material property','density of part',#1823);
#1107=AXIS2_PLACEMENT_3D('',#1511,#1202,#1203);
#1108=AXIS2_PLACEMENT_3D('',#1512,#1204,#1205);
#1109=AXIS2_PLACEMENT_3D('',#1537,#1218,#1219);
#1110=AXIS2_PLACEMENT_3D('',#1543,#1223,#1224);
#1111=AXIS2_PLACEMENT_3D('',#1547,#1227,#1228);
#1112=AXIS2_PLACEMENT_3D('',#1558,#1234,#1235);
#1113=AXIS2_PLACEMENT_3D('',#1573,#1243,#1244);
#1114=AXIS2_PLACEMENT_3D('',#1575,#1245,#1246);
#1115=AXIS2_PLACEMENT_3D('',#1577,#1247,#1248);
#1116=AXIS2_PLACEMENT_3D('',#1581,#1250,#1251);
#1117=AXIS2_PLACEMENT_3D('',#1588,#1255,#1256);
#1118=AXIS2_PLACEMENT_3D('',#1591,#1258,#1259);
#1119=AXIS2_PLACEMENT_3D('',#1598,#1263,#1264);
#1120=AXIS2_PLACEMENT_3D('',#1607,#1269,#1270);
#1121=AXIS2_PLACEMENT_3D('',#1609,#1271,#1272);
#1122=AXIS2_PLACEMENT_3D('',#1611,#1273,#1274);
#1123=AXIS2_PLACEMENT_3D('',#1613,#1275,#1276);
#1124=AXIS2_PLACEMENT_3D('',#1614,#1277,#1278);
#1125=AXIS2_PLACEMENT_3D('',#1618,#1281,#1282);
#1126=AXIS2_PLACEMENT_3D('',#1626,#1287,#1288);
#1127=AXIS2_PLACEMENT_3D('',#1628,#1290,#1291);
#1128=AXIS2_PLACEMENT_3D('',#1632,#1294,#1295);
#1129=AXIS2_PLACEMENT_3D('',#1636,#1298,#1299);
#1130=AXIS2_PLACEMENT_3D('',#1638,#1301,#1302);
#1131=AXIS2_PLACEMENT_3D('',#1642,#1305,#1306);
#1132=AXIS2_PLACEMENT_3D('',#1648,#1310,#1311);
#1133=AXIS2_PLACEMENT_3D('',#1653,#1314,#1315);
#1134=AXIS2_PLACEMENT_3D('',#1662,#1320,#1321);
#1135=AXIS2_PLACEMENT_3D('',#1668,#1325,#1326);
#1136=AXIS2_PLACEMENT_3D('',#1673,#1330,#1331);
#1137=AXIS2_PLACEMENT_3D('',#1675,#1333,#1334);
#1138=AXIS2_PLACEMENT_3D('',#1677,#1336,#1337);
#1139=AXIS2_PLACEMENT_3D('',#1678,#1338,#1339);
#1140=AXIS2_PLACEMENT_3D('',#1679,#1340,#1341);
#1141=AXIS2_PLACEMENT_3D('',#1682,#1343,#1344);
#1142=AXIS2_PLACEMENT_3D('',#1683,#1345,#1346);
#1143=AXIS2_PLACEMENT_3D('',#1686,#1348,#1349);
#1144=AXIS2_PLACEMENT_3D('',#1687,#1350,#1351);
#1145=AXIS2_PLACEMENT_3D('',#1690,#1353,#1354);
#1146=AXIS2_PLACEMENT_3D('',#1691,#1355,#1356);
#1147=AXIS2_PLACEMENT_3D('',#1694,#1358,#1359);
#1148=AXIS2_PLACEMENT_3D('',#1695,#1360,#1361);
#1149=AXIS2_PLACEMENT_3D('',#1698,#1363,#1364);
#1150=AXIS2_PLACEMENT_3D('',#1699,#1365,#1366);
#1151=AXIS2_PLACEMENT_3D('',#1702,#1368,#1369);
#1152=AXIS2_PLACEMENT_3D('',#1703,#1370,#1371);
#1153=AXIS2_PLACEMENT_3D('',#1706,#1373,#1374);
#1154=AXIS2_PLACEMENT_3D('',#1707,#1375,#1376);
#1155=AXIS2_PLACEMENT_3D('',#1710,#1378,#1379);
#1156=AXIS2_PLACEMENT_3D('',#1711,#1380,#1381);
#1157=AXIS2_PLACEMENT_3D('',#1714,#1383,#1384);
#1158=AXIS2_PLACEMENT_3D('',#1715,#1385,#1386);
#1159=AXIS2_PLACEMENT_3D('',#1718,#1388,#1389);
#1160=AXIS2_PLACEMENT_3D('',#1719,#1390,#1391);
#1161=AXIS2_PLACEMENT_3D('',#1722,#1393,#1394);
#1162=AXIS2_PLACEMENT_3D('',#1723,#1395,#1396);
#1163=AXIS2_PLACEMENT_3D('',#1726,#1398,#1399);
#1164=AXIS2_PLACEMENT_3D('',#1727,#1400,#1401);
#1165=AXIS2_PLACEMENT_3D('',#1728,#1402,#1403);
#1166=AXIS2_PLACEMENT_3D('',#1729,#1404,#1405);
#1167=AXIS2_PLACEMENT_3D('',#1730,#1406,#1407);
#1168=AXIS2_PLACEMENT_3D('',#1731,#1408,#1409);
#1169=AXIS2_PLACEMENT_3D('',#1732,#1410,#1411);
#1170=AXIS2_PLACEMENT_3D('',#1733,#1412,#1413);
#1171=AXIS2_PLACEMENT_3D('',#1735,#1415,#1416);
#1172=AXIS2_PLACEMENT_3D('',#1744,#1421,#1422);
#1173=AXIS2_PLACEMENT_3D('',#1750,#1426,#1427);
#1174=AXIS2_PLACEMENT_3D('',#1755,#1432,#1433);
#1175=AXIS2_PLACEMENT_3D('',#1757,#1434,#1435);
#1176=AXIS2_PLACEMENT_3D('',#1758,#1436,#1437);
#1177=AXIS2_PLACEMENT_3D('',#1760,#1438,#1439);
#1178=AXIS2_PLACEMENT_3D('',#1761,#1440,#1441);
#1179=AXIS2_PLACEMENT_3D('',#1763,#1442,#1443);
#1180=AXIS2_PLACEMENT_3D('',#1764,#1444,#1445);
#1181=AXIS2_PLACEMENT_3D('',#1766,#1446,#1447);
#1182=AXIS2_PLACEMENT_3D('',#1767,#1448,#1449);
#1183=AXIS2_PLACEMENT_3D('',#1772,#1453,#1454);
#1184=AXIS2_PLACEMENT_3D('',#1775,#1457,#1458);
#1185=AXIS2_PLACEMENT_3D('',#1777,#1460,#1461);
#1186=AXIS2_PLACEMENT_3D('',#1778,#1462,#1463);
#1187=AXIS2_PLACEMENT_3D('',#1780,#1465,#1466);
#1188=AXIS2_PLACEMENT_3D('',#1783,#1469,#1470);
#1189=AXIS2_PLACEMENT_3D('',#1786,#1473,#1474);
#1190=AXIS2_PLACEMENT_3D('',#1789,#1477,#1478);
#1191=AXIS2_PLACEMENT_3D('',#1791,#1480,#1481);
#1192=AXIS2_PLACEMENT_3D('',#1794,#1484,#1485);
#1193=AXIS2_PLACEMENT_3D('',#1796,#1487,#1488);
#1194=AXIS2_PLACEMENT_3D('',#1797,#1489,#1490);
#1195=AXIS2_PLACEMENT_3D('',#1798,#1491,#1492);
#1196=AXIS2_PLACEMENT_3D('',#1800,#1494,#1495);
#1197=AXIS2_PLACEMENT_3D('',#1802,#1497,#1498);
#1198=AXIS2_PLACEMENT_3D('',#1803,#1499,#1500);
#1199=AXIS2_PLACEMENT_3D('',#1805,#1502,#1503);
#1200=AXIS2_PLACEMENT_3D('',#1807,#1505,#1506);
#1201=AXIS2_PLACEMENT_3D('',#1809,#1508,#1509);
#1202=DIRECTION('axis',(0.,0.,1.));
#1203=DIRECTION('refdir',(1.,0.,0.));
#1204=DIRECTION('center_axis',(0.,1.,0.));
#1205=DIRECTION('ref_axis',(0.,0.,1.));
#1206=DIRECTION('',(1.,0.,0.));
#1207=DIRECTION('',(0.,0.,1.));
#1208=DIRECTION('',(-1.,0.,0.));
#1209=DIRECTION('',(-1.,0.,0.));
#1210=DIRECTION('',(-1.,0.,0.));
#1211=DIRECTION('',(0.,0.,-1.));
#1212=DIRECTION('',(1.,0.,0.));
#1213=DIRECTION('',(1.,0.,0.));
#1214=DIRECTION('',(-1.11022302462516E-15,0.,-1.));
#1215=DIRECTION('',(-1.,0.,0.));
#1216=DIRECTION('',(5.84327907697451E-16,0.,1.));
#1217=DIRECTION('',(1.,0.,0.));
#1218=DIRECTION('center_axis',(-1.,0.,5.84327907697451E-16));
#1219=DIRECTION('ref_axis',(-5.84327907697451E-16,0.,-1.));
#1220=DIRECTION('',(0.,-1.,0.));
#1221=DIRECTION('',(5.84327907697451E-16,0.,1.));
#1222=DIRECTION('',(0.,-1.,0.));
#1223=DIRECTION('center_axis',(0.,0.,-1.));
#1224=DIRECTION('ref_axis',(1.,0.,0.));
#1225=DIRECTION('',(0.,-1.,0.));
#1226=DIRECTION('',(-1.,0.,0.));
#1227=DIRECTION('center_axis',(-0.707106781186547,0.,-0.707106781186548));
#1228=DIRECTION('ref_axis',(-0.707106781186548,0.,0.707106781186547));
#1229=DIRECTION('',(0.577350269189627,-0.577350269189625,-0.577350269189626));
#1230=DIRECTION('',(0.,-1.,0.));
#1231=DIRECTION('',(-0.707106781186548,0.,0.707106781186547));
#1232=DIRECTION('',(0.,1.,0.));
#1233=DIRECTION('',(0.678598344545849,-0.281084637714814,-0.678598344545848));
#1234=DIRECTION('center_axis',(0.,-1.,0.));
#1235=DIRECTION('ref_axis',(1.,0.,0.));
#1236=DIRECTION('',(-1.,0.,0.));
#1237=DIRECTION('',(-0.707106781186547,0.,-0.707106781186548));
#1238=DIRECTION('',(0.,0.,-1.));
#1239=DIRECTION('',(0.707106781186548,0.,-0.707106781186547));
#1240=DIRECTION('',(1.,0.,-1.48029736616688E-16));
#1241=DIRECTION('',(0.707106781186551,0.,0.707106781186544));
#1242=DIRECTION('',(1.11022302462516E-16,0.,1.));
#1243=DIRECTION('center_axis',(0.,-1.,0.));
#1244=DIRECTION('ref_axis',(1.,0.,0.));
#1245=DIRECTION('center_axis',(0.,-1.,0.));
#1246=DIRECTION('ref_axis',(1.,0.,0.));
#1247=DIRECTION('center_axis',(0.,-1.,0.));
#1248=DIRECTION('ref_axis',(1.,0.,0.));
#1249=DIRECTION('',(-1.,0.,0.));
#1250=DIRECTION('center_axis',(0.,1.,0.));
#1251=DIRECTION('ref_axis',(1.,0.,0.));
#1252=DIRECTION('',(-1.,0.,0.));
#1253=DIRECTION('',(-1.03276560430247E-16,0.,1.));
#1254=DIRECTION('',(1.,0.,0.));
#1255=DIRECTION('center_axis',(0.,1.,0.));
#1256=DIRECTION('ref_axis',(1.,0.,0.));
#1257=DIRECTION('',(1.,0.,0.));
#1258=DIRECTION('center_axis',(0.,1.,0.));
#1259=DIRECTION('ref_axis',(1.,0.,0.));
#1260=DIRECTION('',(1.,0.,0.));
#1261=DIRECTION('',(-1.03276560430247E-16,0.,-1.));
#1262=DIRECTION('',(-1.,0.,0.));
#1263=DIRECTION('center_axis',(0.,1.,0.));
#1264=DIRECTION('ref_axis',(1.,0.,0.));
#1265=DIRECTION('',(-1.,0.,0.));
#1266=DIRECTION('',(-3.41607084500048E-16,0.,-1.));
#1267=DIRECTION('',(-1.,0.,0.));
#1268=DIRECTION('',(0.,0.,1.));
#1269=DIRECTION('center_axis',(0.,1.,0.));
#1270=DIRECTION('ref_axis',(-1.,0.,0.));
#1271=DIRECTION('center_axis',(0.,-1.,0.));
#1272=DIRECTION('ref_axis',(1.,0.,0.));
#1273=DIRECTION('center_axis',(0.,-1.,0.));
#1274=DIRECTION('ref_axis',(1.,0.,0.));
#1275=DIRECTION('center_axis',(0.,-1.,0.));
#1276=DIRECTION('ref_axis',(1.,0.,0.));
#1277=DIRECTION('center_axis',(0.,0.,-1.));
#1278=DIRECTION('ref_axis',(-1.,0.,0.));
#1279=DIRECTION('',(-1.,0.,0.));
#1280=DIRECTION('',(0.,1.,0.));
#1281=DIRECTION('center_axis',(0.,0.707106781186548,-0.707106781186547));
#1282=DIRECTION('ref_axis',(-1.,0.,0.));
#1283=DIRECTION('',(-0.281084637714825,0.678598344545847,0.678598344545845));
#1284=DIRECTION('',(1.,0.,0.));
#1285=DIRECTION('',(-0.281084637714821,-0.678598344545847,-0.678598344545847));
#1286=DIRECTION('',(-0.577350269189625,-0.577350269189626,-0.577350269189626));
#1287=DIRECTION('center_axis',(-0.500000000000001,0.500000000000001,-0.707106781186546));
#1288=DIRECTION('ref_axis',(-0.816496580927725,0.,0.577350269189628));
#1289=DIRECTION('',(0.707106781186548,0.707106781186547,0.));
#1290=DIRECTION('center_axis',(-1.,0.,-1.21115239050017E-16));
#1291=DIRECTION('ref_axis',(-1.21115239050017E-16,0.,1.));
#1292=DIRECTION('',(0.,-1.,0.));
#1293=DIRECTION('',(1.11022302462516E-16,0.,1.));
#1294=DIRECTION('center_axis',(0.707106781186548,0.,-0.707106781186547));
#1295=DIRECTION('ref_axis',(-0.707106781186547,0.,-0.707106781186548));
#1296=DIRECTION('',(0.678598344545844,0.281084637714823,0.678598344545849));
#1297=DIRECTION('',(0.,-1.,0.));
#1298=DIRECTION('center_axis',(0.5,0.5,-0.707106781186548));
#1299=DIRECTION('ref_axis',(-0.816496580927726,0.,-0.577350269189626));
#1300=DIRECTION('',(0.707106781186548,-0.707106781186547,0.));
#1301=DIRECTION('center_axis',(1.,0.,-4.03717463500057E-17));
#1302=DIRECTION('ref_axis',(-4.03717463500057E-17,0.,-1.));
#1303=DIRECTION('',(1.11022302462516E-16,0.,1.));
#1304=DIRECTION('',(0.,1.,0.));
#1305=DIRECTION('center_axis',(0.707106781186547,0.707106781186548,-2.85471356124323E-17));
#1306=DIRECTION('ref_axis',(-4.03717463500057E-17,0.,-1.));
#1307=DIRECTION('',(0.,0.,-1.));
#1308=DIRECTION('',(-0.577350269189627,0.577350269189626,-0.577350269189624));
#1309=DIRECTION('',(-0.577350269189626,0.577350269189626,0.577350269189625));
#1310=DIRECTION('center_axis',(0.,1.,0.));
#1311=DIRECTION('ref_axis',(0.,0.,1.));
#1312=DIRECTION('',(1.11022302462516E-16,0.,1.));
#1313=DIRECTION('',(-1.,0.,1.11022302462516E-16));
#1314=DIRECTION('center_axis',(0.,-1.,0.));
#1315=DIRECTION('ref_axis',(-1.,0.,0.));
#1316=DIRECTION('',(1.,0.,0.));
#1317=DIRECTION('',(1.11022302462516E-15,0.,1.));
#1318=DIRECTION('',(-1.,0.,0.));
#1319=DIRECTION('',(-5.84327907697451E-16,0.,-1.));
#1320=DIRECTION('center_axis',(-0.707106781186544,0.,0.707106781186551));
#1321=DIRECTION('ref_axis',(0.707106781186551,0.,0.707106781186544));
#1322=DIRECTION('',(0.,1.,0.));
#1323=DIRECTION('',(-0.577350269189628,0.577350269189626,-0.577350269189623));
#1324=DIRECTION('',(-0.67859834454585,0.281084637714821,-0.678598344545844));
#1325=DIRECTION('center_axis',(7.85046229341889E-17,0.707106781186546,0.707106781186549));
#1326=DIRECTION('ref_axis',(1.,0.,-1.11022302462516E-16));
#1327=DIRECTION('',(1.,0.,-1.11022302462516E-16));
#1328=DIRECTION('',(0.577350269189626,0.577350269189627,-0.577350269189625));
#1329=DIRECTION('',(-0.281084637714823,0.678598344545848,-0.678598344545845));
#1330=DIRECTION('center_axis',(1.11022302462516E-16,0.,1.));
#1331=DIRECTION('ref_axis',(1.,0.,-1.11022302462516E-16));
#1332=DIRECTION('',(0.,-1.,0.));
#1333=DIRECTION('center_axis',(-0.499999999999998,0.499999999999998,0.70710678118655));
#1334=DIRECTION('ref_axis',(0.816496580927728,0.,0.577350269189623));
#1335=DIRECTION('',(-0.707106781186548,-0.707106781186547,7.85046229341888E-17));
#1336=DIRECTION('center_axis',(-0.707106781186547,0.707106781186548,-8.56414068372968E-17));
#1337=DIRECTION('ref_axis',(-1.21115239050017E-16,0.,1.));
#1338=DIRECTION('center_axis',(0.707106781186547,0.,0.707106781186548));
#1339=DIRECTION('ref_axis',(0.707106781186548,0.,-0.707106781186547));
#1340=DIRECTION('center_axis',(0.,-1.,0.));
#1341=DIRECTION('ref_axis',(1.,0.,0.));
#1342=DIRECTION('',(0.707106781186548,0.707106781186547,8.65956056235494E-17));
#1343=DIRECTION('center_axis',(0.,1.,0.));
#1344=DIRECTION('ref_axis',(1.,0.,0.));
#1345=DIRECTION('center_axis',(0.,1.,0.));
#1346=DIRECTION('ref_axis',(1.,0.,0.));
#1347=DIRECTION('',(0.,1.,0.));
#1348=DIRECTION('center_axis',(0.,1.,0.));
#1349=DIRECTION('ref_axis',(1.,0.,0.));
#1350=DIRECTION('center_axis',(0.,-1.,0.));
#1351=DIRECTION('ref_axis',(1.,0.,0.));
#1352=DIRECTION('',(0.707106781186548,0.707106781186547,8.65956056235494E-17));
#1353=DIRECTION('center_axis',(0.,1.,0.));
#1354=DIRECTION('ref_axis',(1.,0.,0.));
#1355=DIRECTION('center_axis',(0.,1.,0.));
#1356=DIRECTION('ref_axis',(1.,0.,0.));
#1357=DIRECTION('',(0.,1.,0.));
#1358=DIRECTION('center_axis',(0.,1.,0.));
#1359=DIRECTION('ref_axis',(1.,0.,0.));
#1360=DIRECTION('center_axis',(0.,-1.,0.));
#1361=DIRECTION('ref_axis',(1.,0.,0.));
#1362=DIRECTION('',(0.707106781186548,0.707106781186547,8.65956056235494E-17));
#1363=DIRECTION('center_axis',(0.,1.,0.));
#1364=DIRECTION('ref_axis',(1.,0.,0.));
#1365=DIRECTION('center_axis',(0.,1.,0.));
#1366=DIRECTION('ref_axis',(1.,0.,0.));
#1367=DIRECTION('',(0.,1.,0.));
#1368=DIRECTION('center_axis',(0.,1.,0.));
#1369=DIRECTION('ref_axis',(1.,0.,0.));
#1370=DIRECTION('center_axis',(0.,-1.,0.));
#1371=DIRECTION('ref_axis',(1.,0.,0.));
#1372=DIRECTION('',(0.707106781186548,0.707106781186547,8.65956056235494E-17));
#1373=DIRECTION('center_axis',(0.,1.,0.));
#1374=DIRECTION('ref_axis',(1.,0.,0.));
#1375=DIRECTION('center_axis',(0.,1.,0.));
#1376=DIRECTION('ref_axis',(1.,0.,0.));
#1377=DIRECTION('',(0.,1.,0.));
#1378=DIRECTION('center_axis',(0.,1.,0.));
#1379=DIRECTION('ref_axis',(1.,0.,0.));
#1380=DIRECTION('center_axis',(0.,-1.,0.));
#1381=DIRECTION('ref_axis',(1.,0.,0.));
#1382=DIRECTION('',(0.707106781186548,0.707106781186547,8.65956056235494E-17));
#1383=DIRECTION('center_axis',(0.,1.,0.));
#1384=DIRECTION('ref_axis',(1.,0.,0.));
#1385=DIRECTION('center_axis',(0.,1.,0.));
#1386=DIRECTION('ref_axis',(1.,0.,0.));
#1387=DIRECTION('',(0.,1.,0.));
#1388=DIRECTION('center_axis',(0.,1.,0.));
#1389=DIRECTION('ref_axis',(1.,0.,0.));
#1390=DIRECTION('center_axis',(0.,-1.,0.));
#1391=DIRECTION('ref_axis',(1.,0.,0.));
#1392=DIRECTION('',(0.707106781186548,0.707106781186547,8.65956056235494E-17));
#1393=DIRECTION('center_axis',(0.,1.,0.));
#1394=DIRECTION('ref_axis',(1.,0.,0.));
#1395=DIRECTION('center_axis',(0.,1.,0.));
#1396=DIRECTION('ref_axis',(1.,0.,0.));
#1397=DIRECTION('',(0.,1.,0.));
#1398=DIRECTION('center_axis',(0.,1.,0.));
#1399=DIRECTION('ref_axis',(1.,0.,0.));
#1400=DIRECTION('center_axis',(0.,-1.,0.));
#1401=DIRECTION('ref_axis',(1.,0.,0.));
#1402=DIRECTION('center_axis',(0.,-1.,0.));
#1403=DIRECTION('ref_axis',(1.,0.,0.));
#1404=DIRECTION('center_axis',(0.,-1.,0.));
#1405=DIRECTION('ref_axis',(1.,0.,0.));
#1406=DIRECTION('center_axis',(0.,-1.,0.));
#1407=DIRECTION('ref_axis',(1.,0.,0.));
#1408=DIRECTION('center_axis',(0.,-1.,0.));
#1409=DIRECTION('ref_axis',(1.,0.,0.));
#1410=DIRECTION('center_axis',(0.,-1.,0.));
#1411=DIRECTION('ref_axis',(1.,0.,0.));
#1412=DIRECTION('center_axis',(0.,-1.,0.));
#1413=DIRECTION('ref_axis',(-1.,0.,0.));
#1414=DIRECTION('',(0.,-1.,0.));
#1415=DIRECTION('center_axis',(0.,-0.707106781186546,0.707106781186549));
#1416=DIRECTION('ref_axis',(1.,0.,0.));
#1417=DIRECTION('',(0.,0.707106781186549,0.707106781186546));
#1418=DIRECTION('',(1.,0.,0.));
#1419=DIRECTION('',(-2.4155268595135E-16,-0.707106781186549,-0.707106781186546));
#1420=DIRECTION('',(-1.,0.,0.));
#1421=DIRECTION('center_axis',(0.,1.,0.));
#1422=DIRECTION('ref_axis',(0.,0.,1.));
#1423=DIRECTION('',(0.,0.,1.));
#1424=DIRECTION('',(-1.,0.,0.));
#1425=DIRECTION('',(-3.41607084500048E-16,0.,-1.));
#1426=DIRECTION('center_axis',(0.,0.,-1.));
#1427=DIRECTION('ref_axis',(1.,0.,0.));
#1428=DIRECTION('',(0.,1.,0.));
#1429=DIRECTION('',(0.,-1.,0.));
#1430=DIRECTION('',(0.,1.,0.));
#1431=DIRECTION('',(0.,1.,0.));
#1432=DIRECTION('center_axis',(0.,-1.,0.));
#1433=DIRECTION('ref_axis',(1.,0.,0.));
#1434=DIRECTION('center_axis',(0.,1.,0.));
#1435=DIRECTION('ref_axis',(1.,0.,0.));
#1436=DIRECTION('center_axis',(0.,-1.,0.));
#1437=DIRECTION('ref_axis',(1.,0.,0.));
#1438=DIRECTION('center_axis',(0.,1.,0.));
#1439=DIRECTION('ref_axis',(1.,0.,0.));
#1440=DIRECTION('center_axis',(0.,-1.,0.));
#1441=DIRECTION('ref_axis',(1.,0.,0.));
#1442=DIRECTION('center_axis',(0.,1.,0.));
#1443=DIRECTION('ref_axis',(1.,0.,0.));
#1444=DIRECTION('center_axis',(0.,-1.,0.));
#1445=DIRECTION('ref_axis',(1.,0.,0.));
#1446=DIRECTION('center_axis',(0.,1.,0.));
#1447=DIRECTION('ref_axis',(1.,0.,0.));
#1448=DIRECTION('center_axis',(0.,0.707106781186548,0.707106781186547));
#1449=DIRECTION('ref_axis',(1.,0.,0.));
#1450=DIRECTION('',(0.577350269189627,-0.577350269189625,0.577350269189625));
#1451=DIRECTION('',(1.,0.,0.));
#1452=DIRECTION('',(0.577350269189626,0.577350269189626,-0.577350269189626));
#1453=DIRECTION('center_axis',(0.,0.707106781186548,-0.707106781186547));
#1454=DIRECTION('ref_axis',(-1.,0.,0.));
#1455=DIRECTION('',(-0.577350269189626,0.577350269189626,0.577350269189626));
#1456=DIRECTION('',(0.577350269189626,0.577350269189626,0.577350269189626));
#1457=DIRECTION('center_axis',(0.707106781186547,0.707106781186548,-7.85046229341887E-16));
#1458=DIRECTION('ref_axis',(-1.11022302462516E-15,0.,-1.));
#1459=DIRECTION('',(-1.11022302462516E-15,0.,-1.));
#1460=DIRECTION('center_axis',(-0.707106781186547,0.707106781186549,4.13182225969414E-16));
#1461=DIRECTION('ref_axis',(5.84327907697451E-16,0.,1.));
#1462=DIRECTION('center_axis',(1.,0.,-1.11022302462516E-15));
#1463=DIRECTION('ref_axis',(1.11022302462516E-15,0.,1.));
#1464=DIRECTION('',(0.,-1.,0.));
#1465=DIRECTION('center_axis',(-1.,0.,-1.03276560430247E-16));
#1466=DIRECTION('ref_axis',(1.03276560430247E-16,0.,-1.));
#1467=DIRECTION('',(0.,-1.,0.));
#1468=DIRECTION('',(0.,-1.,0.));
#1469=DIRECTION('center_axis',(0.,0.,1.));
#1470=DIRECTION('ref_axis',(-1.,0.,0.));
#1471=DIRECTION('',(0.,1.,0.));
#1472=DIRECTION('',(0.,1.,0.));
#1473=DIRECTION('center_axis',(0.,0.,1.));
#1474=DIRECTION('ref_axis',(-1.,0.,0.));
#1475=DIRECTION('',(0.,1.,0.));
#1476=DIRECTION('',(0.,1.,0.));
#1477=DIRECTION('center_axis',(0.,0.,1.));
#1478=DIRECTION('ref_axis',(-1.,0.,0.));
#1479=DIRECTION('',(0.,1.,0.));
#1480=DIRECTION('center_axis',(0.,0.,-1.));
#1481=DIRECTION('ref_axis',(1.,0.,0.));
#1482=DIRECTION('',(0.,1.,0.));
#1483=DIRECTION('',(0.,-1.,0.));
#1484=DIRECTION('center_axis',(0.,0.,-1.));
#1485=DIRECTION('ref_axis',(1.,0.,0.));
#1486=DIRECTION('',(0.,1.,0.));
#1487=DIRECTION('center_axis',(1.,0.,-1.03276560430247E-16));
#1488=DIRECTION('ref_axis',(1.03276560430247E-16,0.,1.));
#1489=DIRECTION('center_axis',(0.,0.,1.));
#1490=DIRECTION('ref_axis',(-1.,0.,0.));
#1491=DIRECTION('center_axis',(-1.,0.,0.));
#1492=DIRECTION('ref_axis',(0.,0.,1.));
#1493=DIRECTION('',(0.,1.,0.));
#1494=DIRECTION('center_axis',(0.,0.,-1.));
#1495=DIRECTION('ref_axis',(-1.,0.,0.));
#1496=DIRECTION('',(0.,1.,0.));
#1497=DIRECTION('center_axis',(1.,0.,-3.41607084500048E-16));
#1498=DIRECTION('ref_axis',(-3.41607084500048E-16,0.,-1.));
#1499=DIRECTION('center_axis',(0.,-1.,0.));
#1500=DIRECTION('ref_axis',(-1.71512449944288E-15,0.,1.));
#1501=DIRECTION('',(0.,1.,0.));
#1502=DIRECTION('center_axis',(0.,-1.,0.));
#1503=DIRECTION('ref_axis',(6.12323399573677E-17,0.,1.));
#1504=DIRECTION('',(0.,1.,0.));
#1505=DIRECTION('center_axis',(0.,-1.,0.));
#1506=DIRECTION('ref_axis',(-1.83697019872103E-16,0.,-1.));
#1507=DIRECTION('',(0.,1.,0.));
#1508=DIRECTION('center_axis',(0.,-1.,0.));
#1509=DIRECTION('ref_axis',(-1.96005385927235E-15,0.,-1.));
#1510=DIRECTION('',(0.,1.,0.));
#1511=CARTESIAN_POINT('',(0.,0.,0.));
#1512=CARTESIAN_POINT('Origin',(-4.44089209850063E-15,0.7,1.77635683940025E-14));
#1513=CARTESIAN_POINT('',(-27.75,0.7,43.));
#1514=CARTESIAN_POINT('',(-24.75,0.7,43.));
#1515=CARTESIAN_POINT('',(-27.75,0.7,43.));
#1516=CARTESIAN_POINT('',(-27.75,0.7,-43.));
#1517=CARTESIAN_POINT('',(-27.75,0.7,-43.));
#1518=CARTESIAN_POINT('',(-24.75,0.7,-43.));
#1519=CARTESIAN_POINT('',(27.75,0.7,-43.));
#1520=CARTESIAN_POINT('',(24.75,0.7,-43.));
#1521=CARTESIAN_POINT('',(27.75,0.7,-43.));
#1522=CARTESIAN_POINT('',(27.75,0.7,-43.));
#1523=CARTESIAN_POINT('',(27.75,0.7,-43.));
#1524=CARTESIAN_POINT('',(27.75,0.7,43.));
#1525=CARTESIAN_POINT('',(27.75,0.7,43.));
#1526=CARTESIAN_POINT('',(24.75,0.7,43.));
#1527=CARTESIAN_POINT('',(-27.75,0.7,43.));
#1528=CARTESIAN_POINT('',(-27.75,0.7,43.));
#1529=CARTESIAN_POINT('',(-25.9999999999999,0.7,40.8));
#1530=CARTESIAN_POINT('',(-26.,0.7,-35.2));
#1531=CARTESIAN_POINT('',(-26.,0.7,-17.6));
#1532=CARTESIAN_POINT('',(26.,0.7,40.8));
#1533=CARTESIAN_POINT('',(-13.,0.7,40.8));
#1534=CARTESIAN_POINT('',(26.,0.7,-35.2));
#1535=CARTESIAN_POINT('',(26.,0.7,20.4));
#1536=CARTESIAN_POINT('',(13.,0.7,-35.2));
#1537=CARTESIAN_POINT('Origin',(26.,3.5,40.8));
#1538=CARTESIAN_POINT('',(26.,1.5,40.8));
#1539=CARTESIAN_POINT('',(26.,3.5,40.8));
#1540=CARTESIAN_POINT('',(26.,1.5,-35.2));
#1541=CARTESIAN_POINT('',(26.,1.5,20.4));
#1542=CARTESIAN_POINT('',(26.,3.5,-35.2));
#1543=CARTESIAN_POINT('Origin',(-25.9999999999999,3.5,40.8));
#1544=CARTESIAN_POINT('',(-25.9999999999999,1.5,40.8));
#1545=CARTESIAN_POINT('',(-25.9999999999999,3.5,40.8));
#1546=CARTESIAN_POINT('',(-13.,1.5,40.8));
#1547=CARTESIAN_POINT('Origin',(-29.,0.25,-64.));
#1548=CARTESIAN_POINT('',(-28.2928932188135,1.7928932188135,-64.7071067811865));
#1549=CARTESIAN_POINT('',(-28.,1.5,-65.));
#1550=CARTESIAN_POINT('',(-23.7916666666666,-2.70833333333333,-69.2083333333333));
#1551=CARTESIAN_POINT('',(-28.,-2.5,-65.));
#1552=CARTESIAN_POINT('',(-28.,0.25,-65.));
#1553=CARTESIAN_POINT('',(-30.,-2.5,-63.));
#1554=CARTESIAN_POINT('',(-37.75,-2.5,-55.25));
#1555=CARTESIAN_POINT('',(-30.,2.5,-63.));
#1556=CARTESIAN_POINT('',(-30.,0.25,-63.));
#1557=CARTESIAN_POINT('',(-27.8865705377118,1.62458885360137,-65.1134294622882));
#1558=CARTESIAN_POINT('Origin',(-4.44089209850063E-15,-2.5,0.));
#1559=CARTESIAN_POINT('',(28.,-2.5,-65.));
#1560=CARTESIAN_POINT('',(30.,-2.5,-65.));
#1561=CARTESIAN_POINT('',(30.,-2.5,-63.));
#1562=CARTESIAN_POINT('',(37.75,-2.5,-55.25));
#1563=CARTESIAN_POINT('',(30.,-2.5,93.));
#1564=CARTESIAN_POINT('',(30.,-2.5,-55.));
#1565=CARTESIAN_POINT('',(28.,-2.5,95.));
#1566=CARTESIAN_POINT('',(45.25,-2.5,77.75));
#1567=CARTESIAN_POINT('',(-28.,-2.5,95.));
#1568=CARTESIAN_POINT('',(30.,-2.5,95.));
#1569=CARTESIAN_POINT('',(-30.,-2.5,93.));
#1570=CARTESIAN_POINT('',(-45.2499999999999,-2.5,77.7500000000002));
#1571=CARTESIAN_POINT('',(-30.,-2.5,55.));
#1572=CARTESIAN_POINT('',(21.5,-2.5,90.));
#1573=CARTESIAN_POINT('Origin',(25.,-2.5,90.));
#1574=CARTESIAN_POINT('',(-28.500000372529,-2.5,55.5));
#1575=CARTESIAN_POINT('Origin',(-25.000000372529,-2.5,55.5));
#1576=CARTESIAN_POINT('',(-28.5,-2.5,-60.));
#1577=CARTESIAN_POINT('Origin',(-25.,-2.5,-60.));
#1578=CARTESIAN_POINT('',(-21.000128933377,-2.5,-43.));
#1579=CARTESIAN_POINT('',(-24.75,-2.5,-43.));
#1580=CARTESIAN_POINT('',(-13.875,-2.5,-43.));
#1581=CARTESIAN_POINT('Origin',(-24.75,-2.5,-45.5));
#1582=CARTESIAN_POINT('',(-27.75,-2.5,-43.));
#1583=CARTESIAN_POINT('',(-13.875,-2.5,-43.));
#1584=CARTESIAN_POINT('',(-27.75,-2.5,43.));
#1585=CARTESIAN_POINT('',(-27.75,-2.5,21.5));
#1586=CARTESIAN_POINT('',(-24.75,-2.5,43.));
#1587=CARTESIAN_POINT('',(13.875,-2.5,43.));
#1588=CARTESIAN_POINT('Origin',(-24.75,-2.5,45.5));
#1589=CARTESIAN_POINT('',(24.75,-2.5,43.));
#1590=CARTESIAN_POINT('',(13.875,-2.5,43.));
#1591=CARTESIAN_POINT('Origin',(24.75,-2.5,45.5));
#1592=CARTESIAN_POINT('',(27.75,-2.5,43.));
#1593=CARTESIAN_POINT('',(13.875,-2.5,43.));
#1594=CARTESIAN_POINT('',(27.75,-2.5,-43.));
#1595=CARTESIAN_POINT('',(27.75,-2.5,-21.5));
#1596=CARTESIAN_POINT('',(24.75,-2.5,-43.));
#1597=CARTESIAN_POINT('',(-13.875,-2.5,-43.));
#1598=CARTESIAN_POINT('Origin',(24.75,-2.5,-45.5));
#1599=CARTESIAN_POINT('',(20.999871066623,-2.5,-43.));
#1600=CARTESIAN_POINT('',(-13.875,-2.5,-43.));
#1601=CARTESIAN_POINT('',(20.999871066623,-2.5,-49.5));
#1602=CARTESIAN_POINT('',(20.999871066623,-2.5,-21.5));
#1603=CARTESIAN_POINT('',(-21.000128933377,-2.5,-49.5));
#1604=CARTESIAN_POINT('',(10.4999355333115,-2.5,-49.5));
#1605=CARTESIAN_POINT('',(-21.000128933377,-2.5,-24.75));
#1606=CARTESIAN_POINT('',(9.75000000000002,-2.5,68.9));
#1607=CARTESIAN_POINT('Origin',(2.22044604925031E-14,-2.5,68.9));
#1608=CARTESIAN_POINT('',(21.5,-2.5,-60.));
#1609=CARTESIAN_POINT('Origin',(25.,-2.5,-60.));
#1610=CARTESIAN_POINT('',(21.5,-2.5,55.5));
#1611=CARTESIAN_POINT('Origin',(25.,-2.5,55.5));
#1612=CARTESIAN_POINT('',(-28.5,-2.5,90.));
#1613=CARTESIAN_POINT('Origin',(-25.,-2.5,90.));
#1614=CARTESIAN_POINT('Origin',(4.44089209850063E-15,0.5,-65.));
#1615=CARTESIAN_POINT('',(28.,1.5,-65.));
#1616=CARTESIAN_POINT('',(0.,1.5,-65.));
#1617=CARTESIAN_POINT('',(28.,0.25,-65.));
#1618=CARTESIAN_POINT('Origin',(0.,2.5,-64.));
#1619=CARTESIAN_POINT('',(-29.,3.5,-63.));
#1620=CARTESIAN_POINT('',(-28.1715728752538,1.5,-65.));
#1621=CARTESIAN_POINT('',(29.,3.5,-63.));
#1622=CARTESIAN_POINT('',(0.,3.5,-63.));
#1623=CARTESIAN_POINT('',(28.2928932188134,1.79289321881345,-64.7071067811865));
#1624=CARTESIAN_POINT('',(27.8220604070772,0.656202259109528,-65.8437977408905));
#1625=CARTESIAN_POINT('',(23.7916666666667,-2.70833333333333,-69.2083333333333));
#1626=CARTESIAN_POINT('Origin',(-22.0428932188134,9.04289321881345,-64.));
#1627=CARTESIAN_POINT('',(-22.75,9.75,-63.));
#1628=CARTESIAN_POINT('Origin',(-30.,0.,-55.));
#1629=CARTESIAN_POINT('',(-30.,2.5,93.));
#1630=CARTESIAN_POINT('',(-30.,0.,93.));
#1631=CARTESIAN_POINT('',(-30.,2.5,55.));
#1632=CARTESIAN_POINT('Origin',(29.,0.25,-64.));
#1633=CARTESIAN_POINT('',(30.,2.5,-63.));
#1634=CARTESIAN_POINT('',(28.,1.6715728752538,-65.));
#1635=CARTESIAN_POINT('',(30.,0.25,-63.));
#1636=CARTESIAN_POINT('Origin',(22.0428932188134,9.04289321881345,-64.));
#1637=CARTESIAN_POINT('',(22.75,9.75,-63.));
#1638=CARTESIAN_POINT('Origin',(30.,0.,55.));
#1639=CARTESIAN_POINT('',(30.,2.5,93.));
#1640=CARTESIAN_POINT('',(30.,2.5,55.));
#1641=CARTESIAN_POINT('',(30.,0.,93.));
#1642=CARTESIAN_POINT('Origin',(29.5,3.,27.5));
#1643=CARTESIAN_POINT('',(29.,3.5,93.));
#1644=CARTESIAN_POINT('',(29.,3.5,-55.));
#1645=CARTESIAN_POINT('',(29.5,3.,93.5));
#1646=CARTESIAN_POINT('',(11.25,21.25,75.2500000000001));
#1647=CARTESIAN_POINT('',(40.8333333333333,-8.33333333333332,82.1666666666667));
#1648=CARTESIAN_POINT('Origin',(-4.44089209850063E-15,3.5,8.88178419700125E-15));
#1649=CARTESIAN_POINT('',(-29.,3.5,93.));
#1650=CARTESIAN_POINT('',(-29.,3.5,55.));
#1651=CARTESIAN_POINT('',(-15.,3.5,93.));
#1652=CARTESIAN_POINT('',(9.75000000000002,3.5,68.9));
#1653=CARTESIAN_POINT('Origin',(2.22044604925031E-14,3.5,68.9));
#1654=CARTESIAN_POINT('',(-27.9999999999999,3.5,42.8));
#1655=CARTESIAN_POINT('',(28.,3.5,42.8));
#1656=CARTESIAN_POINT('',(-13.,3.5,42.8));
#1657=CARTESIAN_POINT('',(-28.,3.5,-37.2));
#1658=CARTESIAN_POINT('',(-28.,3.5,-17.6));
#1659=CARTESIAN_POINT('',(28.,3.5,-37.2));
#1660=CARTESIAN_POINT('',(13.,3.5,-37.2));
#1661=CARTESIAN_POINT('',(28.,3.5,20.4));
#1662=CARTESIAN_POINT('Origin',(-29.,0.,94.));
#1663=CARTESIAN_POINT('',(-28.,1.5,95.));
#1664=CARTESIAN_POINT('',(-28.,0.,95.));
#1665=CARTESIAN_POINT('',(-28.2928932188134,1.79289321881344,94.7071067811866));
#1666=CARTESIAN_POINT('',(-26.25,-0.250000000000006,96.75));
#1667=CARTESIAN_POINT('',(-28.8911576381567,2.04070245519068,94.1088423618433));
#1668=CARTESIAN_POINT('Origin',(-15.,2.5,94.));
#1669=CARTESIAN_POINT('',(28.,1.5,95.));
#1670=CARTESIAN_POINT('',(-15.,1.5,95.));
#1671=CARTESIAN_POINT('',(21.25,-5.25000000000002,101.75));
#1672=CARTESIAN_POINT('',(-28.1715728752538,1.5,95.));
#1673=CARTESIAN_POINT('Origin',(-30.,0.,95.));
#1674=CARTESIAN_POINT('',(28.,0.,95.));
#1675=CARTESIAN_POINT('Origin',(-29.6678932188134,1.41789321881346,94.));
#1676=CARTESIAN_POINT('',(-30.375,2.12500000000001,93.));
#1677=CARTESIAN_POINT('Origin',(-29.5,3.,-27.5));
#1678=CARTESIAN_POINT('Origin',(29.,0.,94.));
#1679=CARTESIAN_POINT('Origin',(25.,-2.,90.));
#1680=CARTESIAN_POINT('',(22.5,-1.5,90.));
#1681=CARTESIAN_POINT('',(22.,-2.,90.));
#1682=CARTESIAN_POINT('Origin',(25.,-1.5,90.));
#1683=CARTESIAN_POINT('Origin',(25.,-2.5,90.));
#1684=CARTESIAN_POINT('',(22.5,2.5,90.));
#1685=CARTESIAN_POINT('',(22.5,-2.5,90.));
#1686=CARTESIAN_POINT('Origin',(25.,2.5,90.));
#1687=CARTESIAN_POINT('Origin',(-25.,-2.,90.));
#1688=CARTESIAN_POINT('',(-27.5,-1.5,90.));
#1689=CARTESIAN_POINT('',(-28.,-2.,90.));
#1690=CARTESIAN_POINT('Origin',(-25.,-1.5,90.));
#1691=CARTESIAN_POINT('Origin',(-25.,-2.5,90.));
#1692=CARTESIAN_POINT('',(-27.5,2.5,90.));
#1693=CARTESIAN_POINT('',(-27.5,-2.5,90.));
#1694=CARTESIAN_POINT('Origin',(-25.,2.5,90.));
#1695=CARTESIAN_POINT('Origin',(-25.000000372529,-2.,55.5));
#1696=CARTESIAN_POINT('',(-27.500000372529,-1.5,55.5));
#1697=CARTESIAN_POINT('',(-28.000000372529,-2.,55.5));
#1698=CARTESIAN_POINT('Origin',(-25.000000372529,-1.5,55.5));
#1699=CARTESIAN_POINT('Origin',(-25.000000372529,-2.5,55.5));
#1700=CARTESIAN_POINT('',(-27.500000372529,2.5,55.5));
#1701=CARTESIAN_POINT('',(-27.500000372529,-2.5,55.5));
#1702=CARTESIAN_POINT('Origin',(-25.000000372529,2.5,55.5));
#1703=CARTESIAN_POINT('Origin',(25.,-2.,55.5));
#1704=CARTESIAN_POINT('',(22.5,-1.5,55.5));
#1705=CARTESIAN_POINT('',(22.,-2.,55.5));
#1706=CARTESIAN_POINT('Origin',(25.,-1.5,55.5));
#1707=CARTESIAN_POINT('Origin',(25.,-2.5,55.5));
#1708=CARTESIAN_POINT('',(22.5,2.5,55.5));
#1709=CARTESIAN_POINT('',(22.5,-2.5,55.5));
#1710=CARTESIAN_POINT('Origin',(25.,2.5,55.5));
#1711=CARTESIAN_POINT('Origin',(-25.,-2.,-60.));
#1712=CARTESIAN_POINT('',(-27.5,-1.5,-60.));
#1713=CARTESIAN_POINT('',(-28.,-2.,-60.));
#1714=CARTESIAN_POINT('Origin',(-25.,-1.5,-60.));
#1715=CARTESIAN_POINT('Origin',(-25.,-2.5,-60.));
#1716=CARTESIAN_POINT('',(-27.5,2.5,-60.));
#1717=CARTESIAN_POINT('',(-27.5,-2.5,-60.));
#1718=CARTESIAN_POINT('Origin',(-25.,2.5,-60.));
#1719=CARTESIAN_POINT('Origin',(25.,-2.,-60.));
#1720=CARTESIAN_POINT('',(22.5,-1.5,-60.));
#1721=CARTESIAN_POINT('',(22.,-2.,-60.));
#1722=CARTESIAN_POINT('Origin',(25.,-1.5,-60.));
#1723=CARTESIAN_POINT('Origin',(25.,-2.5,-60.));
#1724=CARTESIAN_POINT('',(22.5,2.5,-60.));
#1725=CARTESIAN_POINT('',(22.5,-2.5,-60.));
#1726=CARTESIAN_POINT('Origin',(25.,2.5,-60.));
#1727=CARTESIAN_POINT('Origin',(-25.,2.5,90.));
#1728=CARTESIAN_POINT('Origin',(25.,2.5,90.));
#1729=CARTESIAN_POINT('Origin',(-25.,2.5,-60.));
#1730=CARTESIAN_POINT('Origin',(-25.000000372529,2.5,55.5));
#1731=CARTESIAN_POINT('Origin',(25.,2.5,55.5));
#1732=CARTESIAN_POINT('Origin',(25.,2.5,-60.));
#1733=CARTESIAN_POINT('Origin',(2.22044604925031E-14,3.5,68.9));
#1734=CARTESIAN_POINT('',(9.75000000000002,3.5,68.9));
#1735=CARTESIAN_POINT('Origin',(-13.875,-0.25,-43.25));
#1736=CARTESIAN_POINT('',(-21.000128933377,1.38777878078145E-16,-43.));
#1737=CARTESIAN_POINT('',(-21.000128933377,-0.5,-43.5));
#1738=CARTESIAN_POINT('',(-21.000128933377,-2.375,-45.375));
#1739=CARTESIAN_POINT('',(20.999871066623,-0.5,-43.5));
#1740=CARTESIAN_POINT('',(-13.875,-0.5,-43.5));
#1741=CARTESIAN_POINT('',(20.999871066623,1.38777878078145E-16,-43.));
#1742=CARTESIAN_POINT('',(20.999871066623,-0.750000000000006,-43.75));
#1743=CARTESIAN_POINT('',(27.75,0.,-43.));
#1744=CARTESIAN_POINT('Origin',(-4.44089209850063E-15,-0.5,8.88178419700125E-15));
#1745=CARTESIAN_POINT('',(-21.000128933377,-0.5,-49.5));
#1746=CARTESIAN_POINT('',(-21.000128933377,-0.5,-36.5));
#1747=CARTESIAN_POINT('',(20.999871066623,-0.5,-49.5));
#1748=CARTESIAN_POINT('',(-21.000128933377,-0.5,-49.5));
#1749=CARTESIAN_POINT('',(20.999871066623,-0.5,-49.5));
#1750=CARTESIAN_POINT('Origin',(-27.75,0.,-43.));
#1751=CARTESIAN_POINT('',(-21.000128933377,-1.25,-43.));
#1752=CARTESIAN_POINT('',(20.999871066623,-1.25,-43.));
#1753=CARTESIAN_POINT('',(24.75,0.,-43.));
#1754=CARTESIAN_POINT('',(-24.75,0.,-43.));
#1755=CARTESIAN_POINT('Origin',(24.75,2.,-45.5));
#1756=CARTESIAN_POINT('',(24.75,2.,-43.));
#1757=CARTESIAN_POINT('Origin',(24.75,2.,-45.5));
#1758=CARTESIAN_POINT('Origin',(24.75,2.,45.5));
#1759=CARTESIAN_POINT('',(24.75,2.,43.));
#1760=CARTESIAN_POINT('Origin',(24.75,2.,45.5));
#1761=CARTESIAN_POINT('Origin',(-24.75,2.,-45.5));
#1762=CARTESIAN_POINT('',(-24.75,2.,-43.));
#1763=CARTESIAN_POINT('Origin',(-24.75,2.,-45.5));
#1764=CARTESIAN_POINT('Origin',(-24.75,2.,45.5));
#1765=CARTESIAN_POINT('',(-24.75,2.,43.));
#1766=CARTESIAN_POINT('Origin',(-24.75,2.,45.5));
#1767=CARTESIAN_POINT('Origin',(13.,2.5,-36.2));
#1768=CARTESIAN_POINT('',(-26.,1.5,-35.2));
#1769=CARTESIAN_POINT('',(-28.,3.5,-37.2));
#1770=CARTESIAN_POINT('',(13.,1.5,-35.2));
#1771=CARTESIAN_POINT('',(26.,1.5,-35.2));
#1772=CARTESIAN_POINT('Origin',(-13.,2.5,41.8));
#1773=CARTESIAN_POINT('',(-25.9999999999999,1.5,40.8));
#1774=CARTESIAN_POINT('',(26.,1.5,40.8));
#1775=CARTESIAN_POINT('Origin',(-27.,2.5,-17.6));
#1776=CARTESIAN_POINT('',(-26.,1.5,-17.6));
#1777=CARTESIAN_POINT('Origin',(27.,2.5,20.4));
#1778=CARTESIAN_POINT('Origin',(-26.,3.5,-35.2));
#1779=CARTESIAN_POINT('',(-26.,3.5,-35.2));
#1780=CARTESIAN_POINT('Origin',(-27.75,0.,43.));
#1781=CARTESIAN_POINT('',(-27.75,0.,-43.));
#1782=CARTESIAN_POINT('',(-27.75,0.,43.));
#1783=CARTESIAN_POINT('Origin',(27.75,0.,43.));
#1784=CARTESIAN_POINT('',(-24.75,0.,43.));
#1785=CARTESIAN_POINT('',(24.75,0.,43.));
#1786=CARTESIAN_POINT('Origin',(27.75,0.,43.));
#1787=CARTESIAN_POINT('',(24.75,0.,43.));
#1788=CARTESIAN_POINT('',(27.75,0.,43.));
#1789=CARTESIAN_POINT('Origin',(27.75,0.,43.));
#1790=CARTESIAN_POINT('',(-24.75,0.,43.));
#1791=CARTESIAN_POINT('Origin',(-27.75,0.,-43.));
#1792=CARTESIAN_POINT('',(24.75,0.,-43.));
#1793=CARTESIAN_POINT('',(27.75,0.,-43.));
#1794=CARTESIAN_POINT('Origin',(-27.75,0.,-43.));
#1795=CARTESIAN_POINT('',(-24.75,0.,-43.));
#1796=CARTESIAN_POINT('Origin',(27.75,0.,-43.));
#1797=CARTESIAN_POINT('Origin',(26.,3.5,-35.2));
#1798=CARTESIAN_POINT('Origin',(-21.000128933377,-2.5,-49.5));
#1799=CARTESIAN_POINT('',(-21.000128933377,-2.5,-49.5));
#1800=CARTESIAN_POINT('Origin',(20.999871066623,-2.5,-49.5));
#1801=CARTESIAN_POINT('',(20.999871066623,-2.5,-49.5));
#1802=CARTESIAN_POINT('Origin',(20.999871066623,-2.5,-43.));
#1803=CARTESIAN_POINT('Origin',(24.75,0.,45.5));
#1804=CARTESIAN_POINT('',(24.75,0.,43.));
#1805=CARTESIAN_POINT('Origin',(-24.75,0.,45.5));
#1806=CARTESIAN_POINT('',(-24.75,0.,43.));
#1807=CARTESIAN_POINT('Origin',(-24.75,0.,-45.5));
#1808=CARTESIAN_POINT('',(-24.75,0.,-43.));
#1809=CARTESIAN_POINT('Origin',(24.75,0.,-45.5));
#1810=CARTESIAN_POINT('',(24.75,0.,-43.));
#1811=UNCERTAINTY_MEASURE_WITH_UNIT(LENGTH_MEASURE(0.01),#1815,
'DISTANCE_ACCURACY_VALUE',
'Maximum model space distance between geometric entities at asserted c
onnectivities');
#1812=UNCERTAINTY_MEASURE_WITH_UNIT(LENGTH_MEASURE(0.01),#1815,
'DISTANCE_ACCURACY_VALUE',
'Maximum model space distance between geometric entities at asserted c
onnectivities');
#1813=(
GEOMETRIC_REPRESENTATION_CONTEXT(3)
GLOBAL_UNCERTAINTY_ASSIGNED_CONTEXT((#1811))
GLOBAL_UNIT_ASSIGNED_CONTEXT((#1815,#1817,#1818))
REPRESENTATION_CONTEXT('','3D')
);
#1814=(
GEOMETRIC_REPRESENTATION_CONTEXT(3)
GLOBAL_UNCERTAINTY_ASSIGNED_CONTEXT((#1812))
GLOBAL_UNIT_ASSIGNED_CONTEXT((#1815,#1817,#1818))
REPRESENTATION_CONTEXT('','3D')
);
#1815=(
LENGTH_UNIT()
NAMED_UNIT(*)
SI_UNIT(.MILLI.,.METRE.)
);
#1816=(
LENGTH_UNIT()
NAMED_UNIT(*)
SI_UNIT($,.METRE.)
);
#1817=(
NAMED_UNIT(*)
PLANE_ANGLE_UNIT()
SI_UNIT($,.RADIAN.)
);
#1818=(
NAMED_UNIT(*)
SI_UNIT($,.STERADIAN.)
SOLID_ANGLE_UNIT()
);
#1819=SHAPE_DEFINITION_REPRESENTATION(#1820,#1821);
#1820=PRODUCT_DEFINITION_SHAPE('',$,#1823);
#1821=SHAPE_REPRESENTATION('',(#1107),#1813);
#1822=PRODUCT_DEFINITION_CONTEXT('part definition',#1827,'design');
#1823=PRODUCT_DEFINITION('Front_frame','Front_frame v9',#1824,#1822);
#1824=PRODUCT_DEFINITION_FORMATION('',$,#1829);
#1825=PRODUCT_RELATED_PRODUCT_CATEGORY('Front_frame v9',
'Front_frame v9',(#1829));
#1826=APPLICATION_PROTOCOL_DEFINITION('international standard',
'automotive_design',2009,#1827);
#1827=APPLICATION_CONTEXT(
'Core Data for Automotive Mechanical Design Process');
#1828=PRODUCT_CONTEXT('part definition',#1827,'mechanical');
#1829=PRODUCT('Front_frame','Front_frame v9',$,(#1828));
#1830=PRESENTATION_STYLE_ASSIGNMENT((#1831));
#1831=SURFACE_STYLE_USAGE(.BOTH.,#1832);
#1832=SURFACE_SIDE_STYLE('',(#1833));
#1833=SURFACE_STYLE_FILL_AREA(#1834);
#1834=FILL_AREA_STYLE('Steel - Satin',(#1835));
#1835=FILL_AREA_STYLE_COLOUR('Steel - Satin',#1836);
#1836=COLOUR_RGB('Steel - Satin',0.627450980392157,0.627450980392157,0.627450980392157);
ENDSEC;
END-ISO-10303-21;
