%TF.GenerationSoftware,KiCad,Pcbnew,8.0.0*%
%TF.CreationDate,2024-06-19T21:37:33+02:00*%
%TF.ProjectId,PCB,5043422e-6b69-4636-9164-5f7063625858,0.1*%
%TF.SameCoordinates,Original*%
%TF.FileFunction,Copper,L2,Bot*%
%TF.FilePolarity,Positive*%
%FSLAX46Y46*%
G04 Gerber Fmt 4.6, Leading zero omitted, Abs format (unit mm)*
G04 Created by KiCad (PCBNEW 8.0.0) date 2024-06-19 21:37:33*
%MOMM*%
%LPD*%
G01*
G04 APERTURE LIST*
G04 Aperture macros list*
%AMRoundRect*
0 Rectangle with rounded corners*
0 $1 Rounding radius*
0 $2 $3 $4 $5 $6 $7 $8 $9 X,Y pos of 4 corners*
0 Add a 4 corners polygon primitive as box body*
4,1,4,$2,$3,$4,$5,$6,$7,$8,$9,$2,$3,0*
0 Add four circle primitives for the rounded corners*
1,1,$1+$1,$2,$3*
1,1,$1+$1,$4,$5*
1,1,$1+$1,$6,$7*
1,1,$1+$1,$8,$9*
0 Add four rect primitives between the rounded corners*
20,1,$1+$1,$2,$3,$4,$5,0*
20,1,$1+$1,$4,$5,$6,$7,0*
20,1,$1+$1,$6,$7,$8,$9,0*
20,1,$1+$1,$8,$9,$2,$3,0*%
G04 Aperture macros list end*
%TA.AperFunction,ComponentPad*%
%ADD10R,2.000000X2.000000*%
%TD*%
%TA.AperFunction,ComponentPad*%
%ADD11C,2.000000*%
%TD*%
%TA.AperFunction,ComponentPad*%
%ADD12R,1.700000X1.700000*%
%TD*%
%TA.AperFunction,ComponentPad*%
%ADD13O,1.700000X1.700000*%
%TD*%
%TA.AperFunction,ComponentPad*%
%ADD14C,5.600000*%
%TD*%
%TA.AperFunction,ComponentPad*%
%ADD15O,2.100000X1.000000*%
%TD*%
%TA.AperFunction,ComponentPad*%
%ADD16O,1.600000X1.000000*%
%TD*%
%TA.AperFunction,ComponentPad*%
%ADD17R,2.500000X2.500000*%
%TD*%
%TA.AperFunction,ComponentPad*%
%ADD18C,2.500000*%
%TD*%
%TA.AperFunction,ComponentPad*%
%ADD19RoundRect,0.250000X0.600000X-0.600000X0.600000X0.600000X-0.600000X0.600000X-0.600000X-0.600000X0*%
%TD*%
%TA.AperFunction,ComponentPad*%
%ADD20C,1.700000*%
%TD*%
%TA.AperFunction,ViaPad*%
%ADD21C,0.500000*%
%TD*%
%TA.AperFunction,ViaPad*%
%ADD22C,0.700000*%
%TD*%
%TA.AperFunction,ViaPad*%
%ADD23C,0.800000*%
%TD*%
%TA.AperFunction,Conductor*%
%ADD24C,0.250000*%
%TD*%
%TA.AperFunction,Conductor*%
%ADD25C,0.300000*%
%TD*%
%TA.AperFunction,Conductor*%
%ADD26C,0.500000*%
%TD*%
%TA.AperFunction,Conductor*%
%ADD27C,0.800000*%
%TD*%
G04 APERTURE END LIST*
D10*
%TO.P,BZ1,1,-*%
%TO.N,Net-(BZ1--)*%
X144050000Y-69660000D03*
D11*
%TO.P,BZ1,2,+*%
%TO.N,GND*%
X144050000Y-62060000D03*
%TD*%
D12*
%TO.P,J4,1,Pin_1*%
%TO.N,/TXD*%
X205100000Y-95800000D03*
D13*
%TO.P,J4,2,Pin_2*%
%TO.N,/RXD*%
X205100000Y-98340000D03*
%TO.P,J4,3,Pin_3*%
%TO.N,GND*%
X205100000Y-100880000D03*
%TO.P,J4,4,Pin_4*%
%TO.N,Net-(J4-Pin_4)*%
X205100000Y-103420000D03*
%TD*%
D14*
%TO.P,H3,1,1*%
%TO.N,GND*%
X113332944Y-63000000D03*
%TD*%
D15*
%TO.P,J14,S1,SHIELD*%
%TO.N,Net-(J14-SHIELD)*%
X202395000Y-79120000D03*
D16*
X206575000Y-79120000D03*
D15*
X202395000Y-70480000D03*
D16*
X206575000Y-70480000D03*
%TD*%
D17*
%TO.P,J2,1,Pin_1*%
%TO.N,GND*%
X121500000Y-111500000D03*
D18*
%TO.P,J2,2,Pin_2*%
%TO.N,Net-(D1-A)*%
X126500000Y-111500000D03*
%TD*%
D12*
%TO.P,J3,1,Pin_1*%
%TO.N,+3.3V*%
X168970000Y-63260000D03*
D13*
%TO.P,J3,2,Pin_2*%
%TO.N,Net-(J10-Pin_1)*%
X168970000Y-65800000D03*
%TD*%
D17*
%TO.P,J8,1,Pin_1*%
%TO.N,+12V_S*%
X133250000Y-111500000D03*
D18*
%TO.P,J8,2,Pin_2*%
%TO.N,Net-(D4-A)*%
X138250000Y-111500000D03*
%TD*%
D19*
%TO.P,J10,1,Pin_1*%
%TO.N,Net-(J10-Pin_1)*%
X177120000Y-65820000D03*
D20*
%TO.P,J10,2,Pin_2*%
X177120000Y-63280000D03*
%TO.P,J10,3,Pin_3*%
%TO.N,unconnected-(J10-Pin_3-Pad3)*%
X179660000Y-65820000D03*
%TO.P,J10,4,Pin_4*%
%TO.N,Net-(J10-Pin_4)*%
X179660000Y-63280000D03*
%TO.P,J10,5,Pin_5*%
%TO.N,unconnected-(J10-Pin_5-Pad5)*%
X182200000Y-65820000D03*
%TO.P,J10,6,Pin_6*%
%TO.N,Net-(J10-Pin_6)*%
X182200000Y-63280000D03*
%TO.P,J10,7,Pin_7*%
%TO.N,Net-(J10-Pin_7)*%
X184740000Y-65820000D03*
%TO.P,J10,8,Pin_8*%
%TO.N,unconnected-(J10-Pin_8-Pad8)*%
X184740000Y-63280000D03*
%TO.P,J10,9,Pin_9*%
%TO.N,Net-(J10-Pin_9)*%
X187280000Y-65820000D03*
%TO.P,J10,10,Pin_10*%
%TO.N,GND*%
X187280000Y-63280000D03*
%TD*%
D17*
%TO.P,J5,1,Pin_1*%
%TO.N,Net-(J5-Pin_1)*%
X178250000Y-111500000D03*
D18*
%TO.P,J5,2,Pin_2*%
%TO.N,Net-(J5-Pin_2)*%
X183250000Y-111500000D03*
%TD*%
D14*
%TO.P,H2,1,1*%
%TO.N,GND*%
X205282944Y-112462944D03*
%TD*%
D17*
%TO.P,J6,1,Pin_1*%
%TO.N,+12V_S*%
X167000000Y-111500000D03*
D18*
%TO.P,J6,2,Pin_2*%
%TO.N,Net-(D6-A)*%
X172000000Y-111500000D03*
%TD*%
D17*
%TO.P,J1,1,Pin_1*%
%TO.N,Net-(J1-Pin_1)*%
X189500000Y-111500000D03*
D18*
%TO.P,J1,2,Pin_2*%
%TO.N,Net-(J1-Pin_2)*%
X194500000Y-111500000D03*
%TD*%
D14*
%TO.P,H4,1,1*%
%TO.N,GND*%
X113332944Y-112482944D03*
%TD*%
D17*
%TO.P,J12,1,Pin_1*%
%TO.N,+12V_S*%
X144500000Y-111500000D03*
D18*
%TO.P,J12,2,Pin_2*%
%TO.N,Net-(D5-A)*%
X149500000Y-111500000D03*
%TD*%
D17*
%TO.P,J7,1,Pin_1*%
%TO.N,+12V_S*%
X155750000Y-111500000D03*
D18*
%TO.P,J7,2,Pin_2*%
%TO.N,Net-(D8-A)*%
X160750000Y-111500000D03*
%TD*%
D14*
%TO.P,H1,1,1*%
%TO.N,GND*%
X205282944Y-63000000D03*
%TD*%
D12*
%TO.P,J13,1,Pin_1*%
%TO.N,+3.3V*%
X112550000Y-104380000D03*
D13*
%TO.P,J13,2,Pin_2*%
%TO.N,GND*%
X112550000Y-101840000D03*
%TO.P,J13,3,Pin_3*%
%TO.N,/CS_TFT*%
X112550000Y-99300000D03*
%TO.P,J13,4,Pin_4*%
%TO.N,/RESET_TFT*%
X112550000Y-96760000D03*
%TO.P,J13,5,Pin_5*%
%TO.N,/DC{slash}RS*%
X112550000Y-94220000D03*
%TO.P,J13,6,Pin_6*%
%TO.N,/MOSI_TFT*%
X112550000Y-91680000D03*
%TO.P,J13,7,Pin_7*%
%TO.N,/SCK_TFT*%
X112550000Y-89140000D03*
%TO.P,J13,8,Pin_8*%
%TO.N,/LED_TFT*%
X112550000Y-86600000D03*
%TO.P,J13,9,Pin_9*%
%TO.N,/MISO_TFT*%
X112550000Y-84060000D03*
%TO.P,J13,10,Pin_10*%
%TO.N,/SCK_TFT*%
X112550000Y-81520000D03*
%TO.P,J13,11,Pin_11*%
%TO.N,/CS_TP*%
X112550000Y-78980000D03*
%TO.P,J13,12,Pin_12*%
%TO.N,/MOSI_TFT*%
X112550000Y-76440000D03*
%TO.P,J13,13,Pin_13*%
%TO.N,/MISO_TFT*%
X112550000Y-73900000D03*
%TO.P,J13,14,Pin_14*%
%TO.N,/IRQ_TP*%
X112550000Y-71360000D03*
%TD*%
D21*
%TO.N,GND*%
X141740000Y-82330000D03*
X141740000Y-81000000D03*
X169392600Y-105689400D03*
X158318200Y-105664000D03*
X147040600Y-105638600D03*
X135864600Y-105638600D03*
X119684800Y-101733458D03*
X119684800Y-105130600D03*
X176606200Y-91236800D03*
X192405000Y-92633800D03*
X115480000Y-97160000D03*
X115480000Y-93510000D03*
X121843800Y-99491800D03*
X185115200Y-74726800D03*
X184226200Y-77139800D03*
X181356000Y-79959200D03*
X178485800Y-82778600D03*
X176072800Y-85699600D03*
%TO.N,/CS_FLASH*%
X175275330Y-83362800D03*
X181660800Y-87579200D03*
%TO.N,GND*%
X188264800Y-92608400D03*
X186165200Y-92618400D03*
X157416800Y-78181200D03*
X152056800Y-78181200D03*
X154736800Y-78181200D03*
X162420000Y-86140000D03*
%TO.N,+3.3V*%
X180805000Y-89935000D03*
%TO.N,/MISO_TC*%
X184750000Y-90090000D03*
%TO.N,GND*%
X200490000Y-62025000D03*
X200490000Y-64920000D03*
X169367200Y-104565416D03*
X195595000Y-91700000D03*
X186597000Y-96199800D03*
X199540000Y-99000000D03*
X120420000Y-61700000D03*
X171180000Y-94600000D03*
X197900000Y-63940000D03*
X199540000Y-96105000D03*
X152530000Y-61100000D03*
X155310000Y-61100000D03*
X168120000Y-70590000D03*
X120180000Y-82880000D03*
X194030000Y-62035000D03*
X131800000Y-84590000D03*
X132060000Y-77460000D03*
X143430000Y-89010000D03*
X120180000Y-93515710D03*
X133460000Y-84590000D03*
X165340000Y-70590000D03*
X125890000Y-79780000D03*
X170690000Y-87525000D03*
X168850330Y-83199949D03*
X168010000Y-77900000D03*
X190196643Y-105325588D03*
X199540000Y-101895000D03*
X120180000Y-85007142D03*
X114497500Y-108500000D03*
X121460000Y-113670000D03*
X171930000Y-74060000D03*
X188820000Y-98790000D03*
X135510000Y-88550000D03*
X124976666Y-61700000D03*
X120180000Y-91388568D03*
X155310000Y-67880000D03*
X175260000Y-98380000D03*
X175840000Y-101780000D03*
X171300381Y-81440000D03*
X153020000Y-104850000D03*
X162500330Y-78539949D03*
X134090000Y-61700000D03*
X165970330Y-85999949D03*
X164340279Y-81900000D03*
X156400000Y-84450000D03*
X115755000Y-75075000D03*
X194030000Y-64930000D03*
X173220000Y-96490000D03*
X158225000Y-104475000D03*
X190955000Y-74600000D03*
X188125273Y-104429969D03*
X188950000Y-80380000D03*
X193850000Y-74600000D03*
X141240000Y-105200000D03*
X129850000Y-77460000D03*
X111855000Y-108500000D03*
X120180000Y-87134284D03*
X191630000Y-80380000D03*
X141240000Y-102305000D03*
X123901200Y-101625400D03*
X135510000Y-85870000D03*
X121530000Y-109220000D03*
X166491691Y-93731309D03*
X167410330Y-84599949D03*
X163990000Y-104740000D03*
X116820000Y-100690000D03*
X145300000Y-90400000D03*
X146962500Y-104331100D03*
X135825000Y-104368600D03*
X190570000Y-101340000D03*
X196462877Y-102825000D03*
X152530000Y-67880000D03*
X172130000Y-86140000D03*
X199540000Y-113025000D03*
X153020000Y-101955000D03*
X157940000Y-92280000D03*
X163990000Y-101845000D03*
X178940000Y-101780000D03*
X119190000Y-111500000D03*
X182140000Y-74726800D03*
X123900000Y-111510000D03*
X120180000Y-89261426D03*
X178689973Y-105229991D03*
X115197500Y-100690000D03*
X117140000Y-108500000D03*
X129533332Y-61700000D03*
X174010000Y-75850000D03*
X168927830Y-84632449D03*
X188696600Y-96189800D03*
X128980000Y-79770000D03*
X160005000Y-66890000D03*
X155260000Y-92280000D03*
X143430000Y-91690000D03*
X167752291Y-92790389D03*
X194310000Y-80380000D03*
X199540000Y-110130000D03*
X127510000Y-77460000D03*
X176090000Y-77640000D03*
X117650000Y-73170000D03*
X193140000Y-101370000D03*
X184096338Y-102041499D03*
X169250000Y-88910000D03*
X167372830Y-86027449D03*
X152580000Y-92280000D03*
X180490000Y-101780000D03*
X125520000Y-77460000D03*
X196640000Y-87300000D03*
X158850000Y-84450000D03*
X175890000Y-104860000D03*
D22*
%TO.N,Net-(D2-K)*%
X128000000Y-94750000D03*
X124800000Y-94750000D03*
%TO.N,+3.3V*%
X136500000Y-77350000D03*
D21*
X184050000Y-105100000D03*
X162549485Y-91912085D03*
X198980000Y-88090000D03*
X167310330Y-78839949D03*
X164463647Y-64345143D03*
D22*
X137600000Y-77350000D03*
D21*
X203010000Y-106600000D03*
X195620000Y-105090000D03*
D22*
X137600000Y-78250000D03*
D21*
X204581973Y-80987703D03*
X175200330Y-86539949D03*
X168500330Y-92139949D03*
D22*
X136500000Y-78250000D03*
D21*
X169708515Y-79848134D03*
X137600000Y-70740000D03*
%TO.N,/LED_TFT*%
X115200000Y-79450000D03*
%TO.N,/OUT2*%
X174075330Y-82219807D03*
X167700000Y-101100000D03*
%TO.N,/OUT1*%
X156575000Y-101025000D03*
X173500330Y-81639949D03*
%TO.N,/SSR1*%
X134195000Y-100900000D03*
X172306917Y-80533362D03*
%TO.N,/SSR2*%
X172925330Y-81039949D03*
X145300000Y-100900000D03*
D23*
%TO.N,Net-(J14-SHIELD)*%
X205410000Y-72950000D03*
X205410000Y-76710000D03*
D21*
%TO.N,/D+*%
X203000000Y-74500000D03*
X200000000Y-88560000D03*
%TO.N,/D-*%
X203007148Y-75564297D03*
X200000000Y-89830000D03*
%TO.N,/NRST*%
X165200330Y-82639949D03*
X176700000Y-72090000D03*
%TO.N,/AN_T1*%
X173450000Y-91230000D03*
X185700000Y-101920000D03*
%TO.N,/SCK_TC*%
X194000000Y-97600000D03*
X182500000Y-97600000D03*
%TO.N,/MISO_TC*%
X179959013Y-97000000D03*
X191460000Y-97000000D03*
%TO.N,/DC{slash}RS*%
X115210000Y-80230000D03*
%TO.N,/AN_12V*%
X147720000Y-87950000D03*
X165790000Y-77650000D03*
%TO.N,/INHIBIT*%
X166540000Y-80470000D03*
X151760000Y-88760000D03*
%TD*%
D24*
%TO.N,+3.3V*%
X180805000Y-89935000D02*
X178595381Y-89935000D01*
X178595381Y-89935000D02*
X175200330Y-86539949D01*
D25*
X162549485Y-91920515D02*
X162448503Y-92021497D01*
X162549485Y-91912085D02*
X162549485Y-91920515D01*
X158060000Y-96400000D02*
X162547915Y-91912085D01*
X138960000Y-96400000D02*
X158060000Y-96400000D01*
X162547915Y-91912085D02*
X162549485Y-91912085D01*
X137600000Y-95040000D02*
X138960000Y-96400000D01*
X137600000Y-79190000D02*
X137600000Y-95040000D01*
X170460000Y-84028808D02*
X170460000Y-79848134D01*
X169953859Y-84534949D02*
X170460000Y-84028808D01*
X162549485Y-91910515D02*
X169925051Y-84534949D01*
X162549485Y-91912085D02*
X162549485Y-91910515D01*
X169925051Y-84534949D02*
X169953859Y-84534949D01*
%TO.N,/DC{slash}RS*%
X113010000Y-94220000D02*
X112550000Y-94220000D01*
X115210000Y-92020000D02*
X113010000Y-94220000D01*
X115210000Y-80230000D02*
X115210000Y-92020000D01*
%TO.N,/MISO_TFT*%
X113180000Y-84060000D02*
X112550000Y-84060000D01*
X114000000Y-75350000D02*
X114000000Y-83240000D01*
X112550000Y-73900000D02*
X114000000Y-75350000D01*
X114000000Y-83240000D02*
X113180000Y-84060000D01*
%TO.N,/SCK_TFT*%
X112550000Y-89130000D02*
X112550000Y-89140000D01*
X111180000Y-87760000D02*
X112550000Y-89130000D01*
X111180000Y-82890000D02*
X111180000Y-87760000D01*
X112550000Y-81520000D02*
X111180000Y-82890000D01*
%TO.N,+3.3V*%
X168318515Y-79848134D02*
X167310330Y-78839949D01*
X169708515Y-79848134D02*
X168318515Y-79848134D01*
X174675330Y-81734949D02*
X174675330Y-86014949D01*
X172788515Y-79848134D02*
X174675330Y-81734949D01*
X169708515Y-79848134D02*
X172788515Y-79848134D01*
X174675330Y-86014949D02*
X175200330Y-86539949D01*
D24*
%TO.N,/CS_FLASH*%
X179476400Y-87579200D02*
X181660800Y-87579200D01*
X175275330Y-83362800D02*
X175275330Y-83378130D01*
X175275330Y-83378130D02*
X179476400Y-87579200D01*
D25*
%TO.N,/MISO_TC*%
X182570000Y-90090000D02*
X179959013Y-92700987D01*
X179959013Y-92700987D02*
X179959013Y-97000000D01*
X184750000Y-90090000D02*
X182570000Y-90090000D01*
D26*
%TO.N,Net-(D2-K)*%
X128000000Y-94750000D02*
X124800000Y-94750000D01*
%TO.N,+3.3V*%
X164500000Y-63260000D02*
X168970000Y-63260000D01*
X137600000Y-70190000D02*
X141970000Y-65820000D01*
D24*
X168500330Y-92139949D02*
X171570330Y-89069949D01*
D27*
X137600000Y-77350000D02*
X137600000Y-76200000D01*
D24*
X171570330Y-89069949D02*
X172670330Y-89069949D01*
D25*
X181730000Y-100640000D02*
X175660000Y-100640000D01*
X203010000Y-90670000D02*
X203010000Y-106600000D01*
X198980000Y-89950000D02*
X199700000Y-90670000D01*
X203010000Y-82559676D02*
X203010000Y-90670000D01*
X198980000Y-88090000D02*
X198980000Y-89950000D01*
X195590000Y-103890000D02*
X195620000Y-103920000D01*
D26*
X137600000Y-70740000D02*
X137600000Y-70190000D01*
D25*
X175660000Y-100640000D02*
X168500330Y-93480330D01*
X199700000Y-90670000D02*
X203010000Y-90670000D01*
D26*
X151590000Y-65820000D02*
X154150000Y-63260000D01*
X154150000Y-63260000D02*
X164500000Y-63260000D01*
D25*
X184050000Y-102960000D02*
X194660000Y-102960000D01*
D26*
X141970000Y-65820000D02*
X151590000Y-65820000D01*
D25*
X195620000Y-103920000D02*
X195620000Y-105090000D01*
X204581973Y-80987703D02*
X203010000Y-82559676D01*
X194660000Y-102960000D02*
X195590000Y-103890000D01*
X184050000Y-102960000D02*
X181730000Y-100640000D01*
D27*
X137600000Y-79190000D02*
X137600000Y-78250000D01*
D25*
X168500330Y-92139949D02*
X168500000Y-92140279D01*
X184050000Y-105100000D02*
X184050000Y-102960000D01*
X168500330Y-93480330D02*
X168500330Y-92139949D01*
D26*
X137600000Y-76200000D02*
X137600000Y-70740000D01*
D24*
X172670330Y-89069949D02*
X175200330Y-86539949D01*
D25*
X164463647Y-64345143D02*
X164463647Y-63408647D01*
%TO.N,/LED_TFT*%
X114600000Y-84550000D02*
X112550000Y-86600000D01*
X114940000Y-79450000D02*
X114600000Y-79790000D01*
X114600000Y-79790000D02*
X114600000Y-84550000D01*
X115200000Y-79450000D02*
X114940000Y-79450000D01*
%TO.N,/OUT2*%
X167700000Y-101100000D02*
X167690000Y-101090000D01*
X166930000Y-90360000D02*
X174075330Y-83214670D01*
X174075330Y-83214670D02*
X174075330Y-82219807D01*
X166930000Y-93040000D02*
X166930000Y-90360000D01*
X167690000Y-93800000D02*
X166930000Y-93040000D01*
X167690000Y-101090000D02*
X167690000Y-93800000D01*
D24*
%TO.N,/OUT1*%
X173500330Y-83117918D02*
X156575000Y-100043248D01*
X156575000Y-100043248D02*
X156575000Y-101025000D01*
X173500330Y-81639949D02*
X173500330Y-83117918D01*
D25*
%TO.N,/SSR1*%
X136850000Y-97510000D02*
X157800100Y-97510000D01*
X172306917Y-83003183D02*
X172306917Y-80533362D01*
X134195000Y-100900000D02*
X134195000Y-100165000D01*
X157800100Y-97510000D02*
X172306917Y-83003183D01*
X134195000Y-100165000D02*
X136850000Y-97510000D01*
D24*
%TO.N,/SSR2*%
X172925330Y-83056522D02*
X157291852Y-98690000D01*
X157291852Y-98690000D02*
X146510000Y-98690000D01*
X146510000Y-98690000D02*
X145300000Y-99900000D01*
X145300000Y-99900000D02*
X145300000Y-100900000D01*
X172925330Y-81039949D02*
X172925330Y-83056522D01*
D25*
%TO.N,/MISO_TFT*%
X112550000Y-84040000D02*
X112550000Y-84060000D01*
D24*
%TO.N,/D+*%
X201400000Y-74500000D02*
X200000000Y-75900000D01*
X203000000Y-74500000D02*
X201400000Y-74500000D01*
X200000000Y-75900000D02*
X200000000Y-88560000D01*
%TO.N,/D-*%
X200900000Y-89500000D02*
X200900000Y-76400000D01*
X200000000Y-89830000D02*
X200570000Y-89830000D01*
X200570000Y-89830000D02*
X200900000Y-89500000D01*
X200900000Y-76400000D02*
X201735703Y-75564297D01*
X201735703Y-75564297D02*
X203007148Y-75564297D01*
D25*
%TO.N,/MOSI_TFT*%
X112550000Y-76440000D02*
X112550000Y-76450000D01*
%TO.N,/NRST*%
X170420000Y-72090000D02*
X165180000Y-77330000D01*
X165180000Y-82619619D02*
X165200330Y-82639949D01*
X165180000Y-77330000D02*
X165180000Y-82619619D01*
X176700000Y-72090000D02*
X170420000Y-72090000D01*
%TO.N,/AN_T1*%
X173450000Y-91850000D02*
X179200000Y-97600000D01*
X181380000Y-97600000D02*
X185700000Y-101920000D01*
X173450000Y-91230000D02*
X173450000Y-91850000D01*
X179200000Y-97600000D02*
X181380000Y-97600000D01*
%TO.N,/SCK_TC*%
X194000000Y-97600000D02*
X182500000Y-97600000D01*
%TO.N,/MISO_TC*%
X191460000Y-97000000D02*
X179959013Y-97000000D01*
%TO.N,/AN_12V*%
X165800330Y-77660330D02*
X165790000Y-77650000D01*
X165800330Y-83969670D02*
X165800330Y-77660330D01*
X161820000Y-87950000D02*
X165800330Y-83969670D01*
X147720000Y-87950000D02*
X161820000Y-87950000D01*
%TO.N,/INHIBIT*%
X166540000Y-80470000D02*
X166540000Y-84080000D01*
X161860000Y-88760000D02*
X151760000Y-88760000D01*
X166540000Y-84080000D02*
X161860000Y-88760000D01*
%TO.N,/SCK_TFT*%
X112550000Y-81520000D02*
X112550000Y-81530000D01*
X112560000Y-89140000D02*
X112550000Y-89140000D01*
%TD*%
%TA.AperFunction,Conductor*%
%TO.N,+3.3V*%
G36*
X137915677Y-76869685D02*
G01*
X137936319Y-76886319D01*
X138163681Y-77113681D01*
X138197166Y-77175004D01*
X138200000Y-77201362D01*
X138200000Y-78448638D01*
X138180315Y-78515677D01*
X138163681Y-78536319D01*
X137886319Y-78813681D01*
X137824996Y-78847166D01*
X137798638Y-78850000D01*
X136301362Y-78850000D01*
X136234323Y-78830315D01*
X136213681Y-78813681D01*
X135936319Y-78536319D01*
X135902834Y-78474996D01*
X135900000Y-78448638D01*
X135900000Y-77201362D01*
X135919685Y-77134323D01*
X135936319Y-77113681D01*
X136163681Y-76886319D01*
X136225004Y-76852834D01*
X136251362Y-76850000D01*
X137848638Y-76850000D01*
X137915677Y-76869685D01*
G37*
%TD.AperFunction*%
%TD*%
%TA.AperFunction,Conductor*%
%TO.N,Net-(J14-SHIELD)*%
G36*
X206090795Y-70239940D02*
G01*
X206034940Y-70295795D01*
X205995444Y-70364204D01*
X205975000Y-70440504D01*
X205975000Y-70519496D01*
X205995444Y-70595796D01*
X206034940Y-70664205D01*
X206090795Y-70720060D01*
X206108012Y-70730000D01*
X205305138Y-70730000D01*
X205313430Y-70771690D01*
X205313430Y-70771692D01*
X205388807Y-70953671D01*
X205388814Y-70953684D01*
X205498248Y-71117462D01*
X205498251Y-71117466D01*
X205637533Y-71256748D01*
X205637537Y-71256751D01*
X205801315Y-71366185D01*
X205801328Y-71366192D01*
X205983306Y-71441569D01*
X205983318Y-71441572D01*
X206176504Y-71479999D01*
X206176508Y-71480000D01*
X206325000Y-71480000D01*
X206325000Y-70780000D01*
X206825000Y-70780000D01*
X206825000Y-71480000D01*
X206973492Y-71480000D01*
X206973495Y-71479999D01*
X207166681Y-71441572D01*
X207166693Y-71441569D01*
X207348671Y-71366192D01*
X207348684Y-71366185D01*
X207512462Y-71256751D01*
X207512466Y-71256748D01*
X207651748Y-71117466D01*
X207651751Y-71117462D01*
X207761185Y-70953684D01*
X207761187Y-70953680D01*
X207781438Y-70904790D01*
X207825279Y-70850387D01*
X207891573Y-70828321D01*
X207959272Y-70845600D01*
X208006883Y-70896736D01*
X208020000Y-70952242D01*
X208020000Y-78647756D01*
X208000315Y-78714795D01*
X207947511Y-78760550D01*
X207878353Y-78770494D01*
X207814797Y-78741469D01*
X207781439Y-78695209D01*
X207761190Y-78646325D01*
X207761185Y-78646315D01*
X207651751Y-78482537D01*
X207651748Y-78482533D01*
X207512466Y-78343251D01*
X207512462Y-78343248D01*
X207348684Y-78233814D01*
X207348671Y-78233807D01*
X207166693Y-78158430D01*
X207166681Y-78158427D01*
X206973495Y-78120000D01*
X206825000Y-78120000D01*
X206825000Y-78820000D01*
X206325000Y-78820000D01*
X206325000Y-78120000D01*
X206176504Y-78120000D01*
X205983318Y-78158427D01*
X205983306Y-78158430D01*
X205801328Y-78233807D01*
X205801315Y-78233814D01*
X205637537Y-78343248D01*
X205637533Y-78343251D01*
X205498251Y-78482533D01*
X205498248Y-78482537D01*
X205388814Y-78646315D01*
X205388807Y-78646328D01*
X205313430Y-78828307D01*
X205313430Y-78828309D01*
X205305138Y-78870000D01*
X206108012Y-78870000D01*
X206090795Y-78879940D01*
X206034940Y-78935795D01*
X205995444Y-79004204D01*
X205975000Y-79080504D01*
X205975000Y-79159496D01*
X205995444Y-79235796D01*
X206034940Y-79304205D01*
X206090735Y-79360000D01*
X203129265Y-79360000D01*
X203185060Y-79304205D01*
X203224556Y-79235796D01*
X203245000Y-79159496D01*
X203245000Y-79080504D01*
X203224556Y-79004204D01*
X203185060Y-78935795D01*
X203129205Y-78879940D01*
X203111988Y-78870000D01*
X203914862Y-78870000D01*
X203906569Y-78828309D01*
X203906569Y-78828307D01*
X203831192Y-78646328D01*
X203831185Y-78646315D01*
X203721751Y-78482537D01*
X203721748Y-78482533D01*
X203582466Y-78343251D01*
X203582460Y-78343246D01*
X203505108Y-78291560D01*
X203460304Y-78237948D01*
X203450000Y-78188459D01*
X203450000Y-75933548D01*
X203469685Y-75866509D01*
X203475625Y-75858061D01*
X203488009Y-75841922D01*
X203543478Y-75708006D01*
X203562398Y-75564297D01*
X203543478Y-75420588D01*
X203488009Y-75286672D01*
X203488009Y-75286671D01*
X203475624Y-75270531D01*
X203450430Y-75205362D01*
X203450000Y-75195045D01*
X203450000Y-74859935D01*
X203469685Y-74792896D01*
X203475618Y-74784457D01*
X203480861Y-74777625D01*
X203536330Y-74643709D01*
X203555250Y-74500000D01*
X203536330Y-74356291D01*
X203480861Y-74222375D01*
X203475622Y-74215547D01*
X203450430Y-74150377D01*
X203450000Y-74140063D01*
X203450000Y-71411539D01*
X203469685Y-71344500D01*
X203505110Y-71308436D01*
X203582465Y-71256749D01*
X203721748Y-71117466D01*
X203721751Y-71117462D01*
X203831185Y-70953684D01*
X203831192Y-70953671D01*
X203906569Y-70771692D01*
X203906569Y-70771690D01*
X203914862Y-70730000D01*
X203111988Y-70730000D01*
X203129205Y-70720060D01*
X203185060Y-70664205D01*
X203224556Y-70595796D01*
X203245000Y-70519496D01*
X203245000Y-70440504D01*
X203224556Y-70364204D01*
X203185060Y-70295795D01*
X203129205Y-70239940D01*
X203111988Y-70230000D01*
X206108012Y-70230000D01*
X206090795Y-70239940D01*
G37*
%TD.AperFunction*%
%TD*%
%TA.AperFunction,Conductor*%
%TO.N,GND*%
G36*
X174144164Y-83885453D02*
G01*
X174200097Y-83927325D01*
X174224514Y-83992789D01*
X174224830Y-84001635D01*
X174224830Y-86074258D01*
X174238680Y-86125947D01*
X174255529Y-86188833D01*
X174255531Y-86188836D01*
X174314841Y-86291563D01*
X174314843Y-86291565D01*
X174493223Y-86469945D01*
X174526708Y-86531268D01*
X174521724Y-86600960D01*
X174493223Y-86645307D01*
X172530401Y-88608130D01*
X172469078Y-88641615D01*
X172442720Y-88644449D01*
X171514312Y-88644449D01*
X171406093Y-88673446D01*
X171406090Y-88673447D01*
X171309070Y-88729462D01*
X171309064Y-88729466D01*
X168476545Y-91561984D01*
X168415222Y-91595469D01*
X168405052Y-91597242D01*
X168356619Y-91603619D01*
X168222707Y-91659086D01*
X168107709Y-91747328D01*
X168019467Y-91862326D01*
X167964001Y-91996236D01*
X167964000Y-91996240D01*
X167946836Y-92126614D01*
X167945080Y-92139949D01*
X167952181Y-92193889D01*
X167964000Y-92283657D01*
X167964001Y-92283661D01*
X168019467Y-92417571D01*
X168019468Y-92417573D01*
X168019469Y-92417574D01*
X168024205Y-92423747D01*
X168049400Y-92488914D01*
X168049830Y-92499233D01*
X168049830Y-93223365D01*
X168030145Y-93290404D01*
X167977341Y-93336159D01*
X167908183Y-93346103D01*
X167844627Y-93317078D01*
X167838149Y-93311046D01*
X167416819Y-92889716D01*
X167383334Y-92828393D01*
X167380500Y-92802035D01*
X167380500Y-90597965D01*
X167400185Y-90530926D01*
X167416819Y-90510284D01*
X174013149Y-83913954D01*
X174074472Y-83880469D01*
X174144164Y-83885453D01*
G37*
%TD.AperFunction*%
%TA.AperFunction,Conductor*%
G36*
X171708214Y-80318319D02*
G01*
X171753969Y-80371123D01*
X171764113Y-80438819D01*
X171751667Y-80533362D01*
X171762245Y-80613712D01*
X171770587Y-80677070D01*
X171770588Y-80677074D01*
X171826054Y-80810984D01*
X171826055Y-80810986D01*
X171826056Y-80810987D01*
X171830792Y-80817160D01*
X171855987Y-80882327D01*
X171856417Y-80892646D01*
X171856417Y-82765218D01*
X171836732Y-82832257D01*
X171820098Y-82852899D01*
X171122181Y-83550816D01*
X171060858Y-83584301D01*
X170991166Y-83579317D01*
X170935233Y-83537445D01*
X170910816Y-83471981D01*
X170910500Y-83463135D01*
X170910500Y-80422634D01*
X170930185Y-80355595D01*
X170982989Y-80309840D01*
X171034500Y-80298634D01*
X171641175Y-80298634D01*
X171708214Y-80318319D01*
G37*
%TD.AperFunction*%
%TA.AperFunction,Conductor*%
G36*
X203554180Y-59980185D02*
G01*
X203599935Y-60032989D01*
X203609879Y-60102147D01*
X203580854Y-60165703D01*
X203551069Y-60190751D01*
X203428314Y-60264609D01*
X203428311Y-60264611D01*
X203143430Y-60481170D01*
X203143429Y-60481171D01*
X203130201Y-60493702D01*
X203130200Y-60493703D01*
X204342245Y-61705748D01*
X204240614Y-61779588D01*
X204062532Y-61957670D01*
X203988692Y-62059301D01*
X202779386Y-60849995D01*
X202779385Y-60849996D01*
X202651977Y-60999992D01*
X202451162Y-61296172D01*
X202283550Y-61612322D01*
X202283541Y-61612340D01*
X202151093Y-61944760D01*
X202151091Y-61944767D01*
X202055365Y-62289542D01*
X202055359Y-62289568D01*
X201997471Y-62642668D01*
X201997470Y-62642685D01*
X201978097Y-62999997D01*
X201978097Y-63000002D01*
X201997470Y-63357314D01*
X201997471Y-63357331D01*
X202055359Y-63710431D01*
X202055365Y-63710457D01*
X202151091Y-64055232D01*
X202151093Y-64055239D01*
X202283541Y-64387659D01*
X202283550Y-64387677D01*
X202451162Y-64703827D01*
X202651968Y-64999994D01*
X202651979Y-65000008D01*
X202779385Y-65150002D01*
X202779386Y-65150002D01*
X203988691Y-63940697D01*
X204062532Y-64042330D01*
X204240614Y-64220412D01*
X204342244Y-64294251D01*
X203130201Y-65506294D01*
X203143439Y-65518836D01*
X203428311Y-65735388D01*
X203428314Y-65735390D01*
X203734934Y-65919876D01*
X204059683Y-66070122D01*
X204059688Y-66070123D01*
X204398799Y-66184383D01*
X204748283Y-66261311D01*
X205104019Y-66299999D01*
X205104029Y-66300000D01*
X205461859Y-66300000D01*
X205461868Y-66299999D01*
X205817604Y-66261311D01*
X206167088Y-66184383D01*
X206506199Y-66070123D01*
X206506204Y-66070122D01*
X206830953Y-65919876D01*
X207137573Y-65735390D01*
X207137576Y-65735388D01*
X207422453Y-65518831D01*
X207435686Y-65506295D01*
X207435686Y-65506294D01*
X206223643Y-64294251D01*
X206325274Y-64220412D01*
X206503356Y-64042330D01*
X206577195Y-63940698D01*
X207786500Y-65150002D01*
X207913916Y-64999998D01*
X207913919Y-64999994D01*
X208114721Y-64703834D01*
X208255944Y-64437459D01*
X208304738Y-64387450D01*
X208372823Y-64371758D01*
X208438583Y-64395368D01*
X208481139Y-64450781D01*
X208489500Y-64495542D01*
X208489500Y-70669970D01*
X208469815Y-70737009D01*
X208417011Y-70782764D01*
X208347853Y-70792708D01*
X208284297Y-70763683D01*
X208260766Y-70736353D01*
X208230474Y-70688560D01*
X208230465Y-70688549D01*
X208182867Y-70637427D01*
X208136654Y-70596872D01*
X208136653Y-70596871D01*
X208034824Y-70549590D01*
X208034820Y-70549588D01*
X207979745Y-70535532D01*
X207967125Y-70532311D01*
X207967122Y-70532310D01*
X207967116Y-70532309D01*
X207906324Y-70523177D01*
X207906313Y-70523177D01*
X207816375Y-70535532D01*
X207747280Y-70525154D01*
X207694765Y-70479068D01*
X207675500Y-70412686D01*
X207675500Y-70401155D01*
X207675499Y-70401153D01*
X207660491Y-70325702D01*
X207644737Y-70246503D01*
X207591313Y-70117525D01*
X207584397Y-70100827D01*
X207584390Y-70100814D01*
X207496789Y-69969711D01*
X207496785Y-69969706D01*
X207385292Y-69858213D01*
X207385288Y-69858210D01*
X207254185Y-69770609D01*
X207254172Y-69770602D01*
X207108501Y-69710264D01*
X207108489Y-69710261D01*
X206953845Y-69679500D01*
X206953842Y-69679500D01*
X206196158Y-69679500D01*
X206196155Y-69679500D01*
X206041510Y-69710261D01*
X206041498Y-69710264D01*
X205895827Y-69770602D01*
X205895814Y-69770609D01*
X205764711Y-69858210D01*
X205764707Y-69858213D01*
X205734740Y-69888181D01*
X205673417Y-69921666D01*
X205647059Y-69924500D01*
X203572941Y-69924500D01*
X203505902Y-69904815D01*
X203485260Y-69888181D01*
X203455292Y-69858213D01*
X203455288Y-69858210D01*
X203324185Y-69770609D01*
X203324172Y-69770602D01*
X203178501Y-69710264D01*
X203178489Y-69710261D01*
X203023845Y-69679500D01*
X203023842Y-69679500D01*
X201766158Y-69679500D01*
X201766155Y-69679500D01*
X201611510Y-69710261D01*
X201611498Y-69710264D01*
X201465827Y-69770602D01*
X201465814Y-69770609D01*
X201334711Y-69858210D01*
X201334707Y-69858213D01*
X201223215Y-69969706D01*
X201223210Y-69969711D01*
X201135609Y-70100814D01*
X201135602Y-70100827D01*
X201075264Y-70246498D01*
X201075261Y-70246510D01*
X201044500Y-70401153D01*
X201044500Y-70558846D01*
X201075261Y-70713489D01*
X201075264Y-70713501D01*
X201135602Y-70859172D01*
X201135609Y-70859185D01*
X201223210Y-70990288D01*
X201223213Y-70990292D01*
X201334707Y-71101786D01*
X201334711Y-71101789D01*
X201465814Y-71189390D01*
X201465827Y-71189397D01*
X201608357Y-71248434D01*
X201611503Y-71249737D01*
X201766153Y-71280499D01*
X201766156Y-71280500D01*
X202571551Y-71280500D01*
X202638590Y-71300185D01*
X202684345Y-71352989D01*
X202694289Y-71422147D01*
X202665264Y-71485703D01*
X202633550Y-71511887D01*
X202603042Y-71529500D01*
X202603034Y-71529506D01*
X202514506Y-71618034D01*
X202514504Y-71618037D01*
X202451905Y-71726463D01*
X202451088Y-71729513D01*
X202419500Y-71847399D01*
X202419500Y-71972601D01*
X202451905Y-72093536D01*
X202514505Y-72201964D01*
X202603036Y-72290495D01*
X202711464Y-72353095D01*
X202832399Y-72385500D01*
X202832401Y-72385500D01*
X202957600Y-72385500D01*
X202957601Y-72385500D01*
X202988405Y-72377246D01*
X203058255Y-72378908D01*
X203116118Y-72418069D01*
X203143623Y-72482298D01*
X203144500Y-72497020D01*
X203144500Y-73822378D01*
X203124815Y-73889417D01*
X203072011Y-73935172D01*
X203008128Y-73944747D01*
X203008128Y-73944750D01*
X203008112Y-73944750D01*
X203004323Y-73945318D01*
X203000006Y-73944750D01*
X202999999Y-73944750D01*
X202856291Y-73963670D01*
X202856287Y-73963671D01*
X202722377Y-74019137D01*
X202709703Y-74028862D01*
X202683621Y-74048875D01*
X202618455Y-74074070D01*
X202608136Y-74074500D01*
X201343982Y-74074500D01*
X201235763Y-74103497D01*
X201235760Y-74103498D01*
X201138740Y-74159513D01*
X201138734Y-74159517D01*
X199659517Y-75638734D01*
X199659513Y-75638740D01*
X199603498Y-75735760D01*
X199603497Y-75735763D01*
X199574500Y-75843982D01*
X199574500Y-87600839D01*
X199554815Y-87667878D01*
X199502011Y-87713633D01*
X199432853Y-87723577D01*
X199375013Y-87699215D01*
X199372622Y-87697380D01*
X199372621Y-87697379D01*
X199257625Y-87609139D01*
X199257624Y-87609138D01*
X199257622Y-87609137D01*
X199123712Y-87553671D01*
X199123710Y-87553670D01*
X199123709Y-87553670D01*
X199051854Y-87544210D01*
X198980001Y-87534750D01*
X198979999Y-87534750D01*
X198836291Y-87553670D01*
X198836287Y-87553671D01*
X198702377Y-87609137D01*
X198587379Y-87697379D01*
X198499137Y-87812377D01*
X198443671Y-87946287D01*
X198443670Y-87946291D01*
X198431779Y-88036614D01*
X198424750Y-88090000D01*
X198440578Y-88210227D01*
X198443670Y-88233708D01*
X198443671Y-88233712D01*
X198499137Y-88367622D01*
X198499138Y-88367624D01*
X198499139Y-88367625D01*
X198503875Y-88373798D01*
X198529070Y-88438965D01*
X198529500Y-88449284D01*
X198529500Y-90009309D01*
X198547387Y-90076063D01*
X198560201Y-90123887D01*
X198619511Y-90226614D01*
X199423386Y-91030490D01*
X199526113Y-91089799D01*
X199550321Y-91096284D01*
X199550324Y-91096286D01*
X199550325Y-91096286D01*
X199580447Y-91104357D01*
X199640691Y-91120500D01*
X202435500Y-91120500D01*
X202502539Y-91140185D01*
X202548294Y-91192989D01*
X202559500Y-91244500D01*
X202559500Y-106240715D01*
X202539815Y-106307754D01*
X202533877Y-106316200D01*
X202529138Y-106322375D01*
X202473671Y-106456287D01*
X202473670Y-106456291D01*
X202454750Y-106599999D01*
X202454750Y-106600000D01*
X202473670Y-106743708D01*
X202473671Y-106743712D01*
X202529137Y-106877622D01*
X202529138Y-106877624D01*
X202529139Y-106877625D01*
X202617379Y-106992621D01*
X202732375Y-107080861D01*
X202866291Y-107136330D01*
X202993280Y-107153048D01*
X203009999Y-107155250D01*
X203010000Y-107155250D01*
X203010001Y-107155250D01*
X203024977Y-107153278D01*
X203153709Y-107136330D01*
X203287625Y-107080861D01*
X203402621Y-106992621D01*
X203490861Y-106877625D01*
X203546330Y-106743709D01*
X203565250Y-106600000D01*
X203546330Y-106456291D01*
X203490861Y-106322375D01*
X203486123Y-106316200D01*
X203460930Y-106251031D01*
X203460500Y-106240715D01*
X203460500Y-101130000D01*
X203769364Y-101130000D01*
X203826567Y-101343486D01*
X203826570Y-101343492D01*
X203926399Y-101557578D01*
X204061894Y-101751082D01*
X204228917Y-101918105D01*
X204422421Y-102053600D01*
X204621573Y-102146466D01*
X204674012Y-102192638D01*
X204693164Y-102259832D01*
X204672948Y-102326713D01*
X204619783Y-102372048D01*
X204613968Y-102374472D01*
X204606771Y-102377260D01*
X204584982Y-102385701D01*
X204584980Y-102385702D01*
X204403699Y-102497947D01*
X204246127Y-102641593D01*
X204117632Y-102811746D01*
X204022596Y-103002605D01*
X204022596Y-103002607D01*
X203964244Y-103207689D01*
X203944571Y-103419999D01*
X203944571Y-103420000D01*
X203964244Y-103632310D01*
X204022596Y-103837392D01*
X204022596Y-103837394D01*
X204117632Y-104028253D01*
X204215587Y-104157965D01*
X204246128Y-104198407D01*
X204403698Y-104342052D01*
X204584981Y-104454298D01*
X204783802Y-104531321D01*
X204993390Y-104570500D01*
X204993392Y-104570500D01*
X205206608Y-104570500D01*
X205206610Y-104570500D01*
X205416198Y-104531321D01*
X205615019Y-104454298D01*
X205796302Y-104342052D01*
X205953872Y-104198407D01*
X206082366Y-104028255D01*
X206082367Y-104028253D01*
X206177403Y-103837394D01*
X206177403Y-103837393D01*
X206177405Y-103837389D01*
X206235756Y-103632310D01*
X206255429Y-103420000D01*
X206235756Y-103207690D01*
X206177405Y-103002611D01*
X206177403Y-103002606D01*
X206177403Y-103002605D01*
X206082367Y-102811746D01*
X205953872Y-102641593D01*
X205796302Y-102497948D01*
X205615019Y-102385702D01*
X205615014Y-102385700D01*
X205608129Y-102383032D01*
X205586037Y-102374474D01*
X205530636Y-102331903D01*
X205507045Y-102266136D01*
X205522756Y-102198056D01*
X205572779Y-102149276D01*
X205578426Y-102146466D01*
X205777578Y-102053599D01*
X205971082Y-101918105D01*
X206138105Y-101751082D01*
X206273600Y-101557578D01*
X206373429Y-101343492D01*
X206373432Y-101343486D01*
X206430636Y-101130000D01*
X205533012Y-101130000D01*
X205565925Y-101072993D01*
X205600000Y-100945826D01*
X205600000Y-100814174D01*
X205565925Y-100687007D01*
X205533012Y-100630000D01*
X206430636Y-100630000D01*
X206430635Y-100629999D01*
X206373432Y-100416513D01*
X206373429Y-100416507D01*
X206273600Y-100202422D01*
X206273599Y-100202420D01*
X206138113Y-100008926D01*
X206138108Y-100008920D01*
X205971082Y-99841894D01*
X205777578Y-99706399D01*
X205578426Y-99613533D01*
X205525987Y-99567360D01*
X205506835Y-99500167D01*
X205527051Y-99433286D01*
X205580216Y-99387951D01*
X205586005Y-99385537D01*
X205615019Y-99374298D01*
X205796302Y-99262052D01*
X205953872Y-99118407D01*
X206082366Y-98948255D01*
X206082367Y-98948253D01*
X206177403Y-98757394D01*
X206177403Y-98757393D01*
X206177405Y-98757389D01*
X206235756Y-98552310D01*
X206255429Y-98340000D01*
X206235756Y-98127690D01*
X206177405Y-97922611D01*
X206177403Y-97922606D01*
X206177403Y-97922605D01*
X206082367Y-97731746D01*
X205953872Y-97561593D01*
X205925868Y-97536064D01*
X205796302Y-97417948D01*
X205615019Y-97305702D01*
X205615017Y-97305701D01*
X205515608Y-97267190D01*
X205416198Y-97228679D01*
X205243456Y-97196387D01*
X205181176Y-97164719D01*
X205145903Y-97104407D01*
X205148837Y-97034599D01*
X205189046Y-96977459D01*
X205253764Y-96951128D01*
X205266233Y-96950499D01*
X205994864Y-96950499D01*
X205994879Y-96950497D01*
X205994882Y-96950497D01*
X206019987Y-96947586D01*
X206019988Y-96947585D01*
X206019991Y-96947585D01*
X206122765Y-96902206D01*
X206202206Y-96822765D01*
X206247585Y-96719991D01*
X206250500Y-96694865D01*
X206250499Y-94905136D01*
X206248711Y-94889716D01*
X206247586Y-94880012D01*
X206247585Y-94880010D01*
X206247585Y-94880009D01*
X206202206Y-94777235D01*
X206122765Y-94697794D01*
X206122763Y-94697793D01*
X206019992Y-94652415D01*
X205994865Y-94649500D01*
X204205143Y-94649500D01*
X204205117Y-94649502D01*
X204180012Y-94652413D01*
X204180008Y-94652415D01*
X204077235Y-94697793D01*
X203997794Y-94777234D01*
X203952415Y-94880006D01*
X203952415Y-94880008D01*
X203949500Y-94905131D01*
X203949500Y-96694856D01*
X203949502Y-96694882D01*
X203952413Y-96719987D01*
X203952415Y-96719991D01*
X203997793Y-96822764D01*
X203997794Y-96822765D01*
X204077235Y-96902206D01*
X204180009Y-96947585D01*
X204205135Y-96950500D01*
X204933758Y-96950499D01*
X205000795Y-96970183D01*
X205046550Y-97022987D01*
X205056494Y-97092146D01*
X205027469Y-97155702D01*
X204968691Y-97193476D01*
X204956542Y-97196388D01*
X204900116Y-97206935D01*
X204783802Y-97228679D01*
X204783800Y-97228679D01*
X204783798Y-97228680D01*
X204584982Y-97305701D01*
X204584980Y-97305702D01*
X204403699Y-97417947D01*
X204246127Y-97561593D01*
X204117632Y-97731746D01*
X204022596Y-97922605D01*
X204022596Y-97922607D01*
X203964244Y-98127689D01*
X203944571Y-98339999D01*
X203944571Y-98340000D01*
X203964244Y-98552310D01*
X204022596Y-98757392D01*
X204022596Y-98757394D01*
X204117632Y-98948253D01*
X204246073Y-99118334D01*
X204246128Y-99118407D01*
X204403698Y-99262052D01*
X204584981Y-99374298D01*
X204613961Y-99385525D01*
X204669362Y-99428095D01*
X204692954Y-99493861D01*
X204677244Y-99561942D01*
X204627222Y-99610722D01*
X204621573Y-99613533D01*
X204422422Y-99706399D01*
X204422420Y-99706400D01*
X204228926Y-99841886D01*
X204228920Y-99841891D01*
X204061891Y-100008920D01*
X204061886Y-100008926D01*
X203926400Y-100202420D01*
X203926399Y-100202422D01*
X203826570Y-100416507D01*
X203826567Y-100416513D01*
X203769364Y-100629999D01*
X203769364Y-100630000D01*
X204666988Y-100630000D01*
X204634075Y-100687007D01*
X204600000Y-100814174D01*
X204600000Y-100945826D01*
X204634075Y-101072993D01*
X204666988Y-101130000D01*
X203769364Y-101130000D01*
X203460500Y-101130000D01*
X203460500Y-82797640D01*
X203480185Y-82730601D01*
X203496814Y-82709963D01*
X204646473Y-81560304D01*
X204707794Y-81526821D01*
X204717951Y-81525050D01*
X204725682Y-81524033D01*
X204859598Y-81468564D01*
X204974594Y-81380324D01*
X205062834Y-81265328D01*
X205118303Y-81131412D01*
X205137223Y-80987703D01*
X205118303Y-80843994D01*
X205062834Y-80710078D01*
X204974594Y-80595082D01*
X204859598Y-80506842D01*
X204859597Y-80506841D01*
X204859595Y-80506840D01*
X204725685Y-80451374D01*
X204725683Y-80451373D01*
X204725682Y-80451373D01*
X204653827Y-80441913D01*
X204581974Y-80432453D01*
X204581972Y-80432453D01*
X204438264Y-80451373D01*
X204438260Y-80451374D01*
X204304350Y-80506840D01*
X204189352Y-80595082D01*
X204101110Y-80710080D01*
X204045642Y-80843994D01*
X204045642Y-80843996D01*
X204044626Y-80851712D01*
X204016357Y-80915607D01*
X204009369Y-80923202D01*
X202649513Y-82283059D01*
X202649511Y-82283062D01*
X202590200Y-82385789D01*
X202590199Y-82385792D01*
X202583712Y-82410000D01*
X202583713Y-82410001D01*
X202559500Y-82500367D01*
X202559500Y-90095500D01*
X202539815Y-90162539D01*
X202487011Y-90208294D01*
X202435500Y-90219500D01*
X201081610Y-90219500D01*
X201014571Y-90199815D01*
X200968816Y-90147011D01*
X200958872Y-90077853D01*
X200987897Y-90014297D01*
X200993929Y-90007819D01*
X201083342Y-89918406D01*
X201240484Y-89761264D01*
X201296503Y-89664237D01*
X201325500Y-89556019D01*
X201325500Y-89443982D01*
X201325500Y-79956850D01*
X201345185Y-79889811D01*
X201397989Y-79844056D01*
X201467147Y-79834112D01*
X201496952Y-79842289D01*
X201501218Y-79844056D01*
X201611503Y-79889737D01*
X201737251Y-79914750D01*
X201766153Y-79920499D01*
X201766156Y-79920500D01*
X201766158Y-79920500D01*
X203023844Y-79920500D01*
X203023845Y-79920499D01*
X203178497Y-79889737D01*
X203324179Y-79829394D01*
X203455289Y-79741789D01*
X203495258Y-79701820D01*
X203556581Y-79668334D01*
X203582940Y-79665500D01*
X205637060Y-79665500D01*
X205704099Y-79685185D01*
X205724742Y-79701820D01*
X205764707Y-79741786D01*
X205764711Y-79741789D01*
X205895814Y-79829390D01*
X205895827Y-79829397D01*
X206011279Y-79877218D01*
X206041503Y-79889737D01*
X206167251Y-79914750D01*
X206196153Y-79920499D01*
X206196156Y-79920500D01*
X206196158Y-79920500D01*
X206953844Y-79920500D01*
X206953845Y-79920499D01*
X207108497Y-79889737D01*
X207254179Y-79829394D01*
X207385289Y-79741789D01*
X207496789Y-79630289D01*
X207584394Y-79499179D01*
X207644737Y-79353497D01*
X207675500Y-79198842D01*
X207675500Y-79191853D01*
X207695185Y-79124814D01*
X207747989Y-79079059D01*
X207804706Y-79067962D01*
X207809658Y-79068170D01*
X207809661Y-79068171D01*
X207921833Y-79072884D01*
X207990991Y-79062940D01*
X208050658Y-79048110D01*
X208147571Y-78991431D01*
X208200375Y-78945676D01*
X208200382Y-78945668D01*
X208200387Y-78945664D01*
X208242548Y-78900948D01*
X208242553Y-78900943D01*
X208254968Y-78876527D01*
X208302899Y-78825690D01*
X208370706Y-78808837D01*
X208436860Y-78831319D01*
X208480358Y-78885997D01*
X208489500Y-78932728D01*
X208489500Y-110967401D01*
X208469815Y-111034440D01*
X208417011Y-111080195D01*
X208347853Y-111090139D01*
X208284297Y-111061114D01*
X208255945Y-111025484D01*
X208114725Y-110759116D01*
X207913919Y-110462949D01*
X207913908Y-110462935D01*
X207786500Y-110312940D01*
X206577195Y-111522245D01*
X206503356Y-111420614D01*
X206325274Y-111242532D01*
X206223642Y-111168692D01*
X207435686Y-109956648D01*
X207422448Y-109944107D01*
X207137576Y-109727555D01*
X207137573Y-109727553D01*
X206830953Y-109543067D01*
X206506204Y-109392821D01*
X206506199Y-109392820D01*
X206167088Y-109278560D01*
X205817604Y-109201632D01*
X205461868Y-109162944D01*
X205104019Y-109162944D01*
X204748283Y-109201632D01*
X204398799Y-109278560D01*
X204059688Y-109392820D01*
X204059683Y-109392821D01*
X203734934Y-109543067D01*
X203428314Y-109727553D01*
X203428311Y-109727555D01*
X203143430Y-109944114D01*
X203143429Y-109944115D01*
X203130201Y-109956646D01*
X203130200Y-109956647D01*
X204342245Y-111168692D01*
X204240614Y-111242532D01*
X204062532Y-111420614D01*
X203988692Y-111522245D01*
X202779386Y-110312939D01*
X202779385Y-110312940D01*
X202651977Y-110462936D01*
X202451162Y-110759116D01*
X202283550Y-111075266D01*
X202283541Y-111075284D01*
X202151093Y-111407704D01*
X202151091Y-111407711D01*
X202055365Y-111752486D01*
X202055359Y-111752512D01*
X201997471Y-112105612D01*
X201997470Y-112105629D01*
X201978097Y-112462941D01*
X201978097Y-112462946D01*
X201997470Y-112820258D01*
X201997471Y-112820275D01*
X202055359Y-113173375D01*
X202055365Y-113173401D01*
X202151091Y-113518176D01*
X202151093Y-113518183D01*
X202283541Y-113850603D01*
X202283550Y-113850621D01*
X202451162Y-114166771D01*
X202651968Y-114462938D01*
X202651979Y-114462952D01*
X202779385Y-114612946D01*
X202779386Y-114612946D01*
X203988691Y-113403641D01*
X204062532Y-113505274D01*
X204240614Y-113683356D01*
X204342244Y-113757195D01*
X203130201Y-114969238D01*
X203143439Y-114981780D01*
X203428311Y-115198332D01*
X203428314Y-115198334D01*
X203734934Y-115382820D01*
X203908155Y-115462961D01*
X203960733Y-115508975D01*
X203980087Y-115576111D01*
X203960073Y-115643052D01*
X203907044Y-115688547D01*
X203856089Y-115699500D01*
X114803029Y-115699500D01*
X114735990Y-115679815D01*
X114690235Y-115627011D01*
X114680291Y-115557853D01*
X114709316Y-115494297D01*
X114750962Y-115462961D01*
X114880956Y-115402818D01*
X115187573Y-115218334D01*
X115187576Y-115218332D01*
X115472453Y-115001775D01*
X115485686Y-114989239D01*
X114273642Y-113777195D01*
X114375274Y-113703356D01*
X114553356Y-113525274D01*
X114627195Y-113423642D01*
X115836500Y-114632946D01*
X115963916Y-114482942D01*
X115963919Y-114482938D01*
X116164725Y-114186771D01*
X116332337Y-113870621D01*
X116332346Y-113870603D01*
X116464794Y-113538183D01*
X116464796Y-113538176D01*
X116560522Y-113193401D01*
X116560528Y-113193375D01*
X116618416Y-112840275D01*
X116618417Y-112840258D01*
X116620717Y-112797844D01*
X119750000Y-112797844D01*
X119756401Y-112857372D01*
X119756403Y-112857379D01*
X119806645Y-112992086D01*
X119806649Y-112992093D01*
X119892809Y-113107187D01*
X119892812Y-113107190D01*
X120007906Y-113193350D01*
X120007913Y-113193354D01*
X120142620Y-113243596D01*
X120142627Y-113243598D01*
X120202155Y-113249999D01*
X120202172Y-113250000D01*
X121250000Y-113250000D01*
X121250000Y-112100001D01*
X121310402Y-112125021D01*
X121435981Y-112150000D01*
X121564019Y-112150000D01*
X121689598Y-112125021D01*
X121750000Y-112100001D01*
X121750000Y-113250000D01*
X122797828Y-113250000D01*
X122797844Y-113249999D01*
X122857372Y-113243598D01*
X122857379Y-113243596D01*
X122992086Y-113193354D01*
X122992093Y-113193350D01*
X123107187Y-113107190D01*
X123107190Y-113107187D01*
X123193350Y-112992093D01*
X123193354Y-112992086D01*
X123243596Y-112857379D01*
X123243598Y-112857372D01*
X123249999Y-112797844D01*
X123250000Y-112797827D01*
X123250000Y-111750000D01*
X122100001Y-111750000D01*
X122125021Y-111689598D01*
X122150000Y-111564019D01*
X122150000Y-111500000D01*
X124944706Y-111500000D01*
X124963853Y-111743297D01*
X124963853Y-111743300D01*
X124963854Y-111743302D01*
X124979360Y-111807890D01*
X125020830Y-111980619D01*
X125114222Y-112206089D01*
X125241737Y-112414173D01*
X125241738Y-112414176D01*
X125241741Y-112414179D01*
X125400241Y-112599759D01*
X125543897Y-112722453D01*
X125585823Y-112758261D01*
X125585826Y-112758262D01*
X125793910Y-112885777D01*
X126019381Y-112979169D01*
X126019378Y-112979169D01*
X126019384Y-112979170D01*
X126019388Y-112979172D01*
X126256698Y-113036146D01*
X126500000Y-113055294D01*
X126743302Y-113036146D01*
X126980612Y-112979172D01*
X127206089Y-112885777D01*
X127354458Y-112794856D01*
X131699500Y-112794856D01*
X131699502Y-112794882D01*
X131702413Y-112819987D01*
X131702415Y-112819991D01*
X131747793Y-112922764D01*
X131747794Y-112922765D01*
X131827235Y-113002206D01*
X131930009Y-113047585D01*
X131955135Y-113050500D01*
X134544864Y-113050499D01*
X134544879Y-113050497D01*
X134544882Y-113050497D01*
X134569987Y-113047586D01*
X134569988Y-113047585D01*
X134569991Y-113047585D01*
X134672765Y-113002206D01*
X134752206Y-112922765D01*
X134797585Y-112819991D01*
X134800500Y-112794865D01*
X134800499Y-111500000D01*
X136694706Y-111500000D01*
X136713853Y-111743297D01*
X136713853Y-111743300D01*
X136713854Y-111743302D01*
X136729360Y-111807890D01*
X136770830Y-111980619D01*
X136864222Y-112206089D01*
X136991737Y-112414173D01*
X136991738Y-112414176D01*
X136991741Y-112414179D01*
X137150241Y-112599759D01*
X137293897Y-112722453D01*
X137335823Y-112758261D01*
X137335826Y-112758262D01*
X137543910Y-112885777D01*
X137769381Y-112979169D01*
X137769378Y-112979169D01*
X137769384Y-112979170D01*
X137769388Y-112979172D01*
X138006698Y-113036146D01*
X138250000Y-113055294D01*
X138493302Y-113036146D01*
X138730612Y-112979172D01*
X138956089Y-112885777D01*
X139104458Y-112794856D01*
X142949500Y-112794856D01*
X142949502Y-112794882D01*
X142952413Y-112819987D01*
X142952415Y-112819991D01*
X142997793Y-112922764D01*
X142997794Y-112922765D01*
X143077235Y-113002206D01*
X143180009Y-113047585D01*
X143205135Y-113050500D01*
X145794864Y-113050499D01*
X145794879Y-113050497D01*
X145794882Y-113050497D01*
X145819987Y-113047586D01*
X145819988Y-113047585D01*
X145819991Y-113047585D01*
X145922765Y-113002206D01*
X146002206Y-112922765D01*
X146047585Y-112819991D01*
X146050500Y-112794865D01*
X146050499Y-111500000D01*
X147944706Y-111500000D01*
X147963853Y-111743297D01*
X147963853Y-111743300D01*
X147963854Y-111743302D01*
X147979360Y-111807890D01*
X148020830Y-111980619D01*
X148114222Y-112206089D01*
X148241737Y-112414173D01*
X148241738Y-112414176D01*
X148241741Y-112414179D01*
X148400241Y-112599759D01*
X148543897Y-112722453D01*
X148585823Y-112758261D01*
X148585826Y-112758262D01*
X148793910Y-112885777D01*
X149019381Y-112979169D01*
X149019378Y-112979169D01*
X149019384Y-112979170D01*
X149019388Y-112979172D01*
X149256698Y-113036146D01*
X149500000Y-113055294D01*
X149743302Y-113036146D01*
X149980612Y-112979172D01*
X150206089Y-112885777D01*
X150354458Y-112794856D01*
X154199500Y-112794856D01*
X154199502Y-112794882D01*
X154202413Y-112819987D01*
X154202415Y-112819991D01*
X154247793Y-112922764D01*
X154247794Y-112922765D01*
X154327235Y-113002206D01*
X154430009Y-113047585D01*
X154455135Y-113050500D01*
X157044864Y-113050499D01*
X157044879Y-113050497D01*
X157044882Y-113050497D01*
X157069987Y-113047586D01*
X157069988Y-113047585D01*
X157069991Y-113047585D01*
X157172765Y-113002206D01*
X157252206Y-112922765D01*
X157297585Y-112819991D01*
X157300500Y-112794865D01*
X157300499Y-111500000D01*
X159194706Y-111500000D01*
X159213853Y-111743297D01*
X159213853Y-111743300D01*
X159213854Y-111743302D01*
X159229360Y-111807890D01*
X159270830Y-111980619D01*
X159364222Y-112206089D01*
X159491737Y-112414173D01*
X159491738Y-112414176D01*
X159491741Y-112414179D01*
X159650241Y-112599759D01*
X159793897Y-112722453D01*
X159835823Y-112758261D01*
X159835826Y-112758262D01*
X160043910Y-112885777D01*
X160269381Y-112979169D01*
X160269378Y-112979169D01*
X160269384Y-112979170D01*
X160269388Y-112979172D01*
X160506698Y-113036146D01*
X160750000Y-113055294D01*
X160993302Y-113036146D01*
X161230612Y-112979172D01*
X161456089Y-112885777D01*
X161604458Y-112794856D01*
X165449500Y-112794856D01*
X165449502Y-112794882D01*
X165452413Y-112819987D01*
X165452415Y-112819991D01*
X165497793Y-112922764D01*
X165497794Y-112922765D01*
X165577235Y-113002206D01*
X165680009Y-113047585D01*
X165705135Y-113050500D01*
X168294864Y-113050499D01*
X168294879Y-113050497D01*
X168294882Y-113050497D01*
X168319987Y-113047586D01*
X168319988Y-113047585D01*
X168319991Y-113047585D01*
X168422765Y-113002206D01*
X168502206Y-112922765D01*
X168547585Y-112819991D01*
X168550500Y-112794865D01*
X168550499Y-111500000D01*
X170444706Y-111500000D01*
X170463853Y-111743297D01*
X170463853Y-111743300D01*
X170463854Y-111743302D01*
X170479360Y-111807890D01*
X170520830Y-111980619D01*
X170614222Y-112206089D01*
X170741737Y-112414173D01*
X170741738Y-112414176D01*
X170741741Y-112414179D01*
X170900241Y-112599759D01*
X171043897Y-112722453D01*
X171085823Y-112758261D01*
X171085826Y-112758262D01*
X171293910Y-112885777D01*
X171519381Y-112979169D01*
X171519378Y-112979169D01*
X171519384Y-112979170D01*
X171519388Y-112979172D01*
X171756698Y-113036146D01*
X172000000Y-113055294D01*
X172243302Y-113036146D01*
X172480612Y-112979172D01*
X172706089Y-112885777D01*
X172854458Y-112794856D01*
X176699500Y-112794856D01*
X176699502Y-112794882D01*
X176702413Y-112819987D01*
X176702415Y-112819991D01*
X176747793Y-112922764D01*
X176747794Y-112922765D01*
X176827235Y-113002206D01*
X176930009Y-113047585D01*
X176955135Y-113050500D01*
X179544864Y-113050499D01*
X179544879Y-113050497D01*
X179544882Y-113050497D01*
X179569987Y-113047586D01*
X179569988Y-113047585D01*
X179569991Y-113047585D01*
X179672765Y-113002206D01*
X179752206Y-112922765D01*
X179797585Y-112819991D01*
X179800500Y-112794865D01*
X179800499Y-111500000D01*
X181694706Y-111500000D01*
X181713853Y-111743297D01*
X181713853Y-111743300D01*
X181713854Y-111743302D01*
X181729360Y-111807890D01*
X181770830Y-111980619D01*
X181864222Y-112206089D01*
X181991737Y-112414173D01*
X181991738Y-112414176D01*
X181991741Y-112414179D01*
X182150241Y-112599759D01*
X182293897Y-112722453D01*
X182335823Y-112758261D01*
X182335826Y-112758262D01*
X182543910Y-112885777D01*
X182769381Y-112979169D01*
X182769378Y-112979169D01*
X182769384Y-112979170D01*
X182769388Y-112979172D01*
X183006698Y-113036146D01*
X183250000Y-113055294D01*
X183493302Y-113036146D01*
X183730612Y-112979172D01*
X183956089Y-112885777D01*
X184104458Y-112794856D01*
X187949500Y-112794856D01*
X187949502Y-112794882D01*
X187952413Y-112819987D01*
X187952415Y-112819991D01*
X187997793Y-112922764D01*
X187997794Y-112922765D01*
X188077235Y-113002206D01*
X188180009Y-113047585D01*
X188205135Y-113050500D01*
X190794864Y-113050499D01*
X190794879Y-113050497D01*
X190794882Y-113050497D01*
X190819987Y-113047586D01*
X190819988Y-113047585D01*
X190819991Y-113047585D01*
X190922765Y-113002206D01*
X191002206Y-112922765D01*
X191047585Y-112819991D01*
X191050500Y-112794865D01*
X191050499Y-111500000D01*
X192944706Y-111500000D01*
X192963853Y-111743297D01*
X192963853Y-111743300D01*
X192963854Y-111743302D01*
X192979360Y-111807890D01*
X193020830Y-111980619D01*
X193114222Y-112206089D01*
X193241737Y-112414173D01*
X193241738Y-112414176D01*
X193241741Y-112414179D01*
X193400241Y-112599759D01*
X193543897Y-112722453D01*
X193585823Y-112758261D01*
X193585826Y-112758262D01*
X193793910Y-112885777D01*
X194019381Y-112979169D01*
X194019378Y-112979169D01*
X194019384Y-112979170D01*
X194019388Y-112979172D01*
X194256698Y-113036146D01*
X194500000Y-113055294D01*
X194743302Y-113036146D01*
X194980612Y-112979172D01*
X195206089Y-112885777D01*
X195414179Y-112758259D01*
X195599759Y-112599759D01*
X195758259Y-112414179D01*
X195885777Y-112206089D01*
X195979172Y-111980612D01*
X196036146Y-111743302D01*
X196055294Y-111500000D01*
X196036146Y-111256698D01*
X195979172Y-111019388D01*
X195969117Y-110995112D01*
X195885777Y-110793910D01*
X195758262Y-110585826D01*
X195758261Y-110585823D01*
X195670386Y-110482935D01*
X195599759Y-110400241D01*
X195477063Y-110295449D01*
X195414176Y-110241738D01*
X195414173Y-110241737D01*
X195206089Y-110114222D01*
X194980618Y-110020830D01*
X194980621Y-110020830D01*
X194874992Y-109995470D01*
X194743302Y-109963854D01*
X194743300Y-109963853D01*
X194743297Y-109963853D01*
X194500000Y-109944706D01*
X194256702Y-109963853D01*
X194019380Y-110020830D01*
X193793910Y-110114222D01*
X193585826Y-110241737D01*
X193585823Y-110241738D01*
X193400241Y-110400241D01*
X193241738Y-110585823D01*
X193241737Y-110585826D01*
X193114222Y-110793910D01*
X193020830Y-111019380D01*
X193020828Y-111019387D01*
X193020828Y-111019388D01*
X192997993Y-111114501D01*
X192963853Y-111256702D01*
X192944706Y-111500000D01*
X191050499Y-111500000D01*
X191050499Y-110205136D01*
X191050497Y-110205117D01*
X191047586Y-110180012D01*
X191047585Y-110180010D01*
X191047585Y-110180009D01*
X191002206Y-110077235D01*
X190922765Y-109997794D01*
X190874874Y-109976648D01*
X190819992Y-109952415D01*
X190794865Y-109949500D01*
X188205143Y-109949500D01*
X188205117Y-109949502D01*
X188180012Y-109952413D01*
X188180008Y-109952415D01*
X188077235Y-109997793D01*
X187997794Y-110077234D01*
X187952415Y-110180006D01*
X187952415Y-110180008D01*
X187949500Y-110205131D01*
X187949500Y-112794856D01*
X184104458Y-112794856D01*
X184164179Y-112758259D01*
X184349759Y-112599759D01*
X184508259Y-112414179D01*
X184635777Y-112206089D01*
X184729172Y-111980612D01*
X184786146Y-111743302D01*
X184805294Y-111500000D01*
X184786146Y-111256698D01*
X184729172Y-111019388D01*
X184719117Y-110995112D01*
X184635777Y-110793910D01*
X184508262Y-110585826D01*
X184508261Y-110585823D01*
X184420386Y-110482935D01*
X184349759Y-110400241D01*
X184227063Y-110295449D01*
X184164176Y-110241738D01*
X184164173Y-110241737D01*
X183956089Y-110114222D01*
X183730618Y-110020830D01*
X183730621Y-110020830D01*
X183624992Y-109995470D01*
X183493302Y-109963854D01*
X183493300Y-109963853D01*
X183493297Y-109963853D01*
X183250000Y-109944706D01*
X183006702Y-109963853D01*
X182769380Y-110020830D01*
X182543910Y-110114222D01*
X182335826Y-110241737D01*
X182335823Y-110241738D01*
X182150241Y-110400241D01*
X181991738Y-110585823D01*
X181991737Y-110585826D01*
X181864222Y-110793910D01*
X181770830Y-111019380D01*
X181770828Y-111019387D01*
X181770828Y-111019388D01*
X181747993Y-111114501D01*
X181713853Y-111256702D01*
X181694706Y-111500000D01*
X179800499Y-111500000D01*
X179800499Y-110205136D01*
X179800497Y-110205117D01*
X179797586Y-110180012D01*
X179797585Y-110180010D01*
X179797585Y-110180009D01*
X179752206Y-110077235D01*
X179672765Y-109997794D01*
X179624874Y-109976648D01*
X179569992Y-109952415D01*
X179544865Y-109949500D01*
X176955143Y-109949500D01*
X176955117Y-109949502D01*
X176930012Y-109952413D01*
X176930008Y-109952415D01*
X176827235Y-109997793D01*
X176747794Y-110077234D01*
X176702415Y-110180006D01*
X176702415Y-110180008D01*
X176699500Y-110205131D01*
X176699500Y-112794856D01*
X172854458Y-112794856D01*
X172914179Y-112758259D01*
X173099759Y-112599759D01*
X173258259Y-112414179D01*
X173385777Y-112206089D01*
X173479172Y-111980612D01*
X173536146Y-111743302D01*
X173555294Y-111500000D01*
X173536146Y-111256698D01*
X173479172Y-111019388D01*
X173469117Y-110995112D01*
X173385777Y-110793910D01*
X173258262Y-110585826D01*
X173258261Y-110585823D01*
X173170386Y-110482935D01*
X173099759Y-110400241D01*
X172977063Y-110295449D01*
X172914176Y-110241738D01*
X172914173Y-110241737D01*
X172706089Y-110114222D01*
X172480618Y-110020830D01*
X172480621Y-110020830D01*
X172374992Y-109995470D01*
X172243302Y-109963854D01*
X172243300Y-109963853D01*
X172243297Y-109963853D01*
X172000000Y-109944706D01*
X171756702Y-109963853D01*
X171519380Y-110020830D01*
X171293910Y-110114222D01*
X171085826Y-110241737D01*
X171085823Y-110241738D01*
X170900241Y-110400241D01*
X170741738Y-110585823D01*
X170741737Y-110585826D01*
X170614222Y-110793910D01*
X170520830Y-111019380D01*
X170520828Y-111019387D01*
X170520828Y-111019388D01*
X170497993Y-111114501D01*
X170463853Y-111256702D01*
X170444706Y-111500000D01*
X168550499Y-111500000D01*
X168550499Y-110205136D01*
X168550497Y-110205117D01*
X168547586Y-110180012D01*
X168547585Y-110180010D01*
X168547585Y-110180009D01*
X168502206Y-110077235D01*
X168422765Y-109997794D01*
X168374874Y-109976648D01*
X168319992Y-109952415D01*
X168294865Y-109949500D01*
X165705143Y-109949500D01*
X165705117Y-109949502D01*
X165680012Y-109952413D01*
X165680008Y-109952415D01*
X165577235Y-109997793D01*
X165497794Y-110077234D01*
X165452415Y-110180006D01*
X165452415Y-110180008D01*
X165449500Y-110205131D01*
X165449500Y-112794856D01*
X161604458Y-112794856D01*
X161664179Y-112758259D01*
X161849759Y-112599759D01*
X162008259Y-112414179D01*
X162135777Y-112206089D01*
X162229172Y-111980612D01*
X162286146Y-111743302D01*
X162305294Y-111500000D01*
X162286146Y-111256698D01*
X162229172Y-111019388D01*
X162219117Y-110995112D01*
X162135777Y-110793910D01*
X162008262Y-110585826D01*
X162008261Y-110585823D01*
X161920386Y-110482935D01*
X161849759Y-110400241D01*
X161727063Y-110295449D01*
X161664176Y-110241738D01*
X161664173Y-110241737D01*
X161456089Y-110114222D01*
X161230618Y-110020830D01*
X161230621Y-110020830D01*
X161124992Y-109995470D01*
X160993302Y-109963854D01*
X160993300Y-109963853D01*
X160993297Y-109963853D01*
X160750000Y-109944706D01*
X160506702Y-109963853D01*
X160269380Y-110020830D01*
X160043910Y-110114222D01*
X159835826Y-110241737D01*
X159835823Y-110241738D01*
X159650241Y-110400241D01*
X159491738Y-110585823D01*
X159491737Y-110585826D01*
X159364222Y-110793910D01*
X159270830Y-111019380D01*
X159270828Y-111019387D01*
X159270828Y-111019388D01*
X159247993Y-111114501D01*
X159213853Y-111256702D01*
X159194706Y-111500000D01*
X157300499Y-111500000D01*
X157300499Y-110205136D01*
X157300497Y-110205117D01*
X157297586Y-110180012D01*
X157297585Y-110180010D01*
X157297585Y-110180009D01*
X157252206Y-110077235D01*
X157172765Y-109997794D01*
X157124874Y-109976648D01*
X157069992Y-109952415D01*
X157044865Y-109949500D01*
X154455143Y-109949500D01*
X154455117Y-109949502D01*
X154430012Y-109952413D01*
X154430008Y-109952415D01*
X154327235Y-109997793D01*
X154247794Y-110077234D01*
X154202415Y-110180006D01*
X154202415Y-110180008D01*
X154199500Y-110205131D01*
X154199500Y-112794856D01*
X150354458Y-112794856D01*
X150414179Y-112758259D01*
X150599759Y-112599759D01*
X150758259Y-112414179D01*
X150885777Y-112206089D01*
X150979172Y-111980612D01*
X151036146Y-111743302D01*
X151055294Y-111500000D01*
X151036146Y-111256698D01*
X150979172Y-111019388D01*
X150969117Y-110995112D01*
X150885777Y-110793910D01*
X150758262Y-110585826D01*
X150758261Y-110585823D01*
X150670386Y-110482935D01*
X150599759Y-110400241D01*
X150477063Y-110295449D01*
X150414176Y-110241738D01*
X150414173Y-110241737D01*
X150206089Y-110114222D01*
X149980618Y-110020830D01*
X149980621Y-110020830D01*
X149874992Y-109995470D01*
X149743302Y-109963854D01*
X149743300Y-109963853D01*
X149743297Y-109963853D01*
X149500000Y-109944706D01*
X149256702Y-109963853D01*
X149019380Y-110020830D01*
X148793910Y-110114222D01*
X148585826Y-110241737D01*
X148585823Y-110241738D01*
X148400241Y-110400241D01*
X148241738Y-110585823D01*
X148241737Y-110585826D01*
X148114222Y-110793910D01*
X148020830Y-111019380D01*
X148020828Y-111019387D01*
X148020828Y-111019388D01*
X147997993Y-111114501D01*
X147963853Y-111256702D01*
X147944706Y-111500000D01*
X146050499Y-111500000D01*
X146050499Y-110205136D01*
X146050497Y-110205117D01*
X146047586Y-110180012D01*
X146047585Y-110180010D01*
X146047585Y-110180009D01*
X146002206Y-110077235D01*
X145922765Y-109997794D01*
X145874874Y-109976648D01*
X145819992Y-109952415D01*
X145794865Y-109949500D01*
X143205143Y-109949500D01*
X143205117Y-109949502D01*
X143180012Y-109952413D01*
X143180008Y-109952415D01*
X143077235Y-109997793D01*
X142997794Y-110077234D01*
X142952415Y-110180006D01*
X142952415Y-110180008D01*
X142949500Y-110205131D01*
X142949500Y-112794856D01*
X139104458Y-112794856D01*
X139164179Y-112758259D01*
X139349759Y-112599759D01*
X139508259Y-112414179D01*
X139635777Y-112206089D01*
X139729172Y-111980612D01*
X139786146Y-111743302D01*
X139805294Y-111500000D01*
X139786146Y-111256698D01*
X139729172Y-111019388D01*
X139719117Y-110995112D01*
X139635777Y-110793910D01*
X139508262Y-110585826D01*
X139508261Y-110585823D01*
X139420386Y-110482935D01*
X139349759Y-110400241D01*
X139227063Y-110295449D01*
X139164176Y-110241738D01*
X139164173Y-110241737D01*
X138956089Y-110114222D01*
X138730618Y-110020830D01*
X138730621Y-110020830D01*
X138624992Y-109995470D01*
X138493302Y-109963854D01*
X138493300Y-109963853D01*
X138493297Y-109963853D01*
X138250000Y-109944706D01*
X138006702Y-109963853D01*
X137769380Y-110020830D01*
X137543910Y-110114222D01*
X137335826Y-110241737D01*
X137335823Y-110241738D01*
X137150241Y-110400241D01*
X136991738Y-110585823D01*
X136991737Y-110585826D01*
X136864222Y-110793910D01*
X136770830Y-111019380D01*
X136770828Y-111019387D01*
X136770828Y-111019388D01*
X136747993Y-111114501D01*
X136713853Y-111256702D01*
X136694706Y-111500000D01*
X134800499Y-111500000D01*
X134800499Y-110205136D01*
X134800497Y-110205117D01*
X134797586Y-110180012D01*
X134797585Y-110180010D01*
X134797585Y-110180009D01*
X134752206Y-110077235D01*
X134672765Y-109997794D01*
X134624874Y-109976648D01*
X134569992Y-109952415D01*
X134544865Y-109949500D01*
X131955143Y-109949500D01*
X131955117Y-109949502D01*
X131930012Y-109952413D01*
X131930008Y-109952415D01*
X131827235Y-109997793D01*
X131747794Y-110077234D01*
X131702415Y-110180006D01*
X131702415Y-110180008D01*
X131699500Y-110205131D01*
X131699500Y-112794856D01*
X127354458Y-112794856D01*
X127414179Y-112758259D01*
X127599759Y-112599759D01*
X127758259Y-112414179D01*
X127885777Y-112206089D01*
X127979172Y-111980612D01*
X128036146Y-111743302D01*
X128055294Y-111500000D01*
X128036146Y-111256698D01*
X127979172Y-111019388D01*
X127969117Y-110995112D01*
X127885777Y-110793910D01*
X127758262Y-110585826D01*
X127758261Y-110585823D01*
X127670386Y-110482935D01*
X127599759Y-110400241D01*
X127477063Y-110295449D01*
X127414176Y-110241738D01*
X127414173Y-110241737D01*
X127206089Y-110114222D01*
X126980618Y-110020830D01*
X126980621Y-110020830D01*
X126874992Y-109995470D01*
X126743302Y-109963854D01*
X126743300Y-109963853D01*
X126743297Y-109963853D01*
X126500000Y-109944706D01*
X126256702Y-109963853D01*
X126019380Y-110020830D01*
X125793910Y-110114222D01*
X125585826Y-110241737D01*
X125585823Y-110241738D01*
X125400241Y-110400241D01*
X125241738Y-110585823D01*
X125241737Y-110585826D01*
X125114222Y-110793910D01*
X125020830Y-111019380D01*
X125020828Y-111019387D01*
X125020828Y-111019388D01*
X124997993Y-111114501D01*
X124963853Y-111256702D01*
X124944706Y-111500000D01*
X122150000Y-111500000D01*
X122150000Y-111435981D01*
X122125021Y-111310402D01*
X122100001Y-111250000D01*
X123250000Y-111250000D01*
X123250000Y-110202172D01*
X123249999Y-110202155D01*
X123243598Y-110142627D01*
X123243596Y-110142620D01*
X123193354Y-110007913D01*
X123193350Y-110007906D01*
X123107190Y-109892812D01*
X123107187Y-109892809D01*
X122992093Y-109806649D01*
X122992086Y-109806645D01*
X122857379Y-109756403D01*
X122857372Y-109756401D01*
X122797844Y-109750000D01*
X121750000Y-109750000D01*
X121750000Y-110899998D01*
X121689598Y-110874979D01*
X121564019Y-110850000D01*
X121435981Y-110850000D01*
X121310402Y-110874979D01*
X121250000Y-110899998D01*
X121250000Y-109750000D01*
X120202155Y-109750000D01*
X120142627Y-109756401D01*
X120142620Y-109756403D01*
X120007913Y-109806645D01*
X120007906Y-109806649D01*
X119892812Y-109892809D01*
X119892809Y-109892812D01*
X119806649Y-110007906D01*
X119806645Y-110007913D01*
X119756403Y-110142620D01*
X119756401Y-110142627D01*
X119750000Y-110202155D01*
X119750000Y-111250000D01*
X120899999Y-111250000D01*
X120874979Y-111310402D01*
X120850000Y-111435981D01*
X120850000Y-111564019D01*
X120874979Y-111689598D01*
X120899999Y-111750000D01*
X119750000Y-111750000D01*
X119750000Y-112797844D01*
X116620717Y-112797844D01*
X116637791Y-112482946D01*
X116637791Y-112482941D01*
X116618417Y-112125629D01*
X116618416Y-112125612D01*
X116560528Y-111772512D01*
X116560522Y-111772486D01*
X116464796Y-111427711D01*
X116464794Y-111427704D01*
X116332346Y-111095284D01*
X116332337Y-111095266D01*
X116164725Y-110779116D01*
X115963919Y-110482949D01*
X115963908Y-110482935D01*
X115836500Y-110332940D01*
X114627195Y-111542245D01*
X114553356Y-111440614D01*
X114375274Y-111262532D01*
X114273642Y-111188692D01*
X115485686Y-109976648D01*
X115472448Y-109964107D01*
X115187576Y-109747555D01*
X115187573Y-109747553D01*
X114880953Y-109563067D01*
X114556204Y-109412821D01*
X114556199Y-109412820D01*
X114217088Y-109298560D01*
X113867604Y-109221632D01*
X113511868Y-109182944D01*
X113154019Y-109182944D01*
X112798283Y-109221632D01*
X112448799Y-109298560D01*
X112109688Y-109412820D01*
X112109683Y-109412821D01*
X111784934Y-109563067D01*
X111478314Y-109747553D01*
X111478311Y-109747555D01*
X111193430Y-109964114D01*
X111193429Y-109964115D01*
X111180201Y-109976646D01*
X111180200Y-109976647D01*
X112392245Y-111188692D01*
X112290614Y-111262532D01*
X112112532Y-111440614D01*
X112038692Y-111542245D01*
X110829386Y-110332939D01*
X110829385Y-110332940D01*
X110701977Y-110482936D01*
X110501162Y-110779116D01*
X110333550Y-111095266D01*
X110333541Y-111095284D01*
X110329693Y-111104944D01*
X110286593Y-111159936D01*
X110220603Y-111182897D01*
X110152676Y-111166536D01*
X110104378Y-111116048D01*
X110090500Y-111059047D01*
X110090500Y-87819309D01*
X110729500Y-87819309D01*
X110748627Y-87890691D01*
X110760201Y-87933887D01*
X110819511Y-88036614D01*
X110819513Y-88036616D01*
X111428357Y-88645461D01*
X111461842Y-88706784D01*
X111459942Y-88767076D01*
X111414244Y-88927687D01*
X111396864Y-89115250D01*
X111394571Y-89140000D01*
X111414244Y-89352310D01*
X111471168Y-89552375D01*
X111472596Y-89557392D01*
X111472596Y-89557394D01*
X111567632Y-89748253D01*
X111616057Y-89812377D01*
X111696128Y-89918407D01*
X111853698Y-90062052D01*
X112034981Y-90174298D01*
X112233802Y-90251321D01*
X112430613Y-90288111D01*
X112492893Y-90319779D01*
X112528166Y-90380092D01*
X112525232Y-90449900D01*
X112485023Y-90507040D01*
X112430613Y-90531888D01*
X112233802Y-90568679D01*
X112233799Y-90568679D01*
X112233799Y-90568680D01*
X112034982Y-90645701D01*
X112034980Y-90645702D01*
X111853699Y-90757947D01*
X111696127Y-90901593D01*
X111567632Y-91071746D01*
X111472596Y-91262605D01*
X111472596Y-91262607D01*
X111414244Y-91467689D01*
X111401649Y-91603619D01*
X111394571Y-91680000D01*
X111414244Y-91892310D01*
X111467450Y-92079308D01*
X111472596Y-92097392D01*
X111472596Y-92097394D01*
X111567632Y-92288253D01*
X111695172Y-92457141D01*
X111696128Y-92458407D01*
X111853698Y-92602052D01*
X112034981Y-92714298D01*
X112233802Y-92791321D01*
X112430613Y-92828111D01*
X112492893Y-92859779D01*
X112528166Y-92920092D01*
X112525232Y-92989900D01*
X112485023Y-93047040D01*
X112430613Y-93071888D01*
X112233802Y-93108679D01*
X112233799Y-93108679D01*
X112233799Y-93108680D01*
X112034982Y-93185701D01*
X112034980Y-93185702D01*
X111853699Y-93297947D01*
X111696127Y-93441593D01*
X111567632Y-93611746D01*
X111472596Y-93802605D01*
X111472596Y-93802607D01*
X111414244Y-94007689D01*
X111394571Y-94219999D01*
X111394571Y-94220000D01*
X111414244Y-94432310D01*
X111472596Y-94637392D01*
X111472596Y-94637394D01*
X111567632Y-94828253D01*
X111696127Y-94998406D01*
X111696128Y-94998407D01*
X111853698Y-95142052D01*
X112034981Y-95254298D01*
X112233802Y-95331321D01*
X112430613Y-95368111D01*
X112492893Y-95399779D01*
X112528166Y-95460092D01*
X112525232Y-95529900D01*
X112485023Y-95587040D01*
X112430613Y-95611888D01*
X112233802Y-95648679D01*
X112233799Y-95648679D01*
X112233799Y-95648680D01*
X112034982Y-95725701D01*
X112034980Y-95725702D01*
X111853699Y-95837947D01*
X111696127Y-95981593D01*
X111567632Y-96151746D01*
X111472596Y-96342605D01*
X111472596Y-96342607D01*
X111414244Y-96547689D01*
X111398630Y-96716200D01*
X111394571Y-96760000D01*
X111414244Y-96972310D01*
X111466424Y-97155702D01*
X111472596Y-97177392D01*
X111472596Y-97177394D01*
X111567632Y-97368253D01*
X111696127Y-97538406D01*
X111696128Y-97538407D01*
X111853698Y-97682052D01*
X112034981Y-97794298D01*
X112233802Y-97871321D01*
X112430613Y-97908111D01*
X112492893Y-97939779D01*
X112528166Y-98000092D01*
X112525232Y-98069900D01*
X112485023Y-98127040D01*
X112430613Y-98151888D01*
X112233802Y-98188679D01*
X112233799Y-98188679D01*
X112233799Y-98188680D01*
X112034982Y-98265701D01*
X112034980Y-98265702D01*
X111853699Y-98377947D01*
X111696127Y-98521593D01*
X111567632Y-98691746D01*
X111472596Y-98882605D01*
X111472596Y-98882607D01*
X111472595Y-98882611D01*
X111414244Y-99087690D01*
X111394571Y-99300000D01*
X111414244Y-99512310D01*
X111468433Y-99702763D01*
X111472596Y-99717392D01*
X111472596Y-99717394D01*
X111567632Y-99908253D01*
X111696127Y-100078406D01*
X111696128Y-100078407D01*
X111853698Y-100222052D01*
X112034981Y-100334298D01*
X112063961Y-100345525D01*
X112119362Y-100388095D01*
X112142954Y-100453861D01*
X112127244Y-100521942D01*
X112077222Y-100570722D01*
X112071573Y-100573533D01*
X111872422Y-100666399D01*
X111872420Y-100666400D01*
X111678926Y-100801886D01*
X111678920Y-100801891D01*
X111511891Y-100968920D01*
X111511886Y-100968926D01*
X111376400Y-101162420D01*
X111376399Y-101162422D01*
X111276570Y-101376507D01*
X111276567Y-101376513D01*
X111219364Y-101589999D01*
X111219364Y-101590000D01*
X112116988Y-101590000D01*
X112084075Y-101647007D01*
X112050000Y-101774174D01*
X112050000Y-101905826D01*
X112084075Y-102032993D01*
X112116988Y-102090000D01*
X111219364Y-102090000D01*
X111276567Y-102303486D01*
X111276570Y-102303492D01*
X111376399Y-102517578D01*
X111511894Y-102711082D01*
X111678917Y-102878105D01*
X111858605Y-103003925D01*
X111902230Y-103058502D01*
X111909422Y-103128001D01*
X111877900Y-103190355D01*
X111817670Y-103225769D01*
X111787482Y-103229500D01*
X111655144Y-103229500D01*
X111655117Y-103229502D01*
X111630012Y-103232413D01*
X111630008Y-103232415D01*
X111527235Y-103277793D01*
X111447794Y-103357234D01*
X111402415Y-103460006D01*
X111402415Y-103460008D01*
X111399500Y-103485131D01*
X111399500Y-105274856D01*
X111399502Y-105274882D01*
X111402413Y-105299987D01*
X111402415Y-105299991D01*
X111447793Y-105402764D01*
X111447794Y-105402765D01*
X111527235Y-105482206D01*
X111630009Y-105527585D01*
X111655135Y-105530500D01*
X113444864Y-105530499D01*
X113444879Y-105530497D01*
X113444882Y-105530497D01*
X113469987Y-105527586D01*
X113469988Y-105527585D01*
X113469991Y-105527585D01*
X113572765Y-105482206D01*
X113652206Y-105402765D01*
X113697585Y-105299991D01*
X113700500Y-105274865D01*
X113700499Y-103485136D01*
X113700497Y-103485117D01*
X113697586Y-103460012D01*
X113697585Y-103460010D01*
X113697585Y-103460009D01*
X113652206Y-103357235D01*
X113572765Y-103277794D01*
X113572763Y-103277793D01*
X113469992Y-103232415D01*
X113444868Y-103229500D01*
X113312519Y-103229500D01*
X113245480Y-103209815D01*
X113199725Y-103157011D01*
X113189781Y-103087853D01*
X113218806Y-103024297D01*
X113241395Y-103003925D01*
X113421082Y-102878105D01*
X113588105Y-102711082D01*
X113723600Y-102517578D01*
X113823429Y-102303492D01*
X113823432Y-102303486D01*
X113880636Y-102090000D01*
X112983012Y-102090000D01*
X113015925Y-102032993D01*
X113050000Y-101905826D01*
X113050000Y-101774174D01*
X113015925Y-101647007D01*
X112983012Y-101590000D01*
X113880636Y-101590000D01*
X113880635Y-101589999D01*
X113823432Y-101376513D01*
X113823429Y-101376507D01*
X113723600Y-101162422D01*
X113723599Y-101162420D01*
X113588113Y-100968926D01*
X113588108Y-100968920D01*
X113519188Y-100900000D01*
X133639750Y-100900000D01*
X133648824Y-100968926D01*
X133658670Y-101043708D01*
X133658671Y-101043712D01*
X133714137Y-101177622D01*
X133714138Y-101177624D01*
X133714139Y-101177625D01*
X133802379Y-101292621D01*
X133917375Y-101380861D01*
X133917376Y-101380861D01*
X133917377Y-101380862D01*
X133962013Y-101399350D01*
X134051291Y-101436330D01*
X134178280Y-101453048D01*
X134194999Y-101455250D01*
X134195000Y-101455250D01*
X134195001Y-101455250D01*
X134209977Y-101453278D01*
X134338709Y-101436330D01*
X134472625Y-101380861D01*
X134587621Y-101292621D01*
X134675861Y-101177625D01*
X134731330Y-101043709D01*
X134750250Y-100900000D01*
X134731330Y-100756291D01*
X134675861Y-100622375D01*
X134671123Y-100616200D01*
X134645930Y-100551031D01*
X134645500Y-100540715D01*
X134645500Y-100402965D01*
X134665185Y-100335926D01*
X134681819Y-100315284D01*
X137000284Y-97996819D01*
X137061607Y-97963334D01*
X137087965Y-97960500D01*
X157120242Y-97960500D01*
X157187281Y-97980185D01*
X157233036Y-98032989D01*
X157242980Y-98102147D01*
X157213955Y-98165703D01*
X157207923Y-98172181D01*
X157151923Y-98228181D01*
X157090600Y-98261666D01*
X157064242Y-98264500D01*
X146566018Y-98264500D01*
X146453981Y-98264500D01*
X146345763Y-98293497D01*
X146345761Y-98293498D01*
X146345760Y-98293498D01*
X146248740Y-98349513D01*
X146248734Y-98349517D01*
X144959517Y-99638734D01*
X144959513Y-99638740D01*
X144903498Y-99735760D01*
X144903497Y-99735763D01*
X144874500Y-99843982D01*
X144874500Y-100508134D01*
X144854815Y-100575173D01*
X144848876Y-100583620D01*
X144819138Y-100622374D01*
X144763671Y-100756287D01*
X144763670Y-100756291D01*
X144757667Y-100801891D01*
X144744750Y-100900000D01*
X144753824Y-100968926D01*
X144763670Y-101043708D01*
X144763671Y-101043712D01*
X144819137Y-101177622D01*
X144819138Y-101177624D01*
X144819139Y-101177625D01*
X144907379Y-101292621D01*
X145022375Y-101380861D01*
X145022376Y-101380861D01*
X145022377Y-101380862D01*
X145067013Y-101399350D01*
X145156291Y-101436330D01*
X145283280Y-101453048D01*
X145299999Y-101455250D01*
X145300000Y-101455250D01*
X145300001Y-101455250D01*
X145314977Y-101453278D01*
X145443709Y-101436330D01*
X145577625Y-101380861D01*
X145692621Y-101292621D01*
X145780861Y-101177625D01*
X145836330Y-101043709D01*
X145855250Y-100900000D01*
X145836330Y-100756291D01*
X145802753Y-100675227D01*
X145780861Y-100622374D01*
X145751124Y-100583620D01*
X145725930Y-100518450D01*
X145725500Y-100508134D01*
X145725500Y-100127610D01*
X145745185Y-100060571D01*
X145761819Y-100039929D01*
X146649929Y-99151819D01*
X146711252Y-99118334D01*
X146737610Y-99115500D01*
X156601638Y-99115500D01*
X156668677Y-99135185D01*
X156714432Y-99187989D01*
X156724376Y-99257147D01*
X156695351Y-99320703D01*
X156689323Y-99327175D01*
X156456984Y-99559515D01*
X156296296Y-99720203D01*
X156296295Y-99720203D01*
X156296296Y-99720204D01*
X156234514Y-99781986D01*
X156234513Y-99781988D01*
X156178498Y-99879008D01*
X156178497Y-99879011D01*
X156149500Y-99987230D01*
X156149500Y-100633134D01*
X156129815Y-100700173D01*
X156123876Y-100708620D01*
X156094138Y-100747374D01*
X156038671Y-100881287D01*
X156038670Y-100881291D01*
X156019750Y-101024999D01*
X156019750Y-101025000D01*
X156038670Y-101168708D01*
X156038671Y-101168712D01*
X156094137Y-101302622D01*
X156094138Y-101302624D01*
X156094139Y-101302625D01*
X156182379Y-101417621D01*
X156297375Y-101505861D01*
X156431291Y-101561330D01*
X156558280Y-101578048D01*
X156574999Y-101580250D01*
X156575000Y-101580250D01*
X156575001Y-101580250D01*
X156589977Y-101578278D01*
X156718709Y-101561330D01*
X156852625Y-101505861D01*
X156967621Y-101417621D01*
X157055861Y-101302625D01*
X157111330Y-101168709D01*
X157130250Y-101025000D01*
X157111330Y-100881291D01*
X157083530Y-100814174D01*
X157055861Y-100747374D01*
X157026124Y-100708620D01*
X157000930Y-100643450D01*
X157000500Y-100633134D01*
X157000500Y-100270857D01*
X157020185Y-100203818D01*
X157036819Y-100183176D01*
X166267819Y-90952176D01*
X166329142Y-90918691D01*
X166398834Y-90923675D01*
X166454767Y-90965547D01*
X166479184Y-91031011D01*
X166479500Y-91039857D01*
X166479500Y-93099309D01*
X166493481Y-93151486D01*
X166510201Y-93213887D01*
X166569511Y-93316614D01*
X166569513Y-93316616D01*
X167203181Y-93950284D01*
X167236666Y-94011607D01*
X167239500Y-94037965D01*
X167239500Y-100753882D01*
X167222890Y-100815878D01*
X167219137Y-100822378D01*
X167163671Y-100956287D01*
X167163670Y-100956291D01*
X167144750Y-101099999D01*
X167144750Y-101100000D01*
X167163670Y-101243708D01*
X167163671Y-101243712D01*
X167219137Y-101377622D01*
X167219138Y-101377624D01*
X167219139Y-101377625D01*
X167307379Y-101492621D01*
X167422375Y-101580861D01*
X167556291Y-101636330D01*
X167683280Y-101653048D01*
X167699999Y-101655250D01*
X167700000Y-101655250D01*
X167700001Y-101655250D01*
X167714977Y-101653278D01*
X167843709Y-101636330D01*
X167977625Y-101580861D01*
X168092621Y-101492621D01*
X168180861Y-101377625D01*
X168236330Y-101243709D01*
X168255250Y-101100000D01*
X168236330Y-100956291D01*
X168180861Y-100822375D01*
X168175876Y-100815878D01*
X168166123Y-100803167D01*
X168140930Y-100737997D01*
X168140500Y-100727682D01*
X168140500Y-94056965D01*
X168160185Y-93989926D01*
X168212989Y-93944171D01*
X168282147Y-93934227D01*
X168345703Y-93963252D01*
X168352181Y-93969284D01*
X175383386Y-101000489D01*
X175425841Y-101025000D01*
X175486114Y-101059799D01*
X175600691Y-101090500D01*
X181492035Y-101090500D01*
X181559074Y-101110185D01*
X181579716Y-101126819D01*
X183563181Y-103110284D01*
X183596666Y-103171607D01*
X183599500Y-103197965D01*
X183599500Y-104740715D01*
X183579815Y-104807754D01*
X183573877Y-104816200D01*
X183569138Y-104822375D01*
X183513671Y-104956287D01*
X183513670Y-104956291D01*
X183496067Y-105090000D01*
X183494750Y-105100000D01*
X183512353Y-105233709D01*
X183513670Y-105243708D01*
X183513671Y-105243712D01*
X183569137Y-105377622D01*
X183569138Y-105377624D01*
X183569139Y-105377625D01*
X183657379Y-105492621D01*
X183772375Y-105580861D01*
X183906291Y-105636330D01*
X184033280Y-105653048D01*
X184049999Y-105655250D01*
X184050000Y-105655250D01*
X184050001Y-105655250D01*
X184064977Y-105653278D01*
X184193709Y-105636330D01*
X184327625Y-105580861D01*
X184442621Y-105492621D01*
X184530861Y-105377625D01*
X184586330Y-105243709D01*
X184605250Y-105100000D01*
X184603933Y-105090000D01*
X184603048Y-105083280D01*
X184586330Y-104956291D01*
X184530861Y-104822375D01*
X184526123Y-104816200D01*
X184500930Y-104751031D01*
X184500500Y-104740715D01*
X184500500Y-103534500D01*
X184520185Y-103467461D01*
X184572989Y-103421706D01*
X184624500Y-103410500D01*
X194422035Y-103410500D01*
X194489074Y-103430185D01*
X194509716Y-103446819D01*
X195133181Y-104070284D01*
X195166666Y-104131607D01*
X195169500Y-104157965D01*
X195169500Y-104730715D01*
X195149815Y-104797754D01*
X195143877Y-104806200D01*
X195139138Y-104812375D01*
X195083671Y-104946287D01*
X195083670Y-104946291D01*
X195064750Y-105089999D01*
X195064750Y-105090000D01*
X195083670Y-105233708D01*
X195083671Y-105233712D01*
X195139137Y-105367622D01*
X195139138Y-105367624D01*
X195139139Y-105367625D01*
X195227379Y-105482621D01*
X195342375Y-105570861D01*
X195476291Y-105626330D01*
X195603280Y-105643048D01*
X195619999Y-105645250D01*
X195620000Y-105645250D01*
X195620001Y-105645250D01*
X195634977Y-105643278D01*
X195763709Y-105626330D01*
X195897625Y-105570861D01*
X196012621Y-105482621D01*
X196100861Y-105367625D01*
X196156330Y-105233709D01*
X196175250Y-105090000D01*
X196156330Y-104946291D01*
X196100861Y-104812375D01*
X196096123Y-104806200D01*
X196070930Y-104741031D01*
X196070500Y-104730715D01*
X196070500Y-103860693D01*
X196070500Y-103860691D01*
X196039799Y-103746114D01*
X195996204Y-103670606D01*
X195980489Y-103643386D01*
X195957560Y-103620457D01*
X195957558Y-103620454D01*
X194936616Y-102599513D01*
X194936614Y-102599511D01*
X194885250Y-102569856D01*
X194833888Y-102540201D01*
X194821780Y-102536957D01*
X194809673Y-102533713D01*
X194809670Y-102533712D01*
X194749456Y-102517578D01*
X194719309Y-102509500D01*
X194719308Y-102509500D01*
X186192997Y-102509500D01*
X186125958Y-102489815D01*
X186080203Y-102437011D01*
X186070259Y-102367853D01*
X186094622Y-102310013D01*
X186099626Y-102303492D01*
X186180861Y-102197625D01*
X186236330Y-102063709D01*
X186255250Y-101920000D01*
X186236330Y-101776291D01*
X186180861Y-101642375D01*
X186092621Y-101527379D01*
X185977625Y-101439139D01*
X185977624Y-101439138D01*
X185977622Y-101439137D01*
X185843710Y-101383670D01*
X185840261Y-101383216D01*
X185835990Y-101382653D01*
X185772096Y-101354385D01*
X185764500Y-101347396D01*
X184258990Y-99841886D01*
X182711097Y-98293994D01*
X182677613Y-98232672D01*
X182682597Y-98162980D01*
X182724469Y-98107047D01*
X182751319Y-98091756D01*
X182777625Y-98080861D01*
X182777629Y-98080858D01*
X182783801Y-98076123D01*
X182848970Y-98050930D01*
X182859285Y-98050500D01*
X193640715Y-98050500D01*
X193707754Y-98070185D01*
X193716199Y-98076123D01*
X193722370Y-98080858D01*
X193722373Y-98080859D01*
X193722375Y-98080861D01*
X193856291Y-98136330D01*
X193983280Y-98153048D01*
X193999999Y-98155250D01*
X194000000Y-98155250D01*
X194000001Y-98155250D01*
X194014977Y-98153278D01*
X194143709Y-98136330D01*
X194277625Y-98080861D01*
X194392621Y-97992621D01*
X194480861Y-97877625D01*
X194536330Y-97743709D01*
X194555250Y-97600000D01*
X194536330Y-97456291D01*
X194480861Y-97322375D01*
X194392621Y-97207379D01*
X194277625Y-97119139D01*
X194277624Y-97119138D01*
X194277622Y-97119137D01*
X194143712Y-97063671D01*
X194143710Y-97063670D01*
X194143709Y-97063670D01*
X194071854Y-97054210D01*
X194000001Y-97044750D01*
X193999999Y-97044750D01*
X193856291Y-97063670D01*
X193856287Y-97063671D01*
X193722376Y-97119138D01*
X193722370Y-97119141D01*
X193716199Y-97123877D01*
X193651030Y-97149070D01*
X193640715Y-97149500D01*
X192136963Y-97149500D01*
X192069924Y-97129815D01*
X192024169Y-97077011D01*
X192014024Y-97009315D01*
X192015250Y-97000002D01*
X192015250Y-96999999D01*
X192011231Y-96969471D01*
X191996330Y-96856291D01*
X191940861Y-96722375D01*
X191852621Y-96607379D01*
X191737625Y-96519139D01*
X191737624Y-96519138D01*
X191737622Y-96519137D01*
X191603712Y-96463671D01*
X191603710Y-96463670D01*
X191603709Y-96463670D01*
X191531854Y-96454210D01*
X191460001Y-96444750D01*
X191459999Y-96444750D01*
X191316291Y-96463670D01*
X191316287Y-96463671D01*
X191182376Y-96519138D01*
X191182370Y-96519141D01*
X191176199Y-96523877D01*
X191111030Y-96549070D01*
X191100715Y-96549500D01*
X180533513Y-96549500D01*
X180466474Y-96529815D01*
X180420719Y-96477011D01*
X180409513Y-96425500D01*
X180409513Y-92938952D01*
X180429198Y-92871913D01*
X180445832Y-92851271D01*
X182720284Y-90576819D01*
X182781607Y-90543334D01*
X182807965Y-90540500D01*
X184390715Y-90540500D01*
X184457754Y-90560185D01*
X184466199Y-90566123D01*
X184472370Y-90570858D01*
X184472373Y-90570859D01*
X184472375Y-90570861D01*
X184606291Y-90626330D01*
X184733280Y-90643048D01*
X184749999Y-90645250D01*
X184750000Y-90645250D01*
X184750001Y-90645250D01*
X184764977Y-90643278D01*
X184893709Y-90626330D01*
X185027625Y-90570861D01*
X185142621Y-90482621D01*
X185230861Y-90367625D01*
X185286330Y-90233709D01*
X185305250Y-90090000D01*
X185303763Y-90078709D01*
X185303048Y-90073280D01*
X185286330Y-89946291D01*
X185230861Y-89812375D01*
X185142621Y-89697379D01*
X185027625Y-89609139D01*
X185027624Y-89609138D01*
X185027622Y-89609137D01*
X184893712Y-89553671D01*
X184893710Y-89553670D01*
X184893709Y-89553670D01*
X184807947Y-89542379D01*
X184750001Y-89534750D01*
X184749999Y-89534750D01*
X184606291Y-89553670D01*
X184606287Y-89553671D01*
X184472376Y-89609138D01*
X184472370Y-89609141D01*
X184466199Y-89613877D01*
X184401030Y-89639070D01*
X184390715Y-89639500D01*
X182510691Y-89639500D01*
X182420325Y-89663713D01*
X182420324Y-89663712D01*
X182396116Y-89670199D01*
X182396113Y-89670200D01*
X182293386Y-89729511D01*
X182293383Y-89729513D01*
X179598526Y-92424370D01*
X179598522Y-92424376D01*
X179539214Y-92527100D01*
X179539213Y-92527103D01*
X179536707Y-92536455D01*
X179508513Y-92641678D01*
X179508513Y-96640715D01*
X179488828Y-96707754D01*
X179482890Y-96716200D01*
X179478151Y-96722375D01*
X179422684Y-96856287D01*
X179422683Y-96856290D01*
X179417194Y-96897979D01*
X179388925Y-96961874D01*
X179330600Y-97000344D01*
X179260735Y-97001174D01*
X179206574Y-96969471D01*
X173936819Y-91699716D01*
X173903334Y-91638393D01*
X173900500Y-91612035D01*
X173900500Y-91589284D01*
X173920185Y-91522245D01*
X173926116Y-91513808D01*
X173930861Y-91507625D01*
X173986330Y-91373709D01*
X174005250Y-91230000D01*
X173986330Y-91086291D01*
X173930861Y-90952375D01*
X173842621Y-90837379D01*
X173727625Y-90749139D01*
X173727624Y-90749138D01*
X173727622Y-90749137D01*
X173593712Y-90693671D01*
X173593710Y-90693670D01*
X173593709Y-90693670D01*
X173521854Y-90684210D01*
X173450001Y-90674750D01*
X173449999Y-90674750D01*
X173306291Y-90693670D01*
X173306287Y-90693671D01*
X173172377Y-90749137D01*
X173057379Y-90837379D01*
X172969137Y-90952377D01*
X172913671Y-91086287D01*
X172913670Y-91086291D01*
X172894750Y-91229999D01*
X172894750Y-91230000D01*
X172913670Y-91373708D01*
X172913671Y-91373712D01*
X172969137Y-91507622D01*
X172969138Y-91507624D01*
X172969139Y-91507625D01*
X172973875Y-91513798D01*
X172999070Y-91578965D01*
X172999500Y-91589284D01*
X172999500Y-91909308D01*
X173015715Y-91969824D01*
X173030201Y-92023888D01*
X173059856Y-92075250D01*
X173089511Y-92126614D01*
X178923386Y-97960489D01*
X179026113Y-98019799D01*
X179050321Y-98026284D01*
X179050324Y-98026286D01*
X179050325Y-98026286D01*
X179075341Y-98032989D01*
X179140691Y-98050500D01*
X181142035Y-98050500D01*
X181209074Y-98070185D01*
X181229716Y-98086819D01*
X185127396Y-101984500D01*
X185160881Y-102045823D01*
X185162654Y-102055991D01*
X185163670Y-102063710D01*
X185219138Y-102197623D01*
X185219139Y-102197626D01*
X185274291Y-102269500D01*
X185300369Y-102303486D01*
X185305378Y-102310013D01*
X185330573Y-102375182D01*
X185316535Y-102443627D01*
X185267721Y-102493617D01*
X185207003Y-102509500D01*
X184287965Y-102509500D01*
X184220926Y-102489815D01*
X184200284Y-102473181D01*
X182006616Y-100279513D01*
X182006614Y-100279511D01*
X181955250Y-100249856D01*
X181903888Y-100220201D01*
X181891780Y-100216957D01*
X181879673Y-100213713D01*
X181879670Y-100213712D01*
X181837527Y-100202420D01*
X181789309Y-100189500D01*
X181789308Y-100189500D01*
X175897965Y-100189500D01*
X175830926Y-100169815D01*
X175810284Y-100153181D01*
X168987149Y-93330046D01*
X168953664Y-93268723D01*
X168950830Y-93242365D01*
X168950830Y-92499233D01*
X168970515Y-92432194D01*
X168976446Y-92423757D01*
X168981191Y-92417574D01*
X169036660Y-92283658D01*
X169043036Y-92235226D01*
X169071300Y-92171332D01*
X169078281Y-92163744D01*
X171710259Y-89531768D01*
X171771582Y-89498283D01*
X171797940Y-89495449D01*
X172726346Y-89495449D01*
X172726348Y-89495449D01*
X172834567Y-89466452D01*
X172931593Y-89410434D01*
X175112648Y-87229376D01*
X175173971Y-87195892D01*
X175243663Y-87200876D01*
X175288010Y-87229377D01*
X178334118Y-90275485D01*
X178431144Y-90331503D01*
X178539362Y-90360500D01*
X178539363Y-90360500D01*
X180413136Y-90360500D01*
X180480175Y-90380185D01*
X180488609Y-90386114D01*
X180527375Y-90415861D01*
X180661291Y-90471330D01*
X180788280Y-90488048D01*
X180804999Y-90490250D01*
X180805000Y-90490250D01*
X180805001Y-90490250D01*
X180819977Y-90488278D01*
X180948709Y-90471330D01*
X181082625Y-90415861D01*
X181197621Y-90327621D01*
X181285861Y-90212625D01*
X181341330Y-90078709D01*
X181360250Y-89935000D01*
X181341330Y-89791291D01*
X181285861Y-89657375D01*
X181197621Y-89542379D01*
X181082625Y-89454139D01*
X181082624Y-89454138D01*
X181082622Y-89454137D01*
X180948712Y-89398671D01*
X180948710Y-89398670D01*
X180948709Y-89398670D01*
X180876854Y-89389210D01*
X180805001Y-89379750D01*
X180804999Y-89379750D01*
X180661291Y-89398670D01*
X180661287Y-89398671D01*
X180527377Y-89454137D01*
X180514703Y-89463862D01*
X180488621Y-89483875D01*
X180423455Y-89509070D01*
X180413136Y-89509500D01*
X178822991Y-89509500D01*
X178755952Y-89489815D01*
X178735310Y-89473181D01*
X175778293Y-86516164D01*
X175744808Y-86454841D01*
X175743037Y-86444680D01*
X175736660Y-86396240D01*
X175681191Y-86262324D01*
X175592951Y-86147328D01*
X175477955Y-86059088D01*
X175477954Y-86059087D01*
X175477952Y-86059086D01*
X175344040Y-86003619D01*
X175340332Y-86003131D01*
X175336320Y-86002602D01*
X175272426Y-85974334D01*
X175264829Y-85967345D01*
X175162149Y-85864665D01*
X175128664Y-85803342D01*
X175125830Y-85776984D01*
X175125830Y-84129740D01*
X175145515Y-84062701D01*
X175198319Y-84016946D01*
X175267477Y-84007002D01*
X175331033Y-84036027D01*
X175337511Y-84042059D01*
X179215137Y-87919685D01*
X179312163Y-87975703D01*
X179420381Y-88004700D01*
X179420382Y-88004700D01*
X181268936Y-88004700D01*
X181335975Y-88024385D01*
X181344409Y-88030314D01*
X181383175Y-88060061D01*
X181517091Y-88115530D01*
X181644080Y-88132248D01*
X181660799Y-88134450D01*
X181660800Y-88134450D01*
X181660801Y-88134450D01*
X181675777Y-88132478D01*
X181804509Y-88115530D01*
X181938425Y-88060061D01*
X182053421Y-87971821D01*
X182141661Y-87856825D01*
X182197130Y-87722909D01*
X182216050Y-87579200D01*
X182197130Y-87435491D01*
X182141661Y-87301575D01*
X182053421Y-87186579D01*
X181938425Y-87098339D01*
X181938424Y-87098338D01*
X181938422Y-87098337D01*
X181804512Y-87042871D01*
X181804510Y-87042870D01*
X181804509Y-87042870D01*
X181732654Y-87033410D01*
X181660801Y-87023950D01*
X181660799Y-87023950D01*
X181517091Y-87042870D01*
X181517087Y-87042871D01*
X181383177Y-87098337D01*
X181370503Y-87108062D01*
X181344421Y-87128075D01*
X181279255Y-87153270D01*
X181268936Y-87153700D01*
X179704010Y-87153700D01*
X179636971Y-87134015D01*
X179616329Y-87117381D01*
X175855617Y-83356669D01*
X175822132Y-83295346D01*
X175820361Y-83285187D01*
X175811660Y-83219091D01*
X175756191Y-83085175D01*
X175667951Y-82970179D01*
X175552955Y-82881939D01*
X175552954Y-82881938D01*
X175552952Y-82881937D01*
X175419042Y-82826471D01*
X175419040Y-82826470D01*
X175419039Y-82826470D01*
X175343918Y-82816580D01*
X175275331Y-82807550D01*
X175275328Y-82807550D01*
X175266015Y-82808776D01*
X175196980Y-82798010D01*
X175144724Y-82751630D01*
X175125830Y-82685837D01*
X175125830Y-81675642D01*
X175125830Y-81675640D01*
X175095129Y-81561063D01*
X175054360Y-81490449D01*
X175035819Y-81458335D01*
X173065129Y-79487645D01*
X172999925Y-79449999D01*
X172962403Y-79428335D01*
X172950295Y-79425091D01*
X172938188Y-79421847D01*
X172938185Y-79421846D01*
X172899993Y-79411612D01*
X172847824Y-79397634D01*
X172847823Y-79397634D01*
X170067800Y-79397634D01*
X170000761Y-79377949D01*
X169992316Y-79372011D01*
X169986144Y-79367275D01*
X169986138Y-79367272D01*
X169852227Y-79311805D01*
X169852225Y-79311804D01*
X169852224Y-79311804D01*
X169780369Y-79302344D01*
X169708516Y-79292884D01*
X169708514Y-79292884D01*
X169564806Y-79311804D01*
X169564802Y-79311805D01*
X169430891Y-79367272D01*
X169430885Y-79367275D01*
X169424714Y-79372011D01*
X169359545Y-79397204D01*
X169349230Y-79397634D01*
X168556480Y-79397634D01*
X168489441Y-79377949D01*
X168468799Y-79361315D01*
X167882933Y-78775449D01*
X167849448Y-78714126D01*
X167847674Y-78703944D01*
X167846660Y-78696239D01*
X167846659Y-78696237D01*
X167803093Y-78591058D01*
X167791191Y-78562324D01*
X167702951Y-78447328D01*
X167587955Y-78359088D01*
X167587954Y-78359087D01*
X167587952Y-78359086D01*
X167454042Y-78303620D01*
X167454040Y-78303619D01*
X167454039Y-78303619D01*
X167382184Y-78294159D01*
X167310331Y-78284699D01*
X167310329Y-78284699D01*
X167166621Y-78303619D01*
X167166617Y-78303620D01*
X167032707Y-78359086D01*
X166917709Y-78447328D01*
X166829467Y-78562326D01*
X166774001Y-78696236D01*
X166774000Y-78696240D01*
X166756014Y-78832858D01*
X166755080Y-78839949D01*
X166773518Y-78980000D01*
X166774000Y-78983657D01*
X166774001Y-78983661D01*
X166829467Y-79117571D01*
X166829468Y-79117573D01*
X166829469Y-79117574D01*
X166917709Y-79232570D01*
X167032705Y-79320810D01*
X167067019Y-79335023D01*
X167166618Y-79376278D01*
X167166620Y-79376279D01*
X167170051Y-79376730D01*
X167174325Y-79377293D01*
X167238224Y-79405555D01*
X167245830Y-79412552D01*
X168041901Y-80208623D01*
X168144628Y-80267933D01*
X168168836Y-80274418D01*
X168168839Y-80274420D01*
X168168840Y-80274420D01*
X168189322Y-80279908D01*
X168259206Y-80298634D01*
X169349230Y-80298634D01*
X169416269Y-80318319D01*
X169424714Y-80324257D01*
X169430885Y-80328992D01*
X169430888Y-80328993D01*
X169430890Y-80328995D01*
X169564806Y-80384464D01*
X169691795Y-80401182D01*
X169708514Y-80403384D01*
X169708515Y-80403384D01*
X169708516Y-80403384D01*
X169726478Y-80401019D01*
X169852224Y-80384464D01*
X169852236Y-80384458D01*
X169853399Y-80384148D01*
X169854435Y-80384172D01*
X169860281Y-80383403D01*
X169860400Y-80384314D01*
X169923249Y-80385807D01*
X169981114Y-80424965D01*
X170008622Y-80489192D01*
X170009500Y-80503921D01*
X170009500Y-83790842D01*
X169989815Y-83857881D01*
X169973181Y-83878523D01*
X169728139Y-84123564D01*
X169702459Y-84143269D01*
X169648443Y-84174455D01*
X169648434Y-84174462D01*
X162483176Y-91339719D01*
X162421853Y-91373204D01*
X162411687Y-91374976D01*
X162405777Y-91375754D01*
X162405776Y-91375754D01*
X162271862Y-91431222D01*
X162156864Y-91519464D01*
X162068622Y-91634462D01*
X162013154Y-91768376D01*
X162013154Y-91768377D01*
X162012376Y-91774287D01*
X161984106Y-91838182D01*
X161977119Y-91845776D01*
X157909716Y-95913181D01*
X157848393Y-95946666D01*
X157822035Y-95949500D01*
X139197965Y-95949500D01*
X139130926Y-95929815D01*
X139110284Y-95913181D01*
X138086819Y-94889716D01*
X138053334Y-94828393D01*
X138050500Y-94802035D01*
X138050500Y-87950000D01*
X147164750Y-87950000D01*
X147176153Y-88036616D01*
X147183670Y-88093708D01*
X147183671Y-88093712D01*
X147239137Y-88227622D01*
X147239138Y-88227624D01*
X147239139Y-88227625D01*
X147327379Y-88342621D01*
X147442375Y-88430861D01*
X147576291Y-88486330D01*
X147703280Y-88503048D01*
X147719999Y-88505250D01*
X147720000Y-88505250D01*
X147720001Y-88505250D01*
X147734977Y-88503278D01*
X147863709Y-88486330D01*
X147997625Y-88430861D01*
X147997629Y-88430858D01*
X148003801Y-88426123D01*
X148068970Y-88400930D01*
X148079285Y-88400500D01*
X151127474Y-88400500D01*
X151194513Y-88420185D01*
X151240268Y-88472989D01*
X151250212Y-88542147D01*
X151242036Y-88571951D01*
X151223670Y-88616291D01*
X151204750Y-88759999D01*
X151204750Y-88760000D01*
X151223670Y-88903708D01*
X151223671Y-88903712D01*
X151279137Y-89037622D01*
X151279138Y-89037624D01*
X151279139Y-89037625D01*
X151367379Y-89152621D01*
X151482375Y-89240861D01*
X151616291Y-89296330D01*
X151743280Y-89313048D01*
X151759999Y-89315250D01*
X151760000Y-89315250D01*
X151760001Y-89315250D01*
X151774977Y-89313278D01*
X151903709Y-89296330D01*
X152037625Y-89240861D01*
X152037629Y-89240858D01*
X152043801Y-89236123D01*
X152108970Y-89210930D01*
X152119285Y-89210500D01*
X161919308Y-89210500D01*
X161919309Y-89210500D01*
X162009673Y-89186286D01*
X162033887Y-89179799D01*
X162136614Y-89120489D01*
X166900489Y-84356614D01*
X166936929Y-84293497D01*
X166959799Y-84253886D01*
X166990500Y-84139309D01*
X166990500Y-80829284D01*
X167010185Y-80762245D01*
X167016116Y-80753808D01*
X167020861Y-80747625D01*
X167076330Y-80613709D01*
X167095250Y-80470000D01*
X167076330Y-80326291D01*
X167028203Y-80210100D01*
X167020862Y-80192377D01*
X167020861Y-80192376D01*
X167020861Y-80192375D01*
X166932621Y-80077379D01*
X166817625Y-79989139D01*
X166817624Y-79989138D01*
X166817622Y-79989137D01*
X166683712Y-79933671D01*
X166683710Y-79933670D01*
X166683709Y-79933670D01*
X166583675Y-79920500D01*
X166540001Y-79914750D01*
X166539998Y-79914750D01*
X166391015Y-79934364D01*
X166321980Y-79923598D01*
X166269724Y-79877218D01*
X166250830Y-79811425D01*
X166250830Y-77995546D01*
X166267443Y-77933545D01*
X166270857Y-77927629D01*
X166270861Y-77927625D01*
X166326330Y-77793709D01*
X166345250Y-77650000D01*
X166326330Y-77506291D01*
X166270861Y-77372375D01*
X166182621Y-77257379D01*
X166182619Y-77257378D01*
X166182619Y-77257377D01*
X166141358Y-77225717D01*
X166129065Y-77216284D01*
X166087864Y-77159858D01*
X166083709Y-77090112D01*
X166116870Y-77030231D01*
X170570284Y-72576819D01*
X170631607Y-72543334D01*
X170657965Y-72540500D01*
X176340715Y-72540500D01*
X176407754Y-72560185D01*
X176416199Y-72566123D01*
X176422370Y-72570858D01*
X176422373Y-72570859D01*
X176422375Y-72570861D01*
X176556291Y-72626330D01*
X176683280Y-72643048D01*
X176699999Y-72645250D01*
X176700000Y-72645250D01*
X176700001Y-72645250D01*
X176714977Y-72643278D01*
X176843709Y-72626330D01*
X176977625Y-72570861D01*
X177092621Y-72482621D01*
X177180861Y-72367625D01*
X177236330Y-72233709D01*
X177255250Y-72090000D01*
X177236330Y-71946291D01*
X177180861Y-71812375D01*
X177092621Y-71697379D01*
X176977625Y-71609139D01*
X176977624Y-71609138D01*
X176977622Y-71609137D01*
X176843712Y-71553671D01*
X176843710Y-71553670D01*
X176843709Y-71553670D01*
X176771854Y-71544210D01*
X176700001Y-71534750D01*
X176699999Y-71534750D01*
X176556291Y-71553670D01*
X176556287Y-71553671D01*
X176422376Y-71609138D01*
X176422370Y-71609141D01*
X176416199Y-71613877D01*
X176351030Y-71639070D01*
X176340715Y-71639500D01*
X170360691Y-71639500D01*
X170270325Y-71663713D01*
X170270324Y-71663712D01*
X170246116Y-71670199D01*
X170246113Y-71670200D01*
X170143386Y-71729511D01*
X170143383Y-71729513D01*
X164819513Y-77053383D01*
X164819509Y-77053389D01*
X164760201Y-77156112D01*
X164760200Y-77156117D01*
X164729500Y-77270691D01*
X164729500Y-82313442D01*
X164720061Y-82360894D01*
X164664001Y-82496236D01*
X164664000Y-82496240D01*
X164648256Y-82615829D01*
X164645080Y-82639949D01*
X164660897Y-82760092D01*
X164664000Y-82783657D01*
X164664001Y-82783661D01*
X164719467Y-82917571D01*
X164719468Y-82917573D01*
X164719469Y-82917574D01*
X164807709Y-83032570D01*
X164922705Y-83120810D01*
X165056621Y-83176279D01*
X165175880Y-83191980D01*
X165200329Y-83195199D01*
X165200329Y-83195198D01*
X165200330Y-83195199D01*
X165209639Y-83193973D01*
X165278674Y-83204735D01*
X165330932Y-83251112D01*
X165349830Y-83316911D01*
X165349830Y-83731704D01*
X165330145Y-83798743D01*
X165313511Y-83819385D01*
X161669716Y-87463181D01*
X161608393Y-87496666D01*
X161582035Y-87499500D01*
X148079285Y-87499500D01*
X148012246Y-87479815D01*
X148003801Y-87473877D01*
X147997629Y-87469141D01*
X147997623Y-87469138D01*
X147863712Y-87413671D01*
X147863710Y-87413670D01*
X147863709Y-87413670D01*
X147791854Y-87404210D01*
X147720001Y-87394750D01*
X147719999Y-87394750D01*
X147576291Y-87413670D01*
X147576287Y-87413671D01*
X147442377Y-87469137D01*
X147327379Y-87557379D01*
X147239137Y-87672377D01*
X147183671Y-87806287D01*
X147183670Y-87806291D01*
X147168742Y-87919682D01*
X147164750Y-87950000D01*
X138050500Y-87950000D01*
X138050500Y-79781518D01*
X138070185Y-79714479D01*
X138086814Y-79693841D01*
X138144114Y-79636542D01*
X138220775Y-79521811D01*
X138273580Y-79394328D01*
X138300500Y-79258993D01*
X138300500Y-79165746D01*
X138320185Y-79098707D01*
X138336819Y-79078065D01*
X138423454Y-78991430D01*
X138521123Y-78893761D01*
X138557288Y-78853500D01*
X138573922Y-78832858D01*
X138605567Y-78788974D01*
X138665338Y-78658097D01*
X138685023Y-78591058D01*
X138685024Y-78591054D01*
X138705500Y-78448638D01*
X138705500Y-77201362D01*
X138702603Y-77147322D01*
X138699769Y-77120964D01*
X138691114Y-77067552D01*
X138640832Y-76932743D01*
X138607347Y-76871420D01*
X138521123Y-76756239D01*
X138521118Y-76756234D01*
X138521113Y-76756228D01*
X138336819Y-76571934D01*
X138303334Y-76510611D01*
X138300500Y-76484253D01*
X138300500Y-76131004D01*
X138273581Y-75995677D01*
X138273580Y-75995676D01*
X138273580Y-75995672D01*
X138271147Y-75989797D01*
X138220778Y-75868195D01*
X138220771Y-75868182D01*
X138171398Y-75794290D01*
X138150520Y-75727612D01*
X138150500Y-75725399D01*
X138150500Y-70784206D01*
X138151561Y-70768020D01*
X138155250Y-70740000D01*
X138155250Y-70739998D01*
X138151561Y-70711978D01*
X138151094Y-70704856D01*
X142749500Y-70704856D01*
X142749502Y-70704882D01*
X142752413Y-70729987D01*
X142752415Y-70729991D01*
X142797793Y-70832764D01*
X142797794Y-70832765D01*
X142877235Y-70912206D01*
X142980009Y-70957585D01*
X143005135Y-70960500D01*
X145094864Y-70960499D01*
X145094879Y-70960497D01*
X145094882Y-70960497D01*
X145119987Y-70957586D01*
X145119988Y-70957585D01*
X145119991Y-70957585D01*
X145222765Y-70912206D01*
X145302206Y-70832765D01*
X145347585Y-70729991D01*
X145350500Y-70704865D01*
X145350499Y-68615136D01*
X145350497Y-68615117D01*
X145347586Y-68590012D01*
X145347585Y-68590010D01*
X145347585Y-68590009D01*
X145302206Y-68487235D01*
X145222765Y-68407794D01*
X145222763Y-68407793D01*
X145119992Y-68362415D01*
X145094865Y-68359500D01*
X143005143Y-68359500D01*
X143005117Y-68359502D01*
X142980012Y-68362413D01*
X142980008Y-68362415D01*
X142877235Y-68407793D01*
X142797794Y-68487234D01*
X142752415Y-68590006D01*
X142752415Y-68590008D01*
X142749500Y-68615131D01*
X142749500Y-70704856D01*
X138151094Y-70704856D01*
X138150500Y-70695793D01*
X138150500Y-70469387D01*
X138170185Y-70402348D01*
X138186819Y-70381706D01*
X142161706Y-66406819D01*
X142223029Y-66373334D01*
X142249387Y-66370500D01*
X151662472Y-66370500D01*
X151662474Y-66370500D01*
X151662475Y-66370500D01*
X151802485Y-66332984D01*
X151841794Y-66310289D01*
X151859616Y-66300000D01*
X151928008Y-66260514D01*
X151928007Y-66260514D01*
X151928015Y-66260510D01*
X154341706Y-63846819D01*
X154403029Y-63813334D01*
X154429387Y-63810500D01*
X163889147Y-63810500D01*
X163956186Y-63830185D01*
X164001941Y-63882989D01*
X164013147Y-63934500D01*
X164013147Y-63985858D01*
X163993462Y-64052897D01*
X163987524Y-64061343D01*
X163982785Y-64067518D01*
X163927318Y-64201430D01*
X163927317Y-64201434D01*
X163910367Y-64330183D01*
X163908397Y-64345143D01*
X163926517Y-64482779D01*
X163927317Y-64488851D01*
X163927318Y-64488855D01*
X163982784Y-64622765D01*
X163982785Y-64622767D01*
X163982786Y-64622768D01*
X164071026Y-64737764D01*
X164186022Y-64826004D01*
X164319938Y-64881473D01*
X164445068Y-64897947D01*
X164463646Y-64900393D01*
X164463647Y-64900393D01*
X164463648Y-64900393D01*
X164482226Y-64897947D01*
X164607356Y-64881473D01*
X164741272Y-64826004D01*
X164856268Y-64737764D01*
X164944508Y-64622768D01*
X164999977Y-64488852D01*
X165018897Y-64345143D01*
X164999977Y-64201434D01*
X164944508Y-64067518D01*
X164939770Y-64061343D01*
X164914577Y-63996174D01*
X164914147Y-63985858D01*
X164914147Y-63934500D01*
X164933832Y-63867461D01*
X164986636Y-63821706D01*
X165038147Y-63810500D01*
X167695501Y-63810500D01*
X167762540Y-63830185D01*
X167808295Y-63882989D01*
X167819501Y-63934500D01*
X167819501Y-64154856D01*
X167819502Y-64154882D01*
X167822413Y-64179987D01*
X167822415Y-64179991D01*
X167867793Y-64282764D01*
X167867794Y-64282765D01*
X167947235Y-64362206D01*
X168050009Y-64407585D01*
X168075135Y-64410500D01*
X168803758Y-64410499D01*
X168870795Y-64430183D01*
X168916550Y-64482987D01*
X168926494Y-64552146D01*
X168897469Y-64615702D01*
X168838691Y-64653476D01*
X168826542Y-64656388D01*
X168808119Y-64659832D01*
X168653802Y-64688679D01*
X168653800Y-64688679D01*
X168653798Y-64688680D01*
X168454982Y-64765701D01*
X168454980Y-64765702D01*
X168273699Y-64877947D01*
X168116127Y-65021593D01*
X167987632Y-65191746D01*
X167892596Y-65382605D01*
X167892596Y-65382607D01*
X167857404Y-65506294D01*
X167834244Y-65587690D01*
X167814571Y-65800000D01*
X167834244Y-66012310D01*
X167850693Y-66070123D01*
X167892596Y-66217392D01*
X167892596Y-66217394D01*
X167987632Y-66408253D01*
X168095857Y-66551564D01*
X168116128Y-66578407D01*
X168273698Y-66722052D01*
X168454981Y-66834298D01*
X168653802Y-66911321D01*
X168863390Y-66950500D01*
X168863392Y-66950500D01*
X169076608Y-66950500D01*
X169076610Y-66950500D01*
X169286198Y-66911321D01*
X169485019Y-66834298D01*
X169666302Y-66722052D01*
X169823872Y-66578407D01*
X169952366Y-66408255D01*
X169953081Y-66406819D01*
X170047403Y-66217394D01*
X170047403Y-66217393D01*
X170047405Y-66217389D01*
X170105756Y-66012310D01*
X170125429Y-65800000D01*
X170105756Y-65587690D01*
X170047405Y-65382611D01*
X170047403Y-65382606D01*
X170047403Y-65382605D01*
X169952367Y-65191746D01*
X169823872Y-65021593D01*
X169666302Y-64877948D01*
X169485019Y-64765702D01*
X169485017Y-64765701D01*
X169325318Y-64703834D01*
X169286198Y-64688679D01*
X169113456Y-64656387D01*
X169051176Y-64624719D01*
X169015903Y-64564407D01*
X169018837Y-64494599D01*
X169059046Y-64437459D01*
X169123764Y-64411128D01*
X169136233Y-64410499D01*
X169864864Y-64410499D01*
X169864879Y-64410497D01*
X169864882Y-64410497D01*
X169889987Y-64407586D01*
X169889988Y-64407585D01*
X169889991Y-64407585D01*
X169992765Y-64362206D01*
X170072206Y-64282765D01*
X170117585Y-64179991D01*
X170120500Y-64154865D01*
X170120500Y-63280000D01*
X175964571Y-63280000D01*
X175984244Y-63492310D01*
X176037675Y-63680099D01*
X176042596Y-63697392D01*
X176042596Y-63697394D01*
X176137632Y-63888253D01*
X176266127Y-64058406D01*
X176266128Y-64058407D01*
X176423698Y-64202052D01*
X176604981Y-64314298D01*
X176803802Y-64391321D01*
X176976541Y-64423611D01*
X177038821Y-64455279D01*
X177074094Y-64515592D01*
X177071160Y-64585400D01*
X177030951Y-64642540D01*
X176966233Y-64668871D01*
X176953755Y-64669500D01*
X176476898Y-64669500D01*
X176437853Y-64674188D01*
X176388438Y-64680122D01*
X176247656Y-64735639D01*
X176127077Y-64827077D01*
X176035639Y-64947656D01*
X175980122Y-65088438D01*
X175974188Y-65137853D01*
X175969500Y-65176898D01*
X175969500Y-66463102D01*
X175975126Y-66509954D01*
X175980122Y-66551561D01*
X176035639Y-66692343D01*
X176127077Y-66812922D01*
X176247656Y-66904360D01*
X176247657Y-66904360D01*
X176247658Y-66904361D01*
X176388436Y-66959877D01*
X176476898Y-66970500D01*
X176476903Y-66970500D01*
X177763097Y-66970500D01*
X177763102Y-66970500D01*
X177851564Y-66959877D01*
X177992342Y-66904361D01*
X178112922Y-66812922D01*
X178204361Y-66692342D01*
X178259877Y-66551564D01*
X178270500Y-66463102D01*
X178270500Y-65976053D01*
X178290185Y-65909014D01*
X178342989Y-65863259D01*
X178412147Y-65853315D01*
X178475703Y-65882340D01*
X178513477Y-65941118D01*
X178517970Y-65964611D01*
X178524244Y-66032310D01*
X178576904Y-66217389D01*
X178582596Y-66237392D01*
X178582596Y-66237394D01*
X178677632Y-66428253D01*
X178806127Y-66598406D01*
X178806128Y-66598407D01*
X178963698Y-66742052D01*
X179144981Y-66854298D01*
X179343802Y-66931321D01*
X179553390Y-66970500D01*
X179553392Y-66970500D01*
X179766608Y-66970500D01*
X179766610Y-66970500D01*
X179976198Y-66931321D01*
X180175019Y-66854298D01*
X180356302Y-66742052D01*
X180513872Y-66598407D01*
X180642366Y-66428255D01*
X180689805Y-66332984D01*
X180737403Y-66237394D01*
X180737403Y-66237393D01*
X180737405Y-66237389D01*
X180795756Y-66032310D01*
X180806529Y-65916047D01*
X180832315Y-65851111D01*
X180874622Y-65820804D01*
X180983130Y-65820804D01*
X181019503Y-65841668D01*
X181051693Y-65903681D01*
X181053470Y-65916047D01*
X181064244Y-66032310D01*
X181116904Y-66217389D01*
X181122596Y-66237392D01*
X181122596Y-66237394D01*
X181217632Y-66428253D01*
X181346127Y-66598406D01*
X181346128Y-66598407D01*
X181503698Y-66742052D01*
X181684981Y-66854298D01*
X181883802Y-66931321D01*
X182093390Y-66970500D01*
X182093392Y-66970500D01*
X182306608Y-66970500D01*
X182306610Y-66970500D01*
X182516198Y-66931321D01*
X182715019Y-66854298D01*
X182896302Y-66742052D01*
X183053872Y-66598407D01*
X183182366Y-66428255D01*
X183229805Y-66332984D01*
X183277403Y-66237394D01*
X183277403Y-66237393D01*
X183277405Y-66237389D01*
X183335756Y-66032310D01*
X183346529Y-65916047D01*
X183372315Y-65851111D01*
X183414622Y-65820804D01*
X183523130Y-65820804D01*
X183559503Y-65841668D01*
X183591693Y-65903681D01*
X183593470Y-65916047D01*
X183604244Y-66032310D01*
X183656904Y-66217389D01*
X183662596Y-66237392D01*
X183662596Y-66237394D01*
X183757632Y-66428253D01*
X183886127Y-66598406D01*
X183886128Y-66598407D01*
X184043698Y-66742052D01*
X184224981Y-66854298D01*
X184423802Y-66931321D01*
X184633390Y-66970500D01*
X184633392Y-66970500D01*
X184846608Y-66970500D01*
X184846610Y-66970500D01*
X185056198Y-66931321D01*
X185255019Y-66854298D01*
X185436302Y-66742052D01*
X185593872Y-66598407D01*
X185722366Y-66428255D01*
X185769805Y-66332984D01*
X185817403Y-66237394D01*
X185817403Y-66237393D01*
X185817405Y-66237389D01*
X185875756Y-66032310D01*
X185886529Y-65916047D01*
X185912315Y-65851111D01*
X185956869Y-65819194D01*
X185920497Y-65798331D01*
X185888307Y-65736318D01*
X185886529Y-65723951D01*
X185882029Y-65675387D01*
X185875756Y-65607690D01*
X185817405Y-65402611D01*
X185817403Y-65402606D01*
X185817403Y-65402605D01*
X185722367Y-65211746D01*
X185593872Y-65041593D01*
X185571933Y-65021593D01*
X185436302Y-64897948D01*
X185255019Y-64785702D01*
X185255017Y-64785701D01*
X185125790Y-64735639D01*
X185056198Y-64708679D01*
X184859385Y-64671888D01*
X184797106Y-64640221D01*
X184761833Y-64579908D01*
X184764767Y-64510100D01*
X184804976Y-64452960D01*
X184859384Y-64428111D01*
X185056198Y-64391321D01*
X185255019Y-64314298D01*
X185436302Y-64202052D01*
X185593872Y-64058407D01*
X185722366Y-63888255D01*
X185789325Y-63753781D01*
X185836825Y-63702548D01*
X185904488Y-63685126D01*
X185970828Y-63707051D01*
X186012705Y-63756651D01*
X186106400Y-63957579D01*
X186106402Y-63957583D01*
X186165072Y-64041373D01*
X186165073Y-64041373D01*
X186797037Y-63409409D01*
X186814075Y-63472993D01*
X186879901Y-63587007D01*
X186972993Y-63680099D01*
X187087007Y-63745925D01*
X187150590Y-63762962D01*
X186518625Y-64394925D01*
X186602421Y-64453599D01*
X186801573Y-64546466D01*
X186854012Y-64592638D01*
X186873164Y-64659832D01*
X186852948Y-64726713D01*
X186799783Y-64772048D01*
X186793968Y-64774472D01*
X186786771Y-64777260D01*
X186764982Y-64785701D01*
X186764980Y-64785702D01*
X186583699Y-64897947D01*
X186426127Y-65041593D01*
X186297632Y-65211746D01*
X186202596Y-65402605D01*
X186202596Y-65402607D01*
X186144244Y-65607689D01*
X186133471Y-65723951D01*
X186107685Y-65788888D01*
X186063130Y-65820804D01*
X186099503Y-65841668D01*
X186131693Y-65903681D01*
X186133470Y-65916047D01*
X186144244Y-66032310D01*
X186196904Y-66217389D01*
X186202596Y-66237392D01*
X186202596Y-66237394D01*
X186297632Y-66428253D01*
X186426127Y-66598406D01*
X186426128Y-66598407D01*
X186583698Y-66742052D01*
X186764981Y-66854298D01*
X186963802Y-66931321D01*
X187173390Y-66970500D01*
X187173392Y-66970500D01*
X187386608Y-66970500D01*
X187386610Y-66970500D01*
X187596198Y-66931321D01*
X187795019Y-66854298D01*
X187976302Y-66742052D01*
X188133872Y-66598407D01*
X188262366Y-66428255D01*
X188309805Y-66332984D01*
X188357403Y-66237394D01*
X188357403Y-66237393D01*
X188357405Y-66237389D01*
X188415756Y-66032310D01*
X188435429Y-65820000D01*
X188415756Y-65607690D01*
X188357405Y-65402611D01*
X188357403Y-65402606D01*
X188357403Y-65402605D01*
X188262367Y-65211746D01*
X188133872Y-65041593D01*
X188111933Y-65021593D01*
X187976302Y-64897948D01*
X187795019Y-64785702D01*
X187795014Y-64785700D01*
X187788129Y-64783032D01*
X187766037Y-64774474D01*
X187710636Y-64731903D01*
X187687045Y-64666136D01*
X187702756Y-64598056D01*
X187752779Y-64549276D01*
X187758427Y-64546466D01*
X187957574Y-64453602D01*
X187957582Y-64453598D01*
X188041373Y-64394926D01*
X188041373Y-64394925D01*
X187409409Y-63762962D01*
X187472993Y-63745925D01*
X187587007Y-63680099D01*
X187680099Y-63587007D01*
X187745925Y-63472993D01*
X187762962Y-63409409D01*
X188394925Y-64041373D01*
X188394926Y-64041373D01*
X188453598Y-63957582D01*
X188453600Y-63957578D01*
X188553429Y-63743492D01*
X188553433Y-63743483D01*
X188614567Y-63515326D01*
X188614569Y-63515315D01*
X188635157Y-63280001D01*
X188635157Y-63279998D01*
X188614569Y-63044684D01*
X188614567Y-63044673D01*
X188553433Y-62816516D01*
X188553429Y-62816507D01*
X188453600Y-62602423D01*
X188453599Y-62602421D01*
X188394925Y-62518626D01*
X188394925Y-62518625D01*
X187762962Y-63150589D01*
X187745925Y-63087007D01*
X187680099Y-62972993D01*
X187587007Y-62879901D01*
X187472993Y-62814075D01*
X187409410Y-62797037D01*
X188041373Y-62165073D01*
X188041373Y-62165072D01*
X187957583Y-62106402D01*
X187957579Y-62106400D01*
X187743492Y-62006570D01*
X187743483Y-62006566D01*
X187515326Y-61945432D01*
X187515315Y-61945430D01*
X187280002Y-61924843D01*
X187279998Y-61924843D01*
X187044684Y-61945430D01*
X187044673Y-61945432D01*
X186816516Y-62006566D01*
X186816507Y-62006570D01*
X186602419Y-62106401D01*
X186518625Y-62165072D01*
X187150590Y-62797037D01*
X187087007Y-62814075D01*
X186972993Y-62879901D01*
X186879901Y-62972993D01*
X186814075Y-63087007D01*
X186797037Y-63150589D01*
X186165073Y-62518625D01*
X186165072Y-62518625D01*
X186106402Y-62602417D01*
X186012705Y-62803349D01*
X185966532Y-62855788D01*
X185899338Y-62874939D01*
X185832457Y-62854723D01*
X185789324Y-62806216D01*
X185722366Y-62671745D01*
X185670014Y-62602421D01*
X185593872Y-62501593D01*
X185586406Y-62494787D01*
X185436302Y-62357948D01*
X185255019Y-62245702D01*
X185255017Y-62245701D01*
X185155608Y-62207190D01*
X185056198Y-62168679D01*
X184846610Y-62129500D01*
X184633390Y-62129500D01*
X184423802Y-62168679D01*
X184423799Y-62168679D01*
X184423799Y-62168680D01*
X184224982Y-62245701D01*
X184224980Y-62245702D01*
X184043699Y-62357947D01*
X183886127Y-62501593D01*
X183757632Y-62671746D01*
X183662596Y-62862605D01*
X183662596Y-62862607D01*
X183604244Y-63067689D01*
X183593471Y-63183951D01*
X183567685Y-63248888D01*
X183523130Y-63280804D01*
X183559503Y-63301668D01*
X183591693Y-63363681D01*
X183593470Y-63376047D01*
X183604244Y-63492310D01*
X183657675Y-63680099D01*
X183662596Y-63697392D01*
X183662596Y-63697394D01*
X183757632Y-63888253D01*
X183886127Y-64058406D01*
X183886128Y-64058407D01*
X184043698Y-64202052D01*
X184224981Y-64314298D01*
X184423802Y-64391321D01*
X184620613Y-64428111D01*
X184682893Y-64459779D01*
X184718166Y-64520092D01*
X184715232Y-64589900D01*
X184675023Y-64647040D01*
X184620613Y-64671888D01*
X184423802Y-64708679D01*
X184423799Y-64708679D01*
X184423799Y-64708680D01*
X184224982Y-64785701D01*
X184224980Y-64785702D01*
X184043699Y-64897947D01*
X183886127Y-65041593D01*
X183757632Y-65211746D01*
X183662596Y-65402605D01*
X183662596Y-65402607D01*
X183604244Y-65607689D01*
X183593471Y-65723951D01*
X183567685Y-65788888D01*
X183523130Y-65820804D01*
X183414622Y-65820804D01*
X183416869Y-65819194D01*
X183380497Y-65798331D01*
X183348307Y-65736318D01*
X183346529Y-65723951D01*
X183342029Y-65675387D01*
X183335756Y-65607690D01*
X183277405Y-65402611D01*
X183277403Y-65402606D01*
X183277403Y-65402605D01*
X183182367Y-65211746D01*
X183053872Y-65041593D01*
X183031933Y-65021593D01*
X182896302Y-64897948D01*
X182715019Y-64785702D01*
X182715017Y-64785701D01*
X182585790Y-64735639D01*
X182516198Y-64708679D01*
X182319385Y-64671888D01*
X182257106Y-64640221D01*
X182221833Y-64579908D01*
X182224767Y-64510100D01*
X182264976Y-64452960D01*
X182319384Y-64428111D01*
X182516198Y-64391321D01*
X182715019Y-64314298D01*
X182896302Y-64202052D01*
X183053872Y-64058407D01*
X183182366Y-63888255D01*
X183192720Y-63867461D01*
X183277403Y-63697394D01*
X183277403Y-63697393D01*
X183277405Y-63697389D01*
X183335756Y-63492310D01*
X183346529Y-63376047D01*
X183372315Y-63311111D01*
X183416869Y-63279194D01*
X183380497Y-63258331D01*
X183348307Y-63196318D01*
X183346529Y-63183951D01*
X183345849Y-63176613D01*
X183335756Y-63067690D01*
X183277405Y-62862611D01*
X183277403Y-62862606D01*
X183277403Y-62862605D01*
X183182367Y-62671746D01*
X183053872Y-62501593D01*
X183046406Y-62494787D01*
X182896302Y-62357948D01*
X182715019Y-62245702D01*
X182715017Y-62245701D01*
X182615608Y-62207190D01*
X182516198Y-62168679D01*
X182306610Y-62129500D01*
X182093390Y-62129500D01*
X181883802Y-62168679D01*
X181883799Y-62168679D01*
X181883799Y-62168680D01*
X181684982Y-62245701D01*
X181684980Y-62245702D01*
X181503699Y-62357947D01*
X181346127Y-62501593D01*
X181217632Y-62671746D01*
X181122596Y-62862605D01*
X181122596Y-62862607D01*
X181064244Y-63067689D01*
X181053471Y-63183951D01*
X181027685Y-63248888D01*
X180983130Y-63280804D01*
X181019503Y-63301668D01*
X181051693Y-63363681D01*
X181053470Y-63376047D01*
X181064244Y-63492310D01*
X181117675Y-63680099D01*
X181122596Y-63697392D01*
X181122596Y-63697394D01*
X181217632Y-63888253D01*
X181346127Y-64058406D01*
X181346128Y-64058407D01*
X181503698Y-64202052D01*
X181684981Y-64314298D01*
X181883802Y-64391321D01*
X182080613Y-64428111D01*
X182142893Y-64459779D01*
X182178166Y-64520092D01*
X182175232Y-64589900D01*
X182135023Y-64647040D01*
X182080613Y-64671888D01*
X181883802Y-64708679D01*
X181883799Y-64708679D01*
X181883799Y-64708680D01*
X181684982Y-64785701D01*
X181684980Y-64785702D01*
X181503699Y-64897947D01*
X181346127Y-65041593D01*
X181217632Y-65211746D01*
X181122596Y-65402605D01*
X181122596Y-65402607D01*
X181064244Y-65607689D01*
X181053471Y-65723951D01*
X181027685Y-65788888D01*
X180983130Y-65820804D01*
X180874622Y-65820804D01*
X180876869Y-65819194D01*
X180840497Y-65798331D01*
X180808307Y-65736318D01*
X180806529Y-65723951D01*
X180802029Y-65675387D01*
X180795756Y-65607690D01*
X180737405Y-65402611D01*
X180737403Y-65402606D01*
X180737403Y-65402605D01*
X180642367Y-65211746D01*
X180513872Y-65041593D01*
X180491933Y-65021593D01*
X180356302Y-64897948D01*
X180175019Y-64785702D01*
X180175017Y-64785701D01*
X180045790Y-64735639D01*
X179976198Y-64708679D01*
X179779385Y-64671888D01*
X179717106Y-64640221D01*
X179681833Y-64579908D01*
X179684767Y-64510100D01*
X179724976Y-64452960D01*
X179779384Y-64428111D01*
X179976198Y-64391321D01*
X180175019Y-64314298D01*
X180356302Y-64202052D01*
X180513872Y-64058407D01*
X180642366Y-63888255D01*
X180652720Y-63867461D01*
X180737403Y-63697394D01*
X180737403Y-63697393D01*
X180737405Y-63697389D01*
X180795756Y-63492310D01*
X180806529Y-63376047D01*
X180832315Y-63311111D01*
X180876869Y-63279194D01*
X180840497Y-63258331D01*
X180808307Y-63196318D01*
X180806529Y-63183951D01*
X180805849Y-63176613D01*
X180795756Y-63067690D01*
X180737405Y-62862611D01*
X180737403Y-62862606D01*
X180737403Y-62862605D01*
X180642367Y-62671746D01*
X180513872Y-62501593D01*
X180506406Y-62494787D01*
X180356302Y-62357948D01*
X180175019Y-62245702D01*
X180175017Y-62245701D01*
X180075608Y-62207190D01*
X179976198Y-62168679D01*
X179766610Y-62129500D01*
X179553390Y-62129500D01*
X179343802Y-62168679D01*
X179343799Y-62168679D01*
X179343799Y-62168680D01*
X179144982Y-62245701D01*
X179144980Y-62245702D01*
X178963699Y-62357947D01*
X178806127Y-62501593D01*
X178677632Y-62671746D01*
X178582596Y-62862605D01*
X178582596Y-62862607D01*
X178524244Y-63067689D01*
X178513471Y-63183951D01*
X178487685Y-63248888D01*
X178443130Y-63280804D01*
X178479503Y-63301668D01*
X178511693Y-63363681D01*
X178513470Y-63376047D01*
X178524244Y-63492310D01*
X178577675Y-63680099D01*
X178582596Y-63697392D01*
X178582596Y-63697394D01*
X178677632Y-63888253D01*
X178806127Y-64058406D01*
X178806128Y-64058407D01*
X178963698Y-64202052D01*
X179144981Y-64314298D01*
X179343802Y-64391321D01*
X179540613Y-64428111D01*
X179602893Y-64459779D01*
X179638166Y-64520092D01*
X179635232Y-64589900D01*
X179595023Y-64647040D01*
X179540613Y-64671888D01*
X179343802Y-64708679D01*
X179343799Y-64708679D01*
X179343799Y-64708680D01*
X179144982Y-64785701D01*
X179144980Y-64785702D01*
X178963699Y-64897947D01*
X178806127Y-65041593D01*
X178677632Y-65211746D01*
X178582596Y-65402605D01*
X178582596Y-65402607D01*
X178524244Y-65607689D01*
X178517971Y-65675387D01*
X178492185Y-65740324D01*
X178435384Y-65781012D01*
X178365604Y-65784532D01*
X178304997Y-65749767D01*
X178272807Y-65687754D01*
X178270500Y-65663946D01*
X178270500Y-65176903D01*
X178270500Y-65176898D01*
X178259877Y-65088436D01*
X178204361Y-64947658D01*
X178204360Y-64947657D01*
X178204360Y-64947656D01*
X178112922Y-64827077D01*
X177992343Y-64735639D01*
X177851561Y-64680122D01*
X177805926Y-64674642D01*
X177763102Y-64669500D01*
X177286245Y-64669500D01*
X177219206Y-64649815D01*
X177173451Y-64597011D01*
X177163507Y-64527853D01*
X177192532Y-64464297D01*
X177251310Y-64426523D01*
X177263450Y-64423613D01*
X177436198Y-64391321D01*
X177635019Y-64314298D01*
X177816302Y-64202052D01*
X177973872Y-64058407D01*
X178102366Y-63888255D01*
X178112720Y-63867461D01*
X178197403Y-63697394D01*
X178197403Y-63697393D01*
X178197405Y-63697389D01*
X178255756Y-63492310D01*
X178266529Y-63376047D01*
X178292315Y-63311111D01*
X178336869Y-63279194D01*
X178300497Y-63258331D01*
X178268307Y-63196318D01*
X178266529Y-63183951D01*
X178265849Y-63176613D01*
X178255756Y-63067690D01*
X178197405Y-62862611D01*
X178197403Y-62862606D01*
X178197403Y-62862605D01*
X178102367Y-62671746D01*
X177973872Y-62501593D01*
X177966406Y-62494787D01*
X177816302Y-62357948D01*
X177635019Y-62245702D01*
X177635017Y-62245701D01*
X177535608Y-62207190D01*
X177436198Y-62168679D01*
X177226610Y-62129500D01*
X177013390Y-62129500D01*
X176803802Y-62168679D01*
X176803799Y-62168679D01*
X176803799Y-62168680D01*
X176604982Y-62245701D01*
X176604980Y-62245702D01*
X176423699Y-62357947D01*
X176266127Y-62501593D01*
X176137632Y-62671746D01*
X176042596Y-62862605D01*
X176042596Y-62862607D01*
X175984244Y-63067689D01*
X175970671Y-63214174D01*
X175964571Y-63280000D01*
X170120500Y-63280000D01*
X170120499Y-62365136D01*
X170120497Y-62365117D01*
X170117586Y-62340012D01*
X170117585Y-62340010D01*
X170117585Y-62340009D01*
X170072206Y-62237235D01*
X169992765Y-62157794D01*
X169992763Y-62157793D01*
X169889992Y-62112415D01*
X169864865Y-62109500D01*
X168075143Y-62109500D01*
X168075117Y-62109502D01*
X168050012Y-62112413D01*
X168050008Y-62112415D01*
X167947235Y-62157793D01*
X167867794Y-62237234D01*
X167822415Y-62340006D01*
X167822415Y-62340008D01*
X167819500Y-62365131D01*
X167819500Y-62585500D01*
X167799815Y-62652539D01*
X167747011Y-62698294D01*
X167695500Y-62709500D01*
X164572475Y-62709500D01*
X154077525Y-62709500D01*
X153972517Y-62737637D01*
X153937514Y-62747016D01*
X153811986Y-62819489D01*
X153811983Y-62819491D01*
X151398294Y-65233181D01*
X151336971Y-65266666D01*
X151310613Y-65269500D01*
X141897525Y-65269500D01*
X141792517Y-65297637D01*
X141757514Y-65307016D01*
X141631986Y-65379489D01*
X141631983Y-65379491D01*
X137159491Y-69851983D01*
X137159489Y-69851986D01*
X137128989Y-69904815D01*
X137091522Y-69969711D01*
X137087016Y-69977515D01*
X137049500Y-70117525D01*
X137049500Y-70117527D01*
X137049500Y-70695793D01*
X137048439Y-70711978D01*
X137044750Y-70739998D01*
X137044750Y-70740000D01*
X137048439Y-70768020D01*
X137049500Y-70784206D01*
X137049500Y-75725399D01*
X137029815Y-75792438D01*
X137028602Y-75794290D01*
X136979228Y-75868182D01*
X136979221Y-75868195D01*
X136926421Y-75995667D01*
X136926418Y-75995677D01*
X136899500Y-76131004D01*
X136899500Y-76220500D01*
X136879815Y-76287539D01*
X136827011Y-76333294D01*
X136775500Y-76344500D01*
X136251360Y-76344500D01*
X136197311Y-76347397D01*
X136197310Y-76347397D01*
X136170977Y-76350229D01*
X136170950Y-76350232D01*
X136117554Y-76358885D01*
X136117552Y-76358885D01*
X135982747Y-76409166D01*
X135921422Y-76442651D01*
X135806240Y-76528876D01*
X135806228Y-76528886D01*
X135578892Y-76756223D01*
X135578855Y-76756262D01*
X135542728Y-76796480D01*
X135542718Y-76796492D01*
X135526076Y-76817143D01*
X135494433Y-76861025D01*
X135434663Y-76991899D01*
X135414976Y-77058944D01*
X135413738Y-77067554D01*
X135394501Y-77201359D01*
X135394500Y-77201363D01*
X135394500Y-78448640D01*
X135397397Y-78502688D01*
X135397397Y-78502689D01*
X135400229Y-78529022D01*
X135400232Y-78529049D01*
X135408885Y-78582445D01*
X135408885Y-78582447D01*
X135451329Y-78696240D01*
X135459168Y-78717257D01*
X135474691Y-78745685D01*
X135486706Y-78767690D01*
X135492653Y-78778580D01*
X135578877Y-78893761D01*
X135578881Y-78893765D01*
X135578886Y-78893771D01*
X135726274Y-79041158D01*
X135856239Y-79171123D01*
X135856255Y-79171137D01*
X135856262Y-79171144D01*
X135896480Y-79207271D01*
X135896492Y-79207281D01*
X135896500Y-79207288D01*
X135917142Y-79223922D01*
X135961026Y-79255567D01*
X136091903Y-79315338D01*
X136158942Y-79335023D01*
X136158946Y-79335024D01*
X136301362Y-79355500D01*
X136827483Y-79355500D01*
X136894522Y-79375185D01*
X136940277Y-79427989D01*
X136942044Y-79432048D01*
X136979221Y-79521804D01*
X136979228Y-79521817D01*
X137055884Y-79636540D01*
X137055885Y-79636541D01*
X137055886Y-79636542D01*
X137113182Y-79693838D01*
X137146666Y-79755159D01*
X137149500Y-79781518D01*
X137149500Y-95099308D01*
X137166834Y-95164003D01*
X137166835Y-95164003D01*
X137166835Y-95164004D01*
X137180201Y-95213887D01*
X137239511Y-95316614D01*
X138683386Y-96760489D01*
X138683387Y-96760490D01*
X138683389Y-96760491D01*
X138742693Y-96794729D01*
X138742696Y-96794732D01*
X138786108Y-96819796D01*
X138786110Y-96819797D01*
X138786114Y-96819799D01*
X138786117Y-96819799D01*
X138788870Y-96820940D01*
X138790840Y-96822528D01*
X138793151Y-96823862D01*
X138792942Y-96824222D01*
X138843272Y-96864783D01*
X138865335Y-96931078D01*
X138848054Y-96998777D01*
X138796915Y-97046386D01*
X138741414Y-97059500D01*
X136790691Y-97059500D01*
X136700325Y-97083713D01*
X136700324Y-97083712D01*
X136676116Y-97090199D01*
X136676113Y-97090200D01*
X136573386Y-97149511D01*
X136573383Y-97149513D01*
X133834513Y-99888383D01*
X133834509Y-99888389D01*
X133775201Y-99991112D01*
X133775200Y-99991117D01*
X133744500Y-100105691D01*
X133744500Y-100540715D01*
X133724815Y-100607754D01*
X133718877Y-100616200D01*
X133714138Y-100622375D01*
X133658671Y-100756287D01*
X133658670Y-100756291D01*
X133652667Y-100801891D01*
X133639750Y-100900000D01*
X113519188Y-100900000D01*
X113421082Y-100801894D01*
X113227578Y-100666399D01*
X113028426Y-100573533D01*
X112975987Y-100527360D01*
X112956835Y-100460167D01*
X112977051Y-100393286D01*
X113030216Y-100347951D01*
X113036005Y-100345537D01*
X113065019Y-100334298D01*
X113246302Y-100222052D01*
X113403872Y-100078407D01*
X113532366Y-99908255D01*
X113542258Y-99888389D01*
X113627403Y-99717394D01*
X113627403Y-99717393D01*
X113627405Y-99717389D01*
X113685756Y-99512310D01*
X113705429Y-99300000D01*
X113685756Y-99087690D01*
X113627405Y-98882611D01*
X113627403Y-98882606D01*
X113627403Y-98882605D01*
X113532367Y-98691746D01*
X113403872Y-98521593D01*
X113246302Y-98377948D01*
X113065019Y-98265702D01*
X113065017Y-98265701D01*
X112965608Y-98227190D01*
X112866198Y-98188679D01*
X112669385Y-98151888D01*
X112607106Y-98120221D01*
X112571833Y-98059908D01*
X112574767Y-97990100D01*
X112614976Y-97932960D01*
X112669384Y-97908111D01*
X112866198Y-97871321D01*
X113065019Y-97794298D01*
X113246302Y-97682052D01*
X113403872Y-97538407D01*
X113532366Y-97368255D01*
X113555211Y-97322375D01*
X113627403Y-97177394D01*
X113627403Y-97177393D01*
X113627405Y-97177389D01*
X113685756Y-96972310D01*
X113705429Y-96760000D01*
X113685756Y-96547690D01*
X113627405Y-96342611D01*
X113627403Y-96342606D01*
X113627403Y-96342605D01*
X113532367Y-96151746D01*
X113403872Y-95981593D01*
X113365559Y-95946666D01*
X113246302Y-95837948D01*
X113065019Y-95725702D01*
X113065017Y-95725701D01*
X112965608Y-95687190D01*
X112866198Y-95648679D01*
X112669385Y-95611888D01*
X112607106Y-95580221D01*
X112571833Y-95519908D01*
X112574767Y-95450100D01*
X112614976Y-95392960D01*
X112669384Y-95368111D01*
X112866198Y-95331321D01*
X113065019Y-95254298D01*
X113246302Y-95142052D01*
X113403872Y-94998407D01*
X113532366Y-94828255D01*
X113571332Y-94750000D01*
X124144722Y-94750000D01*
X124163762Y-94906818D01*
X124198498Y-94998407D01*
X124219780Y-95054523D01*
X124309517Y-95184530D01*
X124427760Y-95289283D01*
X124427762Y-95289284D01*
X124567634Y-95362696D01*
X124721014Y-95400500D01*
X124721015Y-95400500D01*
X124878985Y-95400500D01*
X125032365Y-95362696D01*
X125123805Y-95314703D01*
X125181431Y-95300500D01*
X127618569Y-95300500D01*
X127676194Y-95314703D01*
X127767635Y-95362696D01*
X127799298Y-95370500D01*
X127921014Y-95400500D01*
X127921015Y-95400500D01*
X128078985Y-95400500D01*
X128232365Y-95362696D01*
X128292148Y-95331319D01*
X128372240Y-95289283D01*
X128490483Y-95184530D01*
X128580220Y-95054523D01*
X128636237Y-94906818D01*
X128655278Y-94750000D01*
X128643076Y-94649502D01*
X128636237Y-94593181D01*
X128614992Y-94537164D01*
X128580220Y-94445477D01*
X128490483Y-94315470D01*
X128372240Y-94210717D01*
X128372238Y-94210716D01*
X128372237Y-94210715D01*
X128232365Y-94137303D01*
X128078986Y-94099500D01*
X128078985Y-94099500D01*
X127921015Y-94099500D01*
X127921014Y-94099500D01*
X127767636Y-94137303D01*
X127731887Y-94156066D01*
X127676194Y-94185296D01*
X127618569Y-94199500D01*
X125181431Y-94199500D01*
X125123805Y-94185296D01*
X125032365Y-94137304D01*
X125032364Y-94137303D01*
X125032363Y-94137303D01*
X124878986Y-94099500D01*
X124878985Y-94099500D01*
X124721015Y-94099500D01*
X124721014Y-94099500D01*
X124567634Y-94137303D01*
X124427762Y-94210715D01*
X124309516Y-94315471D01*
X124219781Y-94445475D01*
X124219780Y-94445476D01*
X124163762Y-94593181D01*
X124144722Y-94749999D01*
X124144722Y-94750000D01*
X113571332Y-94750000D01*
X113627403Y-94637394D01*
X113627403Y-94637393D01*
X113627405Y-94637389D01*
X113685756Y-94432310D01*
X113705429Y-94220000D01*
X113705429Y-94219999D01*
X113705429Y-94214266D01*
X113707883Y-94214266D01*
X113719239Y-94156066D01*
X113741640Y-94125461D01*
X115570490Y-92296614D01*
X115629799Y-92193887D01*
X115644251Y-92139949D01*
X115660500Y-92079309D01*
X115660500Y-80589284D01*
X115680185Y-80522245D01*
X115686116Y-80513808D01*
X115690861Y-80507625D01*
X115746330Y-80373709D01*
X115765250Y-80230000D01*
X115746330Y-80086291D01*
X115690861Y-79952375D01*
X115690860Y-79952374D01*
X115690860Y-79952373D01*
X115657555Y-79908970D01*
X115632360Y-79843801D01*
X115646398Y-79775356D01*
X115657547Y-79758007D01*
X115680861Y-79727625D01*
X115736330Y-79593709D01*
X115755250Y-79450000D01*
X115736330Y-79306291D01*
X115695315Y-79207271D01*
X115680862Y-79172377D01*
X115680861Y-79172376D01*
X115680861Y-79172375D01*
X115592621Y-79057379D01*
X115477625Y-78969139D01*
X115477624Y-78969138D01*
X115477622Y-78969137D01*
X115343712Y-78913671D01*
X115343710Y-78913670D01*
X115343709Y-78913670D01*
X115246994Y-78900937D01*
X115200001Y-78894750D01*
X115199999Y-78894750D01*
X115056291Y-78913670D01*
X115056287Y-78913671D01*
X114922376Y-78969138D01*
X114922375Y-78969138D01*
X114903509Y-78983615D01*
X114860119Y-79005012D01*
X114801296Y-79020773D01*
X114766113Y-79030201D01*
X114663386Y-79089509D01*
X114663384Y-79089511D01*
X114662181Y-79090715D01*
X114660915Y-79091405D01*
X114656941Y-79094456D01*
X114656465Y-79093836D01*
X114600858Y-79124200D01*
X114531166Y-79119216D01*
X114475233Y-79077344D01*
X114450816Y-79011880D01*
X114450500Y-79003034D01*
X114450500Y-75290693D01*
X114450500Y-75290691D01*
X114419799Y-75176114D01*
X114419799Y-75176113D01*
X114419799Y-75176112D01*
X114360492Y-75073389D01*
X114360488Y-75073384D01*
X113673856Y-74386753D01*
X113640371Y-74325430D01*
X113642270Y-74265141D01*
X113685756Y-74112310D01*
X113705429Y-73900000D01*
X113685756Y-73687690D01*
X113627405Y-73482611D01*
X113627403Y-73482606D01*
X113627403Y-73482605D01*
X113532367Y-73291746D01*
X113403872Y-73121593D01*
X113246302Y-72977948D01*
X113065019Y-72865702D01*
X113065017Y-72865701D01*
X112965608Y-72827190D01*
X112866198Y-72788679D01*
X112669385Y-72751888D01*
X112607106Y-72720221D01*
X112571833Y-72659908D01*
X112574767Y-72590100D01*
X112614976Y-72532960D01*
X112669384Y-72508111D01*
X112866198Y-72471321D01*
X113065019Y-72394298D01*
X113246302Y-72282052D01*
X113403872Y-72138407D01*
X113532366Y-71968255D01*
X113592545Y-71847399D01*
X113627403Y-71777394D01*
X113627403Y-71777393D01*
X113627405Y-71777389D01*
X113685756Y-71572310D01*
X113705429Y-71360000D01*
X113685756Y-71147690D01*
X113627405Y-70942611D01*
X113627403Y-70942606D01*
X113627403Y-70942605D01*
X113532367Y-70751746D01*
X113403872Y-70581593D01*
X113378920Y-70558846D01*
X113246302Y-70437948D01*
X113065019Y-70325702D01*
X113065017Y-70325701D01*
X112965608Y-70287190D01*
X112866198Y-70248679D01*
X112656610Y-70209500D01*
X112443390Y-70209500D01*
X112233802Y-70248679D01*
X112233799Y-70248679D01*
X112233799Y-70248680D01*
X112034982Y-70325701D01*
X112034980Y-70325702D01*
X111853699Y-70437947D01*
X111696127Y-70581593D01*
X111567632Y-70751746D01*
X111472596Y-70942605D01*
X111472596Y-70942607D01*
X111414244Y-71147689D01*
X111394571Y-71359999D01*
X111394571Y-71360000D01*
X111414244Y-71572310D01*
X111472596Y-71777392D01*
X111472596Y-71777394D01*
X111567632Y-71968253D01*
X111696127Y-72138406D01*
X111696128Y-72138407D01*
X111853698Y-72282052D01*
X112034981Y-72394298D01*
X112233802Y-72471321D01*
X112430613Y-72508111D01*
X112492893Y-72539779D01*
X112528166Y-72600092D01*
X112525232Y-72669900D01*
X112485023Y-72727040D01*
X112430613Y-72751888D01*
X112233802Y-72788679D01*
X112233799Y-72788679D01*
X112233799Y-72788680D01*
X112034982Y-72865701D01*
X112034980Y-72865702D01*
X111853699Y-72977947D01*
X111696127Y-73121593D01*
X111567632Y-73291746D01*
X111472596Y-73482605D01*
X111472596Y-73482607D01*
X111414244Y-73687689D01*
X111401764Y-73822378D01*
X111394571Y-73900000D01*
X111414244Y-74112310D01*
X111457727Y-74265136D01*
X111472596Y-74317392D01*
X111472596Y-74317394D01*
X111567632Y-74508253D01*
X111567634Y-74508255D01*
X111696128Y-74678407D01*
X111853698Y-74822052D01*
X112034981Y-74934298D01*
X112233802Y-75011321D01*
X112430613Y-75048111D01*
X112492893Y-75079779D01*
X112528166Y-75140092D01*
X112525232Y-75209900D01*
X112485023Y-75267040D01*
X112430613Y-75291888D01*
X112233802Y-75328679D01*
X112233799Y-75328679D01*
X112233799Y-75328680D01*
X112034982Y-75405701D01*
X112034980Y-75405702D01*
X111853699Y-75517947D01*
X111696127Y-75661593D01*
X111567632Y-75831746D01*
X111472596Y-76022605D01*
X111472596Y-76022607D01*
X111414244Y-76227689D01*
X111404459Y-76333294D01*
X111394571Y-76440000D01*
X111402807Y-76528886D01*
X111414244Y-76652310D01*
X111472596Y-76857392D01*
X111472596Y-76857394D01*
X111567632Y-77048253D01*
X111694139Y-77215773D01*
X111696128Y-77218407D01*
X111853698Y-77362052D01*
X112034981Y-77474298D01*
X112233802Y-77551321D01*
X112430613Y-77588111D01*
X112492893Y-77619779D01*
X112528166Y-77680092D01*
X112525232Y-77749900D01*
X112485023Y-77807040D01*
X112430613Y-77831888D01*
X112233802Y-77868679D01*
X112233799Y-77868679D01*
X112233799Y-77868680D01*
X112034982Y-77945701D01*
X112034980Y-77945702D01*
X111853699Y-78057947D01*
X111696127Y-78201593D01*
X111567632Y-78371746D01*
X111472596Y-78562605D01*
X111472596Y-78562607D01*
X111414244Y-78767689D01*
X111395578Y-78969137D01*
X111394571Y-78980000D01*
X111414244Y-79192310D01*
X111472542Y-79397204D01*
X111472596Y-79397392D01*
X111472596Y-79397394D01*
X111567632Y-79588253D01*
X111693675Y-79755159D01*
X111696128Y-79758407D01*
X111853698Y-79902052D01*
X112034981Y-80014298D01*
X112233802Y-80091321D01*
X112430613Y-80128111D01*
X112492893Y-80159779D01*
X112528166Y-80220092D01*
X112525232Y-80289900D01*
X112485023Y-80347040D01*
X112430613Y-80371888D01*
X112233802Y-80408679D01*
X112233799Y-80408679D01*
X112233799Y-80408680D01*
X112034982Y-80485701D01*
X112034980Y-80485702D01*
X111853699Y-80597947D01*
X111696127Y-80741593D01*
X111567632Y-80911746D01*
X111472596Y-81102605D01*
X111472596Y-81102607D01*
X111414244Y-81307689D01*
X111394571Y-81519999D01*
X111394571Y-81520000D01*
X111414244Y-81732312D01*
X111457727Y-81885138D01*
X111457141Y-81955005D01*
X111426142Y-82006753D01*
X110819513Y-82613383D01*
X110819511Y-82613386D01*
X110760200Y-82716113D01*
X110760199Y-82716116D01*
X110753712Y-82740324D01*
X110753713Y-82740325D01*
X110735372Y-82808776D01*
X110729500Y-82830691D01*
X110729500Y-87819309D01*
X110090500Y-87819309D01*
X110090500Y-64423896D01*
X110110185Y-64356857D01*
X110162989Y-64311102D01*
X110232147Y-64301158D01*
X110295703Y-64330183D01*
X110329694Y-64378002D01*
X110333540Y-64387657D01*
X110333550Y-64387677D01*
X110501162Y-64703827D01*
X110701968Y-64999994D01*
X110701979Y-65000008D01*
X110829385Y-65150002D01*
X110829386Y-65150002D01*
X112038691Y-63940697D01*
X112112532Y-64042330D01*
X112290614Y-64220412D01*
X112392244Y-64294251D01*
X111180201Y-65506294D01*
X111193439Y-65518836D01*
X111478311Y-65735388D01*
X111478314Y-65735390D01*
X111784934Y-65919876D01*
X112109683Y-66070122D01*
X112109688Y-66070123D01*
X112448799Y-66184383D01*
X112798283Y-66261311D01*
X113154019Y-66299999D01*
X113154029Y-66300000D01*
X113511859Y-66300000D01*
X113511868Y-66299999D01*
X113867604Y-66261311D01*
X114217088Y-66184383D01*
X114556199Y-66070123D01*
X114556204Y-66070122D01*
X114880953Y-65919876D01*
X115187573Y-65735390D01*
X115187576Y-65735388D01*
X115472453Y-65518831D01*
X115485686Y-65506295D01*
X115485686Y-65506294D01*
X114273643Y-64294251D01*
X114375274Y-64220412D01*
X114553356Y-64042330D01*
X114627195Y-63940698D01*
X115836500Y-65150002D01*
X115963916Y-64999998D01*
X115963919Y-64999994D01*
X116164725Y-64703827D01*
X116332337Y-64387677D01*
X116332346Y-64387659D01*
X116464794Y-64055239D01*
X116464796Y-64055232D01*
X116560522Y-63710457D01*
X116560528Y-63710431D01*
X116618416Y-63357331D01*
X116618417Y-63357314D01*
X116637791Y-63000002D01*
X116637791Y-62999997D01*
X116618417Y-62642685D01*
X116618416Y-62642668D01*
X116560528Y-62289568D01*
X116560522Y-62289542D01*
X116496792Y-62060005D01*
X142544859Y-62060005D01*
X142565385Y-62307729D01*
X142565387Y-62307738D01*
X142626412Y-62548717D01*
X142726266Y-62776364D01*
X142826564Y-62929882D01*
X143567037Y-62189409D01*
X143584075Y-62252993D01*
X143649901Y-62367007D01*
X143742993Y-62460099D01*
X143857007Y-62525925D01*
X143920590Y-62542962D01*
X143179942Y-63283609D01*
X143226768Y-63320055D01*
X143226770Y-63320056D01*
X143445385Y-63438364D01*
X143445396Y-63438369D01*
X143680506Y-63519083D01*
X143925707Y-63560000D01*
X144174293Y-63560000D01*
X144419493Y-63519083D01*
X144654603Y-63438369D01*
X144654614Y-63438364D01*
X144873228Y-63320057D01*
X144873231Y-63320055D01*
X144920056Y-63283609D01*
X144179409Y-62542962D01*
X144242993Y-62525925D01*
X144357007Y-62460099D01*
X144450099Y-62367007D01*
X144515925Y-62252993D01*
X144532962Y-62189410D01*
X145273434Y-62929882D01*
X145373731Y-62776369D01*
X145473587Y-62548717D01*
X145534612Y-62307738D01*
X145534614Y-62307729D01*
X145555141Y-62060005D01*
X145555141Y-62059994D01*
X145534614Y-61812270D01*
X145534612Y-61812261D01*
X145479354Y-61594056D01*
X160109500Y-61594056D01*
X160150423Y-61746783D01*
X160150426Y-61746790D01*
X160229475Y-61883709D01*
X160229479Y-61883714D01*
X160229480Y-61883716D01*
X160341284Y-61995520D01*
X160341286Y-61995521D01*
X160341290Y-61995524D01*
X160452969Y-62060001D01*
X160478216Y-62074577D01*
X160630943Y-62115500D01*
X160630945Y-62115500D01*
X160789055Y-62115500D01*
X160789057Y-62115500D01*
X160941784Y-62074577D01*
X161078716Y-61995520D01*
X161190520Y-61883716D01*
X161269577Y-61746784D01*
X161310500Y-61594057D01*
X161310500Y-61594056D01*
X163109500Y-61594056D01*
X163150423Y-61746783D01*
X163150426Y-61746790D01*
X163229475Y-61883709D01*
X163229479Y-61883714D01*
X163229480Y-61883716D01*
X163341284Y-61995520D01*
X163341286Y-61995521D01*
X163341290Y-61995524D01*
X163452969Y-62060001D01*
X163478216Y-62074577D01*
X163630943Y-62115500D01*
X163630945Y-62115500D01*
X163789055Y-62115500D01*
X163789057Y-62115500D01*
X163941784Y-62074577D01*
X164078716Y-61995520D01*
X164190520Y-61883716D01*
X164269577Y-61746784D01*
X164310500Y-61594057D01*
X164310500Y-61435943D01*
X164269577Y-61283216D01*
X164267363Y-61279381D01*
X164190524Y-61146290D01*
X164190518Y-61146282D01*
X164078717Y-61034481D01*
X164078709Y-61034475D01*
X163941790Y-60955426D01*
X163941786Y-60955424D01*
X163941784Y-60955423D01*
X163789057Y-60914500D01*
X163630943Y-60914500D01*
X163478216Y-60955423D01*
X163478209Y-60955426D01*
X163341290Y-61034475D01*
X163341282Y-61034481D01*
X163229481Y-61146282D01*
X163229475Y-61146290D01*
X163150426Y-61283209D01*
X163150423Y-61283216D01*
X163109500Y-61435943D01*
X163109500Y-61594056D01*
X161310500Y-61594056D01*
X161310500Y-61435943D01*
X161269577Y-61283216D01*
X161267363Y-61279381D01*
X161190524Y-61146290D01*
X161190518Y-61146282D01*
X161078717Y-61034481D01*
X161078709Y-61034475D01*
X160941790Y-60955426D01*
X160941786Y-60955424D01*
X160941784Y-60955423D01*
X160789057Y-60914500D01*
X160630943Y-60914500D01*
X160478216Y-60955423D01*
X160478209Y-60955426D01*
X160341290Y-61034475D01*
X160341282Y-61034481D01*
X160229481Y-61146282D01*
X160229475Y-61146290D01*
X160150426Y-61283209D01*
X160150423Y-61283216D01*
X160109500Y-61435943D01*
X160109500Y-61594056D01*
X145479354Y-61594056D01*
X145473587Y-61571282D01*
X145373731Y-61343630D01*
X145273434Y-61190116D01*
X144532962Y-61930589D01*
X144515925Y-61867007D01*
X144450099Y-61752993D01*
X144357007Y-61659901D01*
X144242993Y-61594075D01*
X144179410Y-61577037D01*
X144920057Y-60836390D01*
X144920056Y-60836389D01*
X144873229Y-60799943D01*
X144654614Y-60681635D01*
X144654603Y-60681630D01*
X144419493Y-60600916D01*
X144174293Y-60560000D01*
X143925707Y-60560000D01*
X143680506Y-60600916D01*
X143445396Y-60681630D01*
X143445390Y-60681632D01*
X143226761Y-60799949D01*
X143179942Y-60836388D01*
X143179942Y-60836390D01*
X143920590Y-61577037D01*
X143857007Y-61594075D01*
X143742993Y-61659901D01*
X143649901Y-61752993D01*
X143584075Y-61867007D01*
X143567037Y-61930589D01*
X142826564Y-61190116D01*
X142726267Y-61343632D01*
X142626412Y-61571282D01*
X142565387Y-61812261D01*
X142565385Y-61812270D01*
X142544859Y-62059994D01*
X142544859Y-62060005D01*
X116496792Y-62060005D01*
X116464796Y-61944767D01*
X116464794Y-61944760D01*
X116332346Y-61612340D01*
X116332337Y-61612322D01*
X116164725Y-61296172D01*
X115963919Y-61000005D01*
X115963908Y-60999991D01*
X115836500Y-60849996D01*
X114627195Y-62059301D01*
X114553356Y-61957670D01*
X114375274Y-61779588D01*
X114273642Y-61705748D01*
X115485686Y-60493704D01*
X115472448Y-60481163D01*
X115187576Y-60264611D01*
X115187573Y-60264609D01*
X115064819Y-60190751D01*
X115017524Y-60139321D01*
X115005541Y-60070487D01*
X115032676Y-60006101D01*
X115090312Y-59966607D01*
X115128747Y-59960500D01*
X203487141Y-59960500D01*
X203554180Y-59980185D01*
G37*
%TD.AperFunction*%
%TD*%
M02*
