M48
; DRILL file {KiCad 8.0.0} date 2024-06-19T21:37:25+0200
; FORMAT={-:-/ absolute / metric / decimal}
; #@! TF.CreationDate,2024-06-19T21:37:25+02:00
; #@! TF.GenerationSoftware,Kicad,Pcbnew,8.0.0
; #@! TF.FileFunction,Plated,1,2,PTH
FMAT,2
METRIC
; #@! TA.AperFunction,Plated,PTH,ViaDrill
T1C0.300
; #@! TA.AperFunction,Plated,PTH,ViaDrill
T2C0.400
; #@! TA.AperFunction,Plated,PTH,ComponentDrill
T3C0.600
; #@! TA.AperFunction,Plated,PTH,ComponentDrill
T4C1.000
; #@! TA.AperFunction,Plated,PTH,ComponentDrill
T5C1.300
; #@! TA.AperFunction,Plated,PTH,ComponentDrill
T6C3.200
%
G90
G05
T1
X111.855Y-108.5
X114.497Y-108.5
X115.197Y-100.69
X115.2Y-79.45
X115.21Y-80.23
X115.48Y-93.51
X115.48Y-97.16
X115.755Y-75.075
X116.82Y-100.69
X117.14Y-108.5
X117.65Y-73.17
X119.19Y-111.5
X119.685Y-101.733
X119.685Y-105.131
X120.18Y-82.88
X120.18Y-85.007
X120.18Y-87.134
X120.18Y-89.261
X120.18Y-91.389
X120.18Y-93.516
X120.42Y-61.7
X121.46Y-113.67
X121.53Y-109.22
X121.844Y-99.492
X123.9Y-111.51
X123.901Y-101.625
X124.8Y-94.75
X124.977Y-61.7
X125.52Y-77.46
X125.89Y-79.78
X127.51Y-77.46
X128.0Y-94.75
X128.98Y-79.77
X129.533Y-61.7
X129.85Y-77.46
X131.8Y-84.59
X132.06Y-77.46
X133.46Y-84.59
X134.09Y-61.7
X134.195Y-100.9
X135.51Y-85.87
X135.51Y-88.55
X135.825Y-104.369
X135.865Y-105.639
X136.5Y-77.35
X136.5Y-78.25
X137.6Y-70.74
X137.6Y-77.35
X137.6Y-78.25
X141.24Y-102.305
X141.24Y-105.2
X141.74Y-81.0
X141.74Y-82.33
X143.43Y-89.01
X143.43Y-91.69
X145.3Y-90.4
X145.3Y-100.9
X146.963Y-104.331
X147.041Y-105.639
X147.72Y-87.95
X151.76Y-88.76
X152.057Y-78.181
X152.53Y-61.1
X152.53Y-67.88
X152.58Y-92.28
X153.02Y-101.955
X153.02Y-104.85
X154.737Y-78.181
X155.26Y-92.28
X155.31Y-61.1
X155.31Y-67.88
X156.4Y-84.45
X156.575Y-101.025
X157.417Y-78.181
X157.94Y-92.28
X158.225Y-104.475
X158.318Y-105.664
X158.85Y-84.45
X160.005Y-66.89
X162.42Y-86.14
X162.5Y-78.54
X162.549Y-91.912
X163.99Y-101.845
X163.99Y-104.74
X164.34Y-81.9
X164.464Y-64.345
X165.2Y-82.64
X165.34Y-70.59
X165.79Y-77.65
X165.97Y-86.0
X166.492Y-93.731
X166.54Y-80.47
X167.31Y-78.84
X167.373Y-86.027
X167.41Y-84.6
X167.7Y-101.1
X167.752Y-92.79
X168.01Y-77.9
X168.12Y-70.59
X168.5Y-92.14
X168.85Y-83.2
X168.928Y-84.632
X169.25Y-88.91
X169.367Y-104.565
X169.393Y-105.689
X169.709Y-79.848
X170.69Y-87.525
X171.18Y-94.6
X171.3Y-81.44
X171.93Y-74.06
X172.13Y-86.14
X172.307Y-80.533
X172.925Y-81.04
X173.22Y-96.49
X173.45Y-91.23
X173.5Y-81.64
X174.01Y-75.85
X174.075Y-82.22
X175.2Y-86.54
X175.26Y-98.38
X175.275Y-83.363
X175.84Y-101.78
X175.89Y-104.86
X176.073Y-85.7
X176.09Y-77.64
X176.606Y-91.237
X176.7Y-72.09
X178.486Y-82.779
X178.69Y-105.23
X178.94Y-101.78
X179.959Y-97.0
X180.49Y-101.78
X180.805Y-89.935
X181.356Y-79.959
X181.661Y-87.579
X182.14Y-74.727
X182.5Y-97.6
X184.05Y-105.1
X184.096Y-102.041
X184.226Y-77.14
X184.75Y-90.09
X185.115Y-74.727
X185.7Y-101.92
X186.165Y-92.618
X186.597Y-96.2
X188.125Y-104.43
X188.265Y-92.608
X188.697Y-96.19
X188.82Y-98.79
X188.95Y-80.38
X190.197Y-105.326
X190.57Y-101.34
X190.955Y-74.6
X191.46Y-97.0
X191.63Y-80.38
X192.405Y-92.634
X193.14Y-101.37
X193.85Y-74.6
X194.0Y-97.6
X194.03Y-62.035
X194.03Y-64.93
X194.31Y-80.38
X195.595Y-91.7
X195.62Y-105.09
X196.463Y-102.825
X196.64Y-87.3
X197.9Y-63.94
X198.98Y-88.09
X199.54Y-96.105
X199.54Y-99.0
X199.54Y-101.895
X199.54Y-110.13
X199.54Y-113.025
X200.0Y-88.56
X200.0Y-89.83
X200.49Y-62.025
X200.49Y-64.92
X203.0Y-74.5
X203.007Y-75.564
X203.01Y-106.6
X204.582Y-80.988
T2
X205.41Y-72.95
X205.41Y-76.71
T4
X112.55Y-71.36
X112.55Y-73.9
X112.55Y-76.44
X112.55Y-78.98
X112.55Y-81.52
X112.55Y-84.06
X112.55Y-86.6
X112.55Y-89.14
X112.55Y-91.68
X112.55Y-94.22
X112.55Y-96.76
X112.55Y-99.3
X112.55Y-101.84
X112.55Y-104.38
X144.05Y-62.06
X144.05Y-69.66
X168.97Y-63.26
X168.97Y-65.8
X177.12Y-63.28
X177.12Y-65.82
X179.66Y-63.28
X179.66Y-65.82
X182.2Y-63.28
X182.2Y-65.82
X184.74Y-63.28
X184.74Y-65.82
X187.28Y-63.28
X187.28Y-65.82
X205.1Y-95.8
X205.1Y-98.34
X205.1Y-100.88
X205.1Y-103.42
T5
X121.5Y-111.5
X126.5Y-111.5
X133.25Y-111.5
X138.25Y-111.5
X144.5Y-111.5
X149.5Y-111.5
X155.75Y-111.5
X160.75Y-111.5
X167.0Y-111.5
X172.0Y-111.5
X178.25Y-111.5
X183.25Y-111.5
X189.5Y-111.5
X194.5Y-111.5
T6
X113.333Y-63.0
X113.333Y-112.483
X205.283Y-63.0
X205.283Y-112.463
T3
G00X201.845Y-70.48
M15
G01X202.945Y-70.48
M16
G05
G00X201.845Y-79.12
M15
G01X202.945Y-79.12
M16
G05
G00X206.275Y-70.48
M15
G01X206.875Y-70.48
M16
G05
G00X206.275Y-79.12
M15
G01X206.875Y-79.12
M16
G05
M30
