%TF.GenerationSoftware,KiCad,Pcbnew,8.0.0*%
%TF.CreationDate,2024-06-19T21:37:33+02:00*%
%TF.ProjectId,PCB,5043422e-6b69-4636-9164-5f7063625858,0.1*%
%TF.SameCoordinates,Original*%
%TF.FileFunction,Legend,Bot*%
%TF.FilePolarity,Positive*%
%FSLAX46Y46*%
G04 Gerber Fmt 4.6, Leading zero omitted, Abs format (unit mm)*
G04 Created by KiCad (PCBNEW 8.0.0) date 2024-06-19 21:37:33*
%MOMM*%
%LPD*%
G01*
G04 APERTURE LIST*
%ADD10C,0.300000*%
%ADD11C,0.120000*%
G04 APERTURE END LIST*
D10*
G36*
X182431637Y-68086905D02*
G01*
X182496857Y-68068792D01*
X182555826Y-68042552D01*
X182591665Y-68020544D01*
X182643874Y-67978961D01*
X182688537Y-67931089D01*
X182706606Y-67906873D01*
X182740293Y-67850545D01*
X182766538Y-67789395D01*
X182776142Y-67759546D01*
X182791149Y-67693076D01*
X182798506Y-67624719D01*
X182799321Y-67592533D01*
X182795850Y-67526473D01*
X182789478Y-67485530D01*
X182773196Y-67422842D01*
X182765664Y-67401706D01*
X182736452Y-67343601D01*
X182709464Y-67311849D01*
X182675807Y-67302641D01*
X182612939Y-67311214D01*
X182566581Y-67322327D01*
X182536418Y-67334393D01*
X182519907Y-67348363D01*
X182514826Y-67364874D01*
X182530702Y-67395991D01*
X182565629Y-67445841D01*
X182593458Y-67502987D01*
X182600556Y-67522044D01*
X182614199Y-67585721D01*
X182616431Y-67630952D01*
X182609305Y-67694867D01*
X182605636Y-67708426D01*
X182577860Y-67767570D01*
X182575472Y-67770977D01*
X182528689Y-67815241D01*
X182526892Y-67816381D01*
X182466539Y-67841144D01*
X182462119Y-67842100D01*
X182398064Y-67836928D01*
X182394488Y-67835115D01*
X182345696Y-67792792D01*
X182344321Y-67790980D01*
X182309384Y-67735214D01*
X182303361Y-67723349D01*
X182274535Y-67666353D01*
X182262719Y-67643335D01*
X182228729Y-67586424D01*
X182213822Y-67565226D01*
X182168992Y-67518022D01*
X182148413Y-67502676D01*
X182089570Y-67474666D01*
X182058556Y-67466797D01*
X181993545Y-67463303D01*
X181934090Y-67471559D01*
X181869853Y-67489993D01*
X181812323Y-67516916D01*
X181788033Y-67532205D01*
X181736878Y-67573149D01*
X181693989Y-67620415D01*
X181683253Y-67635080D01*
X181650869Y-67689985D01*
X181626507Y-67750239D01*
X181621020Y-67768437D01*
X181606911Y-67833899D01*
X181600704Y-67900821D01*
X181600381Y-67920209D01*
X181604783Y-67984382D01*
X181607049Y-67998953D01*
X181621809Y-68062436D01*
X181624512Y-68070711D01*
X181649596Y-68127547D01*
X181672457Y-68158663D01*
X181688016Y-68166919D01*
X181704526Y-68168506D01*
X181730245Y-68166601D01*
X181768982Y-68159298D01*
X181812799Y-68148820D01*
X181842328Y-68138342D01*
X181859157Y-68125959D01*
X181864554Y-68109766D01*
X181851854Y-68081825D01*
X181823595Y-68036102D01*
X181797530Y-67976010D01*
X181795971Y-67971329D01*
X181784064Y-67908937D01*
X181783270Y-67885600D01*
X181791642Y-67821731D01*
X181792796Y-67817969D01*
X181818832Y-67765896D01*
X181858839Y-67729382D01*
X181908054Y-67710014D01*
X181972956Y-67715791D01*
X181974732Y-67716681D01*
X182023524Y-67759283D01*
X182024900Y-67761134D01*
X182058824Y-67816438D01*
X182066177Y-67830987D01*
X182094875Y-67888697D01*
X182106819Y-67911636D01*
X182138921Y-67966605D01*
X182155399Y-67990698D01*
X182200229Y-68039236D01*
X182220807Y-68054836D01*
X182279500Y-68083418D01*
X182310346Y-68091350D01*
X182374040Y-68094944D01*
X182431637Y-68086905D01*
G37*
G36*
X182714226Y-69393799D02*
G01*
X182748518Y-69372208D01*
X182767886Y-69340774D01*
X182776777Y-69291877D01*
X182778980Y-69226153D01*
X182779000Y-69217896D01*
X182777643Y-69152517D01*
X182776777Y-69138517D01*
X182767886Y-69092795D01*
X182748518Y-69071521D01*
X182714226Y-69066441D01*
X181987115Y-69036912D01*
X181987115Y-69035007D01*
X182714226Y-68712411D01*
X182747565Y-68693042D01*
X182767569Y-68664148D01*
X182776777Y-68615886D01*
X182778965Y-68550041D01*
X182779000Y-68538412D01*
X182777749Y-68474175D01*
X182776777Y-68458081D01*
X182767886Y-68412358D01*
X182748518Y-68390767D01*
X182714226Y-68385052D01*
X181713099Y-68336472D01*
X181662932Y-68338060D01*
X181634990Y-68353935D01*
X181622925Y-68392037D01*
X181620711Y-68456409D01*
X181620702Y-68461891D01*
X181621972Y-68526664D01*
X181628323Y-68561591D01*
X181642611Y-68575244D01*
X181668647Y-68576832D01*
X182547531Y-68592707D01*
X182547531Y-68593660D01*
X181674680Y-68981029D01*
X181647374Y-68995952D01*
X181630863Y-69018496D01*
X181622925Y-69057233D01*
X181620702Y-69120736D01*
X181622490Y-69185552D01*
X181622607Y-69187097D01*
X181629910Y-69223929D01*
X181646421Y-69240439D01*
X181674680Y-69243932D01*
X182547531Y-69275684D01*
X182547531Y-69277589D01*
X181671187Y-69657655D01*
X181647056Y-69669721D01*
X181630863Y-69689724D01*
X181622925Y-69726556D01*
X181620702Y-69790694D01*
X181622925Y-69850069D01*
X181634990Y-69878646D01*
X181663884Y-69880868D01*
X181715639Y-69860865D01*
X182714226Y-69393799D01*
G37*
G36*
X182471962Y-69860865D02*
G01*
X182531716Y-69869463D01*
X182596289Y-69888772D01*
X182656121Y-69920875D01*
X182693929Y-69952463D01*
X182735275Y-70004503D01*
X182764076Y-70062170D01*
X182772337Y-70085587D01*
X182788169Y-70149685D01*
X182796533Y-70214161D01*
X182799321Y-70285066D01*
X182798305Y-70326266D01*
X182791359Y-70397534D01*
X182777833Y-70465084D01*
X182757726Y-70528918D01*
X182743813Y-70562835D01*
X182714159Y-70620800D01*
X182678578Y-70674797D01*
X182637070Y-70724825D01*
X182611427Y-70750949D01*
X182561050Y-70794612D01*
X182505248Y-70833955D01*
X182444020Y-70868977D01*
X182385300Y-70896542D01*
X182322809Y-70920494D01*
X182256547Y-70940835D01*
X182186515Y-70957564D01*
X182131483Y-70967759D01*
X182062483Y-70976769D01*
X181990836Y-70980642D01*
X181925517Y-70977885D01*
X181866378Y-70968648D01*
X181802282Y-70948763D01*
X181742628Y-70916287D01*
X181704871Y-70884675D01*
X181663747Y-70832523D01*
X181635308Y-70774675D01*
X181627122Y-70751387D01*
X181611432Y-70688046D01*
X181603144Y-70624781D01*
X181600381Y-70555589D01*
X181601866Y-70505942D01*
X181601953Y-70505104D01*
X181803591Y-70505104D01*
X181803619Y-70510310D01*
X181809870Y-70576224D01*
X181832168Y-70638778D01*
X181859058Y-70674827D01*
X181912499Y-70711490D01*
X181973493Y-70729217D01*
X182037283Y-70733398D01*
X182070008Y-70732131D01*
X182134894Y-70725262D01*
X182199533Y-70713712D01*
X182229691Y-70706955D01*
X182292812Y-70689251D01*
X182352893Y-70667355D01*
X182366251Y-70661727D01*
X182424456Y-70631479D01*
X182479265Y-70591786D01*
X182485924Y-70585963D01*
X182530254Y-70537940D01*
X182564676Y-70482243D01*
X182573732Y-70461978D01*
X182590923Y-70399711D01*
X182596110Y-70334598D01*
X182596084Y-70329333D01*
X182590111Y-70262655D01*
X182568804Y-70199337D01*
X182542272Y-70163187D01*
X182488790Y-70126943D01*
X182426874Y-70109959D01*
X182362419Y-70105987D01*
X182329171Y-70107409D01*
X182262749Y-70114644D01*
X182196041Y-70126626D01*
X182171345Y-70132095D01*
X182109095Y-70149219D01*
X182045221Y-70172348D01*
X182032041Y-70177973D01*
X181974670Y-70208134D01*
X181920755Y-70247599D01*
X181914171Y-70253422D01*
X181870172Y-70301445D01*
X181835660Y-70357142D01*
X181826422Y-70377498D01*
X181808884Y-70439940D01*
X181803591Y-70505104D01*
X181601953Y-70505104D01*
X181608464Y-70442349D01*
X181622197Y-70374366D01*
X181642611Y-70310150D01*
X181656608Y-70276232D01*
X181686334Y-70218267D01*
X181721887Y-70164271D01*
X181763267Y-70114243D01*
X181788696Y-70088302D01*
X181838610Y-70044890D01*
X181893848Y-70005698D01*
X181954411Y-69970725D01*
X182012239Y-69943459D01*
X182073638Y-69919764D01*
X182138610Y-69899642D01*
X182207154Y-69883091D01*
X182272026Y-69871175D01*
X182341403Y-69862394D01*
X182405700Y-69858772D01*
X182471962Y-69860865D01*
G37*
G36*
X182695175Y-72409564D02*
G01*
X182732007Y-72394640D01*
X182758678Y-72370192D01*
X182774237Y-72339075D01*
X182779000Y-72305418D01*
X182779000Y-72207624D01*
X182772649Y-72156186D01*
X182749153Y-72119989D01*
X182703113Y-72093318D01*
X182641160Y-72073803D01*
X182626909Y-72070139D01*
X182065224Y-71905031D01*
X182002964Y-71888665D01*
X181957269Y-71877725D01*
X181892905Y-71864385D01*
X181844233Y-71855816D01*
X181844233Y-71854229D01*
X181910753Y-71843354D01*
X181976955Y-71831685D01*
X182039777Y-71820043D01*
X182104414Y-71807146D01*
X182113169Y-71805331D01*
X182739310Y-71675150D01*
X182755821Y-71666577D01*
X182768521Y-71647526D01*
X182776459Y-71614187D01*
X182779000Y-71562114D01*
X182776459Y-71511947D01*
X182768839Y-71482100D01*
X182756773Y-71468765D01*
X182740580Y-71467812D01*
X181704526Y-71683405D01*
X181647225Y-71713480D01*
X181641658Y-71720237D01*
X181620723Y-71781265D01*
X181620702Y-71783423D01*
X181620702Y-71906619D01*
X181626418Y-71961231D01*
X181645468Y-71998063D01*
X181682618Y-72024099D01*
X181740723Y-72044103D01*
X182161431Y-72176825D01*
X182222718Y-72195190D01*
X182236683Y-72199368D01*
X182298836Y-72217217D01*
X182310346Y-72220324D01*
X182373830Y-72236820D01*
X182382740Y-72239058D01*
X182444973Y-72254685D01*
X182453863Y-72256838D01*
X182453863Y-72257791D01*
X182390598Y-72268348D01*
X182324635Y-72280335D01*
X182258909Y-72293194D01*
X182196358Y-72305736D01*
X181658804Y-72417501D01*
X181642928Y-72426392D01*
X181630545Y-72446713D01*
X181622925Y-72480370D01*
X181620702Y-72532125D01*
X181622925Y-72581657D01*
X181630545Y-72610868D01*
X181643246Y-72623569D01*
X181659122Y-72624839D01*
X182695175Y-72409564D01*
G37*
G36*
X182589443Y-73479909D02*
G01*
X182625639Y-73471019D01*
X182651358Y-73462128D01*
X182669774Y-73451333D01*
X182689778Y-73433234D01*
X182721212Y-73389417D01*
X182750506Y-73332635D01*
X182758361Y-73314166D01*
X182778820Y-73252697D01*
X182787572Y-73217006D01*
X182797382Y-73151647D01*
X182799321Y-73104605D01*
X182795724Y-73034919D01*
X182784933Y-72971125D01*
X182764755Y-72907755D01*
X182762489Y-72902348D01*
X182729775Y-72843007D01*
X182686880Y-72793579D01*
X182652628Y-72766134D01*
X182592722Y-72733821D01*
X182528786Y-72713537D01*
X182470057Y-72703583D01*
X182405601Y-72700137D01*
X182335469Y-72703371D01*
X182268364Y-72711855D01*
X182215092Y-72721681D01*
X182151938Y-72736675D01*
X182083633Y-72757532D01*
X182019455Y-72782358D01*
X181959405Y-72811153D01*
X181952189Y-72815031D01*
X181897020Y-72847715D01*
X181840459Y-72887854D01*
X181789725Y-72931558D01*
X181759139Y-72962676D01*
X181718192Y-73012099D01*
X181679705Y-73070665D01*
X181648599Y-73133077D01*
X181640706Y-73152550D01*
X181619441Y-73219322D01*
X181606052Y-73288263D01*
X181600736Y-73352167D01*
X181600381Y-73373859D01*
X181604646Y-73439078D01*
X181608637Y-73463081D01*
X181625099Y-73526157D01*
X181629910Y-73539284D01*
X181658226Y-73596642D01*
X181660392Y-73599930D01*
X181689921Y-73635174D01*
X181710242Y-73647240D01*
X181731515Y-73649780D01*
X181761679Y-73647557D01*
X181804544Y-73639937D01*
X181851219Y-73628506D01*
X181882335Y-73615806D01*
X181899799Y-73601517D01*
X181905196Y-73586594D01*
X181889638Y-73556748D01*
X181854394Y-73511978D01*
X181824422Y-73455559D01*
X181819467Y-73443077D01*
X181805467Y-73380983D01*
X181803591Y-73341472D01*
X181810577Y-73276064D01*
X181831533Y-73215101D01*
X181865507Y-73159297D01*
X181908316Y-73111740D01*
X181911547Y-73108733D01*
X181965109Y-73066715D01*
X182023661Y-73032785D01*
X182037283Y-73026179D01*
X182100226Y-73000627D01*
X182163816Y-72981598D01*
X182203344Y-72972519D01*
X182269790Y-72961188D01*
X182335002Y-72955845D01*
X182378930Y-72956643D01*
X182442636Y-72966429D01*
X182501173Y-72989665D01*
X182551554Y-73032777D01*
X182572614Y-73066504D01*
X182591613Y-73127240D01*
X182596110Y-73182397D01*
X182591087Y-73247118D01*
X182580235Y-73291622D01*
X182556618Y-73351843D01*
X182544990Y-73375446D01*
X182512023Y-73431836D01*
X182510064Y-73434822D01*
X182494505Y-73469748D01*
X182497998Y-73483084D01*
X182511651Y-73489117D01*
X182540228Y-73488482D01*
X182589443Y-73479909D01*
G37*
G36*
X182312770Y-113569176D02*
G01*
X182329378Y-113634145D01*
X182348429Y-113677620D01*
X182370411Y-113701556D01*
X182393859Y-113709371D01*
X182829099Y-113709371D01*
X183129030Y-115151870D01*
X183143196Y-115176782D01*
X183175924Y-115194856D01*
X183232588Y-115206092D01*
X183318562Y-115210000D01*
X183403070Y-115206092D01*
X183455338Y-115194856D01*
X183480251Y-115176782D01*
X183483670Y-115151870D01*
X183183740Y-113709371D01*
X183618981Y-113709371D01*
X183640963Y-113701556D01*
X183652198Y-113677620D01*
X183653175Y-113634145D01*
X183642916Y-113569176D01*
X183625819Y-113502742D01*
X183606769Y-113458778D01*
X183585764Y-113435331D01*
X183560851Y-113428004D01*
X182335729Y-113428004D01*
X182315212Y-113435331D01*
X182303000Y-113458778D01*
X182302023Y-113502742D01*
X182312770Y-113569176D01*
G37*
G36*
X181148220Y-114412791D02*
G01*
X181166294Y-114479713D01*
X181187299Y-114523189D01*
X181210746Y-114546636D01*
X181235170Y-114553475D01*
X181653314Y-114553475D01*
X181751500Y-115026329D01*
X181763224Y-115050753D01*
X181790090Y-115068827D01*
X181835519Y-115081039D01*
X181903419Y-115084947D01*
X181969853Y-115081039D01*
X182010397Y-115068827D01*
X182030425Y-115050753D01*
X182032379Y-115026329D01*
X181934193Y-114553475D01*
X182350872Y-114553475D01*
X182371388Y-114546636D01*
X182385066Y-114523189D01*
X182388485Y-114479713D01*
X182379204Y-114412791D01*
X182361618Y-114346845D01*
X182341102Y-114302882D01*
X182319120Y-114279434D01*
X182296161Y-114272107D01*
X181875575Y-114272107D01*
X181777878Y-113801695D01*
X181765177Y-113776294D01*
X181737822Y-113756755D01*
X181692393Y-113745031D01*
X181624005Y-113740635D01*
X181557571Y-113745031D01*
X181517027Y-113756755D01*
X181498464Y-113776294D01*
X181496999Y-113801695D01*
X181594696Y-114272107D01*
X181172644Y-114272107D01*
X181153105Y-114279434D01*
X181140404Y-114302882D01*
X181138450Y-114346845D01*
X181148220Y-114412791D01*
G37*
G36*
X177635031Y-113569176D02*
G01*
X177651639Y-113634145D01*
X177670690Y-113677620D01*
X177692672Y-113701556D01*
X177716120Y-113709371D01*
X178151360Y-113709371D01*
X178451290Y-115151870D01*
X178465457Y-115176782D01*
X178498185Y-115194856D01*
X178554849Y-115206092D01*
X178640823Y-115210000D01*
X178725331Y-115206092D01*
X178777599Y-115194856D01*
X178802512Y-115176782D01*
X178805931Y-115151870D01*
X178506001Y-113709371D01*
X178941242Y-113709371D01*
X178963224Y-113701556D01*
X178974459Y-113677620D01*
X178975436Y-113634145D01*
X178965177Y-113569176D01*
X178948080Y-113502742D01*
X178929030Y-113458778D01*
X178908025Y-113435331D01*
X178883112Y-113428004D01*
X177657990Y-113428004D01*
X177637473Y-113435331D01*
X177625261Y-113458778D01*
X177624284Y-113502742D01*
X177635031Y-113569176D01*
G37*
G36*
X177218353Y-114505115D02*
G01*
X177247285Y-114599842D01*
X177256454Y-114616001D01*
X177309211Y-114647264D01*
X177869016Y-114647264D01*
X177910537Y-114615512D01*
X177904641Y-114514705D01*
X177902721Y-114505115D01*
X177873450Y-114410951D01*
X177865596Y-114397648D01*
X177810886Y-114365896D01*
X177251081Y-114365896D01*
X177225680Y-114372735D01*
X177210537Y-114396182D01*
X177208094Y-114439658D01*
X177218353Y-114505115D01*
G37*
G36*
X133918982Y-114417208D02*
G01*
X133900908Y-114350286D01*
X133879903Y-114306810D01*
X133856455Y-114283363D01*
X133832031Y-114276524D01*
X133413887Y-114276524D01*
X133315702Y-113803670D01*
X133303978Y-113779246D01*
X133277111Y-113761172D01*
X133231682Y-113748960D01*
X133163783Y-113745052D01*
X133097349Y-113748960D01*
X133056804Y-113761172D01*
X133036776Y-113779246D01*
X133034822Y-113803670D01*
X133133008Y-114276524D01*
X132716330Y-114276524D01*
X132695813Y-114283363D01*
X132682136Y-114306810D01*
X132678716Y-114350286D01*
X132687998Y-114417208D01*
X132705583Y-114483154D01*
X132726099Y-114527117D01*
X132748081Y-114550565D01*
X132771040Y-114557892D01*
X133191626Y-114557892D01*
X133289323Y-115028304D01*
X133302024Y-115053705D01*
X133329379Y-115073244D01*
X133374808Y-115084968D01*
X133443196Y-115089364D01*
X133509631Y-115084968D01*
X133550175Y-115073244D01*
X133568737Y-115053705D01*
X133570203Y-115028304D01*
X133472506Y-114557892D01*
X133894557Y-114557892D01*
X133914097Y-114550565D01*
X133926797Y-114527117D01*
X133928751Y-114483154D01*
X133918982Y-114417208D01*
G37*
G36*
X138554222Y-114324884D02*
G01*
X138525290Y-114230157D01*
X138516120Y-114213998D01*
X138463364Y-114182735D01*
X137903559Y-114182735D01*
X137862038Y-114214487D01*
X137867934Y-114315294D01*
X137869854Y-114324884D01*
X137899125Y-114419048D01*
X137906979Y-114432351D01*
X137961689Y-114464103D01*
X138521494Y-114464103D01*
X138546895Y-114457264D01*
X138562038Y-114433817D01*
X138564481Y-114390341D01*
X138554222Y-114324884D01*
G37*
G36*
X186801208Y-68273287D02*
G01*
X186845660Y-68261856D01*
X186875189Y-68249790D01*
X186890430Y-68236772D01*
X186894875Y-68222484D01*
X186879000Y-68188827D01*
X186846405Y-68133516D01*
X186844073Y-68128817D01*
X186819665Y-68068759D01*
X186809464Y-68036102D01*
X186796828Y-67971893D01*
X186793270Y-67904968D01*
X186798091Y-67839570D01*
X186812554Y-67777526D01*
X186822482Y-67750021D01*
X186852721Y-67689567D01*
X186892320Y-67634341D01*
X186905353Y-67619522D01*
X186952310Y-67574935D01*
X187006498Y-67536113D01*
X187033947Y-67520139D01*
X187092380Y-67492545D01*
X187155278Y-67471202D01*
X187199690Y-67460446D01*
X187265458Y-67449859D01*
X187330871Y-67446525D01*
X187375594Y-67449651D01*
X187441365Y-67464530D01*
X187499679Y-67492858D01*
X187502918Y-67495056D01*
X187550154Y-67539898D01*
X187580074Y-67590628D01*
X187599601Y-67655004D01*
X187606009Y-67719017D01*
X187606110Y-67728747D01*
X187600233Y-67794258D01*
X187597855Y-67806538D01*
X187578684Y-67868212D01*
X187572771Y-67881790D01*
X187321616Y-67933862D01*
X187321616Y-67719857D01*
X187300978Y-67699536D01*
X187236607Y-67704317D01*
X187230489Y-67705569D01*
X187187307Y-67716682D01*
X187159366Y-67728747D01*
X187143808Y-67742718D01*
X187138727Y-67757959D01*
X187138727Y-68139612D01*
X187143808Y-68163109D01*
X187158413Y-68179302D01*
X187181592Y-68187557D01*
X187213026Y-68185335D01*
X187668661Y-68090715D01*
X187715336Y-68071664D01*
X187746452Y-68027529D01*
X187766420Y-67965836D01*
X187770266Y-67952278D01*
X187785642Y-67889956D01*
X187791540Y-67860834D01*
X187801663Y-67796656D01*
X187804875Y-67767484D01*
X187808886Y-67703456D01*
X187809321Y-67674452D01*
X187806840Y-67608964D01*
X187798119Y-67540794D01*
X187783119Y-67478451D01*
X187769631Y-67440125D01*
X187741154Y-67382315D01*
X187701807Y-67327749D01*
X187654055Y-67282638D01*
X187597982Y-67247424D01*
X187534104Y-67222116D01*
X187469261Y-67207704D01*
X187405715Y-67201983D01*
X187337598Y-67203395D01*
X187273211Y-67210638D01*
X187222551Y-67219769D01*
X187153095Y-67236776D01*
X187087290Y-67258268D01*
X187025136Y-67284245D01*
X186966634Y-67314707D01*
X186912081Y-67349296D01*
X186855785Y-67392336D01*
X186804863Y-67439747D01*
X186773902Y-67473782D01*
X186732215Y-67528175D01*
X186696455Y-67586335D01*
X186666623Y-67648263D01*
X186652611Y-67684295D01*
X186632197Y-67751684D01*
X186618464Y-67821685D01*
X186611866Y-67886101D01*
X186610381Y-67935767D01*
X186612474Y-68001181D01*
X186619907Y-68067219D01*
X186632785Y-68130622D01*
X186643403Y-68167554D01*
X186668025Y-68227514D01*
X186672932Y-68236137D01*
X186700556Y-68271699D01*
X186734530Y-68281860D01*
X186798471Y-68273852D01*
X186801208Y-68273287D01*
G37*
G36*
X187705175Y-69270603D02*
G01*
X187742007Y-69255680D01*
X187768678Y-69231231D01*
X187784237Y-69200115D01*
X187789000Y-69166458D01*
X187789000Y-69068663D01*
X187782649Y-69017226D01*
X187759153Y-68981029D01*
X187713113Y-68954358D01*
X187651160Y-68934843D01*
X187636909Y-68931179D01*
X187075224Y-68766071D01*
X187012964Y-68749705D01*
X186967269Y-68738765D01*
X186902905Y-68725425D01*
X186854233Y-68716856D01*
X186854233Y-68715268D01*
X186920753Y-68704394D01*
X186986955Y-68692725D01*
X187049777Y-68681083D01*
X187114414Y-68668186D01*
X187123169Y-68666371D01*
X187749310Y-68536190D01*
X187765821Y-68527617D01*
X187778521Y-68508566D01*
X187786459Y-68475227D01*
X187789000Y-68423154D01*
X187786459Y-68372987D01*
X187778839Y-68343140D01*
X187766773Y-68329804D01*
X187750580Y-68328852D01*
X186714526Y-68544445D01*
X186657225Y-68574520D01*
X186651658Y-68581277D01*
X186630723Y-68642305D01*
X186630702Y-68644462D01*
X186630702Y-68767659D01*
X186636418Y-68822271D01*
X186655468Y-68859103D01*
X186692618Y-68885139D01*
X186750723Y-68905143D01*
X187171431Y-69037864D01*
X187232718Y-69056229D01*
X187246683Y-69060408D01*
X187308836Y-69078257D01*
X187320346Y-69081364D01*
X187383830Y-69097860D01*
X187392740Y-69100097D01*
X187454973Y-69115725D01*
X187463863Y-69117878D01*
X187463863Y-69118831D01*
X187400598Y-69129388D01*
X187334635Y-69141375D01*
X187268909Y-69154234D01*
X187206358Y-69166776D01*
X186668804Y-69278541D01*
X186652928Y-69287432D01*
X186640545Y-69307753D01*
X186632925Y-69341409D01*
X186630702Y-69393164D01*
X186632925Y-69442697D01*
X186640545Y-69471908D01*
X186653246Y-69484609D01*
X186669122Y-69485879D01*
X187705175Y-69270603D01*
G37*
G36*
X187771536Y-69543349D02*
G01*
X187789000Y-69588119D01*
X187789000Y-69858007D01*
X187787404Y-69922057D01*
X187781674Y-69991201D01*
X187771776Y-70056019D01*
X187755660Y-70123768D01*
X187744212Y-70159372D01*
X187718918Y-70220373D01*
X187687595Y-70277406D01*
X187650245Y-70330471D01*
X187621885Y-70363587D01*
X187573902Y-70409744D01*
X187519389Y-70451682D01*
X187465451Y-70485418D01*
X187451102Y-70493314D01*
X187390109Y-70522466D01*
X187323361Y-70547728D01*
X187260236Y-70566642D01*
X187192705Y-70582578D01*
X187150456Y-70590515D01*
X187086243Y-70598666D01*
X187018985Y-70601147D01*
X186950441Y-70595596D01*
X186894164Y-70583530D01*
X186832612Y-70559777D01*
X186774537Y-70522568D01*
X186733328Y-70482847D01*
X186695949Y-70429915D01*
X186666899Y-70367303D01*
X186652795Y-70321980D01*
X186639751Y-70256252D01*
X186632965Y-70190784D01*
X186630702Y-70118688D01*
X186630702Y-70067568D01*
X186813591Y-70067568D01*
X186814618Y-70105673D01*
X186822834Y-70171905D01*
X186842803Y-70232358D01*
X186875281Y-70281288D01*
X186924404Y-70321898D01*
X186981319Y-70345950D01*
X187047918Y-70356507D01*
X187070423Y-70357278D01*
X187136407Y-70353909D01*
X187201595Y-70343489D01*
X187256407Y-70330395D01*
X187318010Y-70310844D01*
X187378452Y-70285066D01*
X187401462Y-70273054D01*
X187455630Y-70238049D01*
X187504823Y-70194257D01*
X187517127Y-70180584D01*
X187553939Y-70128665D01*
X187581027Y-70070425D01*
X187590801Y-70038695D01*
X187602583Y-69973558D01*
X187606110Y-69906270D01*
X187606110Y-69786566D01*
X186813591Y-69951357D01*
X186813591Y-70067568D01*
X186630702Y-70067568D01*
X186630702Y-69828796D01*
X186648166Y-69776723D01*
X186705001Y-69745289D01*
X187714701Y-69535411D01*
X187771536Y-69543349D01*
G37*
G36*
X187599443Y-71899316D02*
G01*
X187635639Y-71890425D01*
X187661358Y-71881535D01*
X187679774Y-71870739D01*
X187699778Y-71852641D01*
X187731212Y-71808824D01*
X187760506Y-71752042D01*
X187768361Y-71733573D01*
X187788820Y-71672104D01*
X187797572Y-71636413D01*
X187807382Y-71571054D01*
X187809321Y-71524012D01*
X187805724Y-71454326D01*
X187794933Y-71390532D01*
X187774755Y-71327162D01*
X187772489Y-71321755D01*
X187739775Y-71262414D01*
X187696880Y-71212986D01*
X187662628Y-71185541D01*
X187602722Y-71153228D01*
X187538786Y-71132944D01*
X187480057Y-71122990D01*
X187415601Y-71119544D01*
X187345469Y-71122778D01*
X187278364Y-71131262D01*
X187225092Y-71141088D01*
X187161938Y-71156082D01*
X187093633Y-71176939D01*
X187029455Y-71201765D01*
X186969405Y-71230560D01*
X186962189Y-71234438D01*
X186907020Y-71267122D01*
X186850459Y-71307260D01*
X186799725Y-71350965D01*
X186769139Y-71382083D01*
X186728192Y-71431505D01*
X186689705Y-71490072D01*
X186658599Y-71552484D01*
X186650706Y-71571957D01*
X186629441Y-71638729D01*
X186616052Y-71707670D01*
X186610736Y-71771574D01*
X186610381Y-71793266D01*
X186614646Y-71858485D01*
X186618637Y-71882488D01*
X186635099Y-71945564D01*
X186639910Y-71958691D01*
X186668226Y-72016049D01*
X186670392Y-72019337D01*
X186699921Y-72054581D01*
X186720242Y-72066647D01*
X186741515Y-72069187D01*
X186771679Y-72066964D01*
X186814544Y-72059344D01*
X186861219Y-72047913D01*
X186892335Y-72035213D01*
X186909799Y-72020924D01*
X186915196Y-72006001D01*
X186899638Y-71976155D01*
X186864394Y-71931385D01*
X186834422Y-71874966D01*
X186829467Y-71862484D01*
X186815467Y-71800390D01*
X186813591Y-71760879D01*
X186820577Y-71695471D01*
X186841533Y-71634508D01*
X186875507Y-71578704D01*
X186918316Y-71531147D01*
X186921547Y-71528140D01*
X186975109Y-71486122D01*
X187033661Y-71452192D01*
X187047283Y-71445586D01*
X187110226Y-71420034D01*
X187173816Y-71401005D01*
X187213344Y-71391926D01*
X187279790Y-71380595D01*
X187345002Y-71375252D01*
X187388930Y-71376050D01*
X187452636Y-71385836D01*
X187511173Y-71409072D01*
X187561554Y-71452184D01*
X187582614Y-71485910D01*
X187601613Y-71546646D01*
X187606110Y-71601804D01*
X187601087Y-71666525D01*
X187590235Y-71711029D01*
X187566618Y-71771250D01*
X187554990Y-71794853D01*
X187522023Y-71851243D01*
X187520064Y-71854229D01*
X187504505Y-71889155D01*
X187507998Y-71902491D01*
X187521651Y-71908524D01*
X187550228Y-71907889D01*
X187599443Y-71899316D01*
G37*
G36*
X187686124Y-72683262D02*
G01*
X187733434Y-72671197D01*
X187765186Y-72658178D01*
X187783602Y-72643255D01*
X187789000Y-72627062D01*
X187789000Y-72109194D01*
X187771854Y-72064424D01*
X187715018Y-72056169D01*
X186668169Y-72273984D01*
X186652293Y-72283192D01*
X186640545Y-72304466D01*
X186633560Y-72340980D01*
X186630702Y-72396863D01*
X186633560Y-72452428D01*
X186640545Y-72485767D01*
X186651976Y-72501961D01*
X186667852Y-72504501D01*
X187585789Y-72313674D01*
X187585789Y-72669291D01*
X187590870Y-72683262D01*
X187607698Y-72690883D01*
X187638815Y-72690883D01*
X187686124Y-72683262D01*
G37*
G36*
X187748993Y-73644065D02*
G01*
X187766456Y-73635809D01*
X187778839Y-73614853D01*
X187786459Y-73576116D01*
X187789000Y-73516423D01*
X187786703Y-73451618D01*
X187784554Y-73435457D01*
X187771219Y-73402435D01*
X187749945Y-73390052D01*
X187205406Y-73161441D01*
X187749945Y-73048405D01*
X187767091Y-73039515D01*
X187778839Y-73018876D01*
X187786459Y-72982362D01*
X187789000Y-72925844D01*
X187786459Y-72871231D01*
X187778839Y-72837575D01*
X187767091Y-72821064D01*
X187749945Y-72818841D01*
X186668804Y-73043325D01*
X186651976Y-73052850D01*
X186640545Y-73074124D01*
X186633560Y-73110638D01*
X186630702Y-73166521D01*
X186633560Y-73221769D01*
X186640545Y-73255425D01*
X186651976Y-73271301D01*
X186668804Y-73272889D01*
X187157461Y-73171601D01*
X186669757Y-73604058D01*
X186650706Y-73622474D01*
X186638640Y-73647875D01*
X186632607Y-73685024D01*
X186630702Y-73741224D01*
X186633560Y-73798377D01*
X186640863Y-73832987D01*
X186652928Y-73849180D01*
X186668804Y-73851085D01*
X186699921Y-73836797D01*
X186750406Y-73796790D01*
X187162859Y-73401165D01*
X187681679Y-73631047D01*
X187730259Y-73644065D01*
X187748993Y-73644065D01*
G37*
G36*
X156376434Y-114417208D02*
G01*
X156358360Y-114350286D01*
X156337355Y-114306810D01*
X156313907Y-114283363D01*
X156289483Y-114276524D01*
X155871339Y-114276524D01*
X155773154Y-113803670D01*
X155761430Y-113779246D01*
X155734563Y-113761172D01*
X155689134Y-113748960D01*
X155621235Y-113745052D01*
X155554801Y-113748960D01*
X155514256Y-113761172D01*
X155494228Y-113779246D01*
X155492274Y-113803670D01*
X155590460Y-114276524D01*
X155173782Y-114276524D01*
X155153265Y-114283363D01*
X155139588Y-114306810D01*
X155136168Y-114350286D01*
X155145450Y-114417208D01*
X155163035Y-114483154D01*
X155183551Y-114527117D01*
X155205533Y-114550565D01*
X155228492Y-114557892D01*
X155649078Y-114557892D01*
X155746775Y-115028304D01*
X155759476Y-115053705D01*
X155786831Y-115073244D01*
X155832260Y-115084968D01*
X155900648Y-115089364D01*
X155967083Y-115084968D01*
X156007627Y-115073244D01*
X156026189Y-115053705D01*
X156027655Y-115028304D01*
X155929958Y-114557892D01*
X156352009Y-114557892D01*
X156371549Y-114550565D01*
X156384249Y-114527117D01*
X156386203Y-114483154D01*
X156376434Y-114417208D01*
G37*
G36*
X161011674Y-114324884D02*
G01*
X160982742Y-114230157D01*
X160973572Y-114213998D01*
X160920816Y-114182735D01*
X160361011Y-114182735D01*
X160319490Y-114214487D01*
X160325386Y-114315294D01*
X160327306Y-114324884D01*
X160356577Y-114419048D01*
X160364431Y-114432351D01*
X160419141Y-114464103D01*
X160978946Y-114464103D01*
X161004347Y-114457264D01*
X161019490Y-114433817D01*
X161021933Y-114390341D01*
X161011674Y-114324884D01*
G37*
G36*
X145096434Y-114417208D02*
G01*
X145078360Y-114350286D01*
X145057355Y-114306810D01*
X145033907Y-114283363D01*
X145009483Y-114276524D01*
X144591339Y-114276524D01*
X144493154Y-113803670D01*
X144481430Y-113779246D01*
X144454563Y-113761172D01*
X144409134Y-113748960D01*
X144341235Y-113745052D01*
X144274801Y-113748960D01*
X144234256Y-113761172D01*
X144214228Y-113779246D01*
X144212274Y-113803670D01*
X144310460Y-114276524D01*
X143893782Y-114276524D01*
X143873265Y-114283363D01*
X143859588Y-114306810D01*
X143856168Y-114350286D01*
X143865450Y-114417208D01*
X143883035Y-114483154D01*
X143903551Y-114527117D01*
X143925533Y-114550565D01*
X143948492Y-114557892D01*
X144369078Y-114557892D01*
X144466775Y-115028304D01*
X144479476Y-115053705D01*
X144506831Y-115073244D01*
X144552260Y-115084968D01*
X144620648Y-115089364D01*
X144687083Y-115084968D01*
X144727627Y-115073244D01*
X144746189Y-115053705D01*
X144747655Y-115028304D01*
X144649958Y-114557892D01*
X145072009Y-114557892D01*
X145091549Y-114550565D01*
X145104249Y-114527117D01*
X145106203Y-114483154D01*
X145096434Y-114417208D01*
G37*
G36*
X149731674Y-114324884D02*
G01*
X149702742Y-114230157D01*
X149693572Y-114213998D01*
X149640816Y-114182735D01*
X149081011Y-114182735D01*
X149039490Y-114214487D01*
X149045386Y-114315294D01*
X149047306Y-114324884D01*
X149076577Y-114419048D01*
X149084431Y-114432351D01*
X149139141Y-114464103D01*
X149698946Y-114464103D01*
X149724347Y-114457264D01*
X149739490Y-114433817D01*
X149741933Y-114390341D01*
X149731674Y-114324884D01*
G37*
G36*
X177572960Y-67877662D02*
G01*
X177597408Y-67861151D01*
X177611697Y-67835432D01*
X177617729Y-67791298D01*
X177618995Y-67725866D01*
X177619000Y-67720492D01*
X177618682Y-67660799D01*
X177616459Y-67618887D01*
X177611062Y-67591580D01*
X177602171Y-67575069D01*
X177589471Y-67566496D01*
X177570102Y-67563004D01*
X176553099Y-67438220D01*
X176502614Y-67435680D01*
X176474673Y-67450286D01*
X176462925Y-67489658D01*
X176460722Y-67554950D01*
X176460702Y-67563639D01*
X176462607Y-67625872D01*
X176468640Y-67659529D01*
X176481976Y-67674134D01*
X176504202Y-67678580D01*
X177389436Y-67769707D01*
X177389436Y-67770659D01*
X176508647Y-68223754D01*
X176484198Y-68237407D01*
X176469593Y-68258363D01*
X176462607Y-68295830D01*
X176460702Y-68360921D01*
X176463560Y-68422836D01*
X176476260Y-68451095D01*
X176505154Y-68450143D01*
X176554687Y-68426329D01*
X177572960Y-67877662D01*
G37*
G36*
X177429443Y-69173126D02*
G01*
X177465639Y-69164236D01*
X177491358Y-69155345D01*
X177509774Y-69144550D01*
X177529778Y-69126451D01*
X177561212Y-69082634D01*
X177590506Y-69025852D01*
X177598361Y-69007383D01*
X177618820Y-68945914D01*
X177627572Y-68910223D01*
X177637382Y-68844864D01*
X177639321Y-68797822D01*
X177635724Y-68728136D01*
X177624933Y-68664342D01*
X177604755Y-68600972D01*
X177602489Y-68595565D01*
X177569775Y-68536224D01*
X177526880Y-68486796D01*
X177492628Y-68459351D01*
X177432722Y-68427038D01*
X177368786Y-68406754D01*
X177310057Y-68396800D01*
X177245601Y-68393354D01*
X177175469Y-68396588D01*
X177108364Y-68405072D01*
X177055092Y-68414898D01*
X176991938Y-68429892D01*
X176923633Y-68450749D01*
X176859455Y-68475575D01*
X176799405Y-68504370D01*
X176792189Y-68508248D01*
X176737020Y-68540932D01*
X176680459Y-68581070D01*
X176629725Y-68624775D01*
X176599139Y-68655893D01*
X176558192Y-68705316D01*
X176519705Y-68763882D01*
X176488599Y-68826294D01*
X176480706Y-68845767D01*
X176459441Y-68912539D01*
X176446052Y-68981480D01*
X176440736Y-69045384D01*
X176440381Y-69067076D01*
X176444646Y-69132295D01*
X176448637Y-69156298D01*
X176465099Y-69219374D01*
X176469910Y-69232501D01*
X176498226Y-69289859D01*
X176500392Y-69293147D01*
X176529921Y-69328391D01*
X176550242Y-69340457D01*
X176571515Y-69342997D01*
X176601679Y-69340774D01*
X176644544Y-69333154D01*
X176691219Y-69321723D01*
X176722335Y-69309023D01*
X176739799Y-69294734D01*
X176745196Y-69279811D01*
X176729638Y-69249965D01*
X176694394Y-69205195D01*
X176664422Y-69148776D01*
X176659467Y-69136294D01*
X176645467Y-69074200D01*
X176643591Y-69034689D01*
X176650577Y-68969281D01*
X176671533Y-68908318D01*
X176705507Y-68852514D01*
X176748316Y-68804957D01*
X176751547Y-68801950D01*
X176805109Y-68759932D01*
X176863661Y-68726002D01*
X176877283Y-68719396D01*
X176940226Y-68693844D01*
X177003816Y-68674815D01*
X177043344Y-68665736D01*
X177109790Y-68654405D01*
X177175002Y-68649062D01*
X177218930Y-68649860D01*
X177282636Y-68659646D01*
X177341173Y-68682882D01*
X177391554Y-68725994D01*
X177412614Y-68759721D01*
X177431613Y-68820457D01*
X177436110Y-68875614D01*
X177431087Y-68940335D01*
X177420235Y-68984839D01*
X177396618Y-69045060D01*
X177384990Y-69068663D01*
X177352023Y-69125053D01*
X177350064Y-69128039D01*
X177334505Y-69162965D01*
X177337998Y-69176301D01*
X177351651Y-69182334D01*
X177380228Y-69181699D01*
X177429443Y-69173126D01*
G37*
G36*
X177429443Y-70135834D02*
G01*
X177465639Y-70126943D01*
X177491358Y-70118053D01*
X177509774Y-70107257D01*
X177529778Y-70089159D01*
X177561212Y-70045342D01*
X177590506Y-69988559D01*
X177598361Y-69970090D01*
X177618820Y-69908621D01*
X177627572Y-69872931D01*
X177637382Y-69807571D01*
X177639321Y-69760530D01*
X177635724Y-69690844D01*
X177624933Y-69627049D01*
X177604755Y-69563680D01*
X177602489Y-69558272D01*
X177569775Y-69498932D01*
X177526880Y-69449504D01*
X177492628Y-69422058D01*
X177432722Y-69389746D01*
X177368786Y-69369462D01*
X177310057Y-69359508D01*
X177245601Y-69356061D01*
X177175469Y-69359296D01*
X177108364Y-69367779D01*
X177055092Y-69377606D01*
X176991938Y-69392600D01*
X176923633Y-69413457D01*
X176859455Y-69438283D01*
X176799405Y-69467077D01*
X176792189Y-69470956D01*
X176737020Y-69503640D01*
X176680459Y-69543778D01*
X176629725Y-69587483D01*
X176599139Y-69618600D01*
X176558192Y-69668023D01*
X176519705Y-69726590D01*
X176488599Y-69789002D01*
X176480706Y-69808475D01*
X176459441Y-69875246D01*
X176446052Y-69944188D01*
X176440736Y-70008091D01*
X176440381Y-70029783D01*
X176444646Y-70095003D01*
X176448637Y-70119005D01*
X176465099Y-70182082D01*
X176469910Y-70195209D01*
X176498226Y-70252566D01*
X176500392Y-70255854D01*
X176529921Y-70291099D01*
X176550242Y-70303164D01*
X176571515Y-70305704D01*
X176601679Y-70303482D01*
X176644544Y-70295861D01*
X176691219Y-70284431D01*
X176722335Y-70271730D01*
X176739799Y-70257442D01*
X176745196Y-70242519D01*
X176729638Y-70212672D01*
X176694394Y-70167903D01*
X176664422Y-70111484D01*
X176659467Y-70099002D01*
X176645467Y-70036908D01*
X176643591Y-69997397D01*
X176650577Y-69931988D01*
X176671533Y-69871025D01*
X176705507Y-69815222D01*
X176748316Y-69767664D01*
X176751547Y-69764658D01*
X176805109Y-69722640D01*
X176863661Y-69688710D01*
X176877283Y-69682104D01*
X176940226Y-69656551D01*
X177003816Y-69637523D01*
X177043344Y-69628443D01*
X177109790Y-69617113D01*
X177175002Y-69611770D01*
X177218930Y-69612568D01*
X177282636Y-69622354D01*
X177341173Y-69645589D01*
X177391554Y-69688702D01*
X177412614Y-69722428D01*
X177431613Y-69783164D01*
X177436110Y-69838321D01*
X177431087Y-69903042D01*
X177420235Y-69947547D01*
X177396618Y-70007768D01*
X177384990Y-70031371D01*
X177352023Y-70087761D01*
X177350064Y-70090746D01*
X177334505Y-70125673D01*
X177337998Y-70139009D01*
X177351651Y-70145042D01*
X177380228Y-70144406D01*
X177429443Y-70135834D01*
G37*
G36*
X177572960Y-71261109D02*
G01*
X177597408Y-71244598D01*
X177611697Y-71218880D01*
X177617729Y-71174745D01*
X177618995Y-71109313D01*
X177619000Y-71103939D01*
X177618682Y-71044246D01*
X177616459Y-71002334D01*
X177611062Y-70975028D01*
X177602171Y-70958517D01*
X177589471Y-70949944D01*
X177570102Y-70946451D01*
X176553099Y-70821667D01*
X176502614Y-70819127D01*
X176474673Y-70833733D01*
X176462925Y-70873105D01*
X176460722Y-70938397D01*
X176460702Y-70947086D01*
X176462607Y-71009319D01*
X176468640Y-71042976D01*
X176481976Y-71057582D01*
X176504202Y-71062027D01*
X177389436Y-71153154D01*
X177389436Y-71154106D01*
X176508647Y-71607201D01*
X176484198Y-71620854D01*
X176469593Y-71641811D01*
X176462607Y-71679277D01*
X176460702Y-71744368D01*
X176463560Y-71806284D01*
X176476260Y-71834543D01*
X176505154Y-71833590D01*
X176554687Y-71809776D01*
X177572960Y-71261109D01*
G37*
G36*
X177429443Y-72556573D02*
G01*
X177465639Y-72547683D01*
X177491358Y-72538792D01*
X177509774Y-72527997D01*
X177529778Y-72509898D01*
X177561212Y-72466081D01*
X177590506Y-72409299D01*
X177598361Y-72390830D01*
X177618820Y-72329361D01*
X177627572Y-72293670D01*
X177637382Y-72228311D01*
X177639321Y-72181270D01*
X177635724Y-72111584D01*
X177624933Y-72047789D01*
X177604755Y-71984420D01*
X177602489Y-71979012D01*
X177569775Y-71919671D01*
X177526880Y-71870243D01*
X177492628Y-71842798D01*
X177432722Y-71810486D01*
X177368786Y-71790202D01*
X177310057Y-71780247D01*
X177245601Y-71776801D01*
X177175469Y-71780035D01*
X177108364Y-71788519D01*
X177055092Y-71798346D01*
X176991938Y-71813340D01*
X176923633Y-71834197D01*
X176859455Y-71859022D01*
X176799405Y-71887817D01*
X176792189Y-71891695D01*
X176737020Y-71924380D01*
X176680459Y-71964518D01*
X176629725Y-72008222D01*
X176599139Y-72039340D01*
X176558192Y-72088763D01*
X176519705Y-72147330D01*
X176488599Y-72209741D01*
X176480706Y-72229215D01*
X176459441Y-72295986D01*
X176446052Y-72364928D01*
X176440736Y-72428831D01*
X176440381Y-72450523D01*
X176444646Y-72515742D01*
X176448637Y-72539745D01*
X176465099Y-72602821D01*
X176469910Y-72615949D01*
X176498226Y-72673306D01*
X176500392Y-72676594D01*
X176529921Y-72711838D01*
X176550242Y-72723904D01*
X176571515Y-72726444D01*
X176601679Y-72724222D01*
X176644544Y-72716601D01*
X176691219Y-72705171D01*
X176722335Y-72692470D01*
X176739799Y-72678182D01*
X176745196Y-72663259D01*
X176729638Y-72633412D01*
X176694394Y-72588642D01*
X176664422Y-72532223D01*
X176659467Y-72519741D01*
X176645467Y-72457647D01*
X176643591Y-72418136D01*
X176650577Y-72352728D01*
X176671533Y-72291765D01*
X176705507Y-72235962D01*
X176748316Y-72188404D01*
X176751547Y-72185397D01*
X176805109Y-72143379D01*
X176863661Y-72109450D01*
X176877283Y-72102843D01*
X176940226Y-72077291D01*
X177003816Y-72058262D01*
X177043344Y-72049183D01*
X177109790Y-72037852D01*
X177175002Y-72032509D01*
X177218930Y-72033307D01*
X177282636Y-72043093D01*
X177341173Y-72066329D01*
X177391554Y-72109442D01*
X177412614Y-72143168D01*
X177431613Y-72203904D01*
X177436110Y-72259061D01*
X177431087Y-72323782D01*
X177420235Y-72368286D01*
X177396618Y-72428508D01*
X177384990Y-72452111D01*
X177352023Y-72508501D01*
X177350064Y-72511486D01*
X177334505Y-72546413D01*
X177337998Y-72559748D01*
X177351651Y-72565781D01*
X177380228Y-72565146D01*
X177429443Y-72556573D01*
G37*
G36*
X177429443Y-73519281D02*
G01*
X177465639Y-73510390D01*
X177491358Y-73501500D01*
X177509774Y-73490704D01*
X177529778Y-73472606D01*
X177561212Y-73428789D01*
X177590506Y-73372007D01*
X177598361Y-73353538D01*
X177618820Y-73292069D01*
X177627572Y-73256378D01*
X177637382Y-73191019D01*
X177639321Y-73143977D01*
X177635724Y-73074291D01*
X177624933Y-73010497D01*
X177604755Y-72947127D01*
X177602489Y-72941720D01*
X177569775Y-72882379D01*
X177526880Y-72832951D01*
X177492628Y-72805506D01*
X177432722Y-72773193D01*
X177368786Y-72752909D01*
X177310057Y-72742955D01*
X177245601Y-72739509D01*
X177175469Y-72742743D01*
X177108364Y-72751227D01*
X177055092Y-72761053D01*
X176991938Y-72776047D01*
X176923633Y-72796904D01*
X176859455Y-72821730D01*
X176799405Y-72850525D01*
X176792189Y-72854403D01*
X176737020Y-72887087D01*
X176680459Y-72927225D01*
X176629725Y-72970930D01*
X176599139Y-73002048D01*
X176558192Y-73051470D01*
X176519705Y-73110037D01*
X176488599Y-73172449D01*
X176480706Y-73191922D01*
X176459441Y-73258693D01*
X176446052Y-73327635D01*
X176440736Y-73391539D01*
X176440381Y-73413231D01*
X176444646Y-73478450D01*
X176448637Y-73502453D01*
X176465099Y-73565529D01*
X176469910Y-73578656D01*
X176498226Y-73636014D01*
X176500392Y-73639302D01*
X176529921Y-73674546D01*
X176550242Y-73686612D01*
X176571515Y-73689152D01*
X176601679Y-73686929D01*
X176644544Y-73679309D01*
X176691219Y-73667878D01*
X176722335Y-73655178D01*
X176739799Y-73640889D01*
X176745196Y-73625966D01*
X176729638Y-73596120D01*
X176694394Y-73551350D01*
X176664422Y-73494931D01*
X176659467Y-73482449D01*
X176645467Y-73420355D01*
X176643591Y-73380844D01*
X176650577Y-73315436D01*
X176671533Y-73254473D01*
X176705507Y-73198669D01*
X176748316Y-73151112D01*
X176751547Y-73148105D01*
X176805109Y-73106087D01*
X176863661Y-73072157D01*
X176877283Y-73065551D01*
X176940226Y-73039999D01*
X177003816Y-73020970D01*
X177043344Y-73011891D01*
X177109790Y-73000560D01*
X177175002Y-72995217D01*
X177218930Y-72996015D01*
X177282636Y-73005801D01*
X177341173Y-73029037D01*
X177391554Y-73072149D01*
X177412614Y-73105875D01*
X177431613Y-73166611D01*
X177436110Y-73221769D01*
X177431087Y-73286490D01*
X177420235Y-73330994D01*
X177396618Y-73391215D01*
X177384990Y-73414818D01*
X177352023Y-73471208D01*
X177350064Y-73474194D01*
X177334505Y-73509120D01*
X177337998Y-73522456D01*
X177351651Y-73528489D01*
X177380228Y-73527854D01*
X177429443Y-73519281D01*
G37*
G36*
X202192464Y-94746699D02*
G01*
X202234694Y-94735903D01*
X202262953Y-94723520D01*
X202278511Y-94709232D01*
X202283591Y-94693991D01*
X202283591Y-94411085D01*
X203221215Y-94216130D01*
X203237408Y-94206922D01*
X203249157Y-94185648D01*
X203256459Y-94148817D01*
X203259000Y-94092934D01*
X203256459Y-94038004D01*
X203249157Y-94004030D01*
X203237408Y-93987836D01*
X203221215Y-93985614D01*
X202283591Y-94180568D01*
X202283591Y-93897662D01*
X202278511Y-93883374D01*
X202262953Y-93876071D01*
X202234694Y-93875436D01*
X202192464Y-93882103D01*
X202149282Y-93893217D01*
X202120706Y-93905600D01*
X202105465Y-93919253D01*
X202100702Y-93935446D01*
X202100702Y-94731775D01*
X202105465Y-94745111D01*
X202120706Y-94753049D01*
X202149282Y-94753684D01*
X202192464Y-94746699D01*
G37*
G36*
X203165967Y-95498576D02*
G01*
X203215500Y-95508419D01*
X203244076Y-95496988D01*
X203256459Y-95456346D01*
X203258960Y-95391404D01*
X203259000Y-95379508D01*
X203257412Y-95315052D01*
X203251697Y-95278855D01*
X203240584Y-95261709D01*
X203222485Y-95255041D01*
X202808445Y-95128988D01*
X203222485Y-94831475D01*
X203240584Y-94816235D01*
X203251697Y-94794326D01*
X203257412Y-94755589D01*
X203259000Y-94692086D01*
X203257055Y-94628603D01*
X203256459Y-94622233D01*
X203244076Y-94591116D01*
X203215500Y-94593656D01*
X203165967Y-94625725D01*
X202664928Y-95000711D01*
X202193734Y-94847351D01*
X202142932Y-94836238D01*
X202114673Y-94846399D01*
X202102925Y-94885771D01*
X202100737Y-94951129D01*
X202100702Y-94963244D01*
X202102607Y-95028018D01*
X202108323Y-95064849D01*
X202119436Y-95082313D01*
X202137217Y-95089298D01*
X202516648Y-95209002D01*
X202137217Y-95480795D01*
X202119436Y-95495401D01*
X202108323Y-95515722D01*
X202102607Y-95551919D01*
X202100702Y-95613834D01*
X202102528Y-95677606D01*
X202102925Y-95682418D01*
X202114990Y-95715122D01*
X202143249Y-95713852D01*
X202193734Y-95684005D01*
X202662070Y-95335055D01*
X203165967Y-95498576D01*
G37*
G36*
X203237726Y-96097093D02*
G01*
X203249157Y-96112969D01*
X203256459Y-96146943D01*
X203259000Y-96201556D01*
X203256459Y-96258073D01*
X203249474Y-96294270D01*
X203238043Y-96315226D01*
X203222168Y-96324434D01*
X202791616Y-96413974D01*
X202791616Y-96485732D01*
X202803047Y-96547965D01*
X202836704Y-96590512D01*
X202892269Y-96617819D01*
X202904998Y-96621811D01*
X202968155Y-96637822D01*
X203220580Y-96686720D01*
X203238678Y-96691482D01*
X203250744Y-96707041D01*
X203257412Y-96740062D01*
X203259000Y-96798168D01*
X203258993Y-96803574D01*
X203257412Y-96867704D01*
X203251062Y-96907393D01*
X203240266Y-96926127D01*
X203223755Y-96933112D01*
X203199624Y-96933747D01*
X203150727Y-96926762D01*
X202926243Y-96878182D01*
X202916291Y-96876004D01*
X202853849Y-96858813D01*
X202796697Y-96833412D01*
X202754150Y-96800390D01*
X202723986Y-96759113D01*
X202708273Y-96803204D01*
X202678898Y-96861988D01*
X202656558Y-96895476D01*
X202613173Y-96944542D01*
X202583361Y-96969844D01*
X202527126Y-97004870D01*
X202482951Y-97023893D01*
X202420441Y-97041385D01*
X202362852Y-97049450D01*
X202297562Y-97046782D01*
X202262396Y-97038375D01*
X202204847Y-97008363D01*
X202177462Y-96983210D01*
X202141344Y-96928984D01*
X202120547Y-96875245D01*
X202107053Y-96813091D01*
X202102607Y-96761653D01*
X202102058Y-96752419D01*
X202100702Y-96688625D01*
X202100702Y-96622899D01*
X202283591Y-96622899D01*
X202286449Y-96683545D01*
X202293434Y-96721964D01*
X202302821Y-96746929D01*
X202348364Y-96793722D01*
X202379962Y-96802519D01*
X202443937Y-96799120D01*
X202450841Y-96797540D01*
X202511250Y-96772766D01*
X202516833Y-96769219D01*
X202563323Y-96725139D01*
X202569837Y-96715854D01*
X202596979Y-96656873D01*
X202602658Y-96634152D01*
X202608727Y-96569239D01*
X202608727Y-96452076D01*
X202283591Y-96519706D01*
X202283591Y-96622899D01*
X202100702Y-96622899D01*
X202100702Y-96396193D01*
X202118166Y-96344120D01*
X202174683Y-96312686D01*
X203221533Y-96095188D01*
X203237726Y-96097093D01*
G37*
G36*
X203165967Y-97935826D02*
G01*
X203215500Y-97945669D01*
X203244076Y-97934239D01*
X203256459Y-97893597D01*
X203258960Y-97828655D01*
X203259000Y-97816758D01*
X203257412Y-97752302D01*
X203251697Y-97716106D01*
X203240584Y-97698960D01*
X203222485Y-97692292D01*
X202808445Y-97566238D01*
X203222485Y-97268726D01*
X203240584Y-97253485D01*
X203251697Y-97231577D01*
X203257412Y-97192840D01*
X203259000Y-97129337D01*
X203257055Y-97065853D01*
X203256459Y-97059483D01*
X203244076Y-97028367D01*
X203215500Y-97030907D01*
X203165967Y-97062976D01*
X202664928Y-97437962D01*
X202193734Y-97284602D01*
X202142932Y-97273489D01*
X202114673Y-97283649D01*
X202102925Y-97323021D01*
X202100737Y-97388380D01*
X202100702Y-97400495D01*
X202102607Y-97465268D01*
X202108323Y-97502100D01*
X202119436Y-97519563D01*
X202137217Y-97526549D01*
X202516648Y-97646252D01*
X202137217Y-97918046D01*
X202119436Y-97932651D01*
X202108323Y-97952972D01*
X202102607Y-97989169D01*
X202100702Y-98051085D01*
X202102528Y-98114857D01*
X202102925Y-98119668D01*
X202114990Y-98152372D01*
X202143249Y-98151102D01*
X202193734Y-98121256D01*
X202662070Y-97772306D01*
X203165967Y-97935826D01*
G37*
G36*
X202271208Y-99636441D02*
G01*
X202315660Y-99625010D01*
X202345189Y-99612944D01*
X202360430Y-99599926D01*
X202364875Y-99585638D01*
X202349000Y-99551981D01*
X202316405Y-99496670D01*
X202314073Y-99491971D01*
X202289665Y-99431913D01*
X202279464Y-99399256D01*
X202266828Y-99335047D01*
X202263270Y-99268122D01*
X202268091Y-99202724D01*
X202282554Y-99140679D01*
X202292482Y-99113175D01*
X202322721Y-99052721D01*
X202362320Y-98997495D01*
X202375353Y-98982676D01*
X202422310Y-98938089D01*
X202476498Y-98899267D01*
X202503947Y-98883293D01*
X202562380Y-98855699D01*
X202625278Y-98834356D01*
X202669690Y-98823600D01*
X202735458Y-98813013D01*
X202800871Y-98809679D01*
X202845594Y-98812805D01*
X202911365Y-98827684D01*
X202969679Y-98856012D01*
X202972918Y-98858210D01*
X203020154Y-98903052D01*
X203050074Y-98953782D01*
X203069601Y-99018158D01*
X203076009Y-99082171D01*
X203076110Y-99091901D01*
X203070233Y-99157412D01*
X203067855Y-99169692D01*
X203048684Y-99231366D01*
X203042771Y-99244944D01*
X202791616Y-99297016D01*
X202791616Y-99083011D01*
X202770978Y-99062690D01*
X202706607Y-99067471D01*
X202700489Y-99068722D01*
X202657307Y-99079836D01*
X202629366Y-99091901D01*
X202613808Y-99105872D01*
X202608727Y-99121113D01*
X202608727Y-99502766D01*
X202613808Y-99526263D01*
X202628413Y-99542456D01*
X202651592Y-99550711D01*
X202683026Y-99548489D01*
X203138661Y-99453869D01*
X203185336Y-99434818D01*
X203216452Y-99390683D01*
X203236420Y-99328990D01*
X203240266Y-99315432D01*
X203255642Y-99253110D01*
X203261540Y-99223988D01*
X203271663Y-99159810D01*
X203274875Y-99130638D01*
X203278886Y-99066610D01*
X203279321Y-99037606D01*
X203276840Y-98972118D01*
X203268119Y-98903948D01*
X203253119Y-98841604D01*
X203239631Y-98803279D01*
X203211154Y-98745469D01*
X203171807Y-98690903D01*
X203124055Y-98645792D01*
X203067982Y-98610578D01*
X203004104Y-98585270D01*
X202939261Y-98570858D01*
X202875715Y-98565137D01*
X202807598Y-98566549D01*
X202743211Y-98573792D01*
X202692551Y-98582923D01*
X202623095Y-98599930D01*
X202557290Y-98621422D01*
X202495136Y-98647399D01*
X202436634Y-98677861D01*
X202382081Y-98712450D01*
X202325785Y-98755490D01*
X202274863Y-98802901D01*
X202243902Y-98836936D01*
X202202215Y-98891329D01*
X202166455Y-98949489D01*
X202136623Y-99011417D01*
X202122611Y-99047449D01*
X202102197Y-99114838D01*
X202088464Y-99184839D01*
X202081866Y-99249255D01*
X202080381Y-99298921D01*
X202082474Y-99364335D01*
X202089907Y-99430373D01*
X202102785Y-99493776D01*
X202113403Y-99530708D01*
X202138025Y-99590668D01*
X202142932Y-99599291D01*
X202170556Y-99634853D01*
X202204530Y-99645013D01*
X202268471Y-99637006D01*
X202271208Y-99636441D01*
G37*
G36*
X203175175Y-100633757D02*
G01*
X203212007Y-100618834D01*
X203238678Y-100594385D01*
X203254237Y-100563269D01*
X203259000Y-100529612D01*
X203259000Y-100431817D01*
X203252649Y-100380380D01*
X203229153Y-100344183D01*
X203183113Y-100317512D01*
X203121160Y-100297997D01*
X203106909Y-100294333D01*
X202545224Y-100129225D01*
X202482964Y-100112859D01*
X202437269Y-100101919D01*
X202372905Y-100088579D01*
X202324233Y-100080010D01*
X202324233Y-100078422D01*
X202390753Y-100067547D01*
X202456955Y-100055879D01*
X202519777Y-100044237D01*
X202584414Y-100031340D01*
X202593169Y-100029525D01*
X203219310Y-99899344D01*
X203235821Y-99890771D01*
X203248521Y-99871720D01*
X203256459Y-99838381D01*
X203259000Y-99786308D01*
X203256459Y-99736140D01*
X203248839Y-99706294D01*
X203236773Y-99692958D01*
X203220580Y-99692006D01*
X202184526Y-99907599D01*
X202127225Y-99937674D01*
X202121658Y-99944431D01*
X202100723Y-100005459D01*
X202100702Y-100007616D01*
X202100702Y-100130812D01*
X202106418Y-100185425D01*
X202125468Y-100222257D01*
X202162618Y-100248293D01*
X202220723Y-100268297D01*
X202641431Y-100401018D01*
X202702718Y-100419383D01*
X202716683Y-100423562D01*
X202778836Y-100441411D01*
X202790346Y-100444518D01*
X202853830Y-100461014D01*
X202862740Y-100463251D01*
X202924973Y-100478879D01*
X202933863Y-100481032D01*
X202933863Y-100481985D01*
X202870598Y-100492542D01*
X202804635Y-100504528D01*
X202738909Y-100517388D01*
X202676358Y-100529930D01*
X202138804Y-100641695D01*
X202122928Y-100650586D01*
X202110545Y-100670907D01*
X202102925Y-100704563D01*
X202100702Y-100756318D01*
X202102925Y-100805851D01*
X202110545Y-100835062D01*
X202123246Y-100847763D01*
X202139122Y-100849033D01*
X203175175Y-100633757D01*
G37*
G36*
X203241536Y-100906503D02*
G01*
X203259000Y-100951273D01*
X203259000Y-101221161D01*
X203257404Y-101285211D01*
X203251674Y-101354355D01*
X203241776Y-101419173D01*
X203225660Y-101486922D01*
X203214212Y-101522526D01*
X203188918Y-101583527D01*
X203157595Y-101640560D01*
X203120245Y-101693625D01*
X203091885Y-101726741D01*
X203043902Y-101772898D01*
X202989389Y-101814836D01*
X202935451Y-101848572D01*
X202921102Y-101856468D01*
X202860109Y-101885620D01*
X202793361Y-101910882D01*
X202730236Y-101929796D01*
X202662705Y-101945732D01*
X202620456Y-101953669D01*
X202556243Y-101961820D01*
X202488985Y-101964301D01*
X202420441Y-101958750D01*
X202364164Y-101946684D01*
X202302612Y-101922931D01*
X202244537Y-101885722D01*
X202203328Y-101846001D01*
X202165949Y-101793069D01*
X202136899Y-101730457D01*
X202122795Y-101685134D01*
X202109751Y-101619405D01*
X202102965Y-101553938D01*
X202100702Y-101481842D01*
X202100702Y-101430722D01*
X202283591Y-101430722D01*
X202284618Y-101468827D01*
X202292834Y-101535059D01*
X202312803Y-101595512D01*
X202345281Y-101644442D01*
X202394404Y-101685052D01*
X202451319Y-101709104D01*
X202517918Y-101719661D01*
X202540423Y-101720432D01*
X202606407Y-101717063D01*
X202671595Y-101706643D01*
X202726407Y-101693549D01*
X202788010Y-101673998D01*
X202848452Y-101648220D01*
X202871462Y-101636208D01*
X202925630Y-101601203D01*
X202974823Y-101557411D01*
X202987127Y-101543738D01*
X203023939Y-101491819D01*
X203051027Y-101433579D01*
X203060801Y-101401849D01*
X203072583Y-101336712D01*
X203076110Y-101269424D01*
X203076110Y-101149720D01*
X202283591Y-101314511D01*
X202283591Y-101430722D01*
X202100702Y-101430722D01*
X202100702Y-101191950D01*
X202118166Y-101139877D01*
X202175001Y-101108443D01*
X203184701Y-100898565D01*
X203241536Y-100906503D01*
G37*
G36*
X203212960Y-103013538D02*
G01*
X203237408Y-102997027D01*
X203251697Y-102971308D01*
X203257729Y-102927173D01*
X203258995Y-102861741D01*
X203259000Y-102856367D01*
X203258682Y-102796674D01*
X203256459Y-102754762D01*
X203251062Y-102727456D01*
X203242171Y-102710945D01*
X203229471Y-102702372D01*
X203210102Y-102698879D01*
X202193099Y-102574096D01*
X202142614Y-102571556D01*
X202114673Y-102586161D01*
X202102925Y-102625533D01*
X202100722Y-102690825D01*
X202100702Y-102699515D01*
X202102607Y-102761748D01*
X202108640Y-102795404D01*
X202121976Y-102810010D01*
X202144202Y-102814455D01*
X203029436Y-102905582D01*
X203029436Y-102906535D01*
X202148647Y-103359630D01*
X202124198Y-103373283D01*
X202109593Y-103394239D01*
X202102607Y-103431706D01*
X202100702Y-103496796D01*
X202103560Y-103558712D01*
X202116260Y-103586971D01*
X202145154Y-103586018D01*
X202194687Y-103562205D01*
X203212960Y-103013538D01*
G37*
G36*
X203069443Y-104309002D02*
G01*
X203105639Y-104300111D01*
X203131358Y-104291221D01*
X203149774Y-104280425D01*
X203169778Y-104262327D01*
X203201212Y-104218510D01*
X203230506Y-104161727D01*
X203238361Y-104143258D01*
X203258820Y-104081789D01*
X203267572Y-104046099D01*
X203277382Y-103980739D01*
X203279321Y-103933698D01*
X203275724Y-103864012D01*
X203264933Y-103800217D01*
X203244755Y-103736848D01*
X203242489Y-103731441D01*
X203209775Y-103672100D01*
X203166880Y-103622672D01*
X203132628Y-103595226D01*
X203072722Y-103562914D01*
X203008786Y-103542630D01*
X202950057Y-103532676D01*
X202885601Y-103529229D01*
X202815469Y-103532464D01*
X202748364Y-103540947D01*
X202695092Y-103550774D01*
X202631938Y-103565768D01*
X202563633Y-103586625D01*
X202499455Y-103611451D01*
X202439405Y-103640245D01*
X202432189Y-103644124D01*
X202377020Y-103676808D01*
X202320459Y-103716946D01*
X202269725Y-103760651D01*
X202239139Y-103791769D01*
X202198192Y-103841191D01*
X202159705Y-103899758D01*
X202128599Y-103962170D01*
X202120706Y-103981643D01*
X202099441Y-104048414D01*
X202086052Y-104117356D01*
X202080736Y-104181260D01*
X202080381Y-104202951D01*
X202084646Y-104268171D01*
X202088637Y-104292173D01*
X202105099Y-104355250D01*
X202109910Y-104368377D01*
X202138226Y-104425735D01*
X202140392Y-104429023D01*
X202169921Y-104464267D01*
X202190242Y-104476332D01*
X202211515Y-104478872D01*
X202241679Y-104476650D01*
X202284544Y-104469030D01*
X202331219Y-104457599D01*
X202362335Y-104444898D01*
X202379799Y-104430610D01*
X202385196Y-104415687D01*
X202369638Y-104385840D01*
X202334394Y-104341071D01*
X202304422Y-104284652D01*
X202299467Y-104272170D01*
X202285467Y-104210076D01*
X202283591Y-104170565D01*
X202290577Y-104105157D01*
X202311533Y-104044193D01*
X202345507Y-103988390D01*
X202388316Y-103940833D01*
X202391547Y-103937826D01*
X202445109Y-103895808D01*
X202503661Y-103861878D01*
X202517283Y-103855272D01*
X202580226Y-103829719D01*
X202643816Y-103810691D01*
X202683344Y-103801612D01*
X202749790Y-103790281D01*
X202815002Y-103784938D01*
X202858930Y-103785736D01*
X202922636Y-103795522D01*
X202981173Y-103818757D01*
X203031554Y-103861870D01*
X203052614Y-103895596D01*
X203071613Y-103956332D01*
X203076110Y-104011489D01*
X203071087Y-104076210D01*
X203060235Y-104120715D01*
X203036618Y-104180936D01*
X203024990Y-104204539D01*
X202992023Y-104260929D01*
X202990064Y-104263914D01*
X202974505Y-104298841D01*
X202977998Y-104312177D01*
X202991651Y-104318210D01*
X203020228Y-104317575D01*
X203069443Y-104309002D01*
G37*
G36*
X203069443Y-105271709D02*
G01*
X203105639Y-105262819D01*
X203131358Y-105253928D01*
X203149774Y-105243133D01*
X203169778Y-105225034D01*
X203201212Y-105181217D01*
X203230506Y-105124435D01*
X203238361Y-105105966D01*
X203258820Y-105044497D01*
X203267572Y-105008806D01*
X203277382Y-104943447D01*
X203279321Y-104896406D01*
X203275724Y-104826720D01*
X203264933Y-104762925D01*
X203244755Y-104699556D01*
X203242489Y-104694148D01*
X203209775Y-104634807D01*
X203166880Y-104585379D01*
X203132628Y-104557934D01*
X203072722Y-104525622D01*
X203008786Y-104505338D01*
X202950057Y-104495383D01*
X202885601Y-104491937D01*
X202815469Y-104495171D01*
X202748364Y-104503655D01*
X202695092Y-104513482D01*
X202631938Y-104528476D01*
X202563633Y-104549332D01*
X202499455Y-104574158D01*
X202439405Y-104602953D01*
X202432189Y-104606831D01*
X202377020Y-104639516D01*
X202320459Y-104679654D01*
X202269725Y-104723358D01*
X202239139Y-104754476D01*
X202198192Y-104803899D01*
X202159705Y-104862466D01*
X202128599Y-104924877D01*
X202120706Y-104944351D01*
X202099441Y-105011122D01*
X202086052Y-105080064D01*
X202080736Y-105143967D01*
X202080381Y-105165659D01*
X202084646Y-105230878D01*
X202088637Y-105254881D01*
X202105099Y-105317957D01*
X202109910Y-105331085D01*
X202138226Y-105388442D01*
X202140392Y-105391730D01*
X202169921Y-105426974D01*
X202190242Y-105439040D01*
X202211515Y-105441580D01*
X202241679Y-105439357D01*
X202284544Y-105431737D01*
X202331219Y-105420307D01*
X202362335Y-105407606D01*
X202379799Y-105393318D01*
X202385196Y-105378394D01*
X202369638Y-105348548D01*
X202334394Y-105303778D01*
X202304422Y-105247359D01*
X202299467Y-105234877D01*
X202285467Y-105172783D01*
X202283591Y-105133272D01*
X202290577Y-105067864D01*
X202311533Y-105006901D01*
X202345507Y-104951098D01*
X202388316Y-104903540D01*
X202391547Y-104900533D01*
X202445109Y-104858515D01*
X202503661Y-104824586D01*
X202517283Y-104817979D01*
X202580226Y-104792427D01*
X202643816Y-104773398D01*
X202683344Y-104764319D01*
X202749790Y-104752988D01*
X202815002Y-104747645D01*
X202858930Y-104748443D01*
X202922636Y-104758229D01*
X202981173Y-104781465D01*
X203031554Y-104824578D01*
X203052614Y-104858304D01*
X203071613Y-104919040D01*
X203076110Y-104974197D01*
X203071087Y-105038918D01*
X203060235Y-105083422D01*
X203036618Y-105143644D01*
X203024990Y-105167247D01*
X202992023Y-105223637D01*
X202990064Y-105226622D01*
X202974505Y-105261549D01*
X202977998Y-105274884D01*
X202991651Y-105280917D01*
X203020228Y-105280282D01*
X203069443Y-105271709D01*
G37*
G36*
X193705346Y-113569176D02*
G01*
X193721954Y-113634145D01*
X193741005Y-113677620D01*
X193762987Y-113701556D01*
X193786435Y-113709371D01*
X194221675Y-113709371D01*
X194521606Y-115151870D01*
X194535772Y-115176782D01*
X194568500Y-115194856D01*
X194625164Y-115206092D01*
X194711138Y-115210000D01*
X194795646Y-115206092D01*
X194847914Y-115194856D01*
X194872827Y-115176782D01*
X194876246Y-115151870D01*
X194576316Y-113709371D01*
X195011557Y-113709371D01*
X195033539Y-113701556D01*
X195044774Y-113677620D01*
X195045751Y-113634145D01*
X195035492Y-113569176D01*
X195018395Y-113502742D01*
X194999345Y-113458778D01*
X194978340Y-113435331D01*
X194953427Y-113428004D01*
X193728305Y-113428004D01*
X193707788Y-113435331D01*
X193695576Y-113458778D01*
X193694599Y-113502742D01*
X193705346Y-113569176D01*
G37*
G36*
X192540796Y-114412791D02*
G01*
X192558870Y-114479713D01*
X192579875Y-114523189D01*
X192603322Y-114546636D01*
X192627746Y-114553475D01*
X193045890Y-114553475D01*
X193144076Y-115026329D01*
X193155800Y-115050753D01*
X193182666Y-115068827D01*
X193228095Y-115081039D01*
X193295995Y-115084947D01*
X193362429Y-115081039D01*
X193402973Y-115068827D01*
X193423001Y-115050753D01*
X193424955Y-115026329D01*
X193326769Y-114553475D01*
X193743448Y-114553475D01*
X193763964Y-114546636D01*
X193777642Y-114523189D01*
X193781061Y-114479713D01*
X193771780Y-114412791D01*
X193754194Y-114346845D01*
X193733678Y-114302882D01*
X193711696Y-114279434D01*
X193688737Y-114272107D01*
X193268151Y-114272107D01*
X193170454Y-113801695D01*
X193157753Y-113776294D01*
X193130398Y-113756755D01*
X193084969Y-113745031D01*
X193016581Y-113740635D01*
X192950147Y-113745031D01*
X192909603Y-113756755D01*
X192891040Y-113776294D01*
X192889575Y-113801695D01*
X192987272Y-114272107D01*
X192565220Y-114272107D01*
X192545681Y-114279434D01*
X192532980Y-114302882D01*
X192531026Y-114346845D01*
X192540796Y-114412791D01*
G37*
G36*
X189027607Y-113569176D02*
G01*
X189044215Y-113634145D01*
X189063266Y-113677620D01*
X189085248Y-113701556D01*
X189108696Y-113709371D01*
X189543936Y-113709371D01*
X189843866Y-115151870D01*
X189858033Y-115176782D01*
X189890761Y-115194856D01*
X189947425Y-115206092D01*
X190033399Y-115210000D01*
X190117907Y-115206092D01*
X190170175Y-115194856D01*
X190195088Y-115176782D01*
X190198507Y-115151870D01*
X189898577Y-113709371D01*
X190333818Y-113709371D01*
X190355800Y-113701556D01*
X190367035Y-113677620D01*
X190368012Y-113634145D01*
X190357753Y-113569176D01*
X190340656Y-113502742D01*
X190321606Y-113458778D01*
X190300601Y-113435331D01*
X190275688Y-113428004D01*
X189050566Y-113428004D01*
X189030049Y-113435331D01*
X189017837Y-113458778D01*
X189016860Y-113502742D01*
X189027607Y-113569176D01*
G37*
G36*
X188610929Y-114505115D02*
G01*
X188639861Y-114599842D01*
X188649030Y-114616001D01*
X188701787Y-114647264D01*
X189261592Y-114647264D01*
X189303113Y-114615512D01*
X189297217Y-114514705D01*
X189295297Y-114505115D01*
X189266026Y-114410951D01*
X189258172Y-114397648D01*
X189203462Y-114365896D01*
X188643657Y-114365896D01*
X188618256Y-114372735D01*
X188603113Y-114396182D01*
X188600670Y-114439658D01*
X188610929Y-114505115D01*
G37*
G36*
X125723565Y-114442791D02*
G01*
X125741639Y-114509713D01*
X125762644Y-114553189D01*
X125786092Y-114576636D01*
X125810516Y-114583475D01*
X126228660Y-114583475D01*
X126326845Y-115056329D01*
X126338569Y-115080753D01*
X126365436Y-115098827D01*
X126410865Y-115111039D01*
X126478764Y-115114947D01*
X126545198Y-115111039D01*
X126585743Y-115098827D01*
X126605771Y-115080753D01*
X126607725Y-115056329D01*
X126509539Y-114583475D01*
X126926217Y-114583475D01*
X126946734Y-114576636D01*
X126960411Y-114553189D01*
X126963831Y-114509713D01*
X126954549Y-114442791D01*
X126936964Y-114376845D01*
X126916448Y-114332882D01*
X126894466Y-114309434D01*
X126871507Y-114302107D01*
X126450921Y-114302107D01*
X126353224Y-113831695D01*
X126340523Y-113806294D01*
X126313168Y-113786755D01*
X126267739Y-113775031D01*
X126199351Y-113770635D01*
X126132916Y-113775031D01*
X126092372Y-113786755D01*
X126073810Y-113806294D01*
X126072344Y-113831695D01*
X126170041Y-114302107D01*
X125747990Y-114302107D01*
X125728450Y-114309434D01*
X125715750Y-114332882D01*
X125713796Y-114376845D01*
X125723565Y-114442791D01*
G37*
G36*
X121088325Y-114535115D02*
G01*
X121117257Y-114629842D01*
X121126427Y-114646001D01*
X121179183Y-114677264D01*
X121738988Y-114677264D01*
X121780509Y-114645512D01*
X121774613Y-114544705D01*
X121772693Y-114535115D01*
X121743422Y-114440951D01*
X121735568Y-114427648D01*
X121680858Y-114395896D01*
X121121053Y-114395896D01*
X121095652Y-114402735D01*
X121080509Y-114426182D01*
X121078066Y-114469658D01*
X121088325Y-114535115D01*
G37*
G36*
X185185175Y-68714951D02*
G01*
X185222007Y-68700028D01*
X185248678Y-68675579D01*
X185264237Y-68644463D01*
X185269000Y-68610806D01*
X185269000Y-68513011D01*
X185262649Y-68461574D01*
X185239153Y-68425377D01*
X185193113Y-68398705D01*
X185131160Y-68379190D01*
X185116909Y-68375527D01*
X184555224Y-68210419D01*
X184492964Y-68194052D01*
X184447269Y-68183112D01*
X184382905Y-68169773D01*
X184334233Y-68161204D01*
X184334233Y-68159616D01*
X184400753Y-68148741D01*
X184466955Y-68137072D01*
X184529777Y-68125431D01*
X184594414Y-68112533D01*
X184603169Y-68110719D01*
X185229310Y-67980537D01*
X185245821Y-67971964D01*
X185258521Y-67952913D01*
X185266459Y-67919574D01*
X185269000Y-67867502D01*
X185266459Y-67817334D01*
X185258839Y-67787488D01*
X185246773Y-67774152D01*
X185230580Y-67773199D01*
X184194526Y-67988793D01*
X184137225Y-68018867D01*
X184131658Y-68025624D01*
X184110723Y-68086653D01*
X184110702Y-68088810D01*
X184110702Y-68212006D01*
X184116418Y-68266619D01*
X184135468Y-68303451D01*
X184172618Y-68329487D01*
X184230723Y-68349490D01*
X184651431Y-68482212D01*
X184712718Y-68500577D01*
X184726683Y-68504756D01*
X184788836Y-68522605D01*
X184800346Y-68525712D01*
X184863830Y-68542208D01*
X184872740Y-68544445D01*
X184934973Y-68560073D01*
X184943863Y-68562226D01*
X184943863Y-68563179D01*
X184880598Y-68573736D01*
X184814635Y-68585722D01*
X184748909Y-68598582D01*
X184686358Y-68611123D01*
X184148804Y-68722889D01*
X184132928Y-68731779D01*
X184120545Y-68752100D01*
X184112925Y-68785757D01*
X184110702Y-68837512D01*
X184112925Y-68887045D01*
X184120545Y-68916256D01*
X184133246Y-68928957D01*
X184149122Y-68930227D01*
X185185175Y-68714951D01*
G37*
G36*
X185079443Y-69785296D02*
G01*
X185115639Y-69776406D01*
X185141358Y-69767516D01*
X185159774Y-69756720D01*
X185179778Y-69738622D01*
X185211212Y-69694805D01*
X185240506Y-69638022D01*
X185248361Y-69619553D01*
X185268820Y-69558084D01*
X185277572Y-69522393D01*
X185287382Y-69457034D01*
X185289321Y-69409993D01*
X185285724Y-69340307D01*
X185274933Y-69276512D01*
X185254755Y-69213143D01*
X185252489Y-69207735D01*
X185219775Y-69148395D01*
X185176880Y-69098966D01*
X185142628Y-69071521D01*
X185082722Y-69039209D01*
X185018786Y-69018925D01*
X184960057Y-69008971D01*
X184895601Y-69005524D01*
X184825469Y-69008759D01*
X184758364Y-69017242D01*
X184705092Y-69027069D01*
X184641938Y-69042063D01*
X184573633Y-69062920D01*
X184509455Y-69087745D01*
X184449405Y-69116540D01*
X184442189Y-69120419D01*
X184387020Y-69153103D01*
X184330459Y-69193241D01*
X184279725Y-69236946D01*
X184249139Y-69268063D01*
X184208192Y-69317486D01*
X184169705Y-69376053D01*
X184138599Y-69438465D01*
X184130706Y-69457938D01*
X184109441Y-69524709D01*
X184096052Y-69593651D01*
X184090736Y-69657554D01*
X184090381Y-69679246D01*
X184094646Y-69744466D01*
X184098637Y-69768468D01*
X184115099Y-69831545D01*
X184119910Y-69844672D01*
X184148226Y-69902029D01*
X184150392Y-69905317D01*
X184179921Y-69940562D01*
X184200242Y-69952627D01*
X184221515Y-69955167D01*
X184251679Y-69952945D01*
X184294544Y-69945324D01*
X184341219Y-69933894D01*
X184372335Y-69921193D01*
X184389799Y-69906905D01*
X184395196Y-69891982D01*
X184379638Y-69862135D01*
X184344394Y-69817366D01*
X184314422Y-69760947D01*
X184309467Y-69748465D01*
X184295467Y-69686370D01*
X184293591Y-69646860D01*
X184300577Y-69581451D01*
X184321533Y-69520488D01*
X184355507Y-69464685D01*
X184398316Y-69417127D01*
X184401547Y-69414121D01*
X184455109Y-69372103D01*
X184513661Y-69338173D01*
X184527283Y-69331567D01*
X184590226Y-69306014D01*
X184653816Y-69286986D01*
X184693344Y-69277906D01*
X184759790Y-69266576D01*
X184825002Y-69261232D01*
X184868930Y-69262031D01*
X184932636Y-69271817D01*
X184991173Y-69295052D01*
X185041554Y-69338165D01*
X185062614Y-69371891D01*
X185081613Y-69432627D01*
X185086110Y-69487784D01*
X185081087Y-69552505D01*
X185070235Y-69597010D01*
X185046618Y-69657231D01*
X185034990Y-69680834D01*
X185002023Y-69737224D01*
X185000064Y-69740209D01*
X184984505Y-69775136D01*
X184987998Y-69788472D01*
X185001651Y-69794504D01*
X185030228Y-69793869D01*
X185079443Y-69785296D01*
G37*
G36*
X185251536Y-70361905D02*
G01*
X185269000Y-70406675D01*
X185269000Y-70676563D01*
X185267404Y-70740613D01*
X185261674Y-70809757D01*
X185251776Y-70874575D01*
X185235660Y-70942324D01*
X185224212Y-70977928D01*
X185198918Y-71038929D01*
X185167595Y-71095962D01*
X185130245Y-71149026D01*
X185101885Y-71182142D01*
X185053902Y-71228300D01*
X184999389Y-71270238D01*
X184945451Y-71303974D01*
X184931102Y-71311870D01*
X184870109Y-71341022D01*
X184803361Y-71366284D01*
X184740236Y-71385198D01*
X184672705Y-71401134D01*
X184630456Y-71409070D01*
X184566243Y-71417221D01*
X184498985Y-71419702D01*
X184430441Y-71414152D01*
X184374164Y-71402085D01*
X184312612Y-71378332D01*
X184254537Y-71341123D01*
X184213328Y-71301403D01*
X184175949Y-71248471D01*
X184146899Y-71185858D01*
X184132795Y-71140536D01*
X184119751Y-71074807D01*
X184112965Y-71009339D01*
X184110702Y-70937243D01*
X184110702Y-70886123D01*
X184293591Y-70886123D01*
X184294618Y-70924229D01*
X184302834Y-70990461D01*
X184322803Y-71050914D01*
X184355281Y-71099844D01*
X184404404Y-71140453D01*
X184461319Y-71164505D01*
X184527918Y-71175063D01*
X184550423Y-71175833D01*
X184616407Y-71172465D01*
X184681595Y-71162045D01*
X184736407Y-71148951D01*
X184798010Y-71129400D01*
X184858452Y-71103622D01*
X184881462Y-71091609D01*
X184935630Y-71056605D01*
X184984823Y-71012812D01*
X184997127Y-70999139D01*
X185033939Y-70947220D01*
X185061027Y-70888981D01*
X185070801Y-70857250D01*
X185082583Y-70792114D01*
X185086110Y-70724825D01*
X185086110Y-70605122D01*
X184293591Y-70769913D01*
X184293591Y-70886123D01*
X184110702Y-70886123D01*
X184110702Y-70647352D01*
X184128166Y-70595279D01*
X184185001Y-70563845D01*
X185194701Y-70353967D01*
X185251536Y-70361905D01*
G37*
G36*
X185231850Y-71723412D02*
G01*
X185247726Y-71714522D01*
X185259157Y-71693248D01*
X185266459Y-71657052D01*
X185269000Y-71600534D01*
X185266459Y-71545921D01*
X185259157Y-71511947D01*
X185247726Y-71495436D01*
X185231850Y-71492896D01*
X184147852Y-71718332D01*
X184131976Y-71727540D01*
X184120545Y-71749131D01*
X184113560Y-71785963D01*
X184110702Y-71841211D01*
X184113560Y-71896776D01*
X184120545Y-71930115D01*
X184131976Y-71946308D01*
X184147852Y-71948848D01*
X185231850Y-71723412D01*
G37*
G36*
X184961962Y-72013622D02*
G01*
X185021716Y-72022220D01*
X185086289Y-72041528D01*
X185146121Y-72073632D01*
X185183929Y-72105220D01*
X185225275Y-72157260D01*
X185254076Y-72214927D01*
X185262337Y-72238343D01*
X185278169Y-72302442D01*
X185286533Y-72366917D01*
X185289321Y-72437823D01*
X185288305Y-72479022D01*
X185281359Y-72550290D01*
X185267833Y-72617841D01*
X185247726Y-72681675D01*
X185233813Y-72715592D01*
X185204159Y-72773557D01*
X185168578Y-72827554D01*
X185127070Y-72877582D01*
X185101427Y-72903706D01*
X185051050Y-72947368D01*
X184995248Y-72986711D01*
X184934020Y-73021734D01*
X184875300Y-73049298D01*
X184812809Y-73073251D01*
X184746547Y-73093592D01*
X184676515Y-73110321D01*
X184621483Y-73120516D01*
X184552483Y-73129526D01*
X184480836Y-73133399D01*
X184415517Y-73130642D01*
X184356378Y-73121405D01*
X184292282Y-73101520D01*
X184232628Y-73069044D01*
X184194871Y-73037431D01*
X184153747Y-72985279D01*
X184125308Y-72927432D01*
X184117122Y-72904144D01*
X184101432Y-72840802D01*
X184093144Y-72777538D01*
X184090381Y-72708346D01*
X184091866Y-72658698D01*
X184091953Y-72657861D01*
X184293591Y-72657861D01*
X184293619Y-72663067D01*
X184299870Y-72728981D01*
X184322168Y-72791535D01*
X184349058Y-72827584D01*
X184402499Y-72864246D01*
X184463493Y-72881973D01*
X184527283Y-72886155D01*
X184560008Y-72884887D01*
X184624894Y-72878018D01*
X184689533Y-72866469D01*
X184719691Y-72859712D01*
X184782812Y-72842008D01*
X184842893Y-72820112D01*
X184856251Y-72814484D01*
X184914456Y-72784235D01*
X184969265Y-72744543D01*
X184975924Y-72738720D01*
X185020254Y-72690697D01*
X185054676Y-72635000D01*
X185063732Y-72614735D01*
X185080923Y-72552467D01*
X185086110Y-72487355D01*
X185086084Y-72482090D01*
X185080111Y-72415412D01*
X185058804Y-72352093D01*
X185032272Y-72315944D01*
X184978790Y-72279700D01*
X184916874Y-72262716D01*
X184852419Y-72258744D01*
X184819171Y-72260165D01*
X184752749Y-72267401D01*
X184686041Y-72279382D01*
X184661345Y-72284852D01*
X184599095Y-72301976D01*
X184535221Y-72325105D01*
X184522041Y-72330730D01*
X184464670Y-72360891D01*
X184410755Y-72400356D01*
X184404171Y-72406179D01*
X184360172Y-72454202D01*
X184325660Y-72509899D01*
X184316422Y-72530255D01*
X184298884Y-72592697D01*
X184293591Y-72657861D01*
X184091953Y-72657861D01*
X184098464Y-72595106D01*
X184112197Y-72527122D01*
X184132611Y-72462906D01*
X184146608Y-72428989D01*
X184176334Y-72371024D01*
X184211887Y-72317027D01*
X184253267Y-72266999D01*
X184278696Y-72241058D01*
X184328610Y-72197647D01*
X184383848Y-72158455D01*
X184444411Y-72123482D01*
X184502239Y-72096215D01*
X184563638Y-72072521D01*
X184628610Y-72052398D01*
X184697154Y-72035848D01*
X184762026Y-72023932D01*
X184831403Y-72015150D01*
X184895700Y-72011529D01*
X184961962Y-72013622D01*
G37*
G36*
X180115175Y-68172634D02*
G01*
X180152007Y-68157711D01*
X180178678Y-68133262D01*
X180194237Y-68102146D01*
X180199000Y-68068489D01*
X180199000Y-67970694D01*
X180192649Y-67919257D01*
X180169153Y-67883060D01*
X180123113Y-67856388D01*
X180061160Y-67836873D01*
X180046909Y-67833210D01*
X179485224Y-67668102D01*
X179422964Y-67651735D01*
X179377269Y-67640795D01*
X179312905Y-67627456D01*
X179264233Y-67618887D01*
X179264233Y-67617299D01*
X179330753Y-67606424D01*
X179396955Y-67594755D01*
X179459777Y-67583114D01*
X179524414Y-67570216D01*
X179533169Y-67568402D01*
X180159310Y-67438220D01*
X180175821Y-67429647D01*
X180188521Y-67410596D01*
X180196459Y-67377257D01*
X180199000Y-67325185D01*
X180196459Y-67275017D01*
X180188839Y-67245171D01*
X180176773Y-67231835D01*
X180160580Y-67230882D01*
X179124526Y-67446476D01*
X179067225Y-67476550D01*
X179061658Y-67483307D01*
X179040723Y-67544336D01*
X179040702Y-67546493D01*
X179040702Y-67669689D01*
X179046418Y-67724302D01*
X179065468Y-67761134D01*
X179102618Y-67787170D01*
X179160723Y-67807173D01*
X179581431Y-67939895D01*
X179642718Y-67958260D01*
X179656683Y-67962439D01*
X179718836Y-67980288D01*
X179730346Y-67983395D01*
X179793830Y-67999891D01*
X179802740Y-68002128D01*
X179864973Y-68017756D01*
X179873863Y-68019909D01*
X179873863Y-68020862D01*
X179810598Y-68031419D01*
X179744635Y-68043405D01*
X179678909Y-68056265D01*
X179616358Y-68068806D01*
X179078804Y-68180572D01*
X179062928Y-68189462D01*
X179050545Y-68209783D01*
X179042925Y-68243440D01*
X179040702Y-68295195D01*
X179042925Y-68344728D01*
X179050545Y-68373939D01*
X179063246Y-68386640D01*
X179079122Y-68387910D01*
X180115175Y-68172634D01*
G37*
G36*
X180177726Y-68431727D02*
G01*
X180189157Y-68447603D01*
X180196459Y-68481577D01*
X180199000Y-68536190D01*
X180196459Y-68592707D01*
X180189474Y-68628904D01*
X180178043Y-68649860D01*
X180162168Y-68659068D01*
X179731616Y-68748608D01*
X179731616Y-68820366D01*
X179743047Y-68882599D01*
X179776704Y-68925146D01*
X179832269Y-68952453D01*
X179844998Y-68956445D01*
X179908155Y-68972456D01*
X180160580Y-69021354D01*
X180178678Y-69026116D01*
X180190744Y-69041675D01*
X180197412Y-69074696D01*
X180199000Y-69132802D01*
X180198993Y-69138208D01*
X180197412Y-69202337D01*
X180191062Y-69242027D01*
X180180266Y-69260760D01*
X180163755Y-69267746D01*
X180139624Y-69268381D01*
X180090727Y-69261395D01*
X179866243Y-69212815D01*
X179856291Y-69210638D01*
X179793849Y-69193447D01*
X179736697Y-69168046D01*
X179694150Y-69135024D01*
X179663986Y-69093747D01*
X179648273Y-69137838D01*
X179618898Y-69196622D01*
X179596558Y-69230110D01*
X179553173Y-69279176D01*
X179523361Y-69304478D01*
X179467126Y-69339504D01*
X179422951Y-69358527D01*
X179360441Y-69376019D01*
X179302852Y-69384084D01*
X179237562Y-69381416D01*
X179202396Y-69373009D01*
X179144847Y-69342997D01*
X179117462Y-69317844D01*
X179081344Y-69263618D01*
X179060547Y-69209878D01*
X179047053Y-69147725D01*
X179042607Y-69096287D01*
X179042058Y-69087053D01*
X179040702Y-69023259D01*
X179040702Y-68957533D01*
X179223591Y-68957533D01*
X179226449Y-69018178D01*
X179233434Y-69056598D01*
X179242821Y-69081562D01*
X179288364Y-69128356D01*
X179319962Y-69137152D01*
X179383937Y-69133754D01*
X179390841Y-69132174D01*
X179451250Y-69107400D01*
X179456833Y-69103852D01*
X179503323Y-69059773D01*
X179509837Y-69050488D01*
X179536979Y-68991507D01*
X179542658Y-68968785D01*
X179548727Y-68903873D01*
X179548727Y-68786709D01*
X179223591Y-68854340D01*
X179223591Y-68957533D01*
X179040702Y-68957533D01*
X179040702Y-68730827D01*
X179058166Y-68678754D01*
X179114683Y-68647320D01*
X180161533Y-68429822D01*
X180177726Y-68431727D01*
G37*
G36*
X179851637Y-70169808D02*
G01*
X179916857Y-70151695D01*
X179975826Y-70125455D01*
X180011665Y-70103447D01*
X180063874Y-70061864D01*
X180108537Y-70013992D01*
X180126606Y-69989776D01*
X180160293Y-69933448D01*
X180186538Y-69872298D01*
X180196142Y-69842449D01*
X180211149Y-69775979D01*
X180218506Y-69707622D01*
X180219321Y-69675436D01*
X180215850Y-69609376D01*
X180209478Y-69568433D01*
X180193196Y-69505745D01*
X180185664Y-69484609D01*
X180156452Y-69426504D01*
X180129464Y-69394752D01*
X180095807Y-69385544D01*
X180032939Y-69394117D01*
X179986581Y-69405230D01*
X179956418Y-69417296D01*
X179939907Y-69431266D01*
X179934826Y-69447777D01*
X179950702Y-69478894D01*
X179985629Y-69528744D01*
X180013458Y-69585890D01*
X180020556Y-69604947D01*
X180034199Y-69668624D01*
X180036431Y-69713855D01*
X180029305Y-69777770D01*
X180025636Y-69791329D01*
X179997860Y-69850473D01*
X179995472Y-69853880D01*
X179948689Y-69898144D01*
X179946892Y-69899284D01*
X179886539Y-69924047D01*
X179882119Y-69925003D01*
X179818064Y-69919831D01*
X179814488Y-69918018D01*
X179765696Y-69875695D01*
X179764321Y-69873883D01*
X179729384Y-69818117D01*
X179723361Y-69806252D01*
X179694535Y-69749256D01*
X179682719Y-69726238D01*
X179648729Y-69669327D01*
X179633822Y-69648130D01*
X179588992Y-69600925D01*
X179568413Y-69585579D01*
X179509570Y-69557569D01*
X179478556Y-69549700D01*
X179413545Y-69546206D01*
X179354090Y-69554462D01*
X179289853Y-69572896D01*
X179232323Y-69599819D01*
X179208033Y-69615108D01*
X179156878Y-69656053D01*
X179113989Y-69703318D01*
X179103253Y-69717983D01*
X179070869Y-69772888D01*
X179046507Y-69833142D01*
X179041020Y-69851340D01*
X179026911Y-69916802D01*
X179020704Y-69983724D01*
X179020381Y-70003112D01*
X179024783Y-70067285D01*
X179027049Y-70081856D01*
X179041809Y-70145339D01*
X179044512Y-70153615D01*
X179069596Y-70210450D01*
X179092457Y-70241566D01*
X179108016Y-70249822D01*
X179124526Y-70251409D01*
X179150245Y-70249504D01*
X179188982Y-70242201D01*
X179232799Y-70231723D01*
X179262328Y-70221245D01*
X179279157Y-70208862D01*
X179284554Y-70192669D01*
X179271854Y-70164728D01*
X179243595Y-70119005D01*
X179217530Y-70058913D01*
X179215971Y-70054232D01*
X179204064Y-69991840D01*
X179203270Y-69968503D01*
X179211642Y-69904634D01*
X179212796Y-69900872D01*
X179238832Y-69848799D01*
X179278839Y-69812285D01*
X179328054Y-69792917D01*
X179392956Y-69798694D01*
X179394732Y-69799585D01*
X179443524Y-69842186D01*
X179444900Y-69844037D01*
X179478824Y-69899341D01*
X179486177Y-69913890D01*
X179514875Y-69971600D01*
X179526819Y-69994539D01*
X179558921Y-70049508D01*
X179575399Y-70073601D01*
X179620229Y-70122139D01*
X179640807Y-70137739D01*
X179699500Y-70166321D01*
X179730346Y-70174253D01*
X179794040Y-70177847D01*
X179851637Y-70169808D01*
G37*
G36*
X179132464Y-71243328D02*
G01*
X179174694Y-71232533D01*
X179202953Y-71220150D01*
X179218511Y-71205862D01*
X179223591Y-71190621D01*
X179223591Y-70907714D01*
X180161215Y-70712760D01*
X180177408Y-70703552D01*
X180189157Y-70682278D01*
X180196459Y-70645446D01*
X180199000Y-70589564D01*
X180196459Y-70534633D01*
X180189157Y-70500659D01*
X180177408Y-70484466D01*
X180161215Y-70482243D01*
X179223591Y-70677198D01*
X179223591Y-70394291D01*
X179218511Y-70380003D01*
X179202953Y-70372700D01*
X179174694Y-70372065D01*
X179132464Y-70378733D01*
X179089282Y-70389846D01*
X179060706Y-70402229D01*
X179045465Y-70415882D01*
X179040702Y-70432076D01*
X179040702Y-71228405D01*
X179045465Y-71241741D01*
X179060706Y-71249679D01*
X179089282Y-71250314D01*
X179132464Y-71243328D01*
G37*
G36*
X180115175Y-72531490D02*
G01*
X180152007Y-72516566D01*
X180178678Y-72492118D01*
X180194237Y-72461001D01*
X180199000Y-72427344D01*
X180199000Y-72329550D01*
X180192649Y-72278112D01*
X180169153Y-72241915D01*
X180123113Y-72215244D01*
X180061160Y-72195729D01*
X180046909Y-72192065D01*
X179485224Y-72026957D01*
X179422964Y-72010591D01*
X179377269Y-71999651D01*
X179312905Y-71986311D01*
X179264233Y-71977742D01*
X179264233Y-71976155D01*
X179330753Y-71965280D01*
X179396955Y-71953611D01*
X179459777Y-71941969D01*
X179524414Y-71929072D01*
X179533169Y-71927257D01*
X180159310Y-71797076D01*
X180175821Y-71788503D01*
X180188521Y-71769452D01*
X180196459Y-71736113D01*
X180199000Y-71684040D01*
X180196459Y-71633873D01*
X180188839Y-71604026D01*
X180176773Y-71590691D01*
X180160580Y-71589738D01*
X179124526Y-71805331D01*
X179067225Y-71835406D01*
X179061658Y-71842163D01*
X179040723Y-71903191D01*
X179040702Y-71905349D01*
X179040702Y-72028545D01*
X179046418Y-72083157D01*
X179065468Y-72119989D01*
X179102618Y-72146026D01*
X179160723Y-72166029D01*
X179581431Y-72298751D01*
X179642718Y-72317116D01*
X179656683Y-72321294D01*
X179718836Y-72339143D01*
X179730346Y-72342250D01*
X179793830Y-72358746D01*
X179802740Y-72360984D01*
X179864973Y-72376611D01*
X179873863Y-72378765D01*
X179873863Y-72379717D01*
X179810598Y-72390274D01*
X179744635Y-72402261D01*
X179678909Y-72415120D01*
X179616358Y-72427662D01*
X179078804Y-72539427D01*
X179062928Y-72548318D01*
X179050545Y-72568639D01*
X179042925Y-72602296D01*
X179040702Y-72654051D01*
X179042925Y-72703583D01*
X179050545Y-72732795D01*
X179063246Y-72745495D01*
X179079122Y-72746765D01*
X180115175Y-72531490D01*
G37*
G36*
X180009443Y-73601835D02*
G01*
X180045639Y-73592945D01*
X180071358Y-73584054D01*
X180089774Y-73573259D01*
X180109778Y-73555160D01*
X180141212Y-73511343D01*
X180170506Y-73454561D01*
X180178361Y-73436092D01*
X180198820Y-73374623D01*
X180207572Y-73338932D01*
X180217382Y-73273573D01*
X180219321Y-73226531D01*
X180215724Y-73156845D01*
X180204933Y-73093051D01*
X180184755Y-73029681D01*
X180182489Y-73024274D01*
X180149775Y-72964933D01*
X180106880Y-72915505D01*
X180072628Y-72888060D01*
X180012722Y-72855748D01*
X179948786Y-72835463D01*
X179890057Y-72825509D01*
X179825601Y-72822063D01*
X179755469Y-72825297D01*
X179688364Y-72833781D01*
X179635092Y-72843608D01*
X179571938Y-72858601D01*
X179503633Y-72879458D01*
X179439455Y-72904284D01*
X179379405Y-72933079D01*
X179372189Y-72936957D01*
X179317020Y-72969641D01*
X179260459Y-73009780D01*
X179209725Y-73053484D01*
X179179139Y-73084602D01*
X179138192Y-73134025D01*
X179099705Y-73192591D01*
X179068599Y-73255003D01*
X179060706Y-73274476D01*
X179039441Y-73341248D01*
X179026052Y-73410190D01*
X179020736Y-73474093D01*
X179020381Y-73495785D01*
X179024646Y-73561004D01*
X179028637Y-73585007D01*
X179045099Y-73648083D01*
X179049910Y-73661210D01*
X179078226Y-73718568D01*
X179080392Y-73721856D01*
X179109921Y-73757100D01*
X179130242Y-73769166D01*
X179151515Y-73771706D01*
X179181679Y-73769483D01*
X179224544Y-73761863D01*
X179271219Y-73750432D01*
X179302335Y-73737732D01*
X179319799Y-73723444D01*
X179325196Y-73708520D01*
X179309638Y-73678674D01*
X179274394Y-73633904D01*
X179244422Y-73577485D01*
X179239467Y-73565003D01*
X179225467Y-73502909D01*
X179223591Y-73463398D01*
X179230577Y-73397990D01*
X179251533Y-73337027D01*
X179285507Y-73281224D01*
X179328316Y-73233666D01*
X179331547Y-73230659D01*
X179385109Y-73188641D01*
X179443661Y-73154712D01*
X179457283Y-73148105D01*
X179520226Y-73122553D01*
X179583816Y-73103524D01*
X179623344Y-73094445D01*
X179689790Y-73083114D01*
X179755002Y-73077771D01*
X179798930Y-73078569D01*
X179862636Y-73088355D01*
X179921173Y-73111591D01*
X179971554Y-73154703D01*
X179992614Y-73188430D01*
X180011613Y-73249166D01*
X180016110Y-73304323D01*
X180011087Y-73369044D01*
X180000235Y-73413548D01*
X179976618Y-73473770D01*
X179964990Y-73497372D01*
X179932023Y-73553762D01*
X179930064Y-73556748D01*
X179914505Y-73591675D01*
X179917998Y-73605010D01*
X179931651Y-73611043D01*
X179960228Y-73610408D01*
X180009443Y-73601835D01*
G37*
G36*
X167706434Y-114417208D02*
G01*
X167688360Y-114350286D01*
X167667355Y-114306810D01*
X167643907Y-114283363D01*
X167619483Y-114276524D01*
X167201339Y-114276524D01*
X167103154Y-113803670D01*
X167091430Y-113779246D01*
X167064563Y-113761172D01*
X167019134Y-113748960D01*
X166951235Y-113745052D01*
X166884801Y-113748960D01*
X166844256Y-113761172D01*
X166824228Y-113779246D01*
X166822274Y-113803670D01*
X166920460Y-114276524D01*
X166503782Y-114276524D01*
X166483265Y-114283363D01*
X166469588Y-114306810D01*
X166466168Y-114350286D01*
X166475450Y-114417208D01*
X166493035Y-114483154D01*
X166513551Y-114527117D01*
X166535533Y-114550565D01*
X166558492Y-114557892D01*
X166979078Y-114557892D01*
X167076775Y-115028304D01*
X167089476Y-115053705D01*
X167116831Y-115073244D01*
X167162260Y-115084968D01*
X167230648Y-115089364D01*
X167297083Y-115084968D01*
X167337627Y-115073244D01*
X167356189Y-115053705D01*
X167357655Y-115028304D01*
X167259958Y-114557892D01*
X167682009Y-114557892D01*
X167701549Y-114550565D01*
X167714249Y-114527117D01*
X167716203Y-114483154D01*
X167706434Y-114417208D01*
G37*
G36*
X172341674Y-114324884D02*
G01*
X172312742Y-114230157D01*
X172303572Y-114213998D01*
X172250816Y-114182735D01*
X171691011Y-114182735D01*
X171649490Y-114214487D01*
X171655386Y-114315294D01*
X171657306Y-114324884D01*
X171686577Y-114419048D01*
X171694431Y-114432351D01*
X171749141Y-114464103D01*
X172308946Y-114464103D01*
X172334347Y-114457264D01*
X172349490Y-114433817D01*
X172351933Y-114390341D01*
X172341674Y-114324884D01*
G37*
D11*
%TO.C,J13*%
X111220000Y-70030000D02*
X113880000Y-70030000D01*
X111220000Y-103110000D02*
X111220000Y-70030000D01*
X111220000Y-103110000D02*
X113880000Y-103110000D01*
X112550000Y-105710000D02*
X113880000Y-105710000D01*
X113880000Y-103110000D02*
X113880000Y-70030000D01*
X113880000Y-105710000D02*
X113880000Y-104380000D01*
%TD*%
M02*
