%TF.GenerationSoftware,KiCad,Pcbnew,8.0.0*%
%TF.CreationDate,2024-06-19T21:37:33+02:00*%
%TF.ProjectId,PCB,5043422e-6b69-4636-9164-5f7063625858,0.1*%
%TF.SameCoordinates,Original*%
%TF.FileFunction,Paste,Top*%
%TF.FilePolarity,Positive*%
%FSLAX46Y46*%
G04 Gerber Fmt 4.6, Leading zero omitted, Abs format (unit mm)*
G04 Created by KiCad (PCBNEW 8.0.0) date 2024-06-19 21:37:33*
%MOMM*%
%LPD*%
G01*
G04 APERTURE LIST*
G04 Aperture macros list*
%AMRoundRect*
0 Rectangle with rounded corners*
0 $1 Rounding radius*
0 $2 $3 $4 $5 $6 $7 $8 $9 X,Y pos of 4 corners*
0 Add a 4 corners polygon primitive as box body*
4,1,4,$2,$3,$4,$5,$6,$7,$8,$9,$2,$3,0*
0 Add four circle primitives for the rounded corners*
1,1,$1+$1,$2,$3*
1,1,$1+$1,$4,$5*
1,1,$1+$1,$6,$7*
1,1,$1+$1,$8,$9*
0 Add four rect primitives between the rounded corners*
20,1,$1+$1,$2,$3,$4,$5,0*
20,1,$1+$1,$4,$5,$6,$7,0*
20,1,$1+$1,$6,$7,$8,$9,0*
20,1,$1+$1,$8,$9,$2,$3,0*%
%AMRotRect*
0 Rectangle, with rotation*
0 The origin of the aperture is its center*
0 $1 length*
0 $2 width*
0 $3 Rotation angle, in degrees counterclockwise*
0 Add horizontal line*
21,1,$1,$2,0,0,$3*%
G04 Aperture macros list end*
%ADD10RoundRect,0.250000X0.325000X0.650000X-0.325000X0.650000X-0.325000X-0.650000X0.325000X-0.650000X0*%
%ADD11RoundRect,0.250000X1.050000X0.550000X-1.050000X0.550000X-1.050000X-0.550000X1.050000X-0.550000X0*%
%ADD12RoundRect,0.200000X0.275000X-0.200000X0.275000X0.200000X-0.275000X0.200000X-0.275000X-0.200000X0*%
%ADD13R,1.000000X0.900000*%
%ADD14RoundRect,0.200000X-0.275000X0.200000X-0.275000X-0.200000X0.275000X-0.200000X0.275000X0.200000X0*%
%ADD15RoundRect,0.200000X0.200000X0.275000X-0.200000X0.275000X-0.200000X-0.275000X0.200000X-0.275000X0*%
%ADD16RoundRect,0.150000X0.150000X0.350000X-0.150000X0.350000X-0.150000X-0.350000X0.150000X-0.350000X0*%
%ADD17RoundRect,0.105000X0.245000X0.105000X-0.245000X0.105000X-0.245000X-0.105000X0.245000X-0.105000X0*%
%ADD18RoundRect,0.140000X0.170000X-0.140000X0.170000X0.140000X-0.170000X0.140000X-0.170000X-0.140000X0*%
%ADD19RoundRect,0.140000X0.021213X-0.219203X0.219203X-0.021213X-0.021213X0.219203X-0.219203X0.021213X0*%
%ADD20RoundRect,0.140000X-0.170000X0.140000X-0.170000X-0.140000X0.170000X-0.140000X0.170000X0.140000X0*%
%ADD21RoundRect,0.218750X-0.256250X0.218750X-0.256250X-0.218750X0.256250X-0.218750X0.256250X0.218750X0*%
%ADD22RoundRect,0.140000X-0.021213X0.219203X-0.219203X0.021213X0.021213X-0.219203X0.219203X-0.021213X0*%
%ADD23RoundRect,0.150000X-0.650000X-0.150000X0.650000X-0.150000X0.650000X0.150000X-0.650000X0.150000X0*%
%ADD24R,1.900000X0.400000*%
%ADD25R,1.150000X0.300000*%
%ADD26RoundRect,0.150000X-0.587500X-0.150000X0.587500X-0.150000X0.587500X0.150000X-0.587500X0.150000X0*%
%ADD27RoundRect,0.250000X-1.000000X-0.650000X1.000000X-0.650000X1.000000X0.650000X-1.000000X0.650000X0*%
%ADD28RoundRect,0.200000X0.053033X-0.335876X0.335876X-0.053033X-0.053033X0.335876X-0.335876X0.053033X0*%
%ADD29RoundRect,0.140000X-0.219203X-0.021213X-0.021213X-0.219203X0.219203X0.021213X0.021213X0.219203X0*%
%ADD30RoundRect,0.200000X-0.200000X-0.275000X0.200000X-0.275000X0.200000X0.275000X-0.200000X0.275000X0*%
%ADD31RoundRect,0.140000X0.219203X0.021213X0.021213X0.219203X-0.219203X-0.021213X-0.021213X-0.219203X0*%
%ADD32RoundRect,0.225000X0.250000X-0.225000X0.250000X0.225000X-0.250000X0.225000X-0.250000X-0.225000X0*%
%ADD33R,1.000000X0.800000*%
%ADD34R,0.700000X1.500000*%
%ADD35RoundRect,0.250000X-0.450000X-0.425000X0.450000X-0.425000X0.450000X0.425000X-0.450000X0.425000X0*%
%ADD36RoundRect,0.225000X-0.225000X-0.250000X0.225000X-0.250000X0.225000X0.250000X-0.225000X0.250000X0*%
%ADD37RoundRect,0.150000X0.150000X-0.825000X0.150000X0.825000X-0.150000X0.825000X-0.150000X-0.825000X0*%
%ADD38RoundRect,0.225000X0.225000X0.250000X-0.225000X0.250000X-0.225000X-0.250000X0.225000X-0.250000X0*%
%ADD39RoundRect,0.249999X-0.512501X-1.075001X0.512501X-1.075001X0.512501X1.075001X-0.512501X1.075001X0*%
%ADD40RotRect,0.400000X1.900000X225.000000*%
%ADD41RoundRect,0.225000X-0.225000X-0.375000X0.225000X-0.375000X0.225000X0.375000X-0.225000X0.375000X0*%
%ADD42R,3.600000X2.700000*%
%ADD43RoundRect,0.225000X-0.017678X0.335876X-0.335876X0.017678X0.017678X-0.335876X0.335876X-0.017678X0*%
%ADD44RoundRect,0.250000X0.455000X-0.280000X0.455000X0.280000X-0.455000X0.280000X-0.455000X-0.280000X0*%
%ADD45RoundRect,0.150000X0.150000X-0.820000X0.150000X0.820000X-0.150000X0.820000X-0.150000X-0.820000X0*%
%ADD46RoundRect,0.250000X0.650000X-1.000000X0.650000X1.000000X-0.650000X1.000000X-0.650000X-1.000000X0*%
%ADD47RoundRect,0.250000X-0.445477X0.000000X0.000000X-0.445477X0.445477X0.000000X0.000000X0.445477X0*%
%ADD48RoundRect,0.062500X-0.309359X0.220971X0.220971X-0.309359X0.309359X-0.220971X-0.220971X0.309359X0*%
%ADD49RoundRect,0.062500X-0.309359X-0.220971X-0.220971X-0.309359X0.309359X0.220971X0.220971X0.309359X0*%
%ADD50RoundRect,0.200000X-0.053033X0.335876X-0.335876X0.053033X0.053033X-0.335876X0.335876X-0.053033X0*%
%ADD51RoundRect,0.150000X-0.825000X-0.150000X0.825000X-0.150000X0.825000X0.150000X-0.825000X0.150000X0*%
%ADD52RoundRect,0.225000X0.335876X0.017678X0.017678X0.335876X-0.335876X-0.017678X-0.017678X-0.335876X0*%
%ADD53RoundRect,0.225000X-0.250000X0.225000X-0.250000X-0.225000X0.250000X-0.225000X0.250000X0.225000X0*%
G04 APERTURE END LIST*
D10*
%TO.C,C33*%
X139995000Y-82290000D03*
X137045000Y-82290000D03*
%TD*%
D11*
%TO.C,C32*%
X123516800Y-97612200D03*
X119916800Y-97612200D03*
%TD*%
D12*
%TO.C,R25*%
X184100000Y-101025000D03*
X184100000Y-99375000D03*
%TD*%
D13*
%TO.C,SW2*%
X197900000Y-61950000D03*
X197900000Y-66050000D03*
X196300000Y-61950000D03*
X196300000Y-66050000D03*
%TD*%
D14*
%TO.C,R5*%
X133400000Y-81125000D03*
X133400000Y-82775000D03*
%TD*%
D15*
%TO.C,R15*%
X146962500Y-103500000D03*
X145312500Y-103500000D03*
%TD*%
D16*
%TO.C,Q5*%
X147500000Y-93730000D03*
X147500000Y-92600000D03*
X146790000Y-93730000D03*
X146790000Y-92600000D03*
D17*
X146020000Y-94140000D03*
X146020000Y-93490000D03*
X146020000Y-92840000D03*
X146020000Y-92190000D03*
X149020000Y-94140000D03*
X149020000Y-93490000D03*
X149020000Y-92840000D03*
X149020000Y-92190000D03*
%TD*%
D15*
%TO.C,R11*%
X135825000Y-103500000D03*
X134175000Y-103500000D03*
%TD*%
D14*
%TO.C,R35*%
X146120000Y-88760000D03*
X146120000Y-90410000D03*
%TD*%
%TO.C,R21*%
X180500000Y-70435000D03*
X180500000Y-72085000D03*
%TD*%
D18*
%TO.C,C10*%
X196095000Y-93180000D03*
X196095000Y-92220000D03*
%TD*%
D12*
%TO.C,R14*%
X123100000Y-90125000D03*
X123100000Y-88475000D03*
%TD*%
D19*
%TO.C,C18*%
X163596508Y-83393771D03*
X164275330Y-82714949D03*
%TD*%
D20*
%TO.C,C22*%
X196095000Y-90220000D03*
X196095000Y-91180000D03*
%TD*%
D19*
%TO.C,C19*%
X167720919Y-79229360D03*
X168399741Y-78550538D03*
%TD*%
D15*
%TO.C,R7*%
X158225000Y-101800000D03*
X156575000Y-101800000D03*
%TD*%
D21*
%TO.C,D7*%
X123100000Y-85352500D03*
X123100000Y-86927500D03*
%TD*%
D14*
%TO.C,R17*%
X163230000Y-65040000D03*
X163230000Y-66690000D03*
%TD*%
%TO.C,R18*%
X183470000Y-70435000D03*
X183470000Y-72085000D03*
%TD*%
D19*
%TO.C,C21*%
X162846508Y-82643771D03*
X163525330Y-81964949D03*
%TD*%
D22*
%TO.C,C12*%
X174739741Y-87000538D03*
X174060919Y-87679360D03*
%TD*%
D15*
%TO.C,R32*%
X199825000Y-73800000D03*
X198175000Y-73800000D03*
%TD*%
D10*
%TO.C,C9*%
X139995000Y-79925000D03*
X137045000Y-79925000D03*
%TD*%
D23*
%TO.C,U7*%
X190780000Y-88805000D03*
X190780000Y-90075000D03*
X190780000Y-91345000D03*
X190780000Y-92615000D03*
X183580000Y-92615000D03*
X183580000Y-91345000D03*
X183580000Y-90075000D03*
X183580000Y-88805000D03*
%TD*%
D24*
%TO.C,Y3*%
X198000000Y-90500000D03*
X198000000Y-91700000D03*
X198000000Y-92900000D03*
%TD*%
D12*
%TO.C,R26*%
X195600000Y-100925000D03*
X195600000Y-99275000D03*
%TD*%
D25*
%TO.C,J14*%
X201830000Y-78150000D03*
X201830000Y-77350000D03*
X201830000Y-76050000D03*
X201830000Y-75050000D03*
X201830000Y-74550000D03*
X201830000Y-73550000D03*
X201830000Y-72250000D03*
X201830000Y-71450000D03*
X201830000Y-71750000D03*
X201830000Y-72550000D03*
X201830000Y-73050000D03*
X201830000Y-74050000D03*
X201830000Y-75550000D03*
X201830000Y-76550000D03*
X201830000Y-77050000D03*
X201830000Y-77850000D03*
%TD*%
D26*
%TO.C,Q2*%
X159962500Y-101750000D03*
X159962500Y-103650000D03*
X161837500Y-102700000D03*
%TD*%
D14*
%TO.C,R36*%
X149320000Y-88760000D03*
X149320000Y-90410000D03*
%TD*%
D27*
%TO.C,D1*%
X122322500Y-105177500D03*
X126322500Y-105177500D03*
%TD*%
D21*
%TO.C,D3*%
X135000000Y-81162500D03*
X135000000Y-82737500D03*
%TD*%
D15*
%TO.C,R9*%
X158225000Y-103600000D03*
X156575000Y-103600000D03*
%TD*%
D12*
%TO.C,R30*%
X197300000Y-85125000D03*
X197300000Y-83475000D03*
%TD*%
%TO.C,R28*%
X181680000Y-89935000D03*
X181680000Y-88285000D03*
%TD*%
D28*
%TO.C,R27*%
X163296637Y-91783363D03*
X164463363Y-90616637D03*
%TD*%
D29*
%TO.C,C24*%
X166660919Y-91700538D03*
X167339741Y-92379360D03*
%TD*%
D30*
%TO.C,R1*%
X124275000Y-82750000D03*
X125925000Y-82750000D03*
%TD*%
D22*
%TO.C,C20*%
X163114005Y-77174802D03*
X162435183Y-77853624D03*
%TD*%
D31*
%TO.C,C16*%
X168039741Y-91679360D03*
X167360919Y-91000538D03*
%TD*%
D32*
%TO.C,C1*%
X184100000Y-104375000D03*
X184100000Y-102825000D03*
%TD*%
D12*
%TO.C,R4*%
X131900000Y-82775000D03*
X131900000Y-81125000D03*
%TD*%
D14*
%TO.C,R8*%
X186600000Y-70435000D03*
X186600000Y-72085000D03*
%TD*%
D33*
%TO.C,SW1*%
X165860000Y-62625000D03*
X165860000Y-60415000D03*
X158560000Y-62625000D03*
X158560000Y-60415000D03*
D34*
X164460000Y-63275000D03*
X161460000Y-63275000D03*
X159960000Y-63275000D03*
%TD*%
D29*
%TO.C,C15*%
X170160919Y-80300538D03*
X170839741Y-80979360D03*
%TD*%
D14*
%TO.C,R3*%
X130400000Y-81125000D03*
X130400000Y-82775000D03*
%TD*%
D15*
%TO.C,R10*%
X169362500Y-103650000D03*
X167712500Y-103650000D03*
%TD*%
%TO.C,R6*%
X169362500Y-101850000D03*
X167712500Y-101850000D03*
%TD*%
D32*
%TO.C,C7*%
X128900000Y-82725000D03*
X128900000Y-81175000D03*
%TD*%
D35*
%TO.C,C5*%
X126650000Y-92950000D03*
X129350000Y-92950000D03*
%TD*%
D36*
%TO.C,C3*%
X191325000Y-106000000D03*
X192875000Y-106000000D03*
%TD*%
D37*
%TO.C,U1*%
X178695000Y-103875000D03*
X179965000Y-103875000D03*
X181235000Y-103875000D03*
X182505000Y-103875000D03*
X182505000Y-98925000D03*
X181235000Y-98925000D03*
X179965000Y-98925000D03*
X178695000Y-98925000D03*
%TD*%
D14*
%TO.C,R29*%
X199100000Y-83475000D03*
X199100000Y-85125000D03*
%TD*%
D15*
%TO.C,R12*%
X135825000Y-101700000D03*
X134175000Y-101700000D03*
%TD*%
D38*
%TO.C,C26*%
X175755000Y-91240000D03*
X174205000Y-91240000D03*
%TD*%
D39*
%TO.C,F1*%
X122062500Y-101700000D03*
X126737500Y-101700000D03*
%TD*%
D36*
%TO.C,C27*%
X197425000Y-87300000D03*
X198975000Y-87300000D03*
%TD*%
D40*
%TO.C,Y1*%
X164223122Y-78565685D03*
X163374594Y-79414213D03*
X162526066Y-80262741D03*
%TD*%
D15*
%TO.C,R31*%
X199825000Y-75400000D03*
X198175000Y-75400000D03*
%TD*%
D41*
%TO.C,D4*%
X134250000Y-105700000D03*
X137550000Y-105700000D03*
%TD*%
D36*
%TO.C,C2*%
X179825000Y-106100000D03*
X181375000Y-106100000D03*
%TD*%
D32*
%TO.C,C13*%
X116760000Y-104345000D03*
X116760000Y-102795000D03*
%TD*%
D14*
%TO.C,R33*%
X150920000Y-88760000D03*
X150920000Y-90410000D03*
%TD*%
D12*
%TO.C,R23*%
X135000000Y-79625000D03*
X135000000Y-77975000D03*
%TD*%
D19*
%TO.C,C11*%
X168470919Y-79979360D03*
X169149741Y-79300538D03*
%TD*%
D26*
%TO.C,Q3*%
X137662500Y-101650000D03*
X137662500Y-103550000D03*
X139537500Y-102600000D03*
%TD*%
D36*
%TO.C,C23*%
X203025000Y-81875000D03*
X204575000Y-81875000D03*
%TD*%
D26*
%TO.C,Q1*%
X171100000Y-101800000D03*
X171100000Y-103700000D03*
X172975000Y-102750000D03*
%TD*%
D42*
%TO.C,L1*%
X139500000Y-93500000D03*
X139500000Y-85200000D03*
%TD*%
D12*
%TO.C,TH1*%
X185700000Y-104425000D03*
X185700000Y-102775000D03*
%TD*%
D19*
%TO.C,C25*%
X161135183Y-79153624D03*
X161814005Y-78474802D03*
%TD*%
D43*
%TO.C,C29*%
X167428008Y-77111992D03*
X166331992Y-78208008D03*
%TD*%
D44*
%TO.C,U4*%
X126700000Y-88450000D03*
X128450000Y-88450000D03*
X126700000Y-87140000D03*
X128450000Y-87140000D03*
D45*
X125670000Y-90275000D03*
X126940000Y-90275000D03*
X128210000Y-90275000D03*
X129480000Y-90275000D03*
X129480000Y-85315000D03*
X128210000Y-85315000D03*
X126940000Y-85315000D03*
X125670000Y-85315000D03*
%TD*%
D46*
%TO.C,D2*%
X132200000Y-91350000D03*
X132200000Y-87350000D03*
%TD*%
D47*
%TO.C,U5*%
X169050330Y-83030152D03*
X168060381Y-84020101D03*
X167070431Y-85010051D03*
X166080482Y-86000000D03*
X170040279Y-84020101D03*
X169050330Y-85010051D03*
X168060381Y-86000000D03*
X167070431Y-86989949D03*
X171030229Y-85010051D03*
X170040279Y-86000000D03*
X169050330Y-86989949D03*
X168060381Y-87979899D03*
X172020178Y-86000000D03*
X171030229Y-86989949D03*
X170040279Y-87979899D03*
X169050330Y-88969848D03*
D48*
X168564194Y-81624777D03*
X168210641Y-81978330D03*
X167857087Y-82331884D03*
X167503534Y-82685437D03*
X167149981Y-83038990D03*
X166796427Y-83392544D03*
X166442874Y-83746097D03*
X166089320Y-84099651D03*
X165735767Y-84453204D03*
X165382214Y-84806757D03*
X165028660Y-85160311D03*
X164675107Y-85513864D03*
D49*
X164675107Y-86486136D03*
X165028660Y-86839689D03*
X165382214Y-87193243D03*
X165735767Y-87546796D03*
X166089320Y-87900349D03*
X166442874Y-88253903D03*
X166796427Y-88607456D03*
X167149981Y-88961010D03*
X167503534Y-89314563D03*
X167857087Y-89668116D03*
X168210641Y-90021670D03*
X168564194Y-90375223D03*
D48*
X169536466Y-90375223D03*
X169890019Y-90021670D03*
X170243573Y-89668116D03*
X170597126Y-89314563D03*
X170950679Y-88961010D03*
X171304233Y-88607456D03*
X171657786Y-88253903D03*
X172011340Y-87900349D03*
X172364893Y-87546796D03*
X172718446Y-87193243D03*
X173072000Y-86839689D03*
X173425553Y-86486136D03*
D49*
X173425553Y-85513864D03*
X173072000Y-85160311D03*
X172718446Y-84806757D03*
X172364893Y-84453204D03*
X172011340Y-84099651D03*
X171657786Y-83746097D03*
X171304233Y-83392544D03*
X170950679Y-83038990D03*
X170597126Y-82685437D03*
X170243573Y-82331884D03*
X169890019Y-81978330D03*
X169536466Y-81624777D03*
%TD*%
D14*
%TO.C,R2*%
X127400000Y-81125000D03*
X127400000Y-82775000D03*
%TD*%
D37*
%TO.C,U2*%
X190195000Y-103875000D03*
X191465000Y-103875000D03*
X192735000Y-103875000D03*
X194005000Y-103875000D03*
X194005000Y-98925000D03*
X192735000Y-98925000D03*
X191465000Y-98925000D03*
X190195000Y-98925000D03*
%TD*%
D50*
%TO.C,R13*%
X166073363Y-75706637D03*
X164906637Y-76873363D03*
%TD*%
D36*
%TO.C,C31*%
X201435000Y-68420000D03*
X202985000Y-68420000D03*
%TD*%
D51*
%TO.C,U6*%
X201600000Y-83480000D03*
X201600000Y-84750000D03*
X201600000Y-86020000D03*
X201600000Y-87290000D03*
X201600000Y-88560000D03*
X201600000Y-89830000D03*
X201600000Y-91100000D03*
X201600000Y-92370000D03*
X206550000Y-92370000D03*
X206550000Y-91100000D03*
X206550000Y-89830000D03*
X206550000Y-88560000D03*
X206550000Y-87290000D03*
X206550000Y-86020000D03*
X206550000Y-84750000D03*
X206550000Y-83480000D03*
%TD*%
D52*
%TO.C,C30*%
X166029008Y-93283408D03*
X164932992Y-92187392D03*
%TD*%
D15*
%TO.C,R16*%
X146962500Y-101700000D03*
X145312500Y-101700000D03*
%TD*%
D30*
%TO.C,R20*%
X198175000Y-72200000D03*
X199825000Y-72200000D03*
%TD*%
D36*
%TO.C,C17*%
X196280000Y-67750000D03*
X197830000Y-67750000D03*
%TD*%
D41*
%TO.C,D8*%
X156650000Y-105700000D03*
X159950000Y-105700000D03*
%TD*%
D14*
%TO.C,R22*%
X177500000Y-70445000D03*
X177500000Y-72095000D03*
%TD*%
D53*
%TO.C,C8*%
X124800000Y-92375000D03*
X124800000Y-93925000D03*
%TD*%
D26*
%TO.C,Q4*%
X148762500Y-101650000D03*
X148762500Y-103550000D03*
X150637500Y-102600000D03*
%TD*%
D30*
%TO.C,R19*%
X198175000Y-77000000D03*
X199825000Y-77000000D03*
%TD*%
D32*
%TO.C,C4*%
X195600000Y-104375000D03*
X195600000Y-102825000D03*
%TD*%
D41*
%TO.C,D6*%
X167750000Y-105700000D03*
X171050000Y-105700000D03*
%TD*%
%TO.C,D5*%
X145350000Y-105700000D03*
X148650000Y-105700000D03*
%TD*%
D12*
%TO.C,R34*%
X147720000Y-90410000D03*
X147720000Y-88760000D03*
%TD*%
D32*
%TO.C,C14*%
X115200000Y-104345000D03*
X115200000Y-102795000D03*
%TD*%
D15*
%TO.C,R38*%
X206085000Y-68420000D03*
X204435000Y-68420000D03*
%TD*%
D50*
%TO.C,R37*%
X161903363Y-81856637D03*
X160736637Y-83023363D03*
%TD*%
D12*
%TO.C,R24*%
X187334997Y-104417768D03*
X187334997Y-102767768D03*
%TD*%
D32*
%TO.C,C28*%
X181680000Y-92985000D03*
X181680000Y-91435000D03*
%TD*%
D36*
%TO.C,C6*%
X124325000Y-81150000D03*
X125875000Y-81150000D03*
%TD*%
M02*
